G75*
%MOIN*%
%OFA0B0*%
%FSLAX24Y24*%
%IPPOS*%
%LPD*%
%AMOC8*
5,1,8,0,0,1.08239X$1,22.5*
%
%ADD10C,0.0000*%
D10*
X001952Y000311D02*
X021552Y000311D01*
X021602Y000313D01*
X021652Y000318D01*
X021701Y000327D01*
X021749Y000339D01*
X021797Y000355D01*
X021843Y000374D01*
X021887Y000397D01*
X021930Y000422D01*
X021971Y000451D01*
X022010Y000482D01*
X022047Y000516D01*
X022081Y000553D01*
X022112Y000592D01*
X022141Y000633D01*
X022166Y000676D01*
X022189Y000720D01*
X022208Y000766D01*
X022224Y000814D01*
X022236Y000862D01*
X022245Y000911D01*
X022250Y000961D01*
X022252Y001011D01*
X022252Y011611D01*
X022250Y011661D01*
X022245Y011711D01*
X022236Y011760D01*
X022224Y011808D01*
X022208Y011856D01*
X022189Y011902D01*
X022166Y011946D01*
X022141Y011989D01*
X022112Y012030D01*
X022081Y012069D01*
X022047Y012106D01*
X022010Y012140D01*
X021971Y012171D01*
X021930Y012200D01*
X021887Y012225D01*
X021843Y012248D01*
X021797Y012267D01*
X021749Y012283D01*
X021701Y012295D01*
X021652Y012304D01*
X021602Y012309D01*
X021552Y012311D01*
X001952Y012311D01*
X001902Y012309D01*
X001852Y012304D01*
X001803Y012295D01*
X001755Y012283D01*
X001707Y012267D01*
X001661Y012248D01*
X001617Y012225D01*
X001574Y012200D01*
X001533Y012171D01*
X001494Y012140D01*
X001457Y012106D01*
X001423Y012069D01*
X001392Y012030D01*
X001363Y011989D01*
X001338Y011946D01*
X001315Y011902D01*
X001296Y011856D01*
X001280Y011808D01*
X001268Y011760D01*
X001259Y011711D01*
X001254Y011661D01*
X001252Y011611D01*
X001252Y001011D01*
X001254Y000961D01*
X001259Y000911D01*
X001268Y000862D01*
X001280Y000814D01*
X001296Y000766D01*
X001315Y000720D01*
X001338Y000676D01*
X001363Y000633D01*
X001392Y000592D01*
X001423Y000553D01*
X001457Y000516D01*
X001494Y000482D01*
X001533Y000451D01*
X001574Y000422D01*
X001617Y000397D01*
X001661Y000374D01*
X001707Y000355D01*
X001755Y000339D01*
X001803Y000327D01*
X001852Y000318D01*
X001902Y000313D01*
X001952Y000311D01*
X001708Y001061D02*
X001710Y001100D01*
X001716Y001139D01*
X001726Y001177D01*
X001739Y001214D01*
X001756Y001249D01*
X001776Y001283D01*
X001800Y001314D01*
X001827Y001343D01*
X001856Y001369D01*
X001888Y001392D01*
X001922Y001412D01*
X001958Y001428D01*
X001995Y001440D01*
X002034Y001449D01*
X002073Y001454D01*
X002112Y001455D01*
X002151Y001452D01*
X002190Y001445D01*
X002227Y001434D01*
X002264Y001420D01*
X002299Y001402D01*
X002332Y001381D01*
X002363Y001356D01*
X002391Y001329D01*
X002416Y001299D01*
X002438Y001266D01*
X002457Y001232D01*
X002472Y001196D01*
X002484Y001158D01*
X002492Y001120D01*
X002496Y001081D01*
X002496Y001041D01*
X002492Y001002D01*
X002484Y000964D01*
X002472Y000926D01*
X002457Y000890D01*
X002438Y000856D01*
X002416Y000823D01*
X002391Y000793D01*
X002363Y000766D01*
X002332Y000741D01*
X002299Y000720D01*
X002264Y000702D01*
X002227Y000688D01*
X002190Y000677D01*
X002151Y000670D01*
X002112Y000667D01*
X002073Y000668D01*
X002034Y000673D01*
X001995Y000682D01*
X001958Y000694D01*
X001922Y000710D01*
X001888Y000730D01*
X001856Y000753D01*
X001827Y000779D01*
X001800Y000808D01*
X001776Y000839D01*
X001756Y000873D01*
X001739Y000908D01*
X001726Y000945D01*
X001716Y000983D01*
X001710Y001022D01*
X001708Y001061D01*
X017708Y001061D02*
X017710Y001100D01*
X017716Y001139D01*
X017726Y001177D01*
X017739Y001214D01*
X017756Y001249D01*
X017776Y001283D01*
X017800Y001314D01*
X017827Y001343D01*
X017856Y001369D01*
X017888Y001392D01*
X017922Y001412D01*
X017958Y001428D01*
X017995Y001440D01*
X018034Y001449D01*
X018073Y001454D01*
X018112Y001455D01*
X018151Y001452D01*
X018190Y001445D01*
X018227Y001434D01*
X018264Y001420D01*
X018299Y001402D01*
X018332Y001381D01*
X018363Y001356D01*
X018391Y001329D01*
X018416Y001299D01*
X018438Y001266D01*
X018457Y001232D01*
X018472Y001196D01*
X018484Y001158D01*
X018492Y001120D01*
X018496Y001081D01*
X018496Y001041D01*
X018492Y001002D01*
X018484Y000964D01*
X018472Y000926D01*
X018457Y000890D01*
X018438Y000856D01*
X018416Y000823D01*
X018391Y000793D01*
X018363Y000766D01*
X018332Y000741D01*
X018299Y000720D01*
X018264Y000702D01*
X018227Y000688D01*
X018190Y000677D01*
X018151Y000670D01*
X018112Y000667D01*
X018073Y000668D01*
X018034Y000673D01*
X017995Y000682D01*
X017958Y000694D01*
X017922Y000710D01*
X017888Y000730D01*
X017856Y000753D01*
X017827Y000779D01*
X017800Y000808D01*
X017776Y000839D01*
X017756Y000873D01*
X017739Y000908D01*
X017726Y000945D01*
X017716Y000983D01*
X017710Y001022D01*
X017708Y001061D01*
X017708Y011561D02*
X017710Y011600D01*
X017716Y011639D01*
X017726Y011677D01*
X017739Y011714D01*
X017756Y011749D01*
X017776Y011783D01*
X017800Y011814D01*
X017827Y011843D01*
X017856Y011869D01*
X017888Y011892D01*
X017922Y011912D01*
X017958Y011928D01*
X017995Y011940D01*
X018034Y011949D01*
X018073Y011954D01*
X018112Y011955D01*
X018151Y011952D01*
X018190Y011945D01*
X018227Y011934D01*
X018264Y011920D01*
X018299Y011902D01*
X018332Y011881D01*
X018363Y011856D01*
X018391Y011829D01*
X018416Y011799D01*
X018438Y011766D01*
X018457Y011732D01*
X018472Y011696D01*
X018484Y011658D01*
X018492Y011620D01*
X018496Y011581D01*
X018496Y011541D01*
X018492Y011502D01*
X018484Y011464D01*
X018472Y011426D01*
X018457Y011390D01*
X018438Y011356D01*
X018416Y011323D01*
X018391Y011293D01*
X018363Y011266D01*
X018332Y011241D01*
X018299Y011220D01*
X018264Y011202D01*
X018227Y011188D01*
X018190Y011177D01*
X018151Y011170D01*
X018112Y011167D01*
X018073Y011168D01*
X018034Y011173D01*
X017995Y011182D01*
X017958Y011194D01*
X017922Y011210D01*
X017888Y011230D01*
X017856Y011253D01*
X017827Y011279D01*
X017800Y011308D01*
X017776Y011339D01*
X017756Y011373D01*
X017739Y011408D01*
X017726Y011445D01*
X017716Y011483D01*
X017710Y011522D01*
X017708Y011561D01*
X001708Y011561D02*
X001710Y011600D01*
X001716Y011639D01*
X001726Y011677D01*
X001739Y011714D01*
X001756Y011749D01*
X001776Y011783D01*
X001800Y011814D01*
X001827Y011843D01*
X001856Y011869D01*
X001888Y011892D01*
X001922Y011912D01*
X001958Y011928D01*
X001995Y011940D01*
X002034Y011949D01*
X002073Y011954D01*
X002112Y011955D01*
X002151Y011952D01*
X002190Y011945D01*
X002227Y011934D01*
X002264Y011920D01*
X002299Y011902D01*
X002332Y011881D01*
X002363Y011856D01*
X002391Y011829D01*
X002416Y011799D01*
X002438Y011766D01*
X002457Y011732D01*
X002472Y011696D01*
X002484Y011658D01*
X002492Y011620D01*
X002496Y011581D01*
X002496Y011541D01*
X002492Y011502D01*
X002484Y011464D01*
X002472Y011426D01*
X002457Y011390D01*
X002438Y011356D01*
X002416Y011323D01*
X002391Y011293D01*
X002363Y011266D01*
X002332Y011241D01*
X002299Y011220D01*
X002264Y011202D01*
X002227Y011188D01*
X002190Y011177D01*
X002151Y011170D01*
X002112Y011167D01*
X002073Y011168D01*
X002034Y011173D01*
X001995Y011182D01*
X001958Y011194D01*
X001922Y011210D01*
X001888Y011230D01*
X001856Y011253D01*
X001827Y011279D01*
X001800Y011308D01*
X001776Y011339D01*
X001756Y011373D01*
X001739Y011408D01*
X001726Y011445D01*
X001716Y011483D01*
X001710Y011522D01*
X001708Y011561D01*
M02*
