G75*
%MOIN*%
%OFA0B0*%
%FSLAX24Y24*%
%IPPOS*%
%LPD*%
%AMOC8*
5,1,8,0,0,1.08239X$1,22.5*
%
%ADD10C,0.0088*%
%ADD11R,0.0118X0.0390*%
%ADD12R,0.0472X0.1181*%
%ADD13R,0.1181X0.0472*%
%ADD14R,0.0500X0.0800*%
%ADD15R,0.0220X0.0500*%
%ADD16C,0.0075*%
%ADD17R,0.0750X0.0460*%
%ADD18R,0.0217X0.0472*%
%ADD19R,0.0550X0.0550*%
%ADD20R,0.0800X0.0500*%
%ADD21R,0.0870X0.0240*%
%ADD22R,0.1811X0.0394*%
%ADD23R,0.1181X0.0630*%
D10*
X007083Y002480D02*
X007083Y002742D01*
X007083Y002480D02*
X006821Y002480D01*
X006821Y002742D01*
X007083Y002742D01*
X007083Y002567D02*
X006821Y002567D01*
X006821Y002654D02*
X007083Y002654D01*
X007083Y002741D02*
X006821Y002741D01*
X007083Y003080D02*
X007083Y003342D01*
X007083Y003080D02*
X006821Y003080D01*
X006821Y003342D01*
X007083Y003342D01*
X007083Y003167D02*
X006821Y003167D01*
X006821Y003254D02*
X007083Y003254D01*
X007083Y003341D02*
X006821Y003341D01*
X008083Y003342D02*
X008083Y003080D01*
X007821Y003080D01*
X007821Y003342D01*
X008083Y003342D01*
X008083Y003167D02*
X007821Y003167D01*
X007821Y003254D02*
X008083Y003254D01*
X008083Y003341D02*
X007821Y003341D01*
X007821Y003680D02*
X007821Y003942D01*
X008083Y003942D01*
X008083Y003680D01*
X007821Y003680D01*
X007821Y003767D02*
X008083Y003767D01*
X008083Y003854D02*
X007821Y003854D01*
X007821Y003941D02*
X008083Y003941D01*
X007821Y004280D02*
X007821Y004542D01*
X008083Y004542D01*
X008083Y004280D01*
X007821Y004280D01*
X007821Y004367D02*
X008083Y004367D01*
X008083Y004454D02*
X007821Y004454D01*
X007821Y004541D02*
X008083Y004541D01*
X007883Y005480D02*
X007621Y005480D01*
X007621Y005742D01*
X007883Y005742D01*
X007883Y005480D01*
X007883Y005567D02*
X007621Y005567D01*
X007621Y005654D02*
X007883Y005654D01*
X007883Y005741D02*
X007621Y005741D01*
X007283Y005480D02*
X007021Y005480D01*
X007021Y005742D01*
X007283Y005742D01*
X007283Y005480D01*
X007283Y005567D02*
X007021Y005567D01*
X007021Y005654D02*
X007283Y005654D01*
X007283Y005741D02*
X007021Y005741D01*
X007021Y006080D02*
X007283Y006080D01*
X007021Y006080D02*
X007021Y006342D01*
X007283Y006342D01*
X007283Y006080D01*
X007283Y006167D02*
X007021Y006167D01*
X007021Y006254D02*
X007283Y006254D01*
X007283Y006341D02*
X007021Y006341D01*
X007621Y006080D02*
X007883Y006080D01*
X007621Y006080D02*
X007621Y006342D01*
X007883Y006342D01*
X007883Y006080D01*
X007883Y006167D02*
X007621Y006167D01*
X007621Y006254D02*
X007883Y006254D01*
X007883Y006341D02*
X007621Y006341D01*
X007521Y006880D02*
X007783Y006880D01*
X007521Y006880D02*
X007521Y007142D01*
X007783Y007142D01*
X007783Y006880D01*
X007783Y006967D02*
X007521Y006967D01*
X007521Y007054D02*
X007783Y007054D01*
X007783Y007141D02*
X007521Y007141D01*
X008121Y006880D02*
X008383Y006880D01*
X008121Y006880D02*
X008121Y007142D01*
X008383Y007142D01*
X008383Y006880D01*
X008383Y006967D02*
X008121Y006967D01*
X008121Y007054D02*
X008383Y007054D01*
X008383Y007141D02*
X008121Y007141D01*
X006833Y007242D02*
X006833Y006980D01*
X006571Y006980D01*
X006571Y007242D01*
X006833Y007242D01*
X006833Y007067D02*
X006571Y007067D01*
X006571Y007154D02*
X006833Y007154D01*
X006833Y007241D02*
X006571Y007241D01*
X006833Y007580D02*
X006833Y007842D01*
X006833Y007580D02*
X006571Y007580D01*
X006571Y007842D01*
X006833Y007842D01*
X006833Y007667D02*
X006571Y007667D01*
X006571Y007754D02*
X006833Y007754D01*
X006833Y007841D02*
X006571Y007841D01*
X009283Y008580D02*
X009283Y008842D01*
X009283Y008580D02*
X009021Y008580D01*
X009021Y008842D01*
X009283Y008842D01*
X009283Y008667D02*
X009021Y008667D01*
X009021Y008754D02*
X009283Y008754D01*
X009283Y008841D02*
X009021Y008841D01*
X009283Y009180D02*
X009283Y009442D01*
X009283Y009180D02*
X009021Y009180D01*
X009021Y009442D01*
X009283Y009442D01*
X009283Y009267D02*
X009021Y009267D01*
X009021Y009354D02*
X009283Y009354D01*
X009283Y009441D02*
X009021Y009441D01*
X008383Y009680D02*
X008121Y009680D01*
X008121Y009942D01*
X008383Y009942D01*
X008383Y009680D01*
X008383Y009767D02*
X008121Y009767D01*
X008121Y009854D02*
X008383Y009854D01*
X008383Y009941D02*
X008121Y009941D01*
X007783Y009680D02*
X007521Y009680D01*
X007521Y009942D01*
X007783Y009942D01*
X007783Y009680D01*
X007783Y009767D02*
X007521Y009767D01*
X007521Y009854D02*
X007783Y009854D01*
X007783Y009941D02*
X007521Y009941D01*
X006183Y010142D02*
X005921Y010142D01*
X006183Y010142D02*
X006183Y009880D01*
X005921Y009880D01*
X005921Y010142D01*
X005921Y009967D02*
X006183Y009967D01*
X006183Y010054D02*
X005921Y010054D01*
X005921Y010141D02*
X006183Y010141D01*
X005583Y010142D02*
X005321Y010142D01*
X005583Y010142D02*
X005583Y009880D01*
X005321Y009880D01*
X005321Y010142D01*
X005321Y009967D02*
X005583Y009967D01*
X005583Y010054D02*
X005321Y010054D01*
X005321Y010141D02*
X005583Y010141D01*
X005583Y009180D02*
X005321Y009180D01*
X005321Y009442D01*
X005583Y009442D01*
X005583Y009180D01*
X005583Y009267D02*
X005321Y009267D01*
X005321Y009354D02*
X005583Y009354D01*
X005583Y009441D02*
X005321Y009441D01*
X005921Y009180D02*
X006183Y009180D01*
X005921Y009180D02*
X005921Y009442D01*
X006183Y009442D01*
X006183Y009180D01*
X006183Y009267D02*
X005921Y009267D01*
X005921Y009354D02*
X006183Y009354D01*
X006183Y009441D02*
X005921Y009441D01*
X003883Y009180D02*
X003621Y009180D01*
X003621Y009442D01*
X003883Y009442D01*
X003883Y009180D01*
X003883Y009267D02*
X003621Y009267D01*
X003621Y009354D02*
X003883Y009354D01*
X003883Y009441D02*
X003621Y009441D01*
X003283Y009180D02*
X003021Y009180D01*
X003021Y009442D01*
X003283Y009442D01*
X003283Y009180D01*
X003283Y009267D02*
X003021Y009267D01*
X003021Y009354D02*
X003283Y009354D01*
X003283Y009441D02*
X003021Y009441D01*
X003021Y010180D02*
X003283Y010180D01*
X003021Y010180D02*
X003021Y010442D01*
X003283Y010442D01*
X003283Y010180D01*
X003283Y010267D02*
X003021Y010267D01*
X003021Y010354D02*
X003283Y010354D01*
X003283Y010441D02*
X003021Y010441D01*
X003621Y010180D02*
X003883Y010180D01*
X003621Y010180D02*
X003621Y010442D01*
X003883Y010442D01*
X003883Y010180D01*
X003883Y010267D02*
X003621Y010267D01*
X003621Y010354D02*
X003883Y010354D01*
X003883Y010441D02*
X003621Y010441D01*
X003621Y011142D02*
X003883Y011142D01*
X003883Y010880D01*
X003621Y010880D01*
X003621Y011142D01*
X003621Y010967D02*
X003883Y010967D01*
X003883Y011054D02*
X003621Y011054D01*
X003621Y011141D02*
X003883Y011141D01*
X003283Y011142D02*
X003021Y011142D01*
X003283Y011142D02*
X003283Y010880D01*
X003021Y010880D01*
X003021Y011142D01*
X003021Y010967D02*
X003283Y010967D01*
X003283Y011054D02*
X003021Y011054D01*
X003021Y011141D02*
X003283Y011141D01*
X009921Y009442D02*
X009921Y009180D01*
X009921Y009442D02*
X010183Y009442D01*
X010183Y009180D01*
X009921Y009180D01*
X009921Y009267D02*
X010183Y009267D01*
X010183Y009354D02*
X009921Y009354D01*
X009921Y009441D02*
X010183Y009441D01*
X010921Y009442D02*
X010921Y009180D01*
X010921Y009442D02*
X011183Y009442D01*
X011183Y009180D01*
X010921Y009180D01*
X010921Y009267D02*
X011183Y009267D01*
X011183Y009354D02*
X010921Y009354D01*
X010921Y009441D02*
X011183Y009441D01*
X011621Y009442D02*
X011621Y009180D01*
X011621Y009442D02*
X011883Y009442D01*
X011883Y009180D01*
X011621Y009180D01*
X011621Y009267D02*
X011883Y009267D01*
X011883Y009354D02*
X011621Y009354D01*
X011621Y009441D02*
X011883Y009441D01*
X012583Y009442D02*
X012583Y009180D01*
X012321Y009180D01*
X012321Y009442D01*
X012583Y009442D01*
X012583Y009267D02*
X012321Y009267D01*
X012321Y009354D02*
X012583Y009354D01*
X012583Y009441D02*
X012321Y009441D01*
X013283Y009442D02*
X013283Y009180D01*
X013021Y009180D01*
X013021Y009442D01*
X013283Y009442D01*
X013283Y009267D02*
X013021Y009267D01*
X013021Y009354D02*
X013283Y009354D01*
X013283Y009441D02*
X013021Y009441D01*
X013283Y008842D02*
X013283Y008580D01*
X013021Y008580D01*
X013021Y008842D01*
X013283Y008842D01*
X013283Y008667D02*
X013021Y008667D01*
X013021Y008754D02*
X013283Y008754D01*
X013283Y008841D02*
X013021Y008841D01*
X012583Y008842D02*
X012583Y008580D01*
X012321Y008580D01*
X012321Y008842D01*
X012583Y008842D01*
X012583Y008667D02*
X012321Y008667D01*
X012321Y008754D02*
X012583Y008754D01*
X012583Y008841D02*
X012321Y008841D01*
X011621Y008842D02*
X011621Y008580D01*
X011621Y008842D02*
X011883Y008842D01*
X011883Y008580D01*
X011621Y008580D01*
X011621Y008667D02*
X011883Y008667D01*
X011883Y008754D02*
X011621Y008754D01*
X011621Y008841D02*
X011883Y008841D01*
X010921Y008842D02*
X010921Y008580D01*
X010921Y008842D02*
X011183Y008842D01*
X011183Y008580D01*
X010921Y008580D01*
X010921Y008667D02*
X011183Y008667D01*
X011183Y008754D02*
X010921Y008754D01*
X010921Y008841D02*
X011183Y008841D01*
X009921Y008842D02*
X009921Y008580D01*
X009921Y008842D02*
X010183Y008842D01*
X010183Y008580D01*
X009921Y008580D01*
X009921Y008667D02*
X010183Y008667D01*
X010183Y008754D02*
X009921Y008754D01*
X009921Y008841D02*
X010183Y008841D01*
X014821Y009280D02*
X014821Y009542D01*
X015083Y009542D01*
X015083Y009280D01*
X014821Y009280D01*
X014821Y009367D02*
X015083Y009367D01*
X015083Y009454D02*
X014821Y009454D01*
X014821Y009541D02*
X015083Y009541D01*
X014821Y009880D02*
X014821Y010142D01*
X015083Y010142D01*
X015083Y009880D01*
X014821Y009880D01*
X014821Y009967D02*
X015083Y009967D01*
X015083Y010054D02*
X014821Y010054D01*
X014821Y010141D02*
X015083Y010141D01*
X011183Y005142D02*
X011183Y004880D01*
X010921Y004880D01*
X010921Y005142D01*
X011183Y005142D01*
X011183Y004967D02*
X010921Y004967D01*
X010921Y005054D02*
X011183Y005054D01*
X011183Y005141D02*
X010921Y005141D01*
X011183Y004542D02*
X011183Y004280D01*
X010921Y004280D01*
X010921Y004542D01*
X011183Y004542D01*
X011183Y004367D02*
X010921Y004367D01*
X010921Y004454D02*
X011183Y004454D01*
X011183Y004541D02*
X010921Y004541D01*
X010821Y003342D02*
X010821Y003080D01*
X010821Y003342D02*
X011083Y003342D01*
X011083Y003080D01*
X010821Y003080D01*
X010821Y003167D02*
X011083Y003167D01*
X011083Y003254D02*
X010821Y003254D01*
X010821Y003341D02*
X011083Y003341D01*
X012083Y003342D02*
X012083Y003080D01*
X011821Y003080D01*
X011821Y003342D01*
X012083Y003342D01*
X012083Y003167D02*
X011821Y003167D01*
X011821Y003254D02*
X012083Y003254D01*
X012083Y003341D02*
X011821Y003341D01*
X013083Y003342D02*
X013083Y003080D01*
X012821Y003080D01*
X012821Y003342D01*
X013083Y003342D01*
X013083Y003167D02*
X012821Y003167D01*
X012821Y003254D02*
X013083Y003254D01*
X013083Y003341D02*
X012821Y003341D01*
X013821Y003342D02*
X013821Y003080D01*
X013821Y003342D02*
X014083Y003342D01*
X014083Y003080D01*
X013821Y003080D01*
X013821Y003167D02*
X014083Y003167D01*
X014083Y003254D02*
X013821Y003254D01*
X013821Y003341D02*
X014083Y003341D01*
X013821Y002742D02*
X013821Y002480D01*
X013821Y002742D02*
X014083Y002742D01*
X014083Y002480D01*
X013821Y002480D01*
X013821Y002567D02*
X014083Y002567D01*
X014083Y002654D02*
X013821Y002654D01*
X013821Y002741D02*
X014083Y002741D01*
X013083Y002742D02*
X013083Y002480D01*
X012821Y002480D01*
X012821Y002742D01*
X013083Y002742D01*
X013083Y002567D02*
X012821Y002567D01*
X012821Y002654D02*
X013083Y002654D01*
X013083Y002741D02*
X012821Y002741D01*
X012083Y002742D02*
X012083Y002480D01*
X011821Y002480D01*
X011821Y002742D01*
X012083Y002742D01*
X012083Y002567D02*
X011821Y002567D01*
X011821Y002654D02*
X012083Y002654D01*
X012083Y002741D02*
X011821Y002741D01*
X010821Y002742D02*
X010821Y002480D01*
X010821Y002742D02*
X011083Y002742D01*
X011083Y002480D01*
X010821Y002480D01*
X010821Y002567D02*
X011083Y002567D01*
X011083Y002654D02*
X010821Y002654D01*
X010821Y002741D02*
X011083Y002741D01*
X010083Y002742D02*
X010083Y002480D01*
X009821Y002480D01*
X009821Y002742D01*
X010083Y002742D01*
X010083Y002567D02*
X009821Y002567D01*
X009821Y002654D02*
X010083Y002654D01*
X010083Y002741D02*
X009821Y002741D01*
X009083Y002742D02*
X009083Y002480D01*
X008821Y002480D01*
X008821Y002742D01*
X009083Y002742D01*
X009083Y002567D02*
X008821Y002567D01*
X008821Y002654D02*
X009083Y002654D01*
X009083Y002741D02*
X008821Y002741D01*
X008083Y002742D02*
X008083Y002480D01*
X007821Y002480D01*
X007821Y002742D01*
X008083Y002742D01*
X008083Y002567D02*
X007821Y002567D01*
X007821Y002654D02*
X008083Y002654D01*
X008083Y002741D02*
X007821Y002741D01*
X009083Y003080D02*
X009083Y003342D01*
X009083Y003080D02*
X008821Y003080D01*
X008821Y003342D01*
X009083Y003342D01*
X009083Y003167D02*
X008821Y003167D01*
X008821Y003254D02*
X009083Y003254D01*
X009083Y003341D02*
X008821Y003341D01*
X010083Y003342D02*
X010083Y003080D01*
X009821Y003080D01*
X009821Y003342D01*
X010083Y003342D01*
X010083Y003167D02*
X009821Y003167D01*
X009821Y003254D02*
X010083Y003254D01*
X010083Y003341D02*
X009821Y003341D01*
D11*
X012296Y003892D03*
X012552Y003892D03*
X012808Y003892D03*
X012808Y004526D03*
X012552Y004526D03*
X012296Y004526D03*
D12*
X016324Y003022D03*
X017111Y003022D03*
X017899Y003022D03*
X018686Y003022D03*
X019473Y003022D03*
X020261Y003022D03*
X021048Y003022D03*
X021836Y003022D03*
X021836Y009479D03*
X021048Y009479D03*
X020261Y009479D03*
X019473Y009479D03*
X018686Y009479D03*
X017899Y009479D03*
X017111Y009479D03*
X016324Y009479D03*
D13*
X015497Y008101D03*
X015497Y007313D03*
X015497Y006526D03*
X015497Y005739D03*
X015497Y004951D03*
X015497Y004164D03*
D14*
X006102Y005511D03*
X004802Y005511D03*
X004802Y008411D03*
X006102Y008411D03*
D15*
X007582Y008001D03*
X007952Y008001D03*
X008322Y008001D03*
X008322Y009021D03*
X007952Y009021D03*
X007582Y009021D03*
D16*
X002665Y009173D02*
X002439Y009173D01*
X002439Y009449D01*
X002665Y009449D01*
X002665Y009173D01*
X002665Y009247D02*
X002439Y009247D01*
X002439Y009321D02*
X002665Y009321D01*
X002665Y009395D02*
X002439Y009395D01*
X002065Y009173D02*
X001839Y009173D01*
X001839Y009449D01*
X002065Y009449D01*
X002065Y009173D01*
X002065Y009247D02*
X001839Y009247D01*
X001839Y009321D02*
X002065Y009321D01*
X002065Y009395D02*
X001839Y009395D01*
X001839Y010173D02*
X002065Y010173D01*
X001839Y010173D02*
X001839Y010449D01*
X002065Y010449D01*
X002065Y010173D01*
X002065Y010247D02*
X001839Y010247D01*
X001839Y010321D02*
X002065Y010321D01*
X002065Y010395D02*
X001839Y010395D01*
X002439Y010173D02*
X002665Y010173D01*
X002439Y010173D02*
X002439Y010449D01*
X002665Y010449D01*
X002665Y010173D01*
X002665Y010247D02*
X002439Y010247D01*
X002439Y010321D02*
X002665Y010321D01*
X002665Y010395D02*
X002439Y010395D01*
D17*
X001884Y008384D03*
X003420Y008384D03*
X003420Y007538D03*
X001884Y007538D03*
X001934Y006584D03*
X003470Y006584D03*
X003470Y005738D03*
X001934Y005738D03*
D18*
X005378Y006399D03*
X005752Y006399D03*
X006126Y006399D03*
X006126Y007423D03*
X005378Y007423D03*
D19*
X004752Y004561D03*
X006052Y004561D03*
X005552Y003861D03*
X005552Y002561D03*
D20*
X014052Y008661D03*
X014052Y009961D03*
D21*
X013482Y007061D03*
X013482Y006561D03*
X013482Y006061D03*
X013482Y005561D03*
X011422Y005561D03*
X011422Y006061D03*
X011422Y006561D03*
X011422Y007061D03*
D22*
X003859Y003605D03*
X003859Y002817D03*
D23*
X001969Y001872D03*
X001969Y004550D03*
M02*
