G75*
%MOIN*%
%OFA0B0*%
%FSLAX24Y24*%
%IPPOS*%
%LPD*%
%AMOC8*
5,1,8,0,0,1.08239X$1,22.5*
%
%ADD10C,0.0088*%
%ADD11R,0.0118X0.0390*%
%ADD12R,0.0640X0.0640*%
%ADD13OC8,0.0640*%
%ADD14R,0.0472X0.1181*%
%ADD15R,0.1181X0.0472*%
%ADD16R,0.0500X0.0800*%
%ADD17R,0.0220X0.0500*%
%ADD18C,0.0075*%
%ADD19R,0.0750X0.0460*%
%ADD20C,0.0630*%
%ADD21R,0.0217X0.0472*%
%ADD22R,0.0550X0.0550*%
%ADD23R,0.0800X0.0500*%
%ADD24R,0.0870X0.0240*%
%ADD25C,0.0250*%
%ADD26R,0.1811X0.0394*%
%ADD27R,0.1181X0.0630*%
%ADD28C,0.0320*%
%ADD29C,0.0340*%
%ADD30C,0.0120*%
%ADD31C,0.0240*%
%ADD32C,0.0100*%
%ADD33C,0.0070*%
%ADD34C,0.0160*%
D10*
X007083Y002480D02*
X007083Y002742D01*
X007083Y002480D02*
X006821Y002480D01*
X006821Y002742D01*
X007083Y002742D01*
X007083Y002567D02*
X006821Y002567D01*
X006821Y002654D02*
X007083Y002654D01*
X007083Y002741D02*
X006821Y002741D01*
X007083Y003080D02*
X007083Y003342D01*
X007083Y003080D02*
X006821Y003080D01*
X006821Y003342D01*
X007083Y003342D01*
X007083Y003167D02*
X006821Y003167D01*
X006821Y003254D02*
X007083Y003254D01*
X007083Y003341D02*
X006821Y003341D01*
X008083Y003342D02*
X008083Y003080D01*
X007821Y003080D01*
X007821Y003342D01*
X008083Y003342D01*
X008083Y003167D02*
X007821Y003167D01*
X007821Y003254D02*
X008083Y003254D01*
X008083Y003341D02*
X007821Y003341D01*
X007821Y003680D02*
X007821Y003942D01*
X008083Y003942D01*
X008083Y003680D01*
X007821Y003680D01*
X007821Y003767D02*
X008083Y003767D01*
X008083Y003854D02*
X007821Y003854D01*
X007821Y003941D02*
X008083Y003941D01*
X007821Y004280D02*
X007821Y004542D01*
X008083Y004542D01*
X008083Y004280D01*
X007821Y004280D01*
X007821Y004367D02*
X008083Y004367D01*
X008083Y004454D02*
X007821Y004454D01*
X007821Y004541D02*
X008083Y004541D01*
X007883Y005480D02*
X007621Y005480D01*
X007621Y005742D01*
X007883Y005742D01*
X007883Y005480D01*
X007883Y005567D02*
X007621Y005567D01*
X007621Y005654D02*
X007883Y005654D01*
X007883Y005741D02*
X007621Y005741D01*
X007283Y005480D02*
X007021Y005480D01*
X007021Y005742D01*
X007283Y005742D01*
X007283Y005480D01*
X007283Y005567D02*
X007021Y005567D01*
X007021Y005654D02*
X007283Y005654D01*
X007283Y005741D02*
X007021Y005741D01*
X007021Y006080D02*
X007283Y006080D01*
X007021Y006080D02*
X007021Y006342D01*
X007283Y006342D01*
X007283Y006080D01*
X007283Y006167D02*
X007021Y006167D01*
X007021Y006254D02*
X007283Y006254D01*
X007283Y006341D02*
X007021Y006341D01*
X007621Y006080D02*
X007883Y006080D01*
X007621Y006080D02*
X007621Y006342D01*
X007883Y006342D01*
X007883Y006080D01*
X007883Y006167D02*
X007621Y006167D01*
X007621Y006254D02*
X007883Y006254D01*
X007883Y006341D02*
X007621Y006341D01*
X007521Y006880D02*
X007783Y006880D01*
X007521Y006880D02*
X007521Y007142D01*
X007783Y007142D01*
X007783Y006880D01*
X007783Y006967D02*
X007521Y006967D01*
X007521Y007054D02*
X007783Y007054D01*
X007783Y007141D02*
X007521Y007141D01*
X008121Y006880D02*
X008383Y006880D01*
X008121Y006880D02*
X008121Y007142D01*
X008383Y007142D01*
X008383Y006880D01*
X008383Y006967D02*
X008121Y006967D01*
X008121Y007054D02*
X008383Y007054D01*
X008383Y007141D02*
X008121Y007141D01*
X006833Y007242D02*
X006833Y006980D01*
X006571Y006980D01*
X006571Y007242D01*
X006833Y007242D01*
X006833Y007067D02*
X006571Y007067D01*
X006571Y007154D02*
X006833Y007154D01*
X006833Y007241D02*
X006571Y007241D01*
X006833Y007580D02*
X006833Y007842D01*
X006833Y007580D02*
X006571Y007580D01*
X006571Y007842D01*
X006833Y007842D01*
X006833Y007667D02*
X006571Y007667D01*
X006571Y007754D02*
X006833Y007754D01*
X006833Y007841D02*
X006571Y007841D01*
X009283Y008580D02*
X009283Y008842D01*
X009283Y008580D02*
X009021Y008580D01*
X009021Y008842D01*
X009283Y008842D01*
X009283Y008667D02*
X009021Y008667D01*
X009021Y008754D02*
X009283Y008754D01*
X009283Y008841D02*
X009021Y008841D01*
X009283Y009180D02*
X009283Y009442D01*
X009283Y009180D02*
X009021Y009180D01*
X009021Y009442D01*
X009283Y009442D01*
X009283Y009267D02*
X009021Y009267D01*
X009021Y009354D02*
X009283Y009354D01*
X009283Y009441D02*
X009021Y009441D01*
X008383Y009680D02*
X008121Y009680D01*
X008121Y009942D01*
X008383Y009942D01*
X008383Y009680D01*
X008383Y009767D02*
X008121Y009767D01*
X008121Y009854D02*
X008383Y009854D01*
X008383Y009941D02*
X008121Y009941D01*
X007783Y009680D02*
X007521Y009680D01*
X007521Y009942D01*
X007783Y009942D01*
X007783Y009680D01*
X007783Y009767D02*
X007521Y009767D01*
X007521Y009854D02*
X007783Y009854D01*
X007783Y009941D02*
X007521Y009941D01*
X006183Y010142D02*
X005921Y010142D01*
X006183Y010142D02*
X006183Y009880D01*
X005921Y009880D01*
X005921Y010142D01*
X005921Y009967D02*
X006183Y009967D01*
X006183Y010054D02*
X005921Y010054D01*
X005921Y010141D02*
X006183Y010141D01*
X005583Y010142D02*
X005321Y010142D01*
X005583Y010142D02*
X005583Y009880D01*
X005321Y009880D01*
X005321Y010142D01*
X005321Y009967D02*
X005583Y009967D01*
X005583Y010054D02*
X005321Y010054D01*
X005321Y010141D02*
X005583Y010141D01*
X005583Y009180D02*
X005321Y009180D01*
X005321Y009442D01*
X005583Y009442D01*
X005583Y009180D01*
X005583Y009267D02*
X005321Y009267D01*
X005321Y009354D02*
X005583Y009354D01*
X005583Y009441D02*
X005321Y009441D01*
X005921Y009180D02*
X006183Y009180D01*
X005921Y009180D02*
X005921Y009442D01*
X006183Y009442D01*
X006183Y009180D01*
X006183Y009267D02*
X005921Y009267D01*
X005921Y009354D02*
X006183Y009354D01*
X006183Y009441D02*
X005921Y009441D01*
X003883Y009180D02*
X003621Y009180D01*
X003621Y009442D01*
X003883Y009442D01*
X003883Y009180D01*
X003883Y009267D02*
X003621Y009267D01*
X003621Y009354D02*
X003883Y009354D01*
X003883Y009441D02*
X003621Y009441D01*
X003283Y009180D02*
X003021Y009180D01*
X003021Y009442D01*
X003283Y009442D01*
X003283Y009180D01*
X003283Y009267D02*
X003021Y009267D01*
X003021Y009354D02*
X003283Y009354D01*
X003283Y009441D02*
X003021Y009441D01*
X003021Y010180D02*
X003283Y010180D01*
X003021Y010180D02*
X003021Y010442D01*
X003283Y010442D01*
X003283Y010180D01*
X003283Y010267D02*
X003021Y010267D01*
X003021Y010354D02*
X003283Y010354D01*
X003283Y010441D02*
X003021Y010441D01*
X003621Y010180D02*
X003883Y010180D01*
X003621Y010180D02*
X003621Y010442D01*
X003883Y010442D01*
X003883Y010180D01*
X003883Y010267D02*
X003621Y010267D01*
X003621Y010354D02*
X003883Y010354D01*
X003883Y010441D02*
X003621Y010441D01*
X003621Y011142D02*
X003883Y011142D01*
X003883Y010880D01*
X003621Y010880D01*
X003621Y011142D01*
X003621Y010967D02*
X003883Y010967D01*
X003883Y011054D02*
X003621Y011054D01*
X003621Y011141D02*
X003883Y011141D01*
X003283Y011142D02*
X003021Y011142D01*
X003283Y011142D02*
X003283Y010880D01*
X003021Y010880D01*
X003021Y011142D01*
X003021Y010967D02*
X003283Y010967D01*
X003283Y011054D02*
X003021Y011054D01*
X003021Y011141D02*
X003283Y011141D01*
X009921Y009442D02*
X009921Y009180D01*
X009921Y009442D02*
X010183Y009442D01*
X010183Y009180D01*
X009921Y009180D01*
X009921Y009267D02*
X010183Y009267D01*
X010183Y009354D02*
X009921Y009354D01*
X009921Y009441D02*
X010183Y009441D01*
X010921Y009442D02*
X010921Y009180D01*
X010921Y009442D02*
X011183Y009442D01*
X011183Y009180D01*
X010921Y009180D01*
X010921Y009267D02*
X011183Y009267D01*
X011183Y009354D02*
X010921Y009354D01*
X010921Y009441D02*
X011183Y009441D01*
X011621Y009442D02*
X011621Y009180D01*
X011621Y009442D02*
X011883Y009442D01*
X011883Y009180D01*
X011621Y009180D01*
X011621Y009267D02*
X011883Y009267D01*
X011883Y009354D02*
X011621Y009354D01*
X011621Y009441D02*
X011883Y009441D01*
X012583Y009442D02*
X012583Y009180D01*
X012321Y009180D01*
X012321Y009442D01*
X012583Y009442D01*
X012583Y009267D02*
X012321Y009267D01*
X012321Y009354D02*
X012583Y009354D01*
X012583Y009441D02*
X012321Y009441D01*
X013283Y009442D02*
X013283Y009180D01*
X013021Y009180D01*
X013021Y009442D01*
X013283Y009442D01*
X013283Y009267D02*
X013021Y009267D01*
X013021Y009354D02*
X013283Y009354D01*
X013283Y009441D02*
X013021Y009441D01*
X013283Y008842D02*
X013283Y008580D01*
X013021Y008580D01*
X013021Y008842D01*
X013283Y008842D01*
X013283Y008667D02*
X013021Y008667D01*
X013021Y008754D02*
X013283Y008754D01*
X013283Y008841D02*
X013021Y008841D01*
X012583Y008842D02*
X012583Y008580D01*
X012321Y008580D01*
X012321Y008842D01*
X012583Y008842D01*
X012583Y008667D02*
X012321Y008667D01*
X012321Y008754D02*
X012583Y008754D01*
X012583Y008841D02*
X012321Y008841D01*
X011621Y008842D02*
X011621Y008580D01*
X011621Y008842D02*
X011883Y008842D01*
X011883Y008580D01*
X011621Y008580D01*
X011621Y008667D02*
X011883Y008667D01*
X011883Y008754D02*
X011621Y008754D01*
X011621Y008841D02*
X011883Y008841D01*
X010921Y008842D02*
X010921Y008580D01*
X010921Y008842D02*
X011183Y008842D01*
X011183Y008580D01*
X010921Y008580D01*
X010921Y008667D02*
X011183Y008667D01*
X011183Y008754D02*
X010921Y008754D01*
X010921Y008841D02*
X011183Y008841D01*
X009921Y008842D02*
X009921Y008580D01*
X009921Y008842D02*
X010183Y008842D01*
X010183Y008580D01*
X009921Y008580D01*
X009921Y008667D02*
X010183Y008667D01*
X010183Y008754D02*
X009921Y008754D01*
X009921Y008841D02*
X010183Y008841D01*
X014821Y009280D02*
X014821Y009542D01*
X015083Y009542D01*
X015083Y009280D01*
X014821Y009280D01*
X014821Y009367D02*
X015083Y009367D01*
X015083Y009454D02*
X014821Y009454D01*
X014821Y009541D02*
X015083Y009541D01*
X014821Y009880D02*
X014821Y010142D01*
X015083Y010142D01*
X015083Y009880D01*
X014821Y009880D01*
X014821Y009967D02*
X015083Y009967D01*
X015083Y010054D02*
X014821Y010054D01*
X014821Y010141D02*
X015083Y010141D01*
X011183Y005142D02*
X011183Y004880D01*
X010921Y004880D01*
X010921Y005142D01*
X011183Y005142D01*
X011183Y004967D02*
X010921Y004967D01*
X010921Y005054D02*
X011183Y005054D01*
X011183Y005141D02*
X010921Y005141D01*
X011183Y004542D02*
X011183Y004280D01*
X010921Y004280D01*
X010921Y004542D01*
X011183Y004542D01*
X011183Y004367D02*
X010921Y004367D01*
X010921Y004454D02*
X011183Y004454D01*
X011183Y004541D02*
X010921Y004541D01*
X010821Y003342D02*
X010821Y003080D01*
X010821Y003342D02*
X011083Y003342D01*
X011083Y003080D01*
X010821Y003080D01*
X010821Y003167D02*
X011083Y003167D01*
X011083Y003254D02*
X010821Y003254D01*
X010821Y003341D02*
X011083Y003341D01*
X012083Y003342D02*
X012083Y003080D01*
X011821Y003080D01*
X011821Y003342D01*
X012083Y003342D01*
X012083Y003167D02*
X011821Y003167D01*
X011821Y003254D02*
X012083Y003254D01*
X012083Y003341D02*
X011821Y003341D01*
X013083Y003342D02*
X013083Y003080D01*
X012821Y003080D01*
X012821Y003342D01*
X013083Y003342D01*
X013083Y003167D02*
X012821Y003167D01*
X012821Y003254D02*
X013083Y003254D01*
X013083Y003341D02*
X012821Y003341D01*
X013821Y003342D02*
X013821Y003080D01*
X013821Y003342D02*
X014083Y003342D01*
X014083Y003080D01*
X013821Y003080D01*
X013821Y003167D02*
X014083Y003167D01*
X014083Y003254D02*
X013821Y003254D01*
X013821Y003341D02*
X014083Y003341D01*
X013821Y002742D02*
X013821Y002480D01*
X013821Y002742D02*
X014083Y002742D01*
X014083Y002480D01*
X013821Y002480D01*
X013821Y002567D02*
X014083Y002567D01*
X014083Y002654D02*
X013821Y002654D01*
X013821Y002741D02*
X014083Y002741D01*
X013083Y002742D02*
X013083Y002480D01*
X012821Y002480D01*
X012821Y002742D01*
X013083Y002742D01*
X013083Y002567D02*
X012821Y002567D01*
X012821Y002654D02*
X013083Y002654D01*
X013083Y002741D02*
X012821Y002741D01*
X012083Y002742D02*
X012083Y002480D01*
X011821Y002480D01*
X011821Y002742D01*
X012083Y002742D01*
X012083Y002567D02*
X011821Y002567D01*
X011821Y002654D02*
X012083Y002654D01*
X012083Y002741D02*
X011821Y002741D01*
X010821Y002742D02*
X010821Y002480D01*
X010821Y002742D02*
X011083Y002742D01*
X011083Y002480D01*
X010821Y002480D01*
X010821Y002567D02*
X011083Y002567D01*
X011083Y002654D02*
X010821Y002654D01*
X010821Y002741D02*
X011083Y002741D01*
X010083Y002742D02*
X010083Y002480D01*
X009821Y002480D01*
X009821Y002742D01*
X010083Y002742D01*
X010083Y002567D02*
X009821Y002567D01*
X009821Y002654D02*
X010083Y002654D01*
X010083Y002741D02*
X009821Y002741D01*
X009083Y002742D02*
X009083Y002480D01*
X008821Y002480D01*
X008821Y002742D01*
X009083Y002742D01*
X009083Y002567D02*
X008821Y002567D01*
X008821Y002654D02*
X009083Y002654D01*
X009083Y002741D02*
X008821Y002741D01*
X008083Y002742D02*
X008083Y002480D01*
X007821Y002480D01*
X007821Y002742D01*
X008083Y002742D01*
X008083Y002567D02*
X007821Y002567D01*
X007821Y002654D02*
X008083Y002654D01*
X008083Y002741D02*
X007821Y002741D01*
X009083Y003080D02*
X009083Y003342D01*
X009083Y003080D02*
X008821Y003080D01*
X008821Y003342D01*
X009083Y003342D01*
X009083Y003167D02*
X008821Y003167D01*
X008821Y003254D02*
X009083Y003254D01*
X009083Y003341D02*
X008821Y003341D01*
X010083Y003342D02*
X010083Y003080D01*
X009821Y003080D01*
X009821Y003342D01*
X010083Y003342D01*
X010083Y003167D02*
X009821Y003167D01*
X009821Y003254D02*
X010083Y003254D01*
X010083Y003341D02*
X009821Y003341D01*
D11*
X012296Y003892D03*
X012552Y003892D03*
X012808Y003892D03*
X012808Y004526D03*
X012552Y004526D03*
X012296Y004526D03*
D12*
X015952Y010811D03*
D13*
X014952Y010811D03*
X013952Y010811D03*
X012952Y010811D03*
X011952Y010811D03*
X010952Y010811D03*
X009952Y010811D03*
X008952Y010811D03*
X007952Y010811D03*
X006952Y010811D03*
X005952Y010811D03*
X004952Y010811D03*
X004952Y001811D03*
X005952Y001811D03*
X006952Y001811D03*
X007952Y001811D03*
X008952Y001811D03*
X009952Y001811D03*
X010952Y001811D03*
X011952Y001811D03*
X012952Y001811D03*
X013952Y001811D03*
X014952Y001811D03*
X015952Y001811D03*
D14*
X016324Y003022D03*
X017111Y003022D03*
X017899Y003022D03*
X018686Y003022D03*
X019473Y003022D03*
X020261Y003022D03*
X021048Y003022D03*
X021836Y003022D03*
X021836Y009479D03*
X021048Y009479D03*
X020261Y009479D03*
X019473Y009479D03*
X018686Y009479D03*
X017899Y009479D03*
X017111Y009479D03*
X016324Y009479D03*
D15*
X015497Y008101D03*
X015497Y007313D03*
X015497Y006526D03*
X015497Y005739D03*
X015497Y004951D03*
X015497Y004164D03*
D16*
X006102Y005511D03*
X004802Y005511D03*
X004802Y008411D03*
X006102Y008411D03*
D17*
X007582Y008001D03*
X007952Y008001D03*
X008322Y008001D03*
X008322Y009021D03*
X007952Y009021D03*
X007582Y009021D03*
D18*
X002665Y009173D02*
X002439Y009173D01*
X002439Y009449D01*
X002665Y009449D01*
X002665Y009173D01*
X002665Y009247D02*
X002439Y009247D01*
X002439Y009321D02*
X002665Y009321D01*
X002665Y009395D02*
X002439Y009395D01*
X002065Y009173D02*
X001839Y009173D01*
X001839Y009449D01*
X002065Y009449D01*
X002065Y009173D01*
X002065Y009247D02*
X001839Y009247D01*
X001839Y009321D02*
X002065Y009321D01*
X002065Y009395D02*
X001839Y009395D01*
X001839Y010173D02*
X002065Y010173D01*
X001839Y010173D02*
X001839Y010449D01*
X002065Y010449D01*
X002065Y010173D01*
X002065Y010247D02*
X001839Y010247D01*
X001839Y010321D02*
X002065Y010321D01*
X002065Y010395D02*
X001839Y010395D01*
X002439Y010173D02*
X002665Y010173D01*
X002439Y010173D02*
X002439Y010449D01*
X002665Y010449D01*
X002665Y010173D01*
X002665Y010247D02*
X002439Y010247D01*
X002439Y010321D02*
X002665Y010321D01*
X002665Y010395D02*
X002439Y010395D01*
D19*
X001884Y008384D03*
X003420Y008384D03*
X003420Y007538D03*
X001884Y007538D03*
X001934Y006584D03*
X003470Y006584D03*
X003470Y005738D03*
X001934Y005738D03*
D20*
X002502Y003605D03*
X002502Y002817D03*
D21*
X005378Y006399D03*
X005752Y006399D03*
X006126Y006399D03*
X006126Y007423D03*
X005378Y007423D03*
D22*
X004752Y004561D03*
X006052Y004561D03*
X005552Y003861D03*
X005552Y002561D03*
D23*
X014052Y008661D03*
X014052Y009961D03*
D24*
X013482Y007061D03*
X013482Y006561D03*
X013482Y006061D03*
X013482Y005561D03*
X011422Y005561D03*
X011422Y006061D03*
X011422Y006561D03*
X011422Y007061D03*
D25*
X001452Y001061D03*
X017452Y001011D03*
X017452Y011561D03*
X001452Y011561D03*
D26*
X003859Y003605D03*
X003859Y002817D03*
D27*
X001969Y001872D03*
X001969Y004550D03*
D28*
X003402Y004711D02*
X003402Y004361D01*
X003402Y004711D02*
X003852Y005161D01*
X004452Y005161D01*
X004802Y005511D01*
X004652Y005661D01*
X004652Y007011D01*
X004652Y008411D01*
X004802Y008411D01*
X004652Y008411D02*
X004652Y009311D01*
X005452Y009311D01*
X006052Y009311D02*
X006052Y008561D01*
X006102Y008411D01*
X006102Y008461D01*
X006052Y008511D01*
X005452Y008511D01*
X005378Y008337D01*
X005378Y007423D01*
X006052Y009311D02*
X006052Y010011D01*
X005452Y010011D02*
X005452Y010211D01*
X005952Y010811D01*
X004952Y010811D02*
X004652Y010511D01*
X004652Y009311D01*
X013152Y009311D02*
X014052Y009311D01*
X014952Y009311D01*
X014952Y009411D01*
X016256Y009411D01*
X016324Y009479D01*
X015652Y010011D02*
X014952Y010011D01*
X014102Y010011D01*
X014052Y009961D01*
X014052Y009311D02*
X014052Y008661D01*
X014052Y008011D01*
X006952Y003911D02*
X006952Y003211D01*
X005952Y002411D02*
X005802Y002561D01*
X005552Y002561D01*
X005952Y002411D02*
X005952Y001811D01*
X003859Y002817D02*
X002502Y002817D01*
X002502Y003605D02*
X003859Y003605D01*
X003859Y003668D01*
X004752Y004561D01*
X005552Y004061D02*
X006052Y004561D01*
X005552Y004061D02*
X005552Y003861D01*
X015652Y003011D02*
X015663Y003022D01*
X016324Y003022D01*
D29*
X015652Y003011D03*
X015452Y003511D03*
X014752Y003511D03*
X014452Y003011D03*
X013252Y004011D03*
X013252Y004711D03*
X011852Y004711D03*
X011552Y003811D03*
X011452Y003011D03*
X009052Y004411D03*
X009552Y004811D03*
X009052Y005511D03*
X008352Y005611D03*
X008352Y006211D03*
X007152Y006711D03*
X008352Y007511D03*
X009052Y007311D03*
X010052Y007611D03*
X012452Y006511D03*
X012752Y006911D03*
X014452Y006911D03*
X016552Y005811D03*
X017502Y005811D03*
X019452Y005711D03*
X020252Y005211D03*
X021052Y004411D03*
X021752Y003911D03*
X018652Y004011D03*
X021052Y006511D03*
X020252Y006911D03*
X019452Y007711D03*
X019052Y008111D03*
X018652Y008411D03*
X017952Y008411D03*
X017152Y008411D03*
X017052Y007311D03*
X014052Y008011D03*
X015652Y010011D03*
X016652Y011761D03*
X006752Y009011D03*
X005452Y008511D03*
X004052Y007611D03*
X004052Y007061D03*
X004152Y005711D03*
X002652Y005311D03*
X003402Y004361D03*
X006952Y003911D03*
X007352Y004411D03*
X009952Y005911D03*
X003752Y009811D03*
X001952Y009811D03*
D30*
X001952Y009311D01*
X001952Y009811D02*
X001952Y010311D01*
X002052Y010411D01*
X002052Y010611D01*
X002152Y010711D01*
X002952Y010711D01*
X003052Y010811D01*
X003052Y010911D01*
X003152Y011011D01*
X002752Y011111D02*
X002552Y010911D01*
X001652Y010911D01*
X001552Y010811D01*
X001552Y008817D01*
X001884Y008384D01*
X001884Y008179D01*
X001884Y008384D02*
X001884Y007538D01*
X003420Y007538D02*
X003475Y007638D01*
X004052Y007061D01*
X003470Y006584D02*
X003470Y005738D01*
X003925Y005838D01*
X004152Y005711D01*
X002652Y005311D02*
X002629Y005288D01*
X002225Y005288D01*
X001952Y005561D01*
X001952Y005820D01*
X001934Y005738D01*
X001934Y006584D01*
X003420Y007538D02*
X003420Y008384D01*
X004052Y007611D02*
X004052Y009311D01*
X003752Y009311D01*
X003752Y009811D02*
X003752Y010311D01*
X003752Y011011D02*
X003752Y011311D01*
X004052Y011311D01*
X004252Y011511D01*
X004252Y012011D01*
X004352Y012111D01*
X010452Y012111D01*
X021452Y012111D01*
X021836Y011728D01*
X021836Y009479D01*
X021852Y009495D01*
X021052Y009475D02*
X021048Y009479D01*
X021052Y009475D02*
X021052Y006511D01*
X020252Y006911D02*
X020261Y007020D01*
X020261Y009479D01*
X019473Y009479D02*
X019452Y009458D01*
X019452Y007711D01*
X017052Y007311D02*
X017052Y003081D01*
X017111Y003022D01*
X018652Y003056D02*
X018686Y003022D01*
X018652Y003056D02*
X018652Y004011D01*
X019452Y003043D02*
X019473Y003022D01*
X019452Y003043D02*
X019452Y005711D01*
X020252Y005211D02*
X020252Y003031D01*
X020261Y003022D01*
X021048Y003022D02*
X021052Y003026D01*
X021052Y004411D01*
X021752Y003911D02*
X021752Y003106D01*
X021836Y003022D01*
X014752Y003511D02*
X014732Y003531D01*
X013952Y003531D01*
X013952Y005511D01*
X013852Y005611D01*
X013532Y005611D01*
X013482Y005561D01*
X013482Y006061D01*
X013482Y006561D01*
X013482Y007061D02*
X012902Y007061D01*
X012752Y006911D01*
X012452Y006511D02*
X012452Y008711D01*
X011752Y008711D01*
X011352Y008811D02*
X011352Y009011D01*
X011452Y009111D01*
X011552Y009111D01*
X011752Y009311D01*
X011052Y009311D02*
X011052Y009911D01*
X011952Y010811D01*
X010052Y009911D02*
X010052Y009311D01*
X010352Y009311D01*
X010452Y009211D01*
X010452Y008311D01*
X010552Y008211D01*
X011952Y008211D01*
X012052Y008111D01*
X012052Y006311D01*
X012296Y006067D01*
X012296Y004526D01*
X012552Y004526D02*
X012552Y004811D01*
X012652Y004911D01*
X013052Y004911D01*
X013252Y004711D01*
X013023Y004311D02*
X012808Y004526D01*
X013023Y004311D02*
X013552Y004311D01*
X013652Y004211D01*
X013652Y003811D01*
X013352Y003511D01*
X013352Y002811D01*
X013152Y002611D01*
X012952Y002611D01*
X012952Y001811D01*
X011952Y001811D02*
X011952Y002611D01*
X012252Y002611D01*
X012296Y002655D01*
X012296Y003892D01*
X012552Y003892D02*
X012552Y003311D01*
X012652Y003211D01*
X012952Y003211D01*
X011952Y003211D02*
X011952Y004711D01*
X011852Y004711D01*
X011452Y004511D02*
X011452Y004911D01*
X011352Y005011D01*
X011052Y005011D01*
X011052Y005461D01*
X011152Y005561D01*
X011422Y005561D01*
X011372Y006011D02*
X010652Y006011D01*
X010552Y005911D01*
X010552Y004511D01*
X010652Y004411D01*
X011052Y004411D01*
X011052Y003311D01*
X010952Y003211D01*
X011352Y003211D01*
X011452Y003111D01*
X011452Y003011D01*
X010952Y002611D02*
X010952Y001811D01*
X009952Y001811D02*
X009952Y002611D01*
X010252Y002611D01*
X010352Y002711D01*
X010352Y003511D01*
X010252Y003611D01*
X010152Y003611D01*
X009952Y003811D01*
X009952Y005911D01*
X009452Y006411D02*
X009452Y004911D01*
X009552Y004811D01*
X008752Y004811D01*
X008352Y004311D01*
X008352Y002711D01*
X008252Y002611D01*
X007952Y002611D01*
X007952Y001811D01*
X006952Y001811D02*
X006952Y002611D01*
X006652Y002611D01*
X006552Y002711D01*
X006552Y004711D01*
X006852Y005011D01*
X008552Y005011D01*
X009052Y005511D01*
X009052Y006811D01*
X009302Y007061D01*
X011422Y007061D01*
X011422Y006561D02*
X009602Y006561D01*
X009452Y006411D01*
X008352Y006211D02*
X007752Y006211D01*
X007752Y005611D02*
X008352Y005611D01*
X007952Y004411D02*
X007352Y004411D01*
X009052Y004411D02*
X009352Y004111D01*
X009352Y002711D01*
X009252Y002611D01*
X008952Y002611D01*
X008952Y001811D01*
X011552Y003811D02*
X011552Y004411D01*
X011452Y004511D01*
X012808Y003892D02*
X012827Y003911D01*
X013152Y003911D01*
X013252Y004011D01*
X013952Y003211D02*
X014252Y003211D01*
X014452Y003011D01*
X013952Y002611D02*
X013952Y001811D01*
X011372Y006011D02*
X011422Y006061D01*
X009052Y007311D02*
X008752Y007311D01*
X008752Y008011D01*
X008852Y008111D01*
X009452Y008111D01*
X009552Y008211D01*
X009552Y009211D01*
X009452Y009311D01*
X009152Y009311D01*
X008252Y009811D02*
X008252Y010111D01*
X008952Y010811D01*
X007752Y009711D02*
X007652Y009811D01*
X007752Y009711D02*
X007752Y009511D01*
X007952Y009311D01*
X007952Y009021D01*
X007582Y009021D02*
X007572Y009011D01*
X006752Y009011D01*
X008322Y008001D02*
X008322Y007641D01*
X008352Y007511D01*
X008552Y007211D02*
X008752Y007311D01*
X008552Y007211D02*
X008252Y007011D01*
X010052Y007611D02*
X010052Y008711D01*
X011052Y008711D02*
X011252Y008711D01*
X011352Y008811D01*
X013152Y008711D02*
X013152Y008411D01*
X013352Y008211D01*
X013552Y008211D01*
X013652Y008111D01*
X013652Y007811D01*
X013852Y007611D01*
X014252Y007611D01*
X014452Y007411D01*
X014452Y006911D01*
X003752Y011311D02*
X003652Y011411D01*
X002952Y011411D01*
X002752Y011211D01*
X002752Y011111D01*
D31*
X007582Y008441D02*
X007652Y008511D01*
X008252Y008511D01*
X008322Y008581D01*
X008392Y008511D01*
X009152Y008511D01*
X009152Y008711D01*
X008322Y008581D02*
X008322Y009021D01*
X007582Y008441D02*
X007582Y008001D01*
X007162Y008001D01*
X007152Y008011D01*
X007152Y006711D01*
X006981Y006883D01*
X006752Y006883D01*
X006702Y006933D01*
X006702Y007111D01*
X006752Y006883D02*
X005824Y006883D01*
X005752Y006811D01*
X005752Y006911D01*
X004752Y006911D01*
X004652Y007011D01*
X005752Y006811D02*
X005752Y006399D01*
X005378Y006399D02*
X005378Y005785D01*
X005552Y005611D01*
X006002Y005611D01*
X006102Y005511D01*
X006052Y005461D01*
X006052Y004561D01*
X006102Y005511D02*
X006126Y005535D01*
X006126Y006399D01*
X007152Y006211D02*
X007152Y005611D01*
X007152Y006211D02*
X007152Y006711D01*
X007652Y007011D02*
X007752Y007311D01*
X007752Y007511D01*
X007952Y007711D01*
X007952Y008001D01*
X006702Y007711D02*
X006152Y007711D01*
X006126Y007685D01*
X006126Y007423D01*
X012452Y009311D02*
X012452Y009911D01*
X012552Y010011D01*
X014002Y010011D01*
X014052Y009961D01*
X007952Y003811D02*
X007952Y003211D01*
X007482Y003211D01*
X006952Y003211D01*
D32*
X007219Y002941D02*
X007282Y002941D01*
X007282Y002146D01*
X007162Y002266D01*
X007162Y002286D01*
X007164Y002286D01*
X007277Y002400D01*
X007277Y002823D01*
X007189Y002911D01*
X007282Y002911D01*
X007252Y002941D02*
X007252Y002848D01*
X007277Y002811D02*
X007282Y002811D01*
X007277Y002711D02*
X007282Y002711D01*
X007277Y002611D02*
X007282Y002611D01*
X007277Y002511D02*
X007282Y002511D01*
X007277Y002411D02*
X007282Y002411D01*
X007252Y002375D02*
X007252Y002176D01*
X007282Y002211D02*
X007217Y002211D01*
X007189Y002311D02*
X007282Y002311D01*
X007682Y002311D02*
X007716Y002311D01*
X007741Y002286D02*
X007742Y002286D01*
X007742Y002266D01*
X007682Y002206D01*
X007682Y002345D01*
X007741Y002286D01*
X007688Y002211D02*
X007682Y002211D01*
X008162Y002266D02*
X008293Y002135D01*
X008352Y002194D01*
X008352Y002414D01*
X008339Y002401D01*
X008277Y002401D01*
X008277Y002400D01*
X008164Y002286D01*
X008162Y002286D01*
X008162Y002266D01*
X008189Y002311D02*
X008352Y002311D01*
X008352Y002211D02*
X008217Y002211D01*
X008252Y002176D02*
X008252Y002375D01*
X008349Y002411D02*
X008352Y002411D01*
X008552Y002111D02*
X008552Y002811D01*
X008952Y003211D01*
X008952Y003181D02*
X008922Y003181D01*
X008627Y003169D02*
X008562Y003104D01*
X008562Y004237D01*
X008732Y004450D01*
X008732Y004347D01*
X008781Y004230D01*
X008871Y004140D01*
X008989Y004091D01*
X009075Y004091D01*
X009142Y004024D01*
X009142Y003536D01*
X008741Y003536D01*
X008627Y003423D01*
X008627Y003169D01*
X008627Y003211D02*
X008562Y003211D01*
X008562Y003111D02*
X008569Y003111D01*
X008562Y003311D02*
X008627Y003311D01*
X008627Y003411D02*
X008562Y003411D01*
X008652Y003448D02*
X008652Y004350D01*
X008621Y004311D02*
X008747Y004311D01*
X008752Y004299D02*
X008752Y003536D01*
X008716Y003511D02*
X008562Y003511D01*
X008562Y003611D02*
X009142Y003611D01*
X009142Y003711D02*
X008562Y003711D01*
X008562Y003811D02*
X009142Y003811D01*
X009142Y003911D02*
X008562Y003911D01*
X008562Y004011D02*
X009142Y004011D01*
X009052Y004091D02*
X009052Y003536D01*
X008952Y003536D02*
X008952Y004106D01*
X008940Y004111D02*
X008562Y004111D01*
X008562Y004211D02*
X008800Y004211D01*
X008852Y004158D02*
X008852Y003536D01*
X009562Y003511D02*
X009716Y003511D01*
X009741Y003536D02*
X009627Y003423D01*
X009627Y003159D01*
X009562Y003094D01*
X009562Y004198D01*
X009439Y004321D01*
X009372Y004388D01*
X009372Y004475D01*
X009327Y004584D01*
X009371Y004540D01*
X009489Y004491D01*
X009616Y004491D01*
X009733Y004540D01*
X009742Y004549D01*
X009742Y003724D01*
X009865Y003601D01*
X009865Y003601D01*
X009930Y003536D01*
X009741Y003536D01*
X009752Y003536D02*
X009752Y003714D01*
X009755Y003711D02*
X009562Y003711D01*
X009562Y003611D02*
X009855Y003611D01*
X009852Y003614D02*
X009852Y003536D01*
X009652Y003448D02*
X009652Y004506D01*
X009664Y004511D02*
X009742Y004511D01*
X009742Y004411D02*
X009372Y004411D01*
X009357Y004511D02*
X009440Y004511D01*
X009452Y004506D02*
X009452Y004308D01*
X009449Y004311D02*
X009742Y004311D01*
X009742Y004211D02*
X009549Y004211D01*
X009552Y004208D02*
X009552Y004491D01*
X009352Y004523D02*
X009352Y004558D01*
X009242Y005021D02*
X008859Y005021D01*
X009029Y005191D01*
X009116Y005191D01*
X009233Y005240D01*
X009242Y005249D01*
X009242Y005021D01*
X009152Y005021D02*
X009152Y005206D01*
X009164Y005211D02*
X009242Y005211D01*
X009242Y005111D02*
X008949Y005111D01*
X008952Y005114D02*
X008952Y005021D01*
X009052Y005021D02*
X009052Y005191D01*
X008655Y005411D02*
X008605Y005411D01*
X008623Y005430D02*
X008672Y005547D01*
X008672Y005675D01*
X008623Y005792D01*
X008533Y005882D01*
X008464Y005911D01*
X008842Y005911D01*
X008842Y005811D02*
X008605Y005811D01*
X008552Y005864D02*
X008552Y005959D01*
X008533Y005940D02*
X008623Y006030D01*
X008672Y006147D01*
X008672Y006275D01*
X008623Y006392D01*
X008533Y006482D01*
X008416Y006531D01*
X008289Y006531D01*
X008171Y006482D01*
X008110Y006421D01*
X008077Y006421D01*
X008077Y006423D01*
X007964Y006536D01*
X007541Y006536D01*
X007427Y006423D01*
X007427Y006421D01*
X007414Y006443D01*
X007384Y006473D01*
X007347Y006495D01*
X007305Y006506D01*
X007190Y006506D01*
X007190Y006249D01*
X007115Y006249D01*
X007115Y006506D01*
X006999Y006506D01*
X006958Y006495D01*
X006920Y006473D01*
X006890Y006443D01*
X006868Y006406D01*
X006857Y006364D01*
X006857Y006249D01*
X007115Y006249D01*
X007115Y006174D01*
X006857Y006174D01*
X006857Y006058D01*
X006868Y006017D01*
X006890Y005979D01*
X006920Y005949D01*
X006958Y005927D01*
X006999Y005916D01*
X007115Y005916D01*
X007115Y006174D01*
X007190Y006174D01*
X007190Y005916D01*
X007305Y005916D01*
X007347Y005927D01*
X007384Y005949D01*
X007414Y005979D01*
X007427Y006001D01*
X007427Y006000D01*
X007516Y005911D01*
X006502Y005911D01*
X006502Y005973D02*
X006414Y006061D01*
X006396Y006061D01*
X006396Y006453D01*
X006384Y006481D01*
X006384Y006698D01*
X006297Y006785D01*
X005956Y006785D01*
X005914Y006743D01*
X005907Y006747D01*
X005876Y006755D01*
X005756Y006755D01*
X005756Y006403D01*
X005748Y006403D01*
X005748Y006755D01*
X005628Y006755D01*
X005598Y006747D01*
X005591Y006743D01*
X005549Y006785D01*
X005208Y006785D01*
X005120Y006698D01*
X005120Y006481D01*
X005108Y006453D01*
X005108Y006017D01*
X005099Y006023D01*
X005068Y006031D01*
X004852Y006031D01*
X004852Y005561D01*
X004752Y005561D01*
X004752Y005461D01*
X004432Y005461D01*
X004432Y005095D01*
X004440Y005065D01*
X004456Y005037D01*
X004479Y005015D01*
X004506Y004999D01*
X004536Y004991D01*
X004752Y004991D01*
X004752Y004986D01*
X004752Y004991D02*
X004752Y005461D01*
X004852Y005461D01*
X004852Y004991D01*
X005068Y004991D01*
X005099Y004999D01*
X005126Y005015D01*
X005148Y005037D01*
X005164Y005065D01*
X005172Y005095D01*
X005172Y005461D01*
X004852Y005461D01*
X004852Y005561D01*
X005172Y005561D01*
X005172Y005609D01*
X005399Y005382D01*
X005498Y005341D01*
X005702Y005341D01*
X005702Y005049D01*
X005765Y004986D01*
X005715Y004986D01*
X005627Y004898D01*
X005627Y004574D01*
X005339Y004286D01*
X005215Y004286D01*
X005177Y004248D01*
X005177Y004898D01*
X005089Y004986D01*
X004415Y004986D01*
X004327Y004898D01*
X004327Y004574D01*
X004252Y004499D01*
X004252Y005406D01*
X004252Y004499D01*
X004252Y004511D02*
X004264Y004511D01*
X004252Y004611D02*
X004327Y004611D01*
X004327Y004711D02*
X004252Y004711D01*
X004252Y004811D02*
X004327Y004811D01*
X004340Y004911D02*
X004252Y004911D01*
X004252Y005011D02*
X004485Y005011D01*
X004452Y004986D02*
X004452Y005044D01*
X004432Y005111D02*
X004252Y005111D01*
X004252Y005211D02*
X004432Y005211D01*
X004432Y005311D02*
X004252Y005311D01*
X004252Y005406D02*
X004333Y005440D01*
X004423Y005530D01*
X004436Y005561D01*
X004752Y005561D01*
X004752Y006031D01*
X004752Y007891D01*
X004752Y008361D01*
X004432Y008361D01*
X004432Y007995D01*
X004440Y007965D01*
X004456Y007937D01*
X004479Y007915D01*
X004506Y007899D01*
X004536Y007891D01*
X004752Y007891D01*
X004752Y007911D02*
X004852Y007911D01*
X004852Y007891D02*
X004852Y006031D01*
X004852Y006011D02*
X004752Y006011D01*
X004752Y006031D02*
X004536Y006031D01*
X004506Y006023D01*
X004479Y006007D01*
X004456Y005985D01*
X004440Y005957D01*
X004432Y005927D01*
X004432Y005871D01*
X004423Y005892D01*
X004333Y005982D01*
X004252Y006016D01*
X004252Y006809D01*
X004323Y006880D01*
X004372Y006997D01*
X004372Y007125D01*
X004323Y007242D01*
X004252Y007314D01*
X004252Y007359D01*
X004323Y007430D01*
X004372Y007547D01*
X004372Y007675D01*
X004323Y007792D01*
X004262Y007854D01*
X004262Y009398D01*
X004252Y009408D01*
X004252Y011214D01*
X004262Y011224D01*
X004462Y011424D01*
X004462Y011901D01*
X010252Y011901D01*
X010252Y011176D01*
X010147Y011281D01*
X009758Y011281D01*
X009482Y011006D01*
X009482Y010624D01*
X008952Y010094D01*
X008952Y010341D01*
X008852Y010341D02*
X008852Y009548D01*
X008827Y009523D02*
X008941Y009636D01*
X008952Y009636D01*
X008952Y010094D01*
X008969Y010111D02*
X008549Y010111D01*
X008552Y010114D02*
X008552Y010048D01*
X008577Y010023D02*
X008519Y010081D01*
X008779Y010341D01*
X009147Y010341D01*
X009422Y010616D01*
X009422Y011006D01*
X009147Y011281D01*
X008758Y011281D01*
X008482Y011006D01*
X008482Y010638D01*
X008042Y010198D01*
X008042Y010136D01*
X008041Y010136D01*
X007952Y010048D01*
X007952Y010341D01*
X007852Y010341D02*
X007852Y010136D01*
X007864Y010136D02*
X007441Y010136D01*
X007327Y010023D01*
X007327Y009600D01*
X007441Y009486D01*
X007542Y009486D01*
X007542Y009424D01*
X007545Y009421D01*
X007410Y009421D01*
X007322Y009333D01*
X007322Y009221D01*
X006995Y009221D01*
X006933Y009282D01*
X006816Y009331D01*
X006689Y009331D01*
X006571Y009282D01*
X006481Y009192D01*
X006432Y009075D01*
X006432Y008947D01*
X006435Y008940D01*
X006414Y008961D01*
X006362Y008961D01*
X006362Y009085D01*
X006377Y009100D01*
X006377Y009523D01*
X006362Y009538D01*
X006362Y009785D01*
X006377Y009800D01*
X006377Y010223D01*
X006264Y010336D01*
X005960Y010336D01*
X005964Y010341D01*
X006147Y010341D01*
X006422Y010616D01*
X006422Y011006D01*
X006147Y011281D01*
X005758Y011281D01*
X005482Y011006D01*
X005482Y010731D01*
X005223Y010420D01*
X005189Y010387D01*
X005184Y010373D01*
X005175Y010362D01*
X005160Y010317D01*
X005142Y010273D01*
X005142Y010258D01*
X005138Y010244D01*
X005139Y010234D01*
X005127Y010223D01*
X005127Y009800D01*
X005241Y009686D01*
X005664Y009686D01*
X005742Y009765D01*
X005742Y009538D01*
X005727Y009523D01*
X005727Y009521D01*
X005714Y009543D01*
X005684Y009573D01*
X005647Y009595D01*
X005605Y009606D01*
X005490Y009606D01*
X005490Y009349D01*
X005415Y009349D01*
X005415Y009606D01*
X005299Y009606D01*
X005258Y009595D01*
X005220Y009573D01*
X005190Y009543D01*
X005168Y009506D01*
X005157Y009464D01*
X005157Y009349D01*
X005415Y009349D01*
X005415Y009274D01*
X005157Y009274D01*
X005157Y009158D01*
X005168Y009117D01*
X005190Y009079D01*
X005220Y009049D01*
X005258Y009027D01*
X005299Y009016D01*
X005415Y009016D01*
X005415Y009274D01*
X005490Y009274D01*
X005490Y009016D01*
X005605Y009016D01*
X005647Y009027D01*
X005684Y009049D01*
X005714Y009079D01*
X005727Y009101D01*
X005727Y009100D01*
X005742Y009085D01*
X005742Y008913D01*
X005702Y008873D01*
X005702Y008821D01*
X005540Y008821D01*
X005516Y008831D01*
X005389Y008831D01*
X005271Y008782D01*
X005181Y008692D01*
X005172Y008671D01*
X005172Y008827D01*
X005164Y008857D01*
X005148Y008885D01*
X005126Y008907D01*
X005099Y008923D01*
X005068Y008931D01*
X004852Y008931D01*
X004852Y008461D01*
X004752Y008461D01*
X004752Y008361D01*
X004852Y008361D01*
X004852Y007891D01*
X005068Y007891D01*
X005068Y007891D01*
X005068Y007361D01*
X005115Y007247D01*
X005120Y007243D01*
X005120Y007125D01*
X005208Y007037D01*
X005549Y007037D01*
X005636Y007125D01*
X005636Y007243D01*
X005641Y007247D01*
X005688Y007361D01*
X005688Y008201D01*
X005702Y008201D01*
X005702Y007949D01*
X005790Y007861D01*
X005920Y007861D01*
X005897Y007838D01*
X005856Y007739D01*
X005856Y007369D01*
X005868Y007341D01*
X005868Y007125D01*
X005956Y007037D01*
X006297Y007037D01*
X006384Y007125D01*
X006384Y007341D01*
X006396Y007369D01*
X006396Y007441D01*
X006436Y007441D01*
X006491Y007386D01*
X006492Y007386D01*
X006470Y007373D01*
X006440Y007343D01*
X006418Y007306D01*
X006407Y007264D01*
X006407Y007149D01*
X006665Y007149D01*
X006665Y007074D01*
X006407Y007074D01*
X006407Y006958D01*
X006418Y006917D01*
X006440Y006879D01*
X006470Y006849D01*
X006508Y006827D01*
X006549Y006816D01*
X006665Y006816D01*
X006665Y007074D01*
X006740Y007074D01*
X006740Y007149D01*
X006997Y007149D01*
X006997Y007264D01*
X006986Y007306D01*
X006964Y007343D01*
X006934Y007373D01*
X006912Y007386D01*
X006914Y007386D01*
X007027Y007500D01*
X007027Y007923D01*
X006914Y008036D01*
X006502Y008036D01*
X006502Y008809D01*
X006571Y008740D01*
X006689Y008691D01*
X006816Y008691D01*
X006933Y008740D01*
X006995Y008801D01*
X007322Y008801D01*
X007322Y008709D01*
X007410Y008621D01*
X007754Y008621D01*
X007767Y008634D01*
X007780Y008621D01*
X008124Y008621D01*
X008164Y008660D01*
X008166Y008659D01*
X008196Y008651D01*
X008317Y008651D01*
X008317Y009016D01*
X008327Y009016D01*
X008327Y008651D01*
X008448Y008651D01*
X008479Y008659D01*
X008506Y008675D01*
X008528Y008697D01*
X008544Y008725D01*
X008552Y008755D01*
X008552Y009016D01*
X008327Y009016D01*
X008327Y009026D01*
X008317Y009026D01*
X008317Y009391D01*
X008196Y009391D01*
X008166Y009383D01*
X008164Y009382D01*
X008162Y009383D01*
X008162Y009398D01*
X008074Y009486D01*
X008464Y009486D01*
X008577Y009600D01*
X008577Y010023D01*
X008577Y010011D02*
X008952Y010011D01*
X008952Y009911D02*
X008577Y009911D01*
X008577Y009811D02*
X008952Y009811D01*
X008952Y009711D02*
X008577Y009711D01*
X008577Y009611D02*
X008916Y009611D01*
X008827Y009523D02*
X008827Y009100D01*
X008941Y008986D01*
X008942Y008986D01*
X008920Y008973D01*
X008890Y008943D01*
X008868Y008906D01*
X008857Y008864D01*
X008857Y008749D01*
X009115Y008749D01*
X009115Y008674D01*
X008857Y008674D01*
X008857Y008558D01*
X008868Y008517D01*
X008890Y008479D01*
X008920Y008449D01*
X008958Y008427D01*
X008999Y008416D01*
X009115Y008416D01*
X009115Y008674D01*
X009190Y008674D01*
X009190Y008416D01*
X009305Y008416D01*
X009342Y008426D01*
X009342Y008321D01*
X008765Y008321D01*
X008665Y008221D01*
X008582Y008138D01*
X008582Y008313D01*
X008494Y008401D01*
X008150Y008401D01*
X008137Y008388D01*
X008124Y008401D01*
X007780Y008401D01*
X007741Y008362D01*
X007739Y008363D01*
X007708Y008371D01*
X007587Y008371D01*
X007587Y008006D01*
X007577Y008006D01*
X007577Y007996D01*
X007352Y007996D01*
X007352Y008006D01*
X007577Y008006D01*
X007577Y008371D01*
X007456Y008371D01*
X007426Y008363D01*
X007399Y008347D01*
X007376Y008325D01*
X007360Y008297D01*
X007352Y008267D01*
X007352Y008679D01*
X007322Y008711D02*
X006864Y008711D01*
X006852Y008706D02*
X006852Y008036D01*
X006939Y008011D02*
X007352Y008011D01*
X007352Y008006D02*
X007352Y008267D01*
X007368Y008311D02*
X006502Y008311D01*
X006502Y008211D02*
X007352Y008211D01*
X007352Y008111D02*
X006502Y008111D01*
X006552Y008036D02*
X006552Y008759D01*
X006502Y008711D02*
X006640Y008711D01*
X006652Y008706D02*
X006652Y008036D01*
X006752Y008036D02*
X006752Y008691D01*
X006952Y008759D02*
X006952Y007998D01*
X007027Y007911D02*
X007352Y007911D01*
X007352Y007996D02*
X007352Y007735D01*
X007352Y007248D01*
X007327Y007223D02*
X007441Y007336D01*
X007476Y007336D01*
X007482Y007355D01*
X007482Y007565D01*
X007510Y007631D01*
X007456Y007631D01*
X007426Y007639D01*
X007399Y007655D01*
X007376Y007677D01*
X007360Y007705D01*
X007352Y007735D01*
X007359Y007711D02*
X007027Y007711D01*
X007027Y007611D02*
X007501Y007611D01*
X007452Y007632D02*
X007452Y007336D01*
X007416Y007311D02*
X006983Y007311D01*
X006952Y007355D02*
X006952Y007425D01*
X006939Y007411D02*
X007482Y007411D01*
X007482Y007511D02*
X007027Y007511D01*
X007027Y007811D02*
X007352Y007811D01*
X007452Y007996D02*
X007452Y008006D01*
X007552Y007996D02*
X007552Y008006D01*
X007577Y008011D02*
X007587Y008011D01*
X007577Y008111D02*
X007587Y008111D01*
X007577Y008211D02*
X007587Y008211D01*
X007577Y008311D02*
X007587Y008311D01*
X007552Y008371D02*
X007552Y008621D01*
X007452Y008621D02*
X007452Y008370D01*
X007652Y008371D02*
X007652Y008621D01*
X007752Y008621D02*
X007752Y008373D01*
X007852Y008401D02*
X007852Y008621D01*
X007952Y008621D02*
X007952Y008401D01*
X008052Y008401D02*
X008052Y008621D01*
X008152Y008649D02*
X008152Y008401D01*
X008252Y008401D02*
X008252Y008651D01*
X008317Y008711D02*
X008327Y008711D01*
X008352Y008651D02*
X008352Y008401D01*
X008452Y008401D02*
X008452Y008652D01*
X008536Y008711D02*
X009115Y008711D01*
X009152Y008674D02*
X009152Y008321D01*
X009052Y008321D02*
X009052Y008416D01*
X008952Y008430D02*
X008952Y008321D01*
X008852Y008321D02*
X008852Y009075D01*
X008827Y009111D02*
X008552Y009111D01*
X008552Y009026D02*
X008327Y009026D01*
X008327Y009391D01*
X008448Y009391D01*
X008479Y009383D01*
X008506Y009367D01*
X008528Y009345D01*
X008544Y009317D01*
X008552Y009287D01*
X008552Y009026D01*
X008552Y009011D02*
X008916Y009011D01*
X008872Y008911D02*
X008552Y008911D01*
X008552Y008811D02*
X008857Y008811D01*
X008952Y008749D02*
X008952Y008674D01*
X009052Y008674D02*
X009052Y008749D01*
X009115Y008611D02*
X009190Y008611D01*
X009190Y008511D02*
X009115Y008511D01*
X009252Y008416D02*
X009252Y008321D01*
X009342Y008411D02*
X006502Y008411D01*
X006502Y008511D02*
X008872Y008511D01*
X008857Y008611D02*
X006502Y008611D01*
X007052Y008801D02*
X007052Y006506D01*
X006952Y006492D02*
X006952Y006867D01*
X006964Y006879D02*
X006986Y006917D01*
X006997Y006958D01*
X006997Y007074D01*
X006740Y007074D01*
X006740Y006816D01*
X006855Y006816D01*
X006897Y006827D01*
X006934Y006849D01*
X006964Y006879D01*
X006983Y006911D02*
X007327Y006911D01*
X007327Y006811D02*
X004255Y006811D01*
X004252Y006809D02*
X004252Y006016D01*
X004264Y006011D02*
X004485Y006011D01*
X004452Y005978D02*
X004452Y007944D01*
X004485Y007911D02*
X004262Y007911D01*
X004262Y008011D02*
X004432Y008011D01*
X004432Y008111D02*
X004262Y008111D01*
X004262Y008211D02*
X004432Y008211D01*
X004432Y008311D02*
X004262Y008311D01*
X004262Y008411D02*
X004752Y008411D01*
X004752Y008461D02*
X004432Y008461D01*
X004432Y008827D01*
X004440Y008857D01*
X004456Y008885D01*
X004479Y008907D01*
X004506Y008923D01*
X004536Y008931D01*
X004752Y008931D01*
X004752Y010389D01*
X004770Y010371D02*
X004512Y010629D01*
X004512Y010761D01*
X004902Y010761D01*
X004902Y010861D01*
X004512Y010861D01*
X004512Y010993D01*
X004770Y011251D01*
X004902Y011251D01*
X004902Y010861D01*
X005002Y010861D01*
X005002Y011251D01*
X005134Y011251D01*
X005392Y010993D01*
X005392Y010861D01*
X005002Y010861D01*
X005002Y010761D01*
X005002Y010371D01*
X005134Y010371D01*
X005392Y010629D01*
X005392Y010761D01*
X005002Y010761D01*
X004902Y010761D01*
X004902Y010371D01*
X004770Y010371D01*
X004730Y010411D02*
X004252Y010411D01*
X004252Y010311D02*
X005158Y010311D01*
X005152Y010297D02*
X005152Y010389D01*
X005174Y010411D02*
X005214Y010411D01*
X005252Y010455D02*
X005252Y010489D01*
X005274Y010511D02*
X005299Y010511D01*
X005352Y010575D02*
X005352Y010589D01*
X005374Y010611D02*
X005382Y010611D01*
X005392Y010711D02*
X005465Y010711D01*
X005452Y010695D02*
X005452Y011901D01*
X005352Y011901D02*
X005352Y011033D01*
X005374Y011011D02*
X005488Y011011D01*
X005552Y011076D02*
X005552Y011901D01*
X005652Y011901D02*
X005652Y011176D01*
X005688Y011211D02*
X005174Y011211D01*
X005152Y011233D02*
X005152Y011901D01*
X005052Y011901D02*
X005052Y011251D01*
X005002Y011211D02*
X004902Y011211D01*
X004852Y011251D02*
X004852Y011901D01*
X004752Y011901D02*
X004752Y011233D01*
X004730Y011211D02*
X004252Y011211D01*
X004252Y011214D02*
X004252Y009408D01*
X004252Y009411D02*
X005157Y009411D01*
X005172Y009511D02*
X004252Y009511D01*
X004252Y009611D02*
X005742Y009611D01*
X005652Y009592D02*
X005652Y009686D01*
X005689Y009711D02*
X005742Y009711D01*
X005552Y009686D02*
X005552Y009606D01*
X005490Y009511D02*
X005415Y009511D01*
X005415Y009411D02*
X005490Y009411D01*
X005452Y009349D02*
X005452Y009686D01*
X005352Y009686D02*
X005352Y009606D01*
X005252Y009592D02*
X005252Y009686D01*
X005216Y009711D02*
X004252Y009711D01*
X004252Y009811D02*
X005127Y009811D01*
X005152Y009775D02*
X005152Y008878D01*
X005119Y008911D02*
X005740Y008911D01*
X005742Y009011D02*
X004262Y009011D01*
X004262Y008911D02*
X004485Y008911D01*
X004452Y008878D02*
X004452Y011414D01*
X004449Y011411D02*
X010252Y011411D01*
X010252Y011311D02*
X004349Y011311D01*
X004352Y011314D02*
X004352Y007723D01*
X004357Y007711D02*
X005068Y007711D01*
X005068Y007611D02*
X004372Y007611D01*
X004357Y007511D02*
X005068Y007511D01*
X005068Y007411D02*
X004305Y007411D01*
X004252Y007359D02*
X004252Y007314D01*
X004255Y007311D02*
X005089Y007311D01*
X005120Y007211D02*
X004336Y007211D01*
X004352Y007173D02*
X004352Y007499D01*
X004305Y007811D02*
X005068Y007811D01*
X005052Y007891D02*
X005052Y006031D01*
X005108Y006111D02*
X004252Y006111D01*
X004252Y006211D02*
X005108Y006211D01*
X005108Y006311D02*
X004252Y006311D01*
X004252Y006411D02*
X005108Y006411D01*
X005120Y006511D02*
X004252Y006511D01*
X004252Y006611D02*
X005120Y006611D01*
X005133Y006711D02*
X004252Y006711D01*
X004336Y006911D02*
X006422Y006911D01*
X006452Y006867D02*
X006452Y006023D01*
X006464Y006011D02*
X006872Y006011D01*
X006857Y006111D02*
X006396Y006111D01*
X006396Y006211D02*
X007115Y006211D01*
X007152Y006174D02*
X007152Y005649D01*
X007115Y005649D02*
X007115Y005906D01*
X006999Y005906D01*
X006958Y005895D01*
X006920Y005873D01*
X006890Y005843D01*
X006868Y005806D01*
X006857Y005764D01*
X006857Y005649D01*
X007115Y005649D01*
X007190Y005649D01*
X007190Y005906D01*
X007305Y005906D01*
X007347Y005895D01*
X007384Y005873D01*
X007414Y005843D01*
X007427Y005821D01*
X007427Y005823D01*
X007516Y005911D01*
X007452Y005848D02*
X007452Y005975D01*
X007352Y005930D02*
X007352Y005892D01*
X007252Y005906D02*
X007252Y005916D01*
X007190Y006011D02*
X007115Y006011D01*
X007115Y006111D02*
X007190Y006111D01*
X007152Y006249D02*
X007152Y008801D01*
X007252Y008801D02*
X007252Y006506D01*
X007352Y006492D02*
X007352Y006775D01*
X007327Y006800D02*
X007441Y006686D01*
X007864Y006686D01*
X007952Y006775D01*
X008041Y006686D01*
X008464Y006686D01*
X008577Y006800D01*
X008577Y006975D01*
X008658Y007029D01*
X008802Y007101D01*
X008810Y007101D01*
X008871Y007040D01*
X008951Y007007D01*
X008842Y006898D01*
X008842Y005754D01*
X008781Y005692D01*
X008732Y005575D01*
X008732Y005488D01*
X008465Y005221D01*
X006765Y005221D01*
X006642Y005098D01*
X006460Y004916D01*
X006414Y004961D01*
X006414Y004961D01*
X006502Y005049D01*
X006502Y005973D01*
X006502Y005811D02*
X006872Y005811D01*
X006857Y005711D02*
X006502Y005711D01*
X006502Y005611D02*
X007115Y005611D01*
X007115Y005574D02*
X006857Y005574D01*
X006857Y005458D01*
X006868Y005417D01*
X006890Y005379D01*
X006920Y005349D01*
X006958Y005327D01*
X006999Y005316D01*
X007115Y005316D01*
X007115Y005574D01*
X007115Y005649D01*
X007115Y005711D02*
X007190Y005711D01*
X007190Y005811D02*
X007115Y005811D01*
X007052Y005906D02*
X007052Y005916D01*
X006952Y005930D02*
X006952Y005892D01*
X006952Y005649D02*
X006952Y005574D01*
X007052Y005574D02*
X007052Y005649D01*
X007115Y005574D02*
X007190Y005574D01*
X007190Y005316D01*
X007305Y005316D01*
X007347Y005327D01*
X007384Y005349D01*
X007414Y005379D01*
X007427Y005401D01*
X007427Y005400D01*
X007541Y005286D01*
X007964Y005286D01*
X008077Y005400D01*
X008077Y005401D01*
X008110Y005401D01*
X008171Y005340D01*
X008289Y005291D01*
X008416Y005291D01*
X008533Y005340D01*
X008623Y005430D01*
X008652Y005408D02*
X008652Y005499D01*
X008657Y005511D02*
X008732Y005511D01*
X008747Y005611D02*
X008672Y005611D01*
X008752Y005623D02*
X008752Y007076D01*
X008852Y007058D02*
X008852Y006908D01*
X008855Y006911D02*
X008577Y006911D01*
X008577Y006811D02*
X008842Y006811D01*
X008842Y006711D02*
X008489Y006711D01*
X008452Y006686D02*
X008452Y006516D01*
X008464Y006511D02*
X008842Y006511D01*
X008842Y006411D02*
X008605Y006411D01*
X008552Y006464D02*
X008552Y006775D01*
X008352Y006686D02*
X008352Y006531D01*
X008252Y006516D02*
X008252Y006686D01*
X008152Y006686D02*
X008152Y006464D01*
X008240Y006511D02*
X007989Y006511D01*
X007952Y006536D02*
X007952Y006775D01*
X007889Y006711D02*
X008016Y006711D01*
X008052Y006686D02*
X008052Y006448D01*
X007852Y006536D02*
X007852Y006686D01*
X007752Y006686D02*
X007752Y006536D01*
X007652Y006536D02*
X007652Y006686D01*
X007552Y006686D02*
X007552Y006536D01*
X007516Y006511D02*
X006384Y006511D01*
X006384Y006611D02*
X008842Y006611D01*
X008842Y006311D02*
X008657Y006311D01*
X008652Y006323D02*
X008652Y007025D01*
X008631Y007011D02*
X008940Y007011D01*
X009262Y006724D02*
X009262Y006518D01*
X009365Y006621D01*
X009515Y006771D01*
X010865Y006771D01*
X010905Y006811D01*
X009349Y006811D01*
X009352Y006814D02*
X009352Y006608D01*
X009355Y006611D02*
X009262Y006611D01*
X009262Y006711D02*
X009455Y006711D01*
X009452Y006708D02*
X009452Y006851D01*
X009389Y006851D02*
X010865Y006851D01*
X010905Y006811D01*
X010852Y006771D02*
X010852Y006851D01*
X010752Y006851D02*
X010752Y006771D01*
X010652Y006771D02*
X010652Y006851D01*
X010552Y006851D02*
X010552Y006771D01*
X010452Y006771D02*
X010452Y006851D01*
X010352Y006851D02*
X010352Y006771D01*
X010252Y006771D02*
X010252Y006851D01*
X010152Y006851D02*
X010152Y006771D01*
X010052Y006771D02*
X010052Y006851D01*
X009952Y006851D02*
X009952Y006771D01*
X009852Y006771D02*
X009852Y006851D01*
X009752Y006851D02*
X009752Y006771D01*
X009652Y006771D02*
X009652Y006851D01*
X009552Y006851D02*
X009552Y006771D01*
X009389Y006851D02*
X009262Y006724D01*
X009662Y006324D02*
X009689Y006351D01*
X010865Y006351D01*
X010925Y006291D01*
X010938Y006291D01*
X010914Y006277D01*
X010891Y006255D01*
X010875Y006227D01*
X010867Y006197D01*
X010867Y006071D01*
X011412Y006071D01*
X011412Y006051D01*
X010867Y006051D01*
X010867Y005925D01*
X010875Y005895D01*
X010891Y005867D01*
X010914Y005845D01*
X010938Y005831D01*
X010925Y005831D01*
X010837Y005743D01*
X010837Y005379D01*
X010842Y005374D01*
X010842Y005336D01*
X010841Y005336D01*
X010727Y005223D01*
X010727Y004800D01*
X010841Y004686D01*
X010842Y004686D01*
X010820Y004673D01*
X010790Y004643D01*
X010768Y004606D01*
X010757Y004564D01*
X010757Y004449D01*
X011015Y004449D01*
X011015Y004374D01*
X010757Y004374D01*
X010757Y004258D01*
X010768Y004217D01*
X010790Y004179D01*
X010820Y004149D01*
X010858Y004127D01*
X010899Y004116D01*
X011015Y004116D01*
X011015Y004374D01*
X011090Y004374D01*
X011090Y004116D01*
X011205Y004116D01*
X011247Y004127D01*
X011284Y004149D01*
X011314Y004179D01*
X011336Y004217D01*
X011342Y004240D01*
X011342Y004054D01*
X011281Y003992D01*
X011232Y003875D01*
X011232Y003747D01*
X011281Y003630D01*
X011371Y003540D01*
X011489Y003491D01*
X011616Y003491D01*
X011733Y003540D01*
X011742Y003549D01*
X011742Y003536D01*
X011741Y003536D01*
X011627Y003423D01*
X011627Y003000D01*
X011716Y002911D01*
X011627Y002823D01*
X011627Y002400D01*
X011741Y002286D01*
X011742Y002286D01*
X011742Y002266D01*
X011482Y002006D01*
X011482Y001616D01*
X011758Y001341D01*
X012147Y001341D01*
X012422Y001616D01*
X012422Y002006D01*
X012162Y002266D01*
X012162Y002286D01*
X012164Y002286D01*
X012277Y002400D01*
X012277Y002401D01*
X012339Y002401D01*
X012462Y002524D01*
X012506Y002568D01*
X012506Y003060D01*
X012565Y003001D01*
X012627Y003001D01*
X012627Y003000D01*
X012716Y002911D01*
X012627Y002823D01*
X012627Y002400D01*
X012741Y002286D01*
X012742Y002286D01*
X012742Y002266D01*
X012482Y002006D01*
X012482Y001616D01*
X012758Y001341D01*
X013147Y001341D01*
X013422Y001616D01*
X013422Y002006D01*
X013162Y002266D01*
X013162Y002286D01*
X013164Y002286D01*
X013277Y002400D01*
X013277Y002439D01*
X013439Y002601D01*
X013562Y002724D01*
X013562Y003424D01*
X013739Y003601D01*
X013742Y003604D01*
X013742Y003486D01*
X013720Y003473D01*
X013690Y003443D01*
X013668Y003406D01*
X013657Y003364D01*
X013657Y003249D01*
X013915Y003249D01*
X013915Y003174D01*
X013657Y003174D01*
X013657Y003058D01*
X013668Y003017D01*
X013690Y002979D01*
X013720Y002949D01*
X013742Y002936D01*
X013741Y002936D01*
X013627Y002823D01*
X013627Y002400D01*
X013741Y002286D01*
X013742Y002286D01*
X013742Y002266D01*
X013482Y002006D01*
X013482Y001616D01*
X013758Y001341D01*
X014147Y001341D01*
X014422Y001616D01*
X014422Y002006D01*
X014162Y002266D01*
X014162Y002286D01*
X014164Y002286D01*
X014277Y002400D01*
X014277Y002823D01*
X014164Y002936D01*
X014162Y002936D01*
X014184Y002949D01*
X014214Y002979D01*
X014236Y003017D01*
X014247Y003058D01*
X014247Y003174D01*
X013990Y003174D01*
X013990Y003249D01*
X014247Y003249D01*
X014247Y003321D01*
X014490Y003321D01*
X014571Y003240D01*
X014689Y003191D01*
X014816Y003191D01*
X014933Y003240D01*
X015023Y003330D01*
X015072Y003447D01*
X015072Y003575D01*
X015023Y003692D01*
X014938Y003778D01*
X015266Y003778D01*
X015181Y003692D01*
X015132Y003575D01*
X015132Y003447D01*
X015181Y003330D01*
X015271Y003240D01*
X015389Y003191D01*
X015516Y003191D01*
X015633Y003240D01*
X015723Y003330D01*
X015772Y003447D01*
X015772Y003575D01*
X015723Y003692D01*
X015638Y003778D01*
X016150Y003778D01*
X016238Y003865D01*
X016238Y004462D01*
X016150Y004550D01*
X014844Y004550D01*
X014757Y004462D01*
X014757Y003865D01*
X014791Y003831D01*
X014689Y003831D01*
X014571Y003782D01*
X014530Y003741D01*
X014162Y003741D01*
X014162Y005598D01*
X014067Y005693D01*
X014067Y005743D01*
X013999Y005811D01*
X014067Y005879D01*
X014067Y006243D01*
X013999Y006311D01*
X014067Y006379D01*
X014067Y006743D01*
X013979Y006831D01*
X013967Y006831D01*
X013991Y006845D01*
X014013Y006867D01*
X014029Y006895D01*
X014037Y006925D01*
X014037Y007051D01*
X013492Y007051D01*
X013492Y007071D01*
X013472Y007071D01*
X013472Y007051D01*
X012927Y007051D01*
X012927Y006925D01*
X012935Y006895D01*
X012951Y006867D01*
X012974Y006845D01*
X012998Y006831D01*
X012985Y006831D01*
X012897Y006743D01*
X012897Y006379D01*
X012965Y006311D01*
X012705Y006311D01*
X012723Y006330D02*
X012772Y006447D01*
X012772Y006575D01*
X012723Y006692D01*
X012662Y006754D01*
X012662Y008386D01*
X012664Y008386D01*
X012777Y008500D01*
X012777Y008923D01*
X012664Y009036D01*
X012662Y009036D01*
X012684Y009049D01*
X012714Y009079D01*
X012736Y009117D01*
X012747Y009158D01*
X012747Y009274D01*
X012490Y009274D01*
X012490Y009349D01*
X012415Y009349D01*
X012415Y009606D01*
X012299Y009606D01*
X012258Y009595D01*
X012220Y009573D01*
X012190Y009543D01*
X012168Y009506D01*
X012157Y009464D01*
X012157Y009349D01*
X012415Y009349D01*
X012415Y009274D01*
X012157Y009274D01*
X012157Y009158D01*
X012168Y009117D01*
X012190Y009079D01*
X012220Y009049D01*
X012242Y009036D01*
X012241Y009036D01*
X012127Y008923D01*
X012127Y008921D01*
X012077Y008921D01*
X012077Y008923D01*
X011989Y009011D01*
X012216Y009011D01*
X012152Y008948D02*
X012152Y010346D01*
X012147Y010341D02*
X012422Y010616D01*
X012422Y011006D01*
X012147Y011281D01*
X011758Y011281D01*
X011482Y011006D01*
X011482Y010638D01*
X010842Y009998D01*
X010842Y009636D01*
X010841Y009636D01*
X010727Y009523D01*
X010727Y009100D01*
X010816Y009011D01*
X010662Y009011D01*
X010662Y008911D02*
X010727Y008911D01*
X010727Y008923D02*
X010727Y008500D01*
X010806Y008421D01*
X010662Y008421D01*
X010662Y009298D01*
X010539Y009421D01*
X010439Y009521D01*
X010377Y009521D01*
X010377Y009523D01*
X010264Y009636D01*
X010262Y009636D01*
X010262Y009888D01*
X010535Y010161D01*
X010652Y010278D01*
X010652Y010446D01*
X010652Y009308D01*
X010649Y009311D02*
X010727Y009311D01*
X010727Y009211D02*
X010662Y009211D01*
X010662Y009111D02*
X010727Y009111D01*
X010752Y009075D02*
X010752Y008948D01*
X010727Y008923D02*
X010816Y009011D01*
X010727Y008811D02*
X010662Y008811D01*
X010662Y008711D02*
X010727Y008711D01*
X010727Y008611D02*
X010662Y008611D01*
X010662Y008511D02*
X010727Y008511D01*
X010752Y008475D02*
X010752Y008421D01*
X010355Y008111D02*
X010262Y008111D01*
X010352Y008114D02*
X010352Y007723D01*
X010357Y007711D02*
X011842Y007711D01*
X011842Y007611D02*
X010372Y007611D01*
X010372Y007547D02*
X010372Y007675D01*
X010323Y007792D01*
X010262Y007854D01*
X010262Y008204D01*
X010465Y008001D01*
X011842Y008001D01*
X011842Y007331D01*
X010925Y007331D01*
X010865Y007271D01*
X009372Y007271D01*
X009372Y007375D01*
X009323Y007492D01*
X009233Y007582D01*
X009116Y007631D01*
X008989Y007631D01*
X008962Y007620D01*
X008962Y007901D01*
X009539Y007901D01*
X009662Y008024D01*
X009762Y008124D01*
X009762Y008465D01*
X009841Y008386D01*
X009842Y008386D01*
X009842Y007854D01*
X009781Y007792D01*
X009732Y007675D01*
X009732Y007547D01*
X009781Y007430D01*
X009871Y007340D01*
X009989Y007291D01*
X010116Y007291D01*
X010233Y007340D01*
X010323Y007430D01*
X010372Y007547D01*
X010357Y007511D02*
X011842Y007511D01*
X011842Y007411D02*
X010305Y007411D01*
X010252Y007359D02*
X010252Y007271D01*
X010164Y007311D02*
X010905Y007311D01*
X010952Y007331D02*
X010952Y008001D01*
X010852Y008001D02*
X010852Y007271D01*
X010752Y007271D02*
X010752Y008001D01*
X010652Y008001D02*
X010652Y007271D01*
X010552Y007271D02*
X010552Y008001D01*
X010455Y008011D02*
X010262Y008011D01*
X010262Y007911D02*
X011842Y007911D01*
X011842Y007811D02*
X010305Y007811D01*
X010452Y008014D02*
X010452Y007271D01*
X010352Y007271D02*
X010352Y007499D01*
X010152Y007306D02*
X010152Y007271D01*
X010052Y007271D02*
X010052Y007291D01*
X009952Y007271D02*
X009952Y007306D01*
X009940Y007311D02*
X009372Y007311D01*
X009452Y007271D02*
X009452Y007901D01*
X009549Y007911D02*
X009842Y007911D01*
X009842Y008011D02*
X009649Y008011D01*
X009652Y008014D02*
X009652Y007271D01*
X009552Y007271D02*
X009552Y007914D01*
X009352Y007901D02*
X009352Y007423D01*
X009357Y007411D02*
X009800Y007411D01*
X009852Y007358D02*
X009852Y007271D01*
X009752Y007271D02*
X009752Y007499D01*
X009747Y007511D02*
X009305Y007511D01*
X009252Y007564D02*
X009252Y007901D01*
X009152Y007901D02*
X009152Y007616D01*
X009164Y007611D02*
X009732Y007611D01*
X009747Y007711D02*
X008962Y007711D01*
X008962Y007811D02*
X009800Y007811D01*
X009752Y007723D02*
X009752Y008114D01*
X009749Y008111D02*
X009842Y008111D01*
X009842Y008211D02*
X009762Y008211D01*
X009762Y008311D02*
X009842Y008311D01*
X009816Y008411D02*
X009762Y008411D01*
X009052Y007901D02*
X009052Y007631D01*
X008078Y007336D02*
X008043Y007420D01*
X008022Y007399D01*
X008022Y007321D01*
X008022Y007318D01*
X008041Y007336D01*
X008078Y007336D01*
X008052Y007336D02*
X008052Y007399D01*
X008047Y007411D02*
X008034Y007411D01*
X007327Y007223D02*
X007327Y006800D01*
X007416Y006711D02*
X006371Y006711D01*
X006352Y006730D02*
X006352Y007092D01*
X006371Y007111D02*
X006665Y007111D01*
X006652Y007074D02*
X006652Y007149D01*
X006740Y007111D02*
X007327Y007111D01*
X007327Y007011D02*
X006997Y007011D01*
X006952Y007074D02*
X006952Y007149D01*
X006997Y007211D02*
X007327Y007211D01*
X006852Y007149D02*
X006852Y007074D01*
X006752Y007074D02*
X006752Y007149D01*
X006740Y007011D02*
X006665Y007011D01*
X006665Y006911D02*
X006740Y006911D01*
X006752Y006816D02*
X006752Y005208D01*
X006755Y005211D02*
X006502Y005211D01*
X006502Y005111D02*
X006655Y005111D01*
X006652Y005108D02*
X006652Y006816D01*
X006552Y006816D02*
X006552Y005008D01*
X006555Y005011D02*
X006464Y005011D01*
X006452Y004999D02*
X006452Y004923D01*
X006762Y004624D02*
X006939Y004801D01*
X008475Y004801D01*
X008277Y004553D01*
X008277Y004623D01*
X008164Y004736D01*
X007741Y004736D01*
X007627Y004623D01*
X007627Y004621D01*
X007595Y004621D01*
X007533Y004682D01*
X007416Y004731D01*
X007289Y004731D01*
X007171Y004682D01*
X007081Y004592D01*
X007032Y004475D01*
X007032Y004347D01*
X007081Y004230D01*
X007125Y004186D01*
X007016Y004231D01*
X006889Y004231D01*
X006771Y004182D01*
X006762Y004174D01*
X006762Y004624D01*
X006762Y004611D02*
X007100Y004611D01*
X007152Y004664D02*
X007152Y004801D01*
X007052Y004801D02*
X007052Y004523D01*
X007047Y004511D02*
X006762Y004511D01*
X006762Y004411D02*
X007032Y004411D01*
X007047Y004311D02*
X006762Y004311D01*
X006762Y004211D02*
X006840Y004211D01*
X006852Y004216D02*
X006852Y004714D01*
X006849Y004711D02*
X007240Y004711D01*
X007252Y004716D02*
X007252Y004801D01*
X007352Y004801D02*
X007352Y004731D01*
X007452Y004716D02*
X007452Y004801D01*
X007464Y004711D02*
X007716Y004711D01*
X007752Y004736D02*
X007752Y004801D01*
X007652Y004801D02*
X007652Y004648D01*
X007552Y004664D02*
X007552Y004801D01*
X007852Y004801D02*
X007852Y004736D01*
X007952Y004736D02*
X007952Y004801D01*
X008052Y004801D02*
X008052Y004736D01*
X008152Y004736D02*
X008152Y004801D01*
X008189Y004711D02*
X008403Y004711D01*
X008452Y004772D02*
X008452Y004801D01*
X008352Y004801D02*
X008352Y004647D01*
X008323Y004611D02*
X008277Y004611D01*
X008252Y004648D02*
X008252Y004801D01*
X008252Y005221D02*
X008252Y005306D01*
X008240Y005311D02*
X007989Y005311D01*
X007952Y005286D02*
X007952Y005221D01*
X007852Y005221D02*
X007852Y005286D01*
X007752Y005286D02*
X007752Y005221D01*
X007652Y005221D02*
X007652Y005286D01*
X007552Y005286D02*
X007552Y005221D01*
X007516Y005311D02*
X006502Y005311D01*
X006502Y005411D02*
X006872Y005411D01*
X006857Y005511D02*
X006502Y005511D01*
X006852Y005221D02*
X006852Y006816D01*
X006552Y007074D02*
X006552Y007149D01*
X006452Y007149D02*
X006452Y007074D01*
X006407Y007011D02*
X004372Y007011D01*
X004352Y006949D02*
X004352Y005964D01*
X004405Y005911D02*
X004432Y005911D01*
X004552Y006031D02*
X004552Y007891D01*
X004652Y007891D02*
X004652Y006031D01*
X004752Y005911D02*
X004852Y005911D01*
X004852Y005811D02*
X004752Y005811D01*
X004752Y005711D02*
X004852Y005711D01*
X004852Y005611D02*
X004752Y005611D01*
X004752Y005511D02*
X004405Y005511D01*
X004452Y005461D02*
X004452Y005561D01*
X004552Y005561D02*
X004552Y005461D01*
X004652Y005461D02*
X004652Y005561D01*
X004852Y005511D02*
X005270Y005511D01*
X005252Y005529D02*
X005252Y004286D01*
X005177Y004311D02*
X005364Y004311D01*
X005352Y004299D02*
X005352Y005429D01*
X005370Y005411D02*
X005172Y005411D01*
X005152Y005461D02*
X005152Y005561D01*
X005052Y005561D02*
X005052Y005461D01*
X004952Y005461D02*
X004952Y005561D01*
X004852Y005411D02*
X004752Y005411D01*
X004752Y005311D02*
X004852Y005311D01*
X004852Y005211D02*
X004752Y005211D01*
X004752Y005111D02*
X004852Y005111D01*
X004852Y005011D02*
X004752Y005011D01*
X004652Y004991D02*
X004652Y004986D01*
X004552Y004986D02*
X004552Y004991D01*
X004352Y004923D02*
X004352Y005459D01*
X004432Y005411D02*
X004264Y005411D01*
X004852Y004991D02*
X004852Y004986D01*
X004952Y004986D02*
X004952Y004991D01*
X005052Y004986D02*
X005052Y004991D01*
X005119Y005011D02*
X005740Y005011D01*
X005752Y004999D02*
X005752Y004986D01*
X005652Y004923D02*
X005652Y005341D01*
X005702Y005311D02*
X005172Y005311D01*
X005172Y005211D02*
X005702Y005211D01*
X005702Y005111D02*
X005172Y005111D01*
X005152Y005044D02*
X005152Y004923D01*
X005164Y004911D02*
X005640Y004911D01*
X005627Y004811D02*
X005177Y004811D01*
X005177Y004711D02*
X005627Y004711D01*
X005627Y004611D02*
X005177Y004611D01*
X005177Y004511D02*
X005564Y004511D01*
X005552Y004499D02*
X005552Y005341D01*
X005452Y005360D02*
X005452Y004399D01*
X005464Y004411D02*
X005177Y004411D01*
X005127Y004174D02*
X005127Y003524D01*
X005215Y003436D01*
X005889Y003436D01*
X005977Y003524D01*
X005977Y004048D01*
X006066Y004136D01*
X006342Y004136D01*
X006342Y002624D01*
X006465Y002501D01*
X006565Y002401D01*
X006627Y002401D01*
X006627Y002400D01*
X006741Y002286D01*
X006742Y002286D01*
X006742Y002266D01*
X006482Y002006D01*
X006482Y001616D01*
X006758Y001341D01*
X007147Y001341D01*
X007323Y001517D01*
X007399Y001441D01*
X007562Y001278D01*
X007679Y001161D01*
X009245Y001161D01*
X009591Y001507D01*
X009758Y001341D01*
X010147Y001341D01*
X010422Y001616D01*
X010422Y002006D01*
X010162Y002266D01*
X010162Y002286D01*
X010164Y002286D01*
X010277Y002400D01*
X010277Y002401D01*
X010339Y002401D01*
X010462Y002524D01*
X010562Y002624D01*
X010562Y003598D01*
X010439Y003721D01*
X010339Y003821D01*
X010239Y003821D01*
X010162Y003898D01*
X010162Y005668D01*
X010223Y005730D01*
X010272Y005847D01*
X010272Y005975D01*
X010223Y006092D01*
X010133Y006182D01*
X010016Y006231D01*
X009889Y006231D01*
X009771Y006182D01*
X009681Y006092D01*
X009662Y006047D01*
X009662Y006324D01*
X009662Y006311D02*
X010905Y006311D01*
X010852Y006351D02*
X010852Y005758D01*
X010837Y005711D02*
X010205Y005711D01*
X010252Y005799D02*
X010252Y003821D01*
X010349Y003811D02*
X011232Y003811D01*
X011247Y003711D02*
X010449Y003711D01*
X010452Y003708D02*
X010452Y006351D01*
X010352Y006351D02*
X010352Y003808D01*
X010162Y003911D02*
X011247Y003911D01*
X011252Y003923D02*
X011252Y004130D01*
X011342Y004111D02*
X010162Y004111D01*
X010162Y004011D02*
X011300Y004011D01*
X011152Y004116D02*
X011152Y003492D01*
X011147Y003495D02*
X011105Y003506D01*
X010990Y003506D01*
X010990Y003249D01*
X010915Y003249D01*
X010915Y003506D01*
X010799Y003506D01*
X010758Y003495D01*
X010720Y003473D01*
X010690Y003443D01*
X010668Y003406D01*
X010657Y003364D01*
X010657Y003249D01*
X010915Y003249D01*
X010915Y003174D01*
X010657Y003174D01*
X010657Y003058D01*
X010668Y003017D01*
X010690Y002979D01*
X010720Y002949D01*
X010742Y002936D01*
X010741Y002936D01*
X010627Y002823D01*
X010627Y002400D01*
X010741Y002286D01*
X010742Y002286D01*
X010742Y002266D01*
X010482Y002006D01*
X010482Y001616D01*
X010758Y001341D01*
X011147Y001341D01*
X011422Y001616D01*
X011422Y002006D01*
X011162Y002266D01*
X011162Y002286D01*
X011164Y002286D01*
X011277Y002400D01*
X011277Y002823D01*
X011164Y002936D01*
X011162Y002936D01*
X011184Y002949D01*
X011214Y002979D01*
X011236Y003017D01*
X011247Y003058D01*
X011247Y003174D01*
X010990Y003174D01*
X010990Y003249D01*
X011247Y003249D01*
X011247Y003364D01*
X011236Y003406D01*
X011214Y003443D01*
X011184Y003473D01*
X011147Y003495D01*
X011052Y003506D02*
X011052Y004374D01*
X011015Y004411D02*
X010162Y004411D01*
X010162Y004311D02*
X010757Y004311D01*
X010772Y004211D02*
X010162Y004211D01*
X010162Y004511D02*
X010757Y004511D01*
X010772Y004611D02*
X010162Y004611D01*
X010162Y004711D02*
X010816Y004711D01*
X010752Y004775D02*
X010752Y003492D01*
X010852Y003506D02*
X010852Y004130D01*
X010952Y004116D02*
X010952Y003249D01*
X010915Y003211D02*
X010562Y003211D01*
X010562Y003111D02*
X010657Y003111D01*
X010672Y003011D02*
X010562Y003011D01*
X010562Y002911D02*
X010716Y002911D01*
X010652Y002848D02*
X010652Y006351D01*
X010552Y006351D02*
X010552Y003608D01*
X010549Y003611D02*
X011300Y003611D01*
X011352Y003558D02*
X011352Y002076D01*
X011317Y002111D02*
X011588Y002111D01*
X011552Y002076D02*
X011552Y003491D01*
X011452Y003506D02*
X011452Y000461D01*
X011352Y000461D02*
X011352Y001546D01*
X011317Y001511D02*
X011588Y001511D01*
X011552Y001546D02*
X011552Y000461D01*
X011652Y000461D02*
X011652Y001446D01*
X011688Y001411D02*
X011217Y001411D01*
X011252Y001446D02*
X011252Y000461D01*
X011152Y000461D02*
X011152Y001346D01*
X011052Y001341D02*
X011052Y000461D01*
X010952Y000461D02*
X010952Y001341D01*
X010852Y001341D02*
X010852Y000461D01*
X010752Y000461D02*
X010752Y001346D01*
X010688Y001411D02*
X010217Y001411D01*
X010252Y001446D02*
X010252Y000461D01*
X010152Y000461D02*
X010152Y001346D01*
X010052Y001341D02*
X010052Y000461D01*
X009952Y000461D02*
X009952Y001341D01*
X009852Y001341D02*
X009852Y000461D01*
X009752Y000461D02*
X009752Y001346D01*
X009688Y001411D02*
X009495Y001411D01*
X009452Y001368D02*
X009452Y000461D01*
X009352Y000461D02*
X009352Y001268D01*
X009395Y001311D02*
X017452Y001311D01*
X017452Y001286D02*
X017398Y001286D01*
X017296Y001244D01*
X017219Y001167D01*
X017177Y001066D01*
X017177Y000956D01*
X017219Y000855D01*
X017296Y000778D01*
X017398Y000736D01*
X017452Y000736D01*
X017452Y000461D01*
X004252Y000461D01*
X004252Y002500D01*
X004780Y002500D01*
X004811Y002509D01*
X004838Y002524D01*
X004860Y002547D01*
X004876Y002574D01*
X004884Y002605D01*
X004884Y002769D01*
X004252Y002769D01*
X004252Y002866D01*
X004884Y002866D01*
X004884Y003030D01*
X004876Y003061D01*
X004860Y003088D01*
X004838Y003110D01*
X004811Y003126D01*
X004780Y003134D01*
X004252Y003134D01*
X004252Y003258D01*
X004827Y003258D01*
X004914Y003346D01*
X004914Y003864D01*
X004827Y003952D01*
X004581Y003952D01*
X004766Y004136D01*
X005089Y004136D01*
X005127Y004174D01*
X005127Y004111D02*
X004741Y004111D01*
X004752Y004123D02*
X004752Y003952D01*
X004652Y003952D02*
X004652Y004023D01*
X004641Y004011D02*
X005127Y004011D01*
X005127Y003911D02*
X004867Y003911D01*
X004852Y003926D02*
X004852Y004136D01*
X004952Y004136D02*
X004952Y001861D01*
X004902Y001861D02*
X004902Y002251D01*
X004770Y002251D01*
X004512Y001993D01*
X004512Y001861D01*
X004902Y001861D01*
X004902Y001761D01*
X004512Y001761D01*
X004512Y001629D01*
X004770Y001371D01*
X004902Y001371D01*
X004902Y001761D01*
X005002Y001761D01*
X005002Y001371D01*
X005134Y001371D01*
X005392Y001629D01*
X005392Y001761D01*
X005002Y001761D01*
X005002Y001861D01*
X004902Y001861D01*
X004852Y001861D02*
X004852Y001761D01*
X004902Y001711D02*
X005002Y001711D01*
X004952Y001761D02*
X004952Y000461D01*
X004852Y000461D02*
X004852Y001371D01*
X004902Y001411D02*
X005002Y001411D01*
X005052Y001371D02*
X005052Y000461D01*
X005152Y000461D02*
X005152Y001389D01*
X005174Y001411D02*
X005688Y001411D01*
X005652Y001446D02*
X005652Y000461D01*
X005552Y000461D02*
X005552Y001546D01*
X005588Y001511D02*
X005274Y001511D01*
X005252Y001489D02*
X005252Y000461D01*
X005352Y000461D02*
X005352Y001589D01*
X005374Y001611D02*
X005488Y001611D01*
X005482Y001616D02*
X005758Y001341D01*
X006147Y001341D01*
X006422Y001616D01*
X006422Y002006D01*
X006262Y002166D01*
X006262Y002473D01*
X006215Y002587D01*
X006065Y002737D01*
X005978Y002824D01*
X005977Y002824D01*
X005977Y002898D01*
X005889Y002986D01*
X005215Y002986D01*
X005127Y002898D01*
X005127Y002251D01*
X005002Y002251D01*
X005002Y001861D01*
X005392Y001861D01*
X005392Y001993D01*
X005249Y002136D01*
X005613Y002136D01*
X005482Y002006D01*
X005482Y001616D01*
X005482Y001711D02*
X005392Y001711D01*
X005352Y001761D02*
X005352Y001861D01*
X005392Y001911D02*
X005482Y001911D01*
X005482Y001811D02*
X005002Y001811D01*
X005052Y001761D02*
X005052Y001861D01*
X005002Y001911D02*
X004902Y001911D01*
X004902Y001811D02*
X004252Y001811D01*
X004252Y001711D02*
X004512Y001711D01*
X004552Y001761D02*
X004552Y001861D01*
X004512Y001911D02*
X004252Y001911D01*
X004252Y002011D02*
X004530Y002011D01*
X004552Y002033D02*
X004552Y002500D01*
X004452Y002500D02*
X004452Y000461D01*
X004352Y000461D02*
X004352Y002500D01*
X004252Y002500D02*
X004252Y000461D01*
X004252Y000511D02*
X017452Y000511D01*
X017452Y000611D02*
X004252Y000611D01*
X004252Y000711D02*
X017452Y000711D01*
X017352Y000755D02*
X017352Y000461D01*
X017252Y000461D02*
X017252Y000822D01*
X017263Y000811D02*
X004252Y000811D01*
X004252Y000911D02*
X017196Y000911D01*
X017177Y001011D02*
X004252Y001011D01*
X004252Y001111D02*
X017196Y001111D01*
X017252Y001200D02*
X017252Y002282D01*
X017152Y002282D02*
X017152Y000461D01*
X017052Y000461D02*
X017052Y002282D01*
X016952Y002282D02*
X016952Y000461D01*
X016852Y000461D02*
X016852Y002282D01*
X016813Y002282D02*
X017410Y002282D01*
X017452Y002324D01*
X017452Y001286D01*
X017352Y001267D02*
X017352Y002282D01*
X017439Y002311D02*
X017452Y002311D01*
X017452Y002211D02*
X016217Y002211D01*
X016252Y002176D02*
X016252Y002312D01*
X016274Y002312D02*
X016274Y002972D01*
X016374Y002972D01*
X016374Y003072D01*
X016680Y003072D01*
X016680Y003628D01*
X016672Y003659D01*
X016656Y003686D01*
X016634Y003709D01*
X016606Y003724D01*
X016576Y003733D01*
X016374Y003733D01*
X016374Y003072D01*
X016274Y003072D01*
X016274Y003733D01*
X016072Y003733D01*
X016041Y003724D01*
X016014Y003709D01*
X015992Y003686D01*
X015976Y003659D01*
X015968Y003628D01*
X015968Y003072D01*
X016274Y003072D01*
X016274Y002972D01*
X015968Y002972D01*
X015968Y002416D01*
X015976Y002385D01*
X015992Y002358D01*
X016014Y002335D01*
X016041Y002320D01*
X016072Y002312D01*
X016274Y002312D01*
X016274Y002411D02*
X016374Y002411D01*
X016374Y002312D02*
X016576Y002312D01*
X016606Y002320D01*
X016634Y002335D01*
X016656Y002358D01*
X016672Y002385D01*
X016680Y002416D01*
X016680Y002972D01*
X016374Y002972D01*
X016374Y002312D01*
X016452Y002312D02*
X016452Y000461D01*
X016352Y000461D02*
X016352Y001546D01*
X016317Y001511D02*
X017452Y001511D01*
X017452Y001411D02*
X016217Y001411D01*
X016252Y001446D02*
X016252Y000461D01*
X016152Y000461D02*
X016152Y001346D01*
X016147Y001341D02*
X016422Y001616D01*
X016422Y002006D01*
X016147Y002281D01*
X015758Y002281D01*
X015482Y002006D01*
X015482Y001616D01*
X015758Y001341D01*
X016147Y001341D01*
X016052Y001341D02*
X016052Y000461D01*
X015952Y000461D02*
X015952Y001341D01*
X015852Y001341D02*
X015852Y000461D01*
X015752Y000461D02*
X015752Y001346D01*
X015688Y001411D02*
X015217Y001411D01*
X015252Y001446D02*
X015252Y000461D01*
X015152Y000461D02*
X015152Y001346D01*
X015147Y001341D02*
X015422Y001616D01*
X015422Y002006D01*
X015147Y002281D01*
X014758Y002281D01*
X014482Y002006D01*
X014482Y001616D01*
X014758Y001341D01*
X015147Y001341D01*
X015052Y001341D02*
X015052Y000461D01*
X014952Y000461D02*
X014952Y001341D01*
X014852Y001341D02*
X014852Y000461D01*
X014752Y000461D02*
X014752Y001346D01*
X014688Y001411D02*
X014217Y001411D01*
X014252Y001446D02*
X014252Y000461D01*
X014152Y000461D02*
X014152Y001346D01*
X014052Y001341D02*
X014052Y000461D01*
X013952Y000461D02*
X013952Y001341D01*
X013852Y001341D02*
X013852Y000461D01*
X013752Y000461D02*
X013752Y001346D01*
X013688Y001411D02*
X013217Y001411D01*
X013252Y001446D02*
X013252Y000461D01*
X013152Y000461D02*
X013152Y001346D01*
X013052Y001341D02*
X013052Y000461D01*
X012952Y000461D02*
X012952Y001341D01*
X012852Y001341D02*
X012852Y000461D01*
X012752Y000461D02*
X012752Y001346D01*
X012688Y001411D02*
X012217Y001411D01*
X012252Y001446D02*
X012252Y000461D01*
X012152Y000461D02*
X012152Y001346D01*
X012052Y001341D02*
X012052Y000461D01*
X011952Y000461D02*
X011952Y001341D01*
X011852Y001341D02*
X011852Y000461D01*
X011752Y000461D02*
X011752Y001346D01*
X011488Y001611D02*
X011417Y001611D01*
X011422Y001711D02*
X011482Y001711D01*
X011482Y001811D02*
X011422Y001811D01*
X011422Y001911D02*
X011482Y001911D01*
X011488Y002011D02*
X011417Y002011D01*
X011252Y002176D02*
X011252Y002375D01*
X011277Y002411D02*
X011627Y002411D01*
X011652Y002375D02*
X011652Y002176D01*
X011688Y002211D02*
X011217Y002211D01*
X011189Y002311D02*
X011716Y002311D01*
X011627Y002511D02*
X011277Y002511D01*
X011277Y002611D02*
X011627Y002611D01*
X011627Y002711D02*
X011277Y002711D01*
X011277Y002811D02*
X011627Y002811D01*
X011652Y002848D02*
X011652Y002975D01*
X011627Y003011D02*
X011233Y003011D01*
X011247Y003111D02*
X011627Y003111D01*
X011627Y003211D02*
X010990Y003211D01*
X011052Y003174D02*
X011052Y003249D01*
X010990Y003311D02*
X010915Y003311D01*
X010852Y003249D02*
X010852Y003174D01*
X010752Y003174D02*
X010752Y003249D01*
X010657Y003311D02*
X010562Y003311D01*
X010562Y003411D02*
X010672Y003411D01*
X010562Y003511D02*
X011440Y003511D01*
X011627Y003411D02*
X011233Y003411D01*
X011247Y003311D02*
X011627Y003311D01*
X011652Y003448D02*
X011652Y003506D01*
X011664Y003511D02*
X011716Y003511D01*
X011252Y003699D02*
X011252Y002848D01*
X011189Y002911D02*
X011716Y002911D01*
X011152Y003174D02*
X011152Y003249D01*
X010990Y003411D02*
X010915Y003411D01*
X009932Y003181D02*
X009582Y002831D01*
X009582Y002161D01*
X009442Y002021D01*
X009442Y001641D01*
X009162Y001361D01*
X008452Y001361D01*
X008452Y002011D01*
X008552Y002111D01*
X009162Y002266D02*
X009162Y002286D01*
X009164Y002286D01*
X009277Y002400D01*
X009277Y002401D01*
X009339Y002401D01*
X009382Y002444D01*
X009382Y002244D01*
X009359Y002221D01*
X009283Y002145D01*
X009162Y002266D01*
X009189Y002311D02*
X009382Y002311D01*
X009382Y002411D02*
X009349Y002411D01*
X009352Y002414D02*
X009352Y002214D01*
X009349Y002211D02*
X009217Y002211D01*
X009252Y002176D02*
X009252Y002375D01*
X010189Y002311D02*
X010716Y002311D01*
X010652Y002375D02*
X010652Y002176D01*
X010688Y002211D02*
X010217Y002211D01*
X010252Y002176D02*
X010252Y002375D01*
X010349Y002411D02*
X010627Y002411D01*
X010627Y002511D02*
X010449Y002511D01*
X010452Y002514D02*
X010452Y000461D01*
X010352Y000461D02*
X010352Y001546D01*
X010317Y001511D02*
X010588Y001511D01*
X010552Y001546D02*
X010552Y000461D01*
X010652Y000461D02*
X010652Y001446D01*
X010488Y001611D02*
X010417Y001611D01*
X010422Y001711D02*
X010482Y001711D01*
X010482Y001811D02*
X010422Y001811D01*
X010422Y001911D02*
X010482Y001911D01*
X010488Y002011D02*
X010417Y002011D01*
X010352Y002076D02*
X010352Y002414D01*
X010549Y002611D02*
X010627Y002611D01*
X010552Y002614D02*
X010552Y002076D01*
X010588Y002111D02*
X010317Y002111D01*
X010562Y002711D02*
X010627Y002711D01*
X010627Y002811D02*
X010562Y002811D01*
X009627Y003211D02*
X009562Y003211D01*
X009562Y003111D02*
X009579Y003111D01*
X009562Y003311D02*
X009627Y003311D01*
X009627Y003411D02*
X009562Y003411D01*
X009562Y003811D02*
X009742Y003811D01*
X009742Y003911D02*
X009562Y003911D01*
X009562Y004011D02*
X009742Y004011D01*
X009742Y004111D02*
X009562Y004111D01*
X008732Y004411D02*
X008701Y004411D01*
X007716Y004111D02*
X007627Y004023D01*
X007627Y003600D01*
X007682Y003545D01*
X007682Y003481D01*
X007262Y003481D01*
X007262Y003823D01*
X007272Y003847D01*
X007272Y003975D01*
X007223Y004092D01*
X007180Y004136D01*
X007289Y004091D01*
X007416Y004091D01*
X007533Y004140D01*
X007595Y004201D01*
X007627Y004201D01*
X007627Y004200D01*
X007716Y004111D01*
X007464Y004111D01*
X007452Y004106D02*
X007452Y003481D01*
X007352Y003481D02*
X007352Y004091D01*
X007252Y004106D02*
X007252Y004023D01*
X007257Y004011D02*
X007627Y004011D01*
X007652Y004048D02*
X007652Y004175D01*
X007552Y004159D02*
X007552Y003481D01*
X007652Y003481D02*
X007652Y003575D01*
X007627Y003611D02*
X007262Y003611D01*
X007262Y003511D02*
X007682Y003511D01*
X007627Y003711D02*
X007262Y003711D01*
X007262Y003811D02*
X007627Y003811D01*
X007627Y003911D02*
X007272Y003911D01*
X007240Y004111D02*
X007205Y004111D01*
X007100Y004211D02*
X007064Y004211D01*
X007052Y004216D02*
X007052Y004299D01*
X006952Y004231D02*
X006952Y004801D01*
X006952Y005221D02*
X006952Y005330D01*
X007052Y005316D02*
X007052Y005221D01*
X007152Y005221D02*
X007152Y005574D01*
X007115Y005511D02*
X007190Y005511D01*
X007190Y005411D02*
X007115Y005411D01*
X007252Y005316D02*
X007252Y005221D01*
X007352Y005221D02*
X007352Y005330D01*
X007452Y005375D02*
X007452Y005221D01*
X008052Y005221D02*
X008052Y005375D01*
X008152Y005358D02*
X008152Y005221D01*
X008352Y005221D02*
X008352Y005291D01*
X008452Y005306D02*
X008452Y005221D01*
X008464Y005311D02*
X008555Y005311D01*
X008552Y005308D02*
X008552Y005359D01*
X008657Y005711D02*
X008800Y005711D01*
X008652Y005723D02*
X008652Y006099D01*
X008657Y006111D02*
X008842Y006111D01*
X008842Y006011D02*
X008605Y006011D01*
X008533Y005940D02*
X008464Y005911D01*
X008240Y005911D02*
X008171Y005940D01*
X008110Y006001D01*
X008077Y006001D01*
X008077Y006000D01*
X007989Y005911D01*
X008240Y005911D01*
X008171Y005882D01*
X008110Y005821D01*
X008077Y005821D01*
X008077Y005823D01*
X007989Y005911D01*
X008052Y005848D02*
X008052Y005975D01*
X008152Y005958D02*
X008152Y005864D01*
X008672Y006211D02*
X008842Y006211D01*
X009662Y006211D02*
X009840Y006211D01*
X009852Y006216D02*
X009852Y006351D01*
X009752Y006351D02*
X009752Y006164D01*
X009700Y006111D02*
X009662Y006111D01*
X009952Y006231D02*
X009952Y006351D01*
X010052Y006351D02*
X010052Y006216D01*
X010064Y006211D02*
X010871Y006211D01*
X010867Y006111D02*
X010205Y006111D01*
X010152Y006164D02*
X010152Y006351D01*
X010252Y006351D02*
X010252Y006023D01*
X010257Y006011D02*
X010867Y006011D01*
X010952Y006051D02*
X010952Y006071D01*
X011052Y006071D02*
X011052Y006051D01*
X011152Y006051D02*
X011152Y006071D01*
X011252Y006071D02*
X011252Y006051D01*
X011352Y006051D02*
X011352Y006071D01*
X011432Y006071D02*
X011432Y006051D01*
X011977Y006051D01*
X011977Y005925D01*
X011969Y005895D01*
X011953Y005867D01*
X011931Y005845D01*
X011907Y005831D01*
X011919Y005831D01*
X012007Y005743D01*
X012007Y005379D01*
X011919Y005291D01*
X011309Y005291D01*
X011377Y005223D01*
X011377Y005221D01*
X011439Y005221D01*
X011562Y005098D01*
X011662Y004998D01*
X011662Y004974D01*
X011671Y004982D01*
X011789Y005031D01*
X011916Y005031D01*
X012033Y004982D01*
X012086Y004929D01*
X012086Y005980D01*
X011977Y006089D01*
X011977Y006071D01*
X011432Y006071D01*
X011452Y006071D02*
X011452Y006051D01*
X011552Y006051D02*
X011552Y006071D01*
X011652Y006071D02*
X011652Y006051D01*
X011752Y006051D02*
X011752Y006071D01*
X011852Y006071D02*
X011852Y006051D01*
X011952Y006051D02*
X011952Y006071D01*
X011977Y006011D02*
X012055Y006011D01*
X012052Y006014D02*
X012052Y004964D01*
X012086Y005011D02*
X011964Y005011D01*
X011952Y005016D02*
X011952Y005324D01*
X011939Y005311D02*
X012086Y005311D01*
X012086Y005211D02*
X011449Y005211D01*
X011452Y005208D02*
X011452Y005291D01*
X011352Y005291D02*
X011352Y005248D01*
X011552Y005291D02*
X011552Y005108D01*
X011549Y005111D02*
X012086Y005111D01*
X011852Y005031D02*
X011852Y005291D01*
X011752Y005291D02*
X011752Y005016D01*
X011740Y005011D02*
X011649Y005011D01*
X011652Y005008D02*
X011652Y005291D01*
X012007Y005411D02*
X012086Y005411D01*
X012086Y005511D02*
X012007Y005511D01*
X012007Y005611D02*
X012086Y005611D01*
X012086Y005711D02*
X012007Y005711D01*
X011952Y005798D02*
X011952Y005866D01*
X011973Y005911D02*
X012086Y005911D01*
X012086Y005811D02*
X011939Y005811D01*
X012506Y005811D02*
X012965Y005811D01*
X012897Y005743D01*
X012897Y005379D01*
X012985Y005291D01*
X013742Y005291D01*
X013742Y004418D01*
X013639Y004521D01*
X013515Y004521D01*
X013523Y004530D01*
X013572Y004647D01*
X013572Y004775D01*
X013523Y004892D01*
X013433Y004982D01*
X013316Y005031D01*
X013229Y005031D01*
X013139Y005121D01*
X012565Y005121D01*
X012506Y005062D01*
X012506Y006154D01*
X012469Y006191D01*
X012516Y006191D01*
X012633Y006240D01*
X012723Y006330D01*
X012752Y006399D02*
X012752Y005121D01*
X012652Y005121D02*
X012652Y006259D01*
X012564Y006211D02*
X012897Y006211D01*
X012897Y006243D02*
X012897Y005879D01*
X012965Y005811D01*
X012952Y005798D02*
X012952Y005824D01*
X012897Y005911D02*
X012506Y005911D01*
X012506Y006011D02*
X012897Y006011D01*
X012897Y006111D02*
X012506Y006111D01*
X012552Y006206D02*
X012552Y005108D01*
X012555Y005111D02*
X012506Y005111D01*
X012506Y005211D02*
X013742Y005211D01*
X013742Y005111D02*
X013149Y005111D01*
X013152Y005108D02*
X013152Y005291D01*
X013052Y005291D02*
X013052Y005121D01*
X012952Y005121D02*
X012952Y005324D01*
X012965Y005311D02*
X012506Y005311D01*
X012506Y005411D02*
X012897Y005411D01*
X012897Y005511D02*
X012506Y005511D01*
X012506Y005611D02*
X012897Y005611D01*
X012897Y005711D02*
X012506Y005711D01*
X012897Y006243D02*
X012965Y006311D01*
X012952Y006298D02*
X012952Y006324D01*
X012897Y006411D02*
X012757Y006411D01*
X012772Y006511D02*
X012897Y006511D01*
X012897Y006611D02*
X012757Y006611D01*
X012752Y006623D02*
X012752Y008475D01*
X012777Y008511D02*
X012827Y008511D01*
X012827Y008500D02*
X012941Y008386D01*
X012942Y008386D01*
X012942Y008324D01*
X013142Y008124D01*
X013265Y008001D01*
X013442Y008001D01*
X013442Y007724D01*
X013642Y007524D01*
X013765Y007401D01*
X014165Y007401D01*
X014242Y007324D01*
X014242Y007154D01*
X014181Y007092D01*
X014132Y006975D01*
X014132Y006847D01*
X014181Y006730D01*
X014271Y006640D01*
X014389Y006591D01*
X014516Y006591D01*
X014633Y006640D01*
X014723Y006730D01*
X014757Y006810D01*
X014757Y006228D01*
X014844Y006140D01*
X016150Y006140D01*
X016238Y006228D01*
X016238Y006326D01*
X016600Y006326D01*
X016717Y006443D01*
X016717Y006443D01*
X016802Y006528D01*
X016802Y007109D01*
X016842Y007068D01*
X016842Y005947D01*
X016823Y005992D01*
X016733Y006082D01*
X016616Y006131D01*
X016489Y006131D01*
X016371Y006082D01*
X016281Y005992D01*
X016259Y005939D01*
X016238Y005939D01*
X016238Y006037D01*
X016150Y006125D01*
X014844Y006125D01*
X014757Y006037D01*
X014757Y005440D01*
X014844Y005352D01*
X016150Y005352D01*
X016238Y005440D01*
X016238Y005539D01*
X016374Y005539D01*
X016489Y005491D01*
X016616Y005491D01*
X016733Y005540D01*
X016823Y005630D01*
X016842Y005675D01*
X016842Y003763D01*
X016813Y003763D01*
X016725Y003675D01*
X016725Y002369D01*
X016813Y002282D01*
X016783Y002311D02*
X014189Y002311D01*
X014252Y002375D02*
X014252Y002176D01*
X014217Y002211D02*
X014688Y002211D01*
X014652Y002176D02*
X014652Y003206D01*
X014640Y003211D02*
X013990Y003211D01*
X014052Y003174D02*
X014052Y003249D01*
X014152Y003249D02*
X014152Y003174D01*
X014247Y003111D02*
X015968Y003111D01*
X016052Y003072D02*
X016052Y002972D01*
X016152Y002972D02*
X016152Y003072D01*
X016252Y003072D02*
X016252Y002972D01*
X016274Y003011D02*
X014233Y003011D01*
X014189Y002911D02*
X015968Y002911D01*
X015968Y002811D02*
X014277Y002811D01*
X014252Y002848D02*
X014252Y003321D01*
X014247Y003311D02*
X014500Y003311D01*
X014452Y003321D02*
X014452Y000461D01*
X014352Y000461D02*
X014352Y001546D01*
X014317Y001511D02*
X014588Y001511D01*
X014552Y001546D02*
X014552Y000461D01*
X014652Y000461D02*
X014652Y001446D01*
X014488Y001611D02*
X014417Y001611D01*
X014422Y001711D02*
X014482Y001711D01*
X014482Y001811D02*
X014422Y001811D01*
X014422Y001911D02*
X014482Y001911D01*
X014488Y002011D02*
X014417Y002011D01*
X014352Y002076D02*
X014352Y003321D01*
X014552Y003258D02*
X014552Y002076D01*
X014588Y002111D02*
X014317Y002111D01*
X014752Y002276D02*
X014752Y003191D01*
X014852Y003206D02*
X014852Y002281D01*
X014952Y002281D02*
X014952Y003259D01*
X015005Y003311D02*
X015200Y003311D01*
X015252Y003258D02*
X015252Y002176D01*
X015217Y002211D02*
X015688Y002211D01*
X015652Y002176D02*
X015652Y003259D01*
X015705Y003311D02*
X015968Y003311D01*
X015968Y003211D02*
X015564Y003211D01*
X015552Y003206D02*
X015552Y002076D01*
X015588Y002111D02*
X015317Y002111D01*
X015352Y002076D02*
X015352Y003206D01*
X015340Y003211D02*
X014864Y003211D01*
X015052Y003399D02*
X015052Y002281D01*
X015152Y002276D02*
X015152Y003399D01*
X015147Y003411D02*
X015057Y003411D01*
X015072Y003511D02*
X015132Y003511D01*
X015147Y003611D02*
X015057Y003611D01*
X015052Y003623D02*
X015052Y003778D01*
X015005Y003711D02*
X015200Y003711D01*
X015252Y003764D02*
X015252Y003778D01*
X015152Y003778D02*
X015152Y003623D01*
X014952Y003764D02*
X014952Y003778D01*
X014752Y003831D02*
X014752Y006799D01*
X014767Y006835D02*
X014772Y006847D01*
X014772Y006975D01*
X014723Y007092D01*
X014662Y007154D01*
X014662Y007498D01*
X014539Y007621D01*
X014339Y007821D01*
X014315Y007821D01*
X014323Y007830D01*
X014372Y007947D01*
X014372Y008075D01*
X014362Y008099D01*
X014362Y008261D01*
X014514Y008261D01*
X014602Y008349D01*
X014602Y008973D01*
X014574Y009001D01*
X015014Y009001D01*
X015128Y009048D01*
X015181Y009101D01*
X015938Y009101D01*
X015938Y008826D01*
X016026Y008738D01*
X016547Y008738D01*
X016402Y008594D01*
X016402Y008428D01*
X016402Y006726D01*
X016238Y006726D01*
X016238Y006824D01*
X016150Y006912D01*
X014844Y006912D01*
X014767Y006835D01*
X014772Y006911D02*
X014843Y006911D01*
X014852Y006912D02*
X014852Y006927D01*
X014844Y006927D02*
X016150Y006927D01*
X016238Y007015D01*
X016238Y007612D01*
X016150Y007700D01*
X014844Y007700D01*
X014757Y007612D01*
X014757Y007015D01*
X014844Y006927D01*
X014952Y006927D02*
X014952Y006912D01*
X015052Y006912D02*
X015052Y006927D01*
X015152Y006927D02*
X015152Y006912D01*
X015252Y006912D02*
X015252Y006927D01*
X015352Y006927D02*
X015352Y006912D01*
X015452Y006912D02*
X015452Y006927D01*
X015552Y006927D02*
X015552Y006912D01*
X015652Y006912D02*
X015652Y006927D01*
X015752Y006927D02*
X015752Y006912D01*
X015852Y006912D02*
X015852Y006927D01*
X015952Y006927D02*
X015952Y006912D01*
X016052Y006912D02*
X016052Y006927D01*
X016151Y006911D02*
X016402Y006911D01*
X016402Y006811D02*
X016238Y006811D01*
X016252Y006726D02*
X016252Y008738D01*
X016152Y008738D02*
X016152Y008485D01*
X016150Y008487D02*
X014844Y008487D01*
X014757Y008399D01*
X014757Y007802D01*
X014844Y007715D01*
X016150Y007715D01*
X016238Y007802D01*
X016238Y008399D01*
X016150Y008487D01*
X016052Y008487D02*
X016052Y008738D01*
X015953Y008811D02*
X014602Y008811D01*
X014602Y008711D02*
X016519Y008711D01*
X016452Y008738D02*
X016452Y008644D01*
X016419Y008611D02*
X014602Y008611D01*
X014602Y008511D02*
X016402Y008511D01*
X016402Y008411D02*
X016226Y008411D01*
X016238Y008311D02*
X016402Y008311D01*
X016402Y008211D02*
X016238Y008211D01*
X016238Y008111D02*
X016402Y008111D01*
X016402Y008011D02*
X016238Y008011D01*
X016238Y007911D02*
X016402Y007911D01*
X016402Y007811D02*
X016238Y007811D01*
X016152Y007717D02*
X016152Y007697D01*
X016052Y007700D02*
X016052Y007715D01*
X015952Y007715D02*
X015952Y007700D01*
X015852Y007700D02*
X015852Y007715D01*
X015752Y007715D02*
X015752Y007700D01*
X015652Y007700D02*
X015652Y007715D01*
X015552Y007715D02*
X015552Y007700D01*
X015452Y007700D02*
X015452Y007715D01*
X015352Y007715D02*
X015352Y007700D01*
X015252Y007700D02*
X015252Y007715D01*
X015152Y007715D02*
X015152Y007700D01*
X015052Y007700D02*
X015052Y007715D01*
X014952Y007715D02*
X014952Y007700D01*
X014852Y007700D02*
X014852Y007715D01*
X014757Y007811D02*
X014349Y007811D01*
X014352Y007808D02*
X014352Y007899D01*
X014357Y007911D02*
X014757Y007911D01*
X014757Y008011D02*
X014372Y008011D01*
X014362Y008111D02*
X014757Y008111D01*
X014757Y008211D02*
X014362Y008211D01*
X014452Y008261D02*
X014452Y007708D01*
X014449Y007711D02*
X016402Y007711D01*
X016402Y007611D02*
X016238Y007611D01*
X016238Y007511D02*
X016402Y007511D01*
X016402Y007411D02*
X016238Y007411D01*
X016238Y007311D02*
X016402Y007311D01*
X016402Y007211D02*
X016238Y007211D01*
X016238Y007111D02*
X016402Y007111D01*
X016402Y007011D02*
X016234Y007011D01*
X016152Y006930D02*
X016152Y006910D01*
X016352Y006726D02*
X016352Y008738D01*
X015952Y008812D02*
X015952Y008487D01*
X015852Y008487D02*
X015852Y009101D01*
X015752Y009101D02*
X015752Y008487D01*
X015652Y008487D02*
X015652Y009101D01*
X015552Y009101D02*
X015552Y008487D01*
X015452Y008487D02*
X015452Y009101D01*
X015352Y009101D02*
X015352Y008487D01*
X015252Y008487D02*
X015252Y009101D01*
X015152Y009073D02*
X015152Y008487D01*
X015052Y008487D02*
X015052Y009017D01*
X015038Y009011D02*
X015938Y009011D01*
X015938Y008911D02*
X014602Y008911D01*
X014652Y009001D02*
X014652Y007508D01*
X014649Y007511D02*
X014757Y007511D01*
X014757Y007411D02*
X014662Y007411D01*
X014662Y007311D02*
X014757Y007311D01*
X014757Y007211D02*
X014662Y007211D01*
X014705Y007111D02*
X014757Y007111D01*
X014752Y007023D02*
X014752Y009001D01*
X014852Y009001D02*
X014852Y008487D01*
X014952Y008487D02*
X014952Y009001D01*
X014768Y008411D02*
X014602Y008411D01*
X014564Y008311D02*
X014757Y008311D01*
X014552Y008299D02*
X014552Y007608D01*
X014549Y007611D02*
X014757Y007611D01*
X014152Y007401D02*
X014152Y007023D01*
X014147Y007011D02*
X014037Y007011D01*
X014037Y007071D02*
X014037Y007197D01*
X014029Y007227D01*
X014013Y007255D01*
X013991Y007277D01*
X013964Y007293D01*
X013933Y007301D01*
X013492Y007301D01*
X013492Y007071D01*
X014037Y007071D01*
X014037Y007111D02*
X014200Y007111D01*
X014242Y007211D02*
X014033Y007211D01*
X013952Y007296D02*
X013952Y007401D01*
X013852Y007401D02*
X013852Y007301D01*
X013752Y007301D02*
X013752Y007414D01*
X013755Y007411D02*
X012662Y007411D01*
X012662Y007311D02*
X014242Y007311D01*
X014052Y007401D02*
X014052Y006758D01*
X014067Y006711D02*
X014200Y006711D01*
X014252Y006658D02*
X014252Y003741D01*
X014352Y003741D02*
X014352Y006606D01*
X014340Y006611D02*
X014067Y006611D01*
X014067Y006511D02*
X014757Y006511D01*
X014757Y006411D02*
X014067Y006411D01*
X014052Y006364D02*
X014052Y006258D01*
X014067Y006211D02*
X014773Y006211D01*
X014757Y006311D02*
X013999Y006311D01*
X014067Y006111D02*
X014831Y006111D01*
X014852Y006125D02*
X014852Y006140D01*
X014952Y006140D02*
X014952Y006125D01*
X015052Y006125D02*
X015052Y006140D01*
X015152Y006140D02*
X015152Y006125D01*
X015252Y006125D02*
X015252Y006140D01*
X015352Y006140D02*
X015352Y006125D01*
X015452Y006125D02*
X015452Y006140D01*
X015552Y006140D02*
X015552Y006125D01*
X015652Y006125D02*
X015652Y006140D01*
X015752Y006140D02*
X015752Y006125D01*
X015852Y006125D02*
X015852Y006140D01*
X015952Y006140D02*
X015952Y006125D01*
X016052Y006125D02*
X016052Y006140D01*
X016152Y006142D02*
X016152Y006122D01*
X016164Y006111D02*
X016440Y006111D01*
X016452Y006116D02*
X016452Y006326D01*
X016352Y006326D02*
X016352Y006064D01*
X016300Y006011D02*
X016238Y006011D01*
X016252Y005939D02*
X016252Y006326D01*
X016238Y006311D02*
X016842Y006311D01*
X016842Y006211D02*
X016221Y006211D01*
X016552Y006131D02*
X016552Y006326D01*
X016652Y006378D02*
X016652Y006116D01*
X016664Y006111D02*
X016842Y006111D01*
X016842Y006011D02*
X016805Y006011D01*
X016752Y006064D02*
X016752Y006478D01*
X016785Y006511D02*
X016842Y006511D01*
X016842Y006411D02*
X016685Y006411D01*
X016517Y006526D02*
X016602Y006611D01*
X016602Y008511D01*
X016752Y008661D01*
X016752Y010211D01*
X016652Y010311D01*
X016002Y010311D01*
X015952Y010361D01*
X013402Y010361D01*
X012952Y010811D01*
X012482Y010811D02*
X012422Y010811D01*
X012422Y010711D02*
X012482Y010711D01*
X012482Y010616D02*
X012758Y010341D01*
X013139Y010341D01*
X013319Y010161D01*
X013532Y010161D01*
X013532Y010011D01*
X014002Y010011D01*
X014002Y009911D01*
X013532Y009911D01*
X011349Y009911D01*
X011352Y009914D02*
X011352Y009548D01*
X011377Y009523D02*
X011264Y009636D01*
X011262Y009636D01*
X011262Y009824D01*
X011779Y010341D01*
X012147Y010341D01*
X012052Y010341D02*
X012052Y009548D01*
X012077Y009523D02*
X011964Y009636D01*
X011541Y009636D01*
X011427Y009523D01*
X011427Y009321D01*
X011377Y009321D01*
X011377Y009523D01*
X011377Y009511D02*
X011427Y009511D01*
X011452Y009548D02*
X011452Y010014D01*
X011449Y010011D02*
X013532Y010011D01*
X013552Y010011D02*
X013552Y009911D01*
X013532Y009911D02*
X013532Y009695D01*
X013540Y009665D01*
X013556Y009637D01*
X013573Y009621D01*
X013379Y009621D01*
X013364Y009636D01*
X012941Y009636D01*
X012827Y009523D01*
X012827Y009100D01*
X012916Y009011D01*
X012827Y008923D01*
X012827Y008500D01*
X012852Y008475D02*
X012852Y005121D01*
X013252Y005031D02*
X013252Y005291D01*
X013352Y005291D02*
X013352Y005016D01*
X013364Y005011D02*
X013742Y005011D01*
X013742Y004911D02*
X013505Y004911D01*
X013452Y004964D02*
X013452Y005291D01*
X013552Y005291D02*
X013552Y004823D01*
X013557Y004811D02*
X013742Y004811D01*
X013742Y004711D02*
X013572Y004711D01*
X013557Y004611D02*
X013742Y004611D01*
X013742Y004511D02*
X013649Y004511D01*
X013652Y004508D02*
X013652Y005291D01*
X014162Y005311D02*
X014818Y005311D01*
X014844Y005337D02*
X014757Y005250D01*
X014757Y004653D01*
X014844Y004565D01*
X016150Y004565D01*
X016238Y004653D01*
X016238Y005250D01*
X016150Y005337D01*
X014844Y005337D01*
X014852Y005337D02*
X014852Y005352D01*
X014786Y005411D02*
X014162Y005411D01*
X014162Y005511D02*
X014757Y005511D01*
X014757Y005611D02*
X014149Y005611D01*
X014152Y005608D02*
X014152Y006799D01*
X014147Y006811D02*
X013999Y006811D01*
X014033Y006911D02*
X014132Y006911D01*
X013952Y007051D02*
X013952Y007071D01*
X013852Y007071D02*
X013852Y007051D01*
X013752Y007051D02*
X013752Y007071D01*
X013652Y007071D02*
X013652Y007051D01*
X013552Y007051D02*
X013552Y007071D01*
X013492Y007111D02*
X013472Y007111D01*
X013472Y007071D02*
X013472Y007301D01*
X013031Y007301D01*
X013001Y007293D01*
X012974Y007277D01*
X012951Y007255D01*
X012935Y007227D01*
X012927Y007197D01*
X012927Y007071D01*
X013472Y007071D01*
X013452Y007071D02*
X013452Y007051D01*
X013352Y007051D02*
X013352Y007071D01*
X013252Y007071D02*
X013252Y007051D01*
X013152Y007051D02*
X013152Y007071D01*
X013052Y007071D02*
X013052Y007051D01*
X012952Y007051D02*
X012952Y007071D01*
X012927Y007111D02*
X012662Y007111D01*
X012662Y007011D02*
X012927Y007011D01*
X012931Y006911D02*
X012662Y006911D01*
X012662Y006811D02*
X012965Y006811D01*
X012952Y006798D02*
X012952Y006866D01*
X012897Y006711D02*
X012705Y006711D01*
X012662Y007211D02*
X012931Y007211D01*
X012952Y007256D02*
X012952Y008314D01*
X012955Y008311D02*
X012662Y008311D01*
X012662Y008211D02*
X013055Y008211D01*
X013052Y008214D02*
X013052Y007301D01*
X013152Y007301D02*
X013152Y008114D01*
X013155Y008111D02*
X012662Y008111D01*
X012662Y008011D02*
X013255Y008011D01*
X013252Y008014D02*
X013252Y007301D01*
X013352Y007301D02*
X013352Y008001D01*
X013442Y007911D02*
X012662Y007911D01*
X012662Y007811D02*
X013442Y007811D01*
X013452Y007714D02*
X013452Y007301D01*
X013472Y007211D02*
X013492Y007211D01*
X013552Y007301D02*
X013552Y007614D01*
X013555Y007611D02*
X012662Y007611D01*
X012662Y007511D02*
X013655Y007511D01*
X013652Y007514D02*
X013652Y007301D01*
X013455Y007711D02*
X012662Y007711D01*
X012242Y008218D02*
X012162Y008298D01*
X012039Y008421D01*
X011999Y008421D01*
X012077Y008500D01*
X012077Y008501D01*
X012127Y008501D01*
X012127Y008500D01*
X012241Y008386D01*
X012242Y008386D01*
X012242Y008218D01*
X012242Y008311D02*
X012149Y008311D01*
X012152Y008308D02*
X012152Y008475D01*
X012216Y008411D02*
X012049Y008411D01*
X012052Y008408D02*
X012052Y008475D01*
X011506Y008421D02*
X011299Y008421D01*
X011377Y008500D01*
X011377Y008539D01*
X011427Y008589D01*
X011427Y008500D01*
X011506Y008421D01*
X011452Y008421D02*
X011452Y008475D01*
X011427Y008511D02*
X011377Y008511D01*
X011352Y008475D02*
X011352Y008421D01*
X011352Y008001D02*
X011352Y007331D01*
X011252Y007331D02*
X011252Y008001D01*
X011152Y008001D02*
X011152Y007331D01*
X011052Y007331D02*
X011052Y008001D01*
X011452Y008001D02*
X011452Y007331D01*
X011552Y007331D02*
X011552Y008001D01*
X011652Y008001D02*
X011652Y007331D01*
X011752Y007331D02*
X011752Y008001D01*
X012689Y008411D02*
X012916Y008411D01*
X012827Y008611D02*
X012777Y008611D01*
X012777Y008711D02*
X012827Y008711D01*
X012827Y008811D02*
X012777Y008811D01*
X012777Y008911D02*
X012827Y008911D01*
X012852Y008948D02*
X012852Y009075D01*
X012827Y009111D02*
X012733Y009111D01*
X012747Y009211D02*
X012827Y009211D01*
X012827Y009311D02*
X012490Y009311D01*
X012490Y009349D02*
X012747Y009349D01*
X012747Y009464D01*
X012736Y009506D01*
X012714Y009543D01*
X012684Y009573D01*
X012647Y009595D01*
X012605Y009606D01*
X012490Y009606D01*
X012490Y009349D01*
X012452Y009349D02*
X012452Y011901D01*
X012352Y011901D02*
X012352Y011076D01*
X012317Y011111D02*
X012588Y011111D01*
X012552Y011076D02*
X012552Y011901D01*
X012652Y011901D02*
X012652Y011176D01*
X012688Y011211D02*
X012217Y011211D01*
X012252Y011176D02*
X012252Y011901D01*
X012152Y011901D02*
X012152Y011276D01*
X012052Y011281D02*
X012052Y011901D01*
X011952Y011901D02*
X011952Y011281D01*
X011852Y011281D02*
X011852Y011901D01*
X011752Y011901D02*
X011752Y011276D01*
X011688Y011211D02*
X011217Y011211D01*
X011252Y011176D02*
X011252Y011901D01*
X011152Y011901D02*
X011152Y011276D01*
X011147Y011281D02*
X010758Y011281D01*
X010652Y011176D01*
X010652Y011901D01*
X017452Y011901D01*
X017452Y011836D01*
X017398Y011836D01*
X017296Y011794D01*
X017219Y011717D01*
X017177Y011616D01*
X017177Y011506D01*
X017219Y011405D01*
X017296Y011328D01*
X017398Y011286D01*
X017452Y011286D01*
X017452Y010594D01*
X017402Y010644D01*
X017285Y010761D01*
X016885Y010761D01*
X016802Y010844D01*
X016802Y011294D01*
X016602Y011494D01*
X016485Y011611D01*
X014069Y011611D01*
X013952Y011494D01*
X013952Y011901D01*
X013852Y011901D02*
X013852Y011394D01*
X013869Y011411D02*
X010652Y011411D01*
X010652Y011311D02*
X013769Y011311D01*
X013752Y011294D02*
X013752Y011901D01*
X013652Y011901D02*
X013652Y011176D01*
X013688Y011211D02*
X013217Y011211D01*
X013252Y011176D02*
X013252Y011901D01*
X013152Y011901D02*
X013152Y011276D01*
X013147Y011281D02*
X012758Y011281D01*
X012482Y011006D01*
X012482Y010616D01*
X012488Y010611D02*
X012417Y010611D01*
X012352Y010546D02*
X012352Y009606D01*
X012252Y009592D02*
X012252Y010446D01*
X012217Y010411D02*
X012688Y010411D01*
X012652Y010446D02*
X012652Y009592D01*
X012552Y009606D02*
X012552Y010546D01*
X012588Y010511D02*
X012317Y010511D01*
X011952Y010341D02*
X011952Y009636D01*
X011989Y009611D02*
X012916Y009611D01*
X012952Y009636D02*
X012952Y010341D01*
X012852Y010341D02*
X012852Y009548D01*
X012827Y009511D02*
X012733Y009511D01*
X012747Y009411D02*
X012827Y009411D01*
X012652Y009349D02*
X012652Y009274D01*
X012552Y009274D02*
X012552Y009349D01*
X012490Y009411D02*
X012415Y009411D01*
X012352Y009349D02*
X012352Y009274D01*
X012415Y009311D02*
X012077Y009311D01*
X012077Y009211D02*
X012157Y009211D01*
X012172Y009111D02*
X012077Y009111D01*
X012077Y009100D02*
X012077Y009523D01*
X012077Y009511D02*
X012172Y009511D01*
X012157Y009411D02*
X012077Y009411D01*
X012252Y009349D02*
X012252Y009274D01*
X012077Y009100D02*
X011989Y009011D01*
X012052Y008948D02*
X012052Y009075D01*
X012689Y009011D02*
X012916Y009011D01*
X012752Y008948D02*
X012752Y010346D01*
X013052Y010341D02*
X013052Y009636D01*
X013152Y009636D02*
X013152Y010328D01*
X013169Y010311D02*
X011749Y010311D01*
X011752Y010314D02*
X011752Y009636D01*
X011652Y009636D02*
X011652Y010214D01*
X011649Y010211D02*
X013269Y010211D01*
X013252Y010228D02*
X013252Y009636D01*
X013352Y009636D02*
X013352Y010161D01*
X013452Y010161D02*
X013452Y009621D01*
X013552Y009621D02*
X013552Y009644D01*
X013532Y009711D02*
X011262Y009711D01*
X011262Y009811D02*
X013532Y009811D01*
X013652Y009911D02*
X013652Y010011D01*
X013752Y010011D02*
X013752Y009911D01*
X013852Y009911D02*
X013852Y010011D01*
X013952Y010011D02*
X013952Y009911D01*
X014102Y009911D02*
X014102Y010011D01*
X014572Y010011D01*
X014572Y010161D01*
X014657Y010161D01*
X014657Y010049D01*
X014915Y010049D01*
X014915Y009974D01*
X014657Y009974D01*
X014657Y009858D01*
X014668Y009817D01*
X014690Y009779D01*
X014720Y009749D01*
X014742Y009736D01*
X014741Y009736D01*
X014627Y009623D01*
X014627Y009621D01*
X014532Y009621D01*
X014548Y009637D01*
X014564Y009665D01*
X014572Y009695D01*
X014572Y009911D01*
X014657Y009911D01*
X014572Y009911D02*
X014102Y009911D01*
X014152Y009911D02*
X014152Y010011D01*
X014252Y010011D02*
X014252Y009911D01*
X014352Y009911D02*
X014352Y010011D01*
X014452Y010011D02*
X014452Y009911D01*
X014552Y009911D02*
X014552Y010011D01*
X014572Y010011D02*
X014915Y010011D01*
X014852Y009974D02*
X014852Y010049D01*
X014752Y010049D02*
X014752Y009974D01*
X014657Y010111D02*
X014572Y010111D01*
X014652Y010161D02*
X014652Y009648D01*
X014716Y009711D02*
X014572Y009711D01*
X014552Y009644D02*
X014552Y009621D01*
X014572Y009811D02*
X014672Y009811D01*
X014990Y009974D02*
X014990Y010049D01*
X015247Y010049D01*
X015247Y010161D01*
X015869Y010161D01*
X015919Y010111D01*
X015247Y010111D01*
X015252Y010161D02*
X015252Y009721D01*
X015214Y009779D02*
X015236Y009817D01*
X015247Y009858D01*
X015247Y009974D01*
X014990Y009974D01*
X014990Y010011D02*
X015938Y010011D01*
X015938Y009911D02*
X015247Y009911D01*
X015233Y009811D02*
X015938Y009811D01*
X015938Y009721D02*
X015179Y009721D01*
X015164Y009736D01*
X015162Y009736D01*
X015184Y009749D01*
X015214Y009779D01*
X015352Y009721D02*
X015352Y010161D01*
X015452Y010161D02*
X015452Y009721D01*
X015552Y009721D02*
X015552Y010161D01*
X015652Y010161D02*
X015652Y009721D01*
X015752Y009721D02*
X015752Y010161D01*
X015852Y010161D02*
X015852Y009721D01*
X015938Y009721D02*
X015938Y010111D01*
X015919Y010111D01*
X015482Y010561D02*
X015367Y010561D01*
X015422Y010616D01*
X015422Y011006D01*
X015217Y011211D01*
X015500Y011211D01*
X015482Y011193D01*
X015482Y010561D01*
X015452Y010561D02*
X015452Y011211D01*
X015352Y011211D02*
X015352Y011076D01*
X015317Y011111D02*
X015482Y011111D01*
X015482Y011011D02*
X015417Y011011D01*
X015422Y010911D02*
X015482Y010911D01*
X015482Y010811D02*
X015422Y010811D01*
X015422Y010711D02*
X015482Y010711D01*
X015482Y010611D02*
X015417Y010611D01*
X016422Y010611D02*
X016469Y010611D01*
X016452Y010628D02*
X016452Y010511D01*
X016422Y010511D02*
X016569Y010511D01*
X016422Y010511D01*
X016422Y010658D01*
X016519Y010561D01*
X016569Y010511D01*
X016552Y010511D02*
X016552Y010528D01*
X016602Y010761D02*
X016802Y010561D01*
X017202Y010561D01*
X017502Y010261D01*
X017502Y005811D01*
X017262Y006024D02*
X017262Y007068D01*
X017302Y007109D01*
X017302Y006064D01*
X017262Y006024D01*
X017262Y006111D02*
X017302Y006111D01*
X017302Y006211D02*
X017262Y006211D01*
X017262Y006311D02*
X017302Y006311D01*
X017302Y006411D02*
X017262Y006411D01*
X017262Y006511D02*
X017302Y006511D01*
X017302Y006611D02*
X017262Y006611D01*
X017262Y006711D02*
X017302Y006711D01*
X017302Y006811D02*
X017262Y006811D01*
X017262Y006911D02*
X017302Y006911D01*
X017302Y007011D02*
X017262Y007011D01*
X016842Y007011D02*
X016802Y007011D01*
X016802Y006911D02*
X016842Y006911D01*
X016842Y006811D02*
X016802Y006811D01*
X016802Y006711D02*
X016842Y006711D01*
X016842Y006611D02*
X016802Y006611D01*
X016517Y006526D02*
X015497Y006526D01*
X014757Y006611D02*
X014564Y006611D01*
X014552Y006606D02*
X014552Y003764D01*
X014640Y003811D02*
X014162Y003811D01*
X014162Y003911D02*
X014757Y003911D01*
X014757Y004011D02*
X014162Y004011D01*
X014162Y004111D02*
X014757Y004111D01*
X014757Y004211D02*
X014162Y004211D01*
X014162Y004311D02*
X014757Y004311D01*
X014757Y004411D02*
X014162Y004411D01*
X014162Y004511D02*
X014805Y004511D01*
X014852Y004550D02*
X014852Y004565D01*
X014798Y004611D02*
X014162Y004611D01*
X014162Y004711D02*
X014757Y004711D01*
X014757Y004811D02*
X014162Y004811D01*
X014162Y004911D02*
X014757Y004911D01*
X014757Y005011D02*
X014162Y005011D01*
X014162Y005111D02*
X014757Y005111D01*
X014757Y005211D02*
X014162Y005211D01*
X014952Y005337D02*
X014952Y005352D01*
X015052Y005352D02*
X015052Y005337D01*
X015152Y005337D02*
X015152Y005352D01*
X015252Y005352D02*
X015252Y005337D01*
X015352Y005337D02*
X015352Y005352D01*
X015452Y005352D02*
X015452Y005337D01*
X015552Y005337D02*
X015552Y005352D01*
X015652Y005352D02*
X015652Y005337D01*
X015752Y005337D02*
X015752Y005352D01*
X015852Y005352D02*
X015852Y005337D01*
X015952Y005337D02*
X015952Y005352D01*
X016052Y005352D02*
X016052Y005337D01*
X016152Y005335D02*
X016152Y005355D01*
X016176Y005311D02*
X016842Y005311D01*
X016842Y005211D02*
X016238Y005211D01*
X016238Y005111D02*
X016842Y005111D01*
X016842Y005011D02*
X016238Y005011D01*
X016238Y004911D02*
X016842Y004911D01*
X016842Y004811D02*
X016238Y004811D01*
X016238Y004711D02*
X016842Y004711D01*
X016842Y004611D02*
X016196Y004611D01*
X016152Y004567D02*
X016152Y004548D01*
X016189Y004511D02*
X016842Y004511D01*
X016842Y004411D02*
X016238Y004411D01*
X016238Y004311D02*
X016842Y004311D01*
X016842Y004211D02*
X016238Y004211D01*
X016238Y004111D02*
X016842Y004111D01*
X016842Y004011D02*
X016238Y004011D01*
X016238Y003911D02*
X016842Y003911D01*
X016842Y003811D02*
X016183Y003811D01*
X016152Y003780D02*
X016152Y003733D01*
X016052Y003727D02*
X016052Y003778D01*
X016018Y003711D02*
X015705Y003711D01*
X015652Y003764D02*
X015652Y003778D01*
X015752Y003778D02*
X015752Y003623D01*
X015757Y003611D02*
X015968Y003611D01*
X015968Y003511D02*
X015772Y003511D01*
X015757Y003411D02*
X015968Y003411D01*
X015752Y003399D02*
X015752Y002276D01*
X015852Y002281D02*
X015852Y003778D01*
X015952Y003778D02*
X015952Y002281D01*
X016052Y002281D02*
X016052Y002317D01*
X016152Y002312D02*
X016152Y002276D01*
X015969Y002411D02*
X014277Y002411D01*
X014277Y002511D02*
X015968Y002511D01*
X015968Y002611D02*
X014277Y002611D01*
X014277Y002711D02*
X015968Y002711D01*
X016274Y002711D02*
X016374Y002711D01*
X016374Y002611D02*
X016274Y002611D01*
X016274Y002511D02*
X016374Y002511D01*
X016552Y002312D02*
X016552Y000461D01*
X016652Y000461D02*
X016652Y002354D01*
X016679Y002411D02*
X016725Y002411D01*
X016752Y002342D02*
X016752Y000461D01*
X015652Y000461D02*
X015652Y001446D01*
X015588Y001511D02*
X015317Y001511D01*
X015352Y001546D02*
X015352Y000461D01*
X015452Y000461D02*
X015452Y003191D01*
X016274Y003211D02*
X016374Y003211D01*
X016374Y003111D02*
X016274Y003111D01*
X016352Y003072D02*
X016352Y005539D01*
X016440Y005511D02*
X016238Y005511D01*
X016252Y005539D02*
X016252Y003733D01*
X016274Y003711D02*
X016374Y003711D01*
X016452Y003733D02*
X016452Y005506D01*
X016552Y005491D02*
X016552Y003733D01*
X016630Y003711D02*
X016761Y003711D01*
X016752Y003702D02*
X016752Y005559D01*
X016805Y005611D02*
X016842Y005611D01*
X016842Y005511D02*
X016664Y005511D01*
X016652Y005506D02*
X016652Y003690D01*
X016680Y003611D02*
X016725Y003611D01*
X016725Y003511D02*
X016680Y003511D01*
X016680Y003411D02*
X016725Y003411D01*
X016725Y003311D02*
X016680Y003311D01*
X016680Y003211D02*
X016725Y003211D01*
X016725Y003111D02*
X016680Y003111D01*
X016652Y003072D02*
X016652Y002972D01*
X016680Y002911D02*
X016725Y002911D01*
X016725Y002811D02*
X016680Y002811D01*
X016680Y002711D02*
X016725Y002711D01*
X016725Y002611D02*
X016680Y002611D01*
X016680Y002511D02*
X016725Y002511D01*
X016374Y002811D02*
X016274Y002811D01*
X016274Y002911D02*
X016374Y002911D01*
X016352Y002972D02*
X016352Y002076D01*
X016317Y002111D02*
X017452Y002111D01*
X017452Y002011D02*
X016417Y002011D01*
X016422Y001911D02*
X017452Y001911D01*
X017452Y001811D02*
X016422Y001811D01*
X016422Y001711D02*
X017452Y001711D01*
X017452Y001611D02*
X016417Y001611D01*
X015552Y001546D02*
X015552Y000461D01*
X017263Y001211D02*
X009295Y001211D01*
X009252Y001168D02*
X009252Y000461D01*
X009152Y000461D02*
X009152Y001161D01*
X009052Y001161D02*
X009052Y000461D01*
X008952Y000461D02*
X008952Y001161D01*
X008852Y001161D02*
X008852Y000461D01*
X008752Y000461D02*
X008752Y001161D01*
X008652Y001161D02*
X008652Y000461D01*
X008552Y000461D02*
X008552Y001161D01*
X008452Y001161D02*
X008452Y000461D01*
X008352Y000461D02*
X008352Y001161D01*
X008252Y001161D02*
X008252Y000461D01*
X008152Y000461D02*
X008152Y001161D01*
X008052Y001161D02*
X008052Y000461D01*
X007952Y000461D02*
X007952Y001161D01*
X007852Y001161D02*
X007852Y000461D01*
X007752Y000461D02*
X007752Y001161D01*
X007652Y001188D02*
X007652Y000461D01*
X007552Y000461D02*
X007552Y001288D01*
X007529Y001311D02*
X004252Y001311D01*
X004252Y001211D02*
X007629Y001211D01*
X007762Y001361D02*
X008452Y001361D01*
X007762Y001361D02*
X007482Y001641D01*
X007482Y003211D01*
X007682Y002941D02*
X007686Y002941D01*
X007716Y002911D01*
X007682Y002878D01*
X007682Y002941D01*
X007682Y002911D02*
X007716Y002911D01*
X007219Y002941D02*
X007189Y002911D01*
X006342Y002911D02*
X005964Y002911D01*
X005952Y002923D02*
X005952Y003499D01*
X005964Y003511D02*
X006342Y003511D01*
X006342Y003411D02*
X004914Y003411D01*
X004914Y003511D02*
X005140Y003511D01*
X005152Y003499D02*
X005152Y002923D01*
X005140Y002911D02*
X004884Y002911D01*
X004852Y002866D02*
X004852Y002769D01*
X004884Y002711D02*
X005127Y002711D01*
X005127Y002611D02*
X004884Y002611D01*
X004852Y002539D02*
X004852Y002251D01*
X004902Y002211D02*
X005002Y002211D01*
X005052Y002251D02*
X005052Y004136D01*
X005127Y003811D02*
X004914Y003811D01*
X004914Y003711D02*
X005127Y003711D01*
X005127Y003611D02*
X004914Y003611D01*
X005252Y003436D02*
X005252Y002986D01*
X005352Y002986D02*
X005352Y003436D01*
X005452Y003436D02*
X005452Y002986D01*
X005552Y002986D02*
X005552Y003436D01*
X005652Y003436D02*
X005652Y002986D01*
X005752Y002986D02*
X005752Y003436D01*
X005852Y003436D02*
X005852Y002986D01*
X005991Y002811D02*
X006342Y002811D01*
X006342Y002711D02*
X006091Y002711D01*
X006052Y002749D02*
X006052Y004123D01*
X006041Y004111D02*
X006342Y004111D01*
X006252Y004136D02*
X006252Y002497D01*
X006246Y002511D02*
X006455Y002511D01*
X006452Y002514D02*
X006452Y000461D01*
X006352Y000461D02*
X006352Y001546D01*
X006317Y001511D02*
X006588Y001511D01*
X006552Y001546D02*
X006552Y000461D01*
X006652Y000461D02*
X006652Y001446D01*
X006688Y001411D02*
X006217Y001411D01*
X006252Y001446D02*
X006252Y000461D01*
X006152Y000461D02*
X006152Y001346D01*
X006052Y001341D02*
X006052Y000461D01*
X005952Y000461D02*
X005952Y001341D01*
X005852Y001341D02*
X005852Y000461D01*
X005752Y000461D02*
X005752Y001346D01*
X005252Y001761D02*
X005252Y001861D01*
X005152Y001861D02*
X005152Y001761D01*
X005002Y001611D02*
X004902Y001611D01*
X004902Y001511D02*
X005002Y001511D01*
X004752Y001389D02*
X004752Y000461D01*
X004652Y000461D02*
X004652Y001489D01*
X004630Y001511D02*
X004252Y001511D01*
X004252Y001411D02*
X004730Y001411D01*
X004552Y001589D02*
X004552Y000461D01*
X005452Y000461D02*
X005452Y002136D01*
X005352Y002136D02*
X005352Y002033D01*
X005374Y002011D02*
X005488Y002011D01*
X005552Y002076D02*
X005552Y002136D01*
X005588Y002111D02*
X005274Y002111D01*
X005252Y002133D02*
X005252Y002136D01*
X005002Y002111D02*
X004902Y002111D01*
X004902Y002011D02*
X005002Y002011D01*
X004752Y001861D02*
X004752Y001761D01*
X004652Y001761D02*
X004652Y001861D01*
X004630Y002111D02*
X004252Y002111D01*
X004252Y002211D02*
X004730Y002211D01*
X004752Y002233D02*
X004752Y002500D01*
X004815Y002511D02*
X005127Y002511D01*
X005127Y002411D02*
X004252Y002411D01*
X004252Y002311D02*
X005127Y002311D01*
X004652Y002133D02*
X004652Y002500D01*
X004652Y002769D02*
X004652Y002866D01*
X004552Y002866D02*
X004552Y002769D01*
X004452Y002769D02*
X004452Y002866D01*
X004352Y002866D02*
X004352Y002769D01*
X004252Y002769D02*
X004252Y002866D01*
X004252Y002811D02*
X005127Y002811D01*
X004884Y003011D02*
X006342Y003011D01*
X006342Y003111D02*
X004837Y003111D01*
X004852Y003096D02*
X004852Y003284D01*
X004880Y003311D02*
X006342Y003311D01*
X006342Y003211D02*
X004252Y003211D01*
X004252Y003258D02*
X004252Y003134D01*
X004352Y003134D02*
X004352Y003258D01*
X004452Y003258D02*
X004452Y003134D01*
X004552Y003134D02*
X004552Y003258D01*
X004652Y003258D02*
X004652Y003134D01*
X004752Y003134D02*
X004752Y003258D01*
X004752Y002866D02*
X004752Y002769D01*
X006152Y002649D02*
X006152Y004136D01*
X005977Y004011D02*
X006342Y004011D01*
X006342Y003911D02*
X005977Y003911D01*
X005977Y003811D02*
X006342Y003811D01*
X006342Y003711D02*
X005977Y003711D01*
X005977Y003611D02*
X006342Y003611D01*
X006352Y002614D02*
X006352Y002076D01*
X006317Y002111D02*
X006588Y002111D01*
X006552Y002076D02*
X006552Y002414D01*
X006555Y002411D02*
X006262Y002411D01*
X006262Y002311D02*
X006716Y002311D01*
X006652Y002375D02*
X006652Y002176D01*
X006688Y002211D02*
X006262Y002211D01*
X006417Y002011D02*
X006488Y002011D01*
X006482Y001911D02*
X006422Y001911D01*
X006422Y001811D02*
X006482Y001811D01*
X006482Y001711D02*
X006422Y001711D01*
X006417Y001611D02*
X006488Y001611D01*
X006752Y001346D02*
X006752Y000461D01*
X006852Y000461D02*
X006852Y001341D01*
X006952Y001341D02*
X006952Y000461D01*
X007052Y000461D02*
X007052Y001341D01*
X007152Y001346D02*
X007152Y000461D01*
X007252Y000461D02*
X007252Y001446D01*
X007217Y001411D02*
X007429Y001411D01*
X007452Y001388D02*
X007452Y000461D01*
X007352Y000461D02*
X007352Y001488D01*
X007329Y001511D02*
X007317Y001511D01*
X006355Y002611D02*
X006191Y002611D01*
X004530Y001611D02*
X004252Y001611D01*
X009552Y001468D02*
X009552Y000461D01*
X009652Y000461D02*
X009652Y001446D01*
X012317Y001511D02*
X012588Y001511D01*
X012552Y001546D02*
X012552Y000461D01*
X012452Y000461D02*
X012452Y002514D01*
X012449Y002511D02*
X012627Y002511D01*
X012627Y002411D02*
X012349Y002411D01*
X012352Y002414D02*
X012352Y002076D01*
X012317Y002111D02*
X012588Y002111D01*
X012552Y002076D02*
X012552Y003014D01*
X012555Y003011D02*
X012506Y003011D01*
X012506Y002911D02*
X012716Y002911D01*
X012652Y002848D02*
X012652Y002975D01*
X012627Y002811D02*
X012506Y002811D01*
X012506Y002711D02*
X012627Y002711D01*
X012627Y002611D02*
X012506Y002611D01*
X012652Y002375D02*
X012652Y002176D01*
X012688Y002211D02*
X012217Y002211D01*
X012252Y002176D02*
X012252Y002375D01*
X012189Y002311D02*
X012716Y002311D01*
X013189Y002311D02*
X013716Y002311D01*
X013652Y002375D02*
X013652Y002176D01*
X013688Y002211D02*
X013217Y002211D01*
X013252Y002176D02*
X013252Y002375D01*
X013277Y002411D02*
X013627Y002411D01*
X013627Y002511D02*
X013349Y002511D01*
X013352Y002514D02*
X013352Y002076D01*
X013317Y002111D02*
X013588Y002111D01*
X013552Y002076D02*
X013552Y002714D01*
X013549Y002711D02*
X013627Y002711D01*
X013627Y002611D02*
X013449Y002611D01*
X013452Y002614D02*
X013452Y000461D01*
X013352Y000461D02*
X013352Y001546D01*
X013317Y001511D02*
X013588Y001511D01*
X013552Y001546D02*
X013552Y000461D01*
X013652Y000461D02*
X013652Y001446D01*
X013488Y001611D02*
X013417Y001611D01*
X013422Y001711D02*
X013482Y001711D01*
X013482Y001811D02*
X013422Y001811D01*
X013422Y001911D02*
X013482Y001911D01*
X013488Y002011D02*
X013417Y002011D01*
X012488Y002011D02*
X012417Y002011D01*
X012422Y001911D02*
X012482Y001911D01*
X012482Y001811D02*
X012422Y001811D01*
X012422Y001711D02*
X012482Y001711D01*
X012488Y001611D02*
X012417Y001611D01*
X012352Y001546D02*
X012352Y000461D01*
X012652Y000461D02*
X012652Y001446D01*
X013562Y002811D02*
X013627Y002811D01*
X013652Y002848D02*
X013652Y003514D01*
X013649Y003511D02*
X013742Y003511D01*
X013672Y003411D02*
X013562Y003411D01*
X013562Y003311D02*
X013657Y003311D01*
X013752Y003249D02*
X013752Y003174D01*
X013852Y003174D02*
X013852Y003249D01*
X013915Y003211D02*
X013562Y003211D01*
X013562Y003111D02*
X013657Y003111D01*
X013672Y003011D02*
X013562Y003011D01*
X013562Y002911D02*
X013716Y002911D01*
X013142Y003536D02*
X012762Y003536D01*
X012762Y003547D01*
X012929Y003547D01*
X013017Y003635D01*
X013017Y003701D01*
X013164Y003701D01*
X013189Y003691D01*
X013235Y003691D01*
X013142Y003598D01*
X013142Y003536D01*
X013152Y003608D02*
X013152Y003701D01*
X013155Y003611D02*
X012993Y003611D01*
X012952Y003570D02*
X012952Y003536D01*
X012852Y003536D02*
X012852Y003547D01*
X013052Y003536D02*
X013052Y003701D01*
X013552Y004521D02*
X013552Y004599D01*
X014652Y003816D02*
X014652Y006659D01*
X014705Y006711D02*
X014757Y006711D01*
X014452Y006591D02*
X014452Y003741D01*
X014952Y004550D02*
X014952Y004565D01*
X015052Y004565D02*
X015052Y004550D01*
X015152Y004550D02*
X015152Y004565D01*
X015252Y004565D02*
X015252Y004550D01*
X015352Y004550D02*
X015352Y004565D01*
X015452Y004565D02*
X015452Y004550D01*
X015552Y004550D02*
X015552Y004565D01*
X015652Y004565D02*
X015652Y004550D01*
X015752Y004550D02*
X015752Y004565D01*
X015852Y004565D02*
X015852Y004550D01*
X015952Y004550D02*
X015952Y004565D01*
X016052Y004565D02*
X016052Y004550D01*
X017262Y004511D02*
X017452Y004511D01*
X017452Y004411D02*
X017262Y004411D01*
X017262Y004311D02*
X017452Y004311D01*
X017452Y004211D02*
X017262Y004211D01*
X017262Y004111D02*
X017452Y004111D01*
X017452Y004011D02*
X017262Y004011D01*
X017262Y003911D02*
X017452Y003911D01*
X017452Y003811D02*
X017262Y003811D01*
X017262Y003763D02*
X017262Y005599D01*
X017321Y005540D01*
X017439Y005491D01*
X017452Y005491D01*
X017452Y003720D01*
X017410Y003763D01*
X017262Y003763D01*
X017352Y003763D02*
X017352Y005527D01*
X017390Y005511D02*
X017262Y005511D01*
X017262Y005411D02*
X017452Y005411D01*
X017452Y005311D02*
X017262Y005311D01*
X017262Y005211D02*
X017452Y005211D01*
X017452Y005111D02*
X017262Y005111D01*
X017262Y005011D02*
X017452Y005011D01*
X017452Y004911D02*
X017262Y004911D01*
X017262Y004811D02*
X017452Y004811D01*
X017452Y004711D02*
X017262Y004711D01*
X017262Y004611D02*
X017452Y004611D01*
X016842Y005411D02*
X016208Y005411D01*
X016480Y005739D02*
X015497Y005739D01*
X014757Y005711D02*
X014067Y005711D01*
X014052Y005758D02*
X014052Y005864D01*
X014067Y005911D02*
X014757Y005911D01*
X014757Y005811D02*
X013999Y005811D01*
X014067Y006011D02*
X014757Y006011D01*
X016480Y005739D02*
X016552Y005811D01*
X014761Y007011D02*
X014757Y007011D01*
X016802Y007514D02*
X016802Y008428D01*
X016832Y008458D01*
X016832Y008347D01*
X016881Y008230D01*
X016971Y008140D01*
X017089Y008091D01*
X017216Y008091D01*
X017302Y008127D01*
X017302Y007514D01*
X017233Y007582D01*
X017116Y007631D01*
X016989Y007631D01*
X016871Y007582D01*
X016802Y007514D01*
X016852Y007564D02*
X016852Y008299D01*
X016847Y008311D02*
X016802Y008311D01*
X016802Y008211D02*
X016900Y008211D01*
X016952Y008158D02*
X016952Y007616D01*
X016940Y007611D02*
X016802Y007611D01*
X016802Y007711D02*
X017302Y007711D01*
X017302Y007611D02*
X017164Y007611D01*
X017152Y007616D02*
X017152Y008091D01*
X017052Y008106D02*
X017052Y007631D01*
X017252Y007564D02*
X017252Y008106D01*
X017264Y008111D02*
X017302Y008111D01*
X017302Y008011D02*
X016802Y008011D01*
X016802Y007911D02*
X017302Y007911D01*
X017302Y007811D02*
X016802Y007811D01*
X016802Y008111D02*
X017040Y008111D01*
X017152Y008411D02*
X017152Y009438D01*
X017111Y009479D01*
X017899Y009479D02*
X017952Y009425D01*
X017952Y008411D01*
X018652Y008411D02*
X018652Y009445D01*
X018686Y009479D01*
X017261Y010219D02*
X016952Y010219D01*
X016952Y010294D01*
X016885Y010361D01*
X016885Y010361D01*
X017119Y010361D01*
X017261Y010219D01*
X017252Y010219D02*
X017252Y010228D01*
X017152Y010219D02*
X017152Y010328D01*
X017169Y010311D02*
X016935Y010311D01*
X016952Y010361D02*
X016952Y010219D01*
X017052Y010219D02*
X017052Y010361D01*
X017352Y010694D02*
X017352Y011305D01*
X017337Y011311D02*
X016785Y011311D01*
X016752Y011344D02*
X016752Y011901D01*
X016652Y011901D02*
X016652Y011444D01*
X016685Y011411D02*
X017217Y011411D01*
X017252Y011372D02*
X017252Y010761D01*
X017335Y010711D02*
X017452Y010711D01*
X017452Y010611D02*
X017435Y010611D01*
X017452Y010811D02*
X016835Y010811D01*
X016852Y010794D02*
X016852Y011901D01*
X016952Y011901D02*
X016952Y010761D01*
X017052Y010761D02*
X017052Y011901D01*
X017152Y011901D02*
X017152Y010761D01*
X017452Y010911D02*
X016802Y010911D01*
X016802Y011011D02*
X017452Y011011D01*
X017452Y011111D02*
X016802Y011111D01*
X016802Y011211D02*
X017452Y011211D01*
X017177Y011511D02*
X016585Y011511D01*
X016552Y011544D02*
X016552Y011901D01*
X016452Y011901D02*
X016452Y011611D01*
X016352Y011611D02*
X016352Y011901D01*
X016252Y011901D02*
X016252Y011611D01*
X016152Y011611D02*
X016152Y011901D01*
X016052Y011901D02*
X016052Y011611D01*
X015952Y011611D02*
X015952Y011901D01*
X015852Y011901D02*
X015852Y011611D01*
X015752Y011611D02*
X015752Y011901D01*
X015652Y011901D02*
X015652Y011611D01*
X015552Y011611D02*
X015552Y011901D01*
X015452Y011901D02*
X015452Y011611D01*
X015352Y011611D02*
X015352Y011901D01*
X015252Y011901D02*
X015252Y011611D01*
X015152Y011611D02*
X015152Y011901D01*
X015052Y011901D02*
X015052Y011611D01*
X014952Y011611D02*
X014952Y011901D01*
X014852Y011901D02*
X014852Y011611D01*
X014752Y011611D02*
X014752Y011901D01*
X014652Y011901D02*
X014652Y011611D01*
X014552Y011611D02*
X014552Y011901D01*
X014452Y011901D02*
X014452Y011611D01*
X014352Y011611D02*
X014352Y011901D01*
X014252Y011901D02*
X014252Y011611D01*
X014152Y011611D02*
X014152Y011901D01*
X014052Y011901D02*
X014052Y011594D01*
X013969Y011511D02*
X010652Y011511D01*
X010652Y011611D02*
X017177Y011611D01*
X017217Y011711D02*
X010652Y011711D01*
X010652Y011811D02*
X017337Y011811D01*
X017352Y011817D02*
X017352Y011901D01*
X017252Y011901D02*
X017252Y011750D01*
X016602Y011211D02*
X016402Y011411D01*
X014152Y011411D01*
X013952Y011211D01*
X013952Y010811D01*
X013482Y010811D02*
X013422Y010811D01*
X013422Y010711D02*
X013482Y010711D01*
X013482Y010616D02*
X013538Y010561D01*
X013485Y010561D01*
X013422Y010624D01*
X013422Y011006D01*
X013147Y011281D01*
X013052Y011281D02*
X013052Y011901D01*
X012952Y011901D02*
X012952Y011281D01*
X012852Y011281D02*
X012852Y011901D01*
X012752Y011901D02*
X012752Y011276D01*
X012488Y011011D02*
X012417Y011011D01*
X012422Y010911D02*
X012482Y010911D01*
X013317Y011111D02*
X013588Y011111D01*
X013552Y011076D02*
X013552Y011901D01*
X013452Y011901D02*
X013452Y010594D01*
X013435Y010611D02*
X013488Y010611D01*
X013482Y010616D02*
X013482Y011006D01*
X013752Y011276D01*
X013752Y011294D01*
X013952Y011494D01*
X014235Y011211D02*
X014688Y011211D01*
X014482Y011006D01*
X014482Y010616D01*
X014538Y010561D01*
X014367Y010561D01*
X014422Y010616D01*
X014422Y011006D01*
X014226Y011202D01*
X014235Y011211D01*
X014252Y011211D02*
X014252Y011176D01*
X014317Y011111D02*
X014588Y011111D01*
X014552Y011076D02*
X014552Y011211D01*
X014452Y011211D02*
X014452Y010561D01*
X014417Y010611D02*
X014488Y010611D01*
X014482Y010711D02*
X014422Y010711D01*
X014422Y010811D02*
X014482Y010811D01*
X014482Y010911D02*
X014422Y010911D01*
X014417Y011011D02*
X014488Y011011D01*
X014352Y011076D02*
X014352Y011211D01*
X014652Y011211D02*
X014652Y011176D01*
X015252Y011176D02*
X015252Y011211D01*
X016602Y011211D02*
X016602Y010761D01*
X015152Y010049D02*
X015152Y009974D01*
X015052Y009974D02*
X015052Y010049D01*
X013532Y010111D02*
X011549Y010111D01*
X011552Y010114D02*
X011552Y009636D01*
X011516Y009611D02*
X011289Y009611D01*
X011377Y009411D02*
X011427Y009411D01*
X011852Y009636D02*
X011852Y010341D01*
X011455Y010611D02*
X011417Y010611D01*
X011422Y010616D02*
X011422Y011006D01*
X011147Y011281D01*
X011052Y011281D02*
X011052Y011901D01*
X010952Y011901D02*
X010952Y011281D01*
X010852Y011281D02*
X010852Y011901D01*
X010752Y011901D02*
X010752Y011276D01*
X010688Y011211D02*
X010652Y011211D01*
X010652Y011176D02*
X010652Y011901D01*
X010452Y012111D02*
X010452Y010361D01*
X010052Y009961D01*
X010052Y009911D01*
X009842Y009911D02*
X009352Y009911D01*
X009352Y009928D02*
X009765Y010341D01*
X010147Y010341D01*
X010252Y010446D01*
X010252Y010444D01*
X009852Y010044D01*
X009852Y010341D01*
X009952Y010341D02*
X009952Y010144D01*
X009919Y010111D02*
X009535Y010111D01*
X009552Y010128D02*
X009552Y009508D01*
X009549Y009511D02*
X009727Y009511D01*
X009727Y009523D02*
X009727Y009333D01*
X009639Y009421D01*
X009539Y009521D01*
X009477Y009521D01*
X009477Y009523D01*
X009364Y009636D01*
X009352Y009636D01*
X009352Y009928D01*
X009352Y009636D01*
X009389Y009611D02*
X009816Y009611D01*
X009841Y009636D02*
X009727Y009523D01*
X009752Y009548D02*
X009752Y010328D01*
X009735Y010311D02*
X010119Y010311D01*
X010152Y010344D02*
X010152Y010346D01*
X010217Y010411D02*
X010219Y010411D01*
X010052Y010341D02*
X010052Y010244D01*
X010019Y010211D02*
X009635Y010211D01*
X009652Y010228D02*
X009652Y009408D01*
X009649Y009411D02*
X009727Y009411D01*
X009452Y009548D02*
X009452Y010028D01*
X009435Y010011D02*
X009852Y010011D01*
X009852Y010008D02*
X009842Y009998D01*
X009842Y009636D01*
X009841Y009636D01*
X009842Y009711D02*
X009352Y009711D01*
X009352Y009811D02*
X009842Y009811D01*
X009852Y010008D02*
X009852Y010044D01*
X010285Y009911D02*
X010842Y009911D01*
X010852Y010008D02*
X010852Y010341D01*
X010758Y010341D02*
X011147Y010341D01*
X011422Y010616D01*
X011452Y010608D02*
X011452Y011901D01*
X011352Y011901D02*
X011352Y011076D01*
X011317Y011111D02*
X011588Y011111D01*
X011552Y011076D02*
X011552Y011901D01*
X011652Y011901D02*
X011652Y011176D01*
X011488Y011011D02*
X011417Y011011D01*
X011422Y010911D02*
X011482Y010911D01*
X011482Y010811D02*
X011422Y010811D01*
X011422Y010711D02*
X011482Y010711D01*
X011352Y010546D02*
X011352Y010508D01*
X011355Y010511D02*
X011317Y010511D01*
X011252Y010446D02*
X011252Y010408D01*
X011255Y010411D02*
X011217Y010411D01*
X011152Y010346D02*
X011152Y010308D01*
X011155Y010311D02*
X010652Y010311D01*
X010652Y010411D02*
X010688Y010411D01*
X010652Y010446D02*
X010758Y010341D01*
X010752Y010346D02*
X010752Y009548D01*
X010727Y009511D02*
X010449Y009511D01*
X010452Y009508D02*
X010452Y010078D01*
X010485Y010111D02*
X010955Y010111D01*
X010952Y010108D02*
X010952Y010341D01*
X011052Y010341D02*
X011052Y010208D01*
X011055Y010211D02*
X010585Y010211D01*
X010552Y010178D02*
X010552Y009408D01*
X010549Y009411D02*
X010727Y009411D01*
X010816Y009611D02*
X010289Y009611D01*
X010352Y009548D02*
X010352Y009978D01*
X010385Y010011D02*
X010855Y010011D01*
X010842Y009811D02*
X010262Y009811D01*
X010262Y009711D02*
X010842Y009711D01*
X009816Y009011D02*
X009762Y009011D01*
X009762Y008958D02*
X009762Y009065D01*
X009816Y009011D01*
X009762Y008958D01*
X009152Y009311D02*
X009152Y010011D01*
X009952Y010811D01*
X009482Y010811D02*
X009422Y010811D01*
X009422Y010711D02*
X009482Y010711D01*
X009469Y010611D02*
X009417Y010611D01*
X009452Y010594D02*
X009452Y011901D01*
X009352Y011901D02*
X009352Y011076D01*
X009317Y011111D02*
X009588Y011111D01*
X009552Y011076D02*
X009552Y011901D01*
X009652Y011901D02*
X009652Y011176D01*
X009688Y011211D02*
X009217Y011211D01*
X009252Y011176D02*
X009252Y011901D01*
X009152Y011901D02*
X009152Y011276D01*
X009052Y011281D02*
X009052Y011901D01*
X008952Y011901D02*
X008952Y011281D01*
X008852Y011281D02*
X008852Y011901D01*
X008752Y011901D02*
X008752Y011276D01*
X008688Y011211D02*
X008217Y011211D01*
X008252Y011176D02*
X008252Y011901D01*
X008152Y011901D02*
X008152Y011276D01*
X008147Y011281D02*
X007758Y011281D01*
X007482Y011006D01*
X007482Y010616D01*
X007758Y010341D01*
X008147Y010341D01*
X008422Y010616D01*
X008422Y011006D01*
X008147Y011281D01*
X008052Y011281D02*
X008052Y011901D01*
X007952Y011901D02*
X007952Y011281D01*
X007852Y011281D02*
X007852Y011901D01*
X007752Y011901D02*
X007752Y011276D01*
X007688Y011211D02*
X007217Y011211D01*
X007252Y011176D02*
X007252Y011901D01*
X007152Y011901D02*
X007152Y011276D01*
X007147Y011281D02*
X006758Y011281D01*
X006482Y011006D01*
X006482Y010616D01*
X006758Y010341D01*
X007147Y010341D01*
X007422Y010616D01*
X007422Y011006D01*
X007147Y011281D01*
X007052Y011281D02*
X007052Y011901D01*
X006952Y011901D02*
X006952Y011281D01*
X006852Y011281D02*
X006852Y011901D01*
X006752Y011901D02*
X006752Y011276D01*
X006688Y011211D02*
X006217Y011211D01*
X006252Y011176D02*
X006252Y011901D01*
X006152Y011901D02*
X006152Y011276D01*
X006052Y011281D02*
X006052Y011901D01*
X005952Y011901D02*
X005952Y011281D01*
X005852Y011281D02*
X005852Y011901D01*
X005752Y011901D02*
X005752Y011276D01*
X005588Y011111D02*
X005274Y011111D01*
X005252Y011133D02*
X005252Y011901D01*
X004952Y011901D02*
X004952Y010861D01*
X004902Y010811D02*
X004252Y010811D01*
X004252Y010711D02*
X004512Y010711D01*
X004552Y010761D02*
X004552Y010861D01*
X004512Y010911D02*
X004252Y010911D01*
X004252Y011011D02*
X004530Y011011D01*
X004552Y011033D02*
X004552Y011901D01*
X004652Y011901D02*
X004652Y011133D01*
X004630Y011111D02*
X004252Y011111D01*
X004652Y010861D02*
X004652Y010761D01*
X004752Y010761D02*
X004752Y010861D01*
X004852Y010861D02*
X004852Y010761D01*
X004902Y010711D02*
X005002Y010711D01*
X004952Y010761D02*
X004952Y008931D01*
X004852Y008931D02*
X004852Y010371D01*
X004902Y010411D02*
X005002Y010411D01*
X005052Y010371D02*
X005052Y008931D01*
X005172Y008811D02*
X005340Y008811D01*
X005352Y008816D02*
X005352Y009016D01*
X005252Y009030D02*
X005252Y008764D01*
X005200Y008711D02*
X005172Y008711D01*
X005452Y008831D02*
X005452Y009274D01*
X005415Y009311D02*
X004262Y009311D01*
X004262Y009211D02*
X005157Y009211D01*
X005172Y009111D02*
X004262Y009111D01*
X004552Y008931D02*
X004552Y010589D01*
X004530Y010611D02*
X004252Y010611D01*
X004252Y010511D02*
X004630Y010511D01*
X004652Y010489D02*
X004652Y008931D01*
X004752Y008931D02*
X004752Y008461D01*
X004752Y008511D02*
X004852Y008511D01*
X004852Y008611D02*
X004752Y008611D01*
X004752Y008711D02*
X004852Y008711D01*
X004852Y008811D02*
X004752Y008811D01*
X004752Y008911D02*
X004852Y008911D01*
X004432Y008811D02*
X004262Y008811D01*
X004262Y008711D02*
X004432Y008711D01*
X004432Y008611D02*
X004262Y008611D01*
X004262Y008511D02*
X004432Y008511D01*
X004452Y008461D02*
X004452Y008361D01*
X004552Y008361D02*
X004552Y008461D01*
X004652Y008461D02*
X004652Y008361D01*
X004752Y008311D02*
X004852Y008311D01*
X004852Y008211D02*
X004752Y008211D01*
X004752Y008111D02*
X004852Y008111D01*
X004852Y008011D02*
X004752Y008011D01*
X004952Y007891D02*
X004952Y006031D01*
X005648Y006043D02*
X005648Y005897D01*
X005664Y005881D01*
X005702Y005881D01*
X005702Y005973D01*
X005772Y006043D01*
X005756Y006043D01*
X005756Y006395D01*
X005748Y006395D01*
X005748Y006043D01*
X005648Y006043D01*
X005652Y006043D02*
X005652Y005893D01*
X005648Y005911D02*
X005702Y005911D01*
X005740Y006011D02*
X005648Y006011D01*
X005752Y006023D02*
X005752Y006395D01*
X005752Y006403D02*
X005752Y007899D01*
X005740Y007911D02*
X005688Y007911D01*
X005688Y007811D02*
X005886Y007811D01*
X005852Y007861D02*
X005852Y006755D01*
X005952Y006782D02*
X005952Y007040D01*
X005881Y007111D02*
X005623Y007111D01*
X005552Y007040D02*
X005552Y006782D01*
X005452Y006785D02*
X005452Y007037D01*
X005352Y007037D02*
X005352Y006785D01*
X005252Y006785D02*
X005252Y007037D01*
X005152Y007092D02*
X005152Y006730D01*
X005652Y006755D02*
X005652Y007274D01*
X005667Y007311D02*
X005868Y007311D01*
X005868Y007211D02*
X005636Y007211D01*
X005688Y007411D02*
X005856Y007411D01*
X005856Y007511D02*
X005688Y007511D01*
X005688Y007611D02*
X005856Y007611D01*
X005856Y007711D02*
X005688Y007711D01*
X005688Y008011D02*
X005702Y008011D01*
X005688Y008111D02*
X005702Y008111D01*
X005652Y008821D02*
X005652Y009030D01*
X005552Y009016D02*
X005552Y008821D01*
X005490Y009111D02*
X005415Y009111D01*
X005415Y009211D02*
X005490Y009211D01*
X005352Y009274D02*
X005352Y009349D01*
X005252Y009349D02*
X005252Y009274D01*
X005127Y009911D02*
X004252Y009911D01*
X004252Y010011D02*
X005127Y010011D01*
X005127Y010111D02*
X004252Y010111D01*
X004252Y010211D02*
X005127Y010211D01*
X005002Y010511D02*
X004902Y010511D01*
X004902Y010611D02*
X005002Y010611D01*
X005052Y010761D02*
X005052Y010861D01*
X005002Y010811D02*
X005482Y010811D01*
X005482Y010911D02*
X005392Y010911D01*
X005352Y010861D02*
X005352Y010761D01*
X005252Y010761D02*
X005252Y010861D01*
X005152Y010861D02*
X005152Y010761D01*
X005002Y010911D02*
X004902Y010911D01*
X004902Y011011D02*
X005002Y011011D01*
X005002Y011111D02*
X004902Y011111D01*
X004462Y011511D02*
X010252Y011511D01*
X010252Y011611D02*
X004462Y011611D01*
X004462Y011711D02*
X010252Y011711D01*
X010252Y011811D02*
X004462Y011811D01*
X006317Y011111D02*
X006588Y011111D01*
X006552Y011076D02*
X006552Y011901D01*
X006452Y011901D02*
X006452Y009123D01*
X006447Y009111D02*
X006377Y009111D01*
X006377Y009211D02*
X006500Y009211D01*
X006552Y009264D02*
X006552Y010546D01*
X006588Y010511D02*
X006317Y010511D01*
X006352Y010546D02*
X006352Y010248D01*
X006377Y010211D02*
X008055Y010211D01*
X008052Y010208D02*
X008052Y010341D01*
X008152Y010346D02*
X008152Y010308D01*
X008155Y010311D02*
X006289Y010311D01*
X006252Y010336D02*
X006252Y010446D01*
X006217Y010411D02*
X006688Y010411D01*
X006652Y010446D02*
X006652Y009316D01*
X006640Y009311D02*
X006377Y009311D01*
X006377Y009411D02*
X007400Y009411D01*
X007452Y009421D02*
X007452Y009486D01*
X007416Y009511D02*
X006377Y009511D01*
X006362Y009611D02*
X007327Y009611D01*
X007352Y009575D02*
X007352Y009363D01*
X007322Y009311D02*
X006864Y009311D01*
X006852Y009316D02*
X006852Y010341D01*
X006752Y010346D02*
X006752Y009331D01*
X006952Y009264D02*
X006952Y010341D01*
X007052Y010341D02*
X007052Y009221D01*
X007152Y009221D02*
X007152Y010346D01*
X007217Y010411D02*
X007688Y010411D01*
X007652Y010446D02*
X007652Y010136D01*
X007552Y010136D02*
X007552Y010546D01*
X007588Y010511D02*
X007317Y010511D01*
X007352Y010546D02*
X007352Y010048D01*
X007327Y010011D02*
X006377Y010011D01*
X006377Y009911D02*
X007327Y009911D01*
X007327Y009811D02*
X006377Y009811D01*
X006362Y009711D02*
X007327Y009711D01*
X007416Y010111D02*
X006377Y010111D01*
X006152Y010336D02*
X006152Y010346D01*
X006052Y010336D02*
X006052Y010341D01*
X006417Y010611D02*
X006488Y010611D01*
X006482Y010711D02*
X006422Y010711D01*
X006422Y010811D02*
X006482Y010811D01*
X006482Y010911D02*
X006422Y010911D01*
X006417Y011011D02*
X006488Y011011D01*
X006352Y011076D02*
X006352Y011901D01*
X006652Y011901D02*
X006652Y011176D01*
X007317Y011111D02*
X007588Y011111D01*
X007552Y011076D02*
X007552Y011901D01*
X007452Y011901D02*
X007452Y010136D01*
X007752Y010136D02*
X007752Y010346D01*
X007864Y010136D02*
X007952Y010048D01*
X007889Y010111D02*
X008016Y010111D01*
X008217Y010411D02*
X008255Y010411D01*
X008252Y010408D02*
X008252Y010446D01*
X008317Y010511D02*
X008355Y010511D01*
X008352Y010508D02*
X008352Y010546D01*
X008417Y010611D02*
X008455Y010611D01*
X008452Y010608D02*
X008452Y011901D01*
X008352Y011901D02*
X008352Y011076D01*
X008317Y011111D02*
X008588Y011111D01*
X008552Y011076D02*
X008552Y011901D01*
X008652Y011901D02*
X008652Y011176D01*
X008488Y011011D02*
X008417Y011011D01*
X008422Y010911D02*
X008482Y010911D01*
X008482Y010811D02*
X008422Y010811D01*
X008422Y010711D02*
X008482Y010711D01*
X009052Y010341D02*
X009052Y010194D01*
X009069Y010211D02*
X008649Y010211D01*
X008652Y010214D02*
X008652Y008208D01*
X008655Y008211D02*
X008582Y008211D01*
X008582Y008311D02*
X008755Y008311D01*
X008752Y008308D02*
X008752Y010314D01*
X008749Y010311D02*
X009169Y010311D01*
X009152Y010294D02*
X009152Y010346D01*
X009217Y010411D02*
X009269Y010411D01*
X009252Y010394D02*
X009252Y010446D01*
X009317Y010511D02*
X009369Y010511D01*
X009352Y010494D02*
X009352Y010546D01*
X009422Y010911D02*
X009482Y010911D01*
X009488Y011011D02*
X009417Y011011D01*
X009752Y011276D02*
X009752Y011901D01*
X009852Y011901D02*
X009852Y011281D01*
X009952Y011281D02*
X009952Y011901D01*
X010052Y011901D02*
X010052Y011281D01*
X010152Y011276D02*
X010152Y011901D01*
X010217Y011211D02*
X010252Y011211D01*
X007652Y011176D02*
X007652Y011901D01*
X007352Y011901D02*
X007352Y011076D01*
X007417Y011011D02*
X007488Y011011D01*
X007482Y010911D02*
X007422Y010911D01*
X007422Y010811D02*
X007482Y010811D01*
X007482Y010711D02*
X007422Y010711D01*
X007417Y010611D02*
X007488Y010611D01*
X007252Y010446D02*
X007252Y009221D01*
X006432Y009011D02*
X006362Y009011D01*
X008149Y009411D02*
X008827Y009411D01*
X008827Y009311D02*
X008546Y009311D01*
X008552Y009211D02*
X008827Y009211D01*
X008452Y009390D02*
X008452Y009486D01*
X008489Y009511D02*
X008827Y009511D01*
X008552Y009575D02*
X008552Y008343D01*
X008327Y008811D02*
X008317Y008811D01*
X008317Y008911D02*
X008327Y008911D01*
X008317Y009011D02*
X008327Y009011D01*
X008352Y009016D02*
X008352Y009026D01*
X008327Y009111D02*
X008317Y009111D01*
X008317Y009211D02*
X008327Y009211D01*
X008317Y009311D02*
X008327Y009311D01*
X008352Y009391D02*
X008352Y009486D01*
X008252Y009486D02*
X008252Y009391D01*
X008152Y009408D02*
X008152Y009486D01*
X008452Y009026D02*
X008452Y009016D01*
X006466Y007411D02*
X006396Y007411D01*
X006452Y007425D02*
X006452Y007355D01*
X006422Y007311D02*
X006384Y007311D01*
X006384Y007211D02*
X006407Y007211D01*
X006252Y007037D02*
X006252Y006785D01*
X006152Y006785D02*
X006152Y007037D01*
X006052Y007037D02*
X006052Y006785D01*
X005756Y006711D02*
X005748Y006711D01*
X005748Y006611D02*
X005756Y006611D01*
X005748Y006511D02*
X005756Y006511D01*
X005748Y006411D02*
X005756Y006411D01*
X005748Y006311D02*
X005756Y006311D01*
X005748Y006211D02*
X005756Y006211D01*
X005748Y006111D02*
X005756Y006111D01*
X006396Y006311D02*
X006857Y006311D01*
X006872Y006411D02*
X006396Y006411D01*
X006952Y006249D02*
X006952Y006174D01*
X007052Y006174D02*
X007052Y006249D01*
X007115Y006311D02*
X007190Y006311D01*
X007190Y006411D02*
X007115Y006411D01*
X007452Y006448D02*
X007452Y006686D01*
X005133Y007111D02*
X004372Y007111D01*
X009662Y005775D02*
X009662Y005112D01*
X009733Y005082D01*
X009742Y005074D01*
X009742Y005668D01*
X009681Y005730D01*
X009662Y005775D01*
X009662Y005711D02*
X009700Y005711D01*
X009662Y005611D02*
X009742Y005611D01*
X009742Y005511D02*
X009662Y005511D01*
X009662Y005411D02*
X009742Y005411D01*
X009742Y005311D02*
X009662Y005311D01*
X009662Y005211D02*
X009742Y005211D01*
X009742Y005111D02*
X009664Y005111D01*
X010162Y005111D02*
X010727Y005111D01*
X010727Y005011D02*
X010162Y005011D01*
X010162Y004911D02*
X010727Y004911D01*
X010727Y004811D02*
X010162Y004811D01*
X010162Y005211D02*
X010727Y005211D01*
X010752Y005248D02*
X010752Y006351D01*
X010871Y005911D02*
X010272Y005911D01*
X010257Y005811D02*
X010905Y005811D01*
X010837Y005611D02*
X010162Y005611D01*
X010162Y005511D02*
X010837Y005511D01*
X010837Y005411D02*
X010162Y005411D01*
X010162Y005311D02*
X010816Y005311D01*
X010852Y004449D02*
X010852Y004374D01*
X010952Y004374D02*
X010952Y004449D01*
X011015Y004311D02*
X011090Y004311D01*
X011090Y004211D02*
X011015Y004211D01*
X011333Y004211D02*
X011342Y004211D01*
X015417Y002011D02*
X015488Y002011D01*
X015482Y001911D02*
X015422Y001911D01*
X015422Y001811D02*
X015482Y001811D01*
X015482Y001711D02*
X015422Y001711D01*
X015417Y001611D02*
X015488Y001611D01*
X016374Y003011D02*
X016725Y003011D01*
X016552Y002972D02*
X016552Y003072D01*
X016452Y003072D02*
X016452Y002972D01*
X016374Y003311D02*
X016274Y003311D01*
X016274Y003411D02*
X016374Y003411D01*
X016374Y003511D02*
X016274Y003511D01*
X016274Y003611D02*
X016374Y003611D01*
X017899Y003022D02*
X017952Y003076D01*
X017952Y007911D01*
X018852Y007911D01*
X019052Y008111D01*
X016952Y008664D02*
X016952Y008738D01*
X016952Y008738D01*
X016952Y008664D01*
X016952Y008664D01*
X016952Y008711D02*
X016952Y008711D01*
X016832Y008411D02*
X016802Y008411D01*
X013502Y008421D02*
X013439Y008421D01*
X013419Y008441D01*
X013477Y008500D01*
X013477Y008923D01*
X013399Y009001D01*
X013530Y009001D01*
X013502Y008973D01*
X013502Y008421D01*
X013452Y008421D02*
X013452Y008475D01*
X013477Y008511D02*
X013502Y008511D01*
X013502Y008611D02*
X013477Y008611D01*
X013477Y008711D02*
X013502Y008711D01*
X013502Y008811D02*
X013477Y008811D01*
X013477Y008911D02*
X013502Y008911D01*
X013452Y008948D02*
X013452Y009001D01*
X012490Y009511D02*
X012415Y009511D01*
X013422Y010911D02*
X013482Y010911D01*
X013488Y011011D02*
X013417Y011011D01*
X013352Y011076D02*
X013352Y011901D01*
D33*
X013502Y005561D02*
X013482Y005561D01*
X009952Y003211D02*
X009932Y003181D01*
X008952Y003181D02*
X008952Y003211D01*
D34*
X003152Y009311D02*
X002552Y009311D01*
X002552Y010311D02*
X003152Y010311D01*
M02*
