G75*
%MOIN*%
%OFA0B0*%
%FSLAX24Y24*%
%IPPOS*%
%LPD*%
%AMOC8*
5,1,8,0,0,1.08239X$1,22.5*
%
%ADD10R,0.0640X0.0640*%
%ADD11OC8,0.0640*%
%ADD12C,0.0630*%
%ADD13C,0.0340*%
%ADD14C,0.0320*%
%ADD15C,0.0240*%
%ADD16C,0.0070*%
%ADD17C,0.0120*%
%ADD18C,0.0100*%
D10*
X015952Y010811D03*
D11*
X014952Y010811D03*
X013952Y010811D03*
X012952Y010811D03*
X011952Y010811D03*
X010952Y010811D03*
X009952Y010811D03*
X008952Y010811D03*
X007952Y010811D03*
X006952Y010811D03*
X005952Y010811D03*
X004952Y010811D03*
X004952Y001811D03*
X005952Y001811D03*
X006952Y001811D03*
X007952Y001811D03*
X008952Y001811D03*
X009952Y001811D03*
X010952Y001811D03*
X011952Y001811D03*
X012952Y001811D03*
X013952Y001811D03*
X014952Y001811D03*
X015952Y001811D03*
D12*
X002502Y002817D03*
X002502Y003605D03*
D13*
X003402Y004361D03*
X002652Y005311D03*
X004152Y005711D03*
X004052Y007061D03*
X004052Y007611D03*
X005452Y008511D03*
X006752Y009011D03*
X008352Y007511D03*
X009052Y007311D03*
X010052Y007611D03*
X012452Y006511D03*
X012752Y006911D03*
X014452Y006911D03*
X016552Y005811D03*
X017502Y005811D03*
X019452Y005711D03*
X020252Y005211D03*
X021052Y004411D03*
X021752Y003911D03*
X018652Y004011D03*
X015652Y003011D03*
X015452Y003511D03*
X014752Y003511D03*
X014452Y003011D03*
X013252Y004011D03*
X013252Y004711D03*
X011852Y004711D03*
X011552Y003811D03*
X011452Y003011D03*
X009052Y004411D03*
X009552Y004811D03*
X009052Y005511D03*
X008352Y005611D03*
X008352Y006211D03*
X007152Y006711D03*
X009952Y005911D03*
X007352Y004411D03*
X006952Y003911D03*
X014052Y008011D03*
X017052Y007311D03*
X019052Y008111D03*
X018652Y008411D03*
X017952Y008411D03*
X017152Y008411D03*
X019452Y007711D03*
X020252Y006911D03*
X021052Y006511D03*
X015652Y010011D03*
X016652Y011761D03*
X003752Y009811D03*
X001952Y009811D03*
D14*
X001952Y008511D02*
X002092Y008511D01*
X005452Y008511D01*
X005452Y008011D01*
X014052Y008011D01*
X015652Y010011D02*
X016652Y010011D01*
X016652Y011761D01*
X016652Y012011D01*
X004952Y012011D01*
X004952Y010811D01*
X001952Y008501D02*
X001952Y008261D01*
X001952Y004861D01*
X005702Y004861D01*
X005702Y003511D01*
X006952Y003511D01*
X011552Y003511D01*
X014752Y003511D01*
X015452Y003511D01*
X015652Y003011D02*
X014452Y003011D01*
X011452Y003011D01*
X011259Y002817D01*
X004952Y002817D01*
X004952Y002761D01*
X004902Y002811D01*
X003402Y002811D01*
X003402Y004361D01*
X003396Y002817D02*
X002502Y002817D01*
X003396Y002817D02*
X003402Y002811D01*
X004952Y002761D02*
X004952Y001811D01*
D15*
X006952Y003511D02*
X006952Y003911D01*
X011552Y003811D02*
X011552Y003511D01*
D16*
X002092Y008501D02*
X001952Y008501D01*
X002092Y008501D02*
X002092Y008511D01*
D17*
X001952Y008261D02*
X001952Y009811D01*
X003752Y009811D02*
X003752Y009111D01*
X006752Y009011D01*
X010052Y007611D02*
X016752Y007611D01*
X016852Y007711D01*
X019452Y007711D01*
X020252Y006911D02*
X014452Y006911D01*
X012752Y006911D02*
X007352Y006911D01*
X007152Y006711D01*
X008352Y006211D02*
X004052Y006211D01*
X004052Y007061D01*
X004152Y005711D02*
X004152Y005611D01*
X008352Y005611D01*
X009052Y005511D02*
X019252Y005511D01*
X019452Y005711D01*
X020252Y005211D02*
X011752Y005211D01*
X011352Y004811D01*
X009552Y004811D01*
X009052Y004411D02*
X021052Y004411D01*
X021752Y003911D02*
X021752Y006011D01*
X021652Y006111D01*
X011152Y006111D01*
X010952Y005911D01*
X009952Y005911D01*
X011852Y004711D02*
X013252Y004711D01*
X013252Y004011D02*
X018652Y004011D01*
X017052Y007311D02*
X009052Y007311D01*
X006152Y005311D02*
X006152Y004511D01*
X007252Y004511D01*
X007352Y004411D01*
X008452Y004411D01*
X008852Y004011D01*
X009352Y004011D01*
X006152Y005311D02*
X002652Y005311D01*
D18*
X004252Y004551D02*
X004252Y000461D01*
X004252Y004551D01*
X005392Y004551D01*
X005392Y003449D01*
X005439Y003335D01*
X005527Y003248D01*
X005641Y003201D01*
X014664Y003201D01*
X014689Y003191D01*
X014816Y003191D01*
X014840Y003201D01*
X015364Y003201D01*
X015389Y003191D01*
X015516Y003191D01*
X015633Y003240D01*
X015723Y003330D01*
X015772Y003447D01*
X015772Y003575D01*
X015723Y003692D01*
X015633Y003782D01*
X015588Y003801D01*
X017452Y003801D01*
X017452Y000461D01*
X004252Y000461D01*
X004252Y000511D02*
X017452Y000511D01*
X017452Y000611D02*
X004252Y000611D01*
X004252Y000711D02*
X017452Y000711D01*
X017452Y000811D02*
X004252Y000811D01*
X004252Y000911D02*
X017452Y000911D01*
X017452Y001011D02*
X004252Y001011D01*
X004252Y001111D02*
X017452Y001111D01*
X017452Y001211D02*
X004252Y001211D01*
X004252Y001311D02*
X017452Y001311D01*
X017452Y001411D02*
X016217Y001411D01*
X016252Y001446D02*
X016252Y000461D01*
X016152Y000461D02*
X016152Y001346D01*
X016147Y001341D02*
X016422Y001616D01*
X016422Y002006D01*
X016147Y002281D01*
X015758Y002281D01*
X015482Y002006D01*
X015482Y001616D01*
X015758Y001341D01*
X016147Y001341D01*
X016052Y001341D02*
X016052Y000461D01*
X015952Y000461D02*
X015952Y001341D01*
X015852Y001341D02*
X015852Y000461D01*
X015752Y000461D02*
X015752Y001346D01*
X015688Y001411D02*
X015217Y001411D01*
X015252Y001446D02*
X015252Y000461D01*
X015152Y000461D02*
X015152Y001346D01*
X015147Y001341D02*
X015422Y001616D01*
X015422Y002006D01*
X015147Y002281D01*
X014758Y002281D01*
X014482Y002006D01*
X014482Y001616D01*
X014758Y001341D01*
X015147Y001341D01*
X015052Y001341D02*
X015052Y000461D01*
X014952Y000461D02*
X014952Y001341D01*
X014852Y001341D02*
X014852Y000461D01*
X014752Y000461D02*
X014752Y001346D01*
X014688Y001411D02*
X014217Y001411D01*
X014252Y001446D02*
X014252Y000461D01*
X014152Y000461D02*
X014152Y001346D01*
X014147Y001341D02*
X014422Y001616D01*
X014422Y002006D01*
X014147Y002281D01*
X013758Y002281D01*
X013482Y002006D01*
X013482Y001616D01*
X013758Y001341D01*
X014147Y001341D01*
X014052Y001341D02*
X014052Y000461D01*
X013952Y000461D02*
X013952Y001341D01*
X013852Y001341D02*
X013852Y000461D01*
X013752Y000461D02*
X013752Y001346D01*
X013688Y001411D02*
X013217Y001411D01*
X013252Y001446D02*
X013252Y000461D01*
X013152Y000461D02*
X013152Y001346D01*
X013147Y001341D02*
X013422Y001616D01*
X013422Y002006D01*
X013147Y002281D01*
X012758Y002281D01*
X012482Y002006D01*
X012482Y001616D01*
X012758Y001341D01*
X013147Y001341D01*
X013052Y001341D02*
X013052Y000461D01*
X012952Y000461D02*
X012952Y001341D01*
X012852Y001341D02*
X012852Y000461D01*
X012752Y000461D02*
X012752Y001346D01*
X012688Y001411D02*
X012217Y001411D01*
X012252Y001446D02*
X012252Y000461D01*
X012152Y000461D02*
X012152Y001346D01*
X012147Y001341D02*
X012422Y001616D01*
X012422Y002006D01*
X012147Y002281D01*
X011758Y002281D01*
X011482Y002006D01*
X011482Y001616D01*
X011758Y001341D01*
X012147Y001341D01*
X012052Y001341D02*
X012052Y000461D01*
X011952Y000461D02*
X011952Y001341D01*
X011852Y001341D02*
X011852Y000461D01*
X011752Y000461D02*
X011752Y001346D01*
X011688Y001411D02*
X011217Y001411D01*
X011252Y001446D02*
X011252Y000461D01*
X011152Y000461D02*
X011152Y001346D01*
X011147Y001341D02*
X011422Y001616D01*
X011422Y002006D01*
X011147Y002281D01*
X010758Y002281D01*
X010482Y002006D01*
X010482Y001616D01*
X010758Y001341D01*
X011147Y001341D01*
X011052Y001341D02*
X011052Y000461D01*
X010952Y000461D02*
X010952Y001341D01*
X010852Y001341D02*
X010852Y000461D01*
X010752Y000461D02*
X010752Y001346D01*
X010688Y001411D02*
X010217Y001411D01*
X010252Y001446D02*
X010252Y000461D01*
X010152Y000461D02*
X010152Y001346D01*
X010147Y001341D02*
X010422Y001616D01*
X010422Y002006D01*
X010147Y002281D01*
X009758Y002281D01*
X009482Y002006D01*
X009482Y001616D01*
X009758Y001341D01*
X010147Y001341D01*
X010052Y001341D02*
X010052Y000461D01*
X009952Y000461D02*
X009952Y001341D01*
X009852Y001341D02*
X009852Y000461D01*
X009752Y000461D02*
X009752Y001346D01*
X009688Y001411D02*
X009217Y001411D01*
X009252Y001446D02*
X009252Y000461D01*
X009152Y000461D02*
X009152Y001346D01*
X009147Y001341D02*
X009422Y001616D01*
X009422Y002006D01*
X009147Y002281D01*
X008758Y002281D01*
X008482Y002006D01*
X008482Y001616D01*
X008758Y001341D01*
X009147Y001341D01*
X009052Y001341D02*
X009052Y000461D01*
X008952Y000461D02*
X008952Y001341D01*
X008852Y001341D02*
X008852Y000461D01*
X008752Y000461D02*
X008752Y001346D01*
X008688Y001411D02*
X008217Y001411D01*
X008252Y001446D02*
X008252Y000461D01*
X008152Y000461D02*
X008152Y001346D01*
X008147Y001341D02*
X008422Y001616D01*
X008422Y002006D01*
X008147Y002281D01*
X007758Y002281D01*
X007482Y002006D01*
X007482Y001616D01*
X007758Y001341D01*
X008147Y001341D01*
X008052Y001341D02*
X008052Y000461D01*
X007952Y000461D02*
X007952Y001341D01*
X007852Y001341D02*
X007852Y000461D01*
X007752Y000461D02*
X007752Y001346D01*
X007688Y001411D02*
X007217Y001411D01*
X007252Y001446D02*
X007252Y000461D01*
X007152Y000461D02*
X007152Y001346D01*
X007147Y001341D02*
X007422Y001616D01*
X007422Y002006D01*
X007147Y002281D01*
X006758Y002281D01*
X006482Y002006D01*
X006482Y001616D01*
X006758Y001341D01*
X007147Y001341D01*
X007052Y001341D02*
X007052Y000461D01*
X006952Y000461D02*
X006952Y001341D01*
X006852Y001341D02*
X006852Y000461D01*
X006752Y000461D02*
X006752Y001346D01*
X006688Y001411D02*
X006217Y001411D01*
X006252Y001446D02*
X006252Y000461D01*
X006152Y000461D02*
X006152Y001346D01*
X006147Y001341D02*
X006422Y001616D01*
X006422Y002006D01*
X006147Y002281D01*
X005758Y002281D01*
X005482Y002006D01*
X005482Y001616D01*
X005758Y001341D01*
X006147Y001341D01*
X006052Y001341D02*
X006052Y000461D01*
X005952Y000461D02*
X005952Y001341D01*
X005852Y001341D02*
X005852Y000461D01*
X005752Y000461D02*
X005752Y001346D01*
X005688Y001411D02*
X005174Y001411D01*
X005152Y001389D02*
X005152Y000461D01*
X005052Y000461D02*
X005052Y001371D01*
X005002Y001371D02*
X005134Y001371D01*
X005392Y001629D01*
X005392Y001761D01*
X005002Y001761D01*
X005002Y001371D01*
X005002Y001411D02*
X004902Y001411D01*
X004902Y001371D02*
X004770Y001371D01*
X004512Y001629D01*
X004512Y001761D01*
X004902Y001761D01*
X004902Y001861D01*
X004512Y001861D01*
X004512Y001993D01*
X004770Y002251D01*
X004902Y002251D01*
X004902Y001861D01*
X005002Y001861D01*
X005002Y002251D01*
X005134Y002251D01*
X005392Y001993D01*
X005392Y001861D01*
X005002Y001861D01*
X005002Y001761D01*
X004902Y001761D01*
X004902Y001371D01*
X004852Y001371D02*
X004852Y000461D01*
X004752Y000461D02*
X004752Y001389D01*
X004730Y001411D02*
X004252Y001411D01*
X004252Y001511D02*
X004630Y001511D01*
X004652Y001489D02*
X004652Y000461D01*
X004552Y000461D02*
X004552Y001589D01*
X004530Y001611D02*
X004252Y001611D01*
X004252Y001711D02*
X004512Y001711D01*
X004552Y001761D02*
X004552Y001861D01*
X004512Y001911D02*
X004252Y001911D01*
X004252Y001811D02*
X004902Y001811D01*
X004852Y001761D02*
X004852Y001861D01*
X004902Y001911D02*
X005002Y001911D01*
X004952Y001861D02*
X004952Y004551D01*
X004852Y004551D02*
X004852Y002251D01*
X004902Y002211D02*
X005002Y002211D01*
X005052Y002251D02*
X005052Y004551D01*
X005152Y004551D02*
X005152Y002233D01*
X005174Y002211D02*
X005688Y002211D01*
X005652Y002176D02*
X005652Y003201D01*
X005616Y003211D02*
X004252Y003211D01*
X004252Y003111D02*
X017452Y003111D01*
X017452Y003011D02*
X004252Y003011D01*
X004252Y002911D02*
X017452Y002911D01*
X017452Y002811D02*
X004252Y002811D01*
X004252Y002711D02*
X017452Y002711D01*
X017452Y002611D02*
X004252Y002611D01*
X004252Y002511D02*
X017452Y002511D01*
X017452Y002411D02*
X004252Y002411D01*
X004252Y002311D02*
X017452Y002311D01*
X017452Y002211D02*
X016217Y002211D01*
X016252Y002176D02*
X016252Y003801D01*
X016152Y003801D02*
X016152Y002276D01*
X016052Y002281D02*
X016052Y003801D01*
X015952Y003801D02*
X015952Y002281D01*
X015852Y002281D02*
X015852Y003801D01*
X015752Y003801D02*
X015752Y003623D01*
X015757Y003611D02*
X017452Y003611D01*
X017452Y003511D02*
X015772Y003511D01*
X015757Y003411D02*
X017452Y003411D01*
X017452Y003311D02*
X015705Y003311D01*
X015652Y003259D02*
X015652Y002176D01*
X015688Y002211D02*
X015217Y002211D01*
X015252Y002176D02*
X015252Y003201D01*
X015152Y003201D02*
X015152Y002276D01*
X015052Y002281D02*
X015052Y003201D01*
X014952Y003201D02*
X014952Y002281D01*
X014852Y002281D02*
X014852Y003201D01*
X014752Y003191D02*
X014752Y002276D01*
X014688Y002211D02*
X014217Y002211D01*
X014252Y002176D02*
X014252Y003201D01*
X014152Y003201D02*
X014152Y002276D01*
X014052Y002281D02*
X014052Y003201D01*
X013952Y003201D02*
X013952Y002281D01*
X013852Y002281D02*
X013852Y003201D01*
X013752Y003201D02*
X013752Y002276D01*
X013688Y002211D02*
X013217Y002211D01*
X013252Y002176D02*
X013252Y003201D01*
X013152Y003201D02*
X013152Y002276D01*
X013052Y002281D02*
X013052Y003201D01*
X012952Y003201D02*
X012952Y002281D01*
X012852Y002281D02*
X012852Y003201D01*
X012752Y003201D02*
X012752Y002276D01*
X012688Y002211D02*
X012217Y002211D01*
X012252Y002176D02*
X012252Y003201D01*
X012152Y003201D02*
X012152Y002276D01*
X012052Y002281D02*
X012052Y003201D01*
X011952Y003201D02*
X011952Y002281D01*
X011852Y002281D02*
X011852Y003201D01*
X011752Y003201D02*
X011752Y002276D01*
X011688Y002211D02*
X011217Y002211D01*
X011252Y002176D02*
X011252Y003201D01*
X011152Y003201D02*
X011152Y002276D01*
X011052Y002281D02*
X011052Y003201D01*
X010952Y003201D02*
X010952Y002281D01*
X010852Y002281D02*
X010852Y003201D01*
X010752Y003201D02*
X010752Y002276D01*
X010688Y002211D02*
X010217Y002211D01*
X010252Y002176D02*
X010252Y003201D01*
X010152Y003201D02*
X010152Y002276D01*
X010052Y002281D02*
X010052Y003201D01*
X009952Y003201D02*
X009952Y002281D01*
X009852Y002281D02*
X009852Y003201D01*
X009752Y003201D02*
X009752Y002276D01*
X009688Y002211D02*
X009217Y002211D01*
X009252Y002176D02*
X009252Y003201D01*
X009152Y003201D02*
X009152Y002276D01*
X009052Y002281D02*
X009052Y003201D01*
X008952Y003201D02*
X008952Y002281D01*
X008852Y002281D02*
X008852Y003201D01*
X008752Y003201D02*
X008752Y002276D01*
X008688Y002211D02*
X008217Y002211D01*
X008252Y002176D02*
X008252Y003201D01*
X008152Y003201D02*
X008152Y002276D01*
X008052Y002281D02*
X008052Y003201D01*
X007952Y003201D02*
X007952Y002281D01*
X007852Y002281D02*
X007852Y003201D01*
X007752Y003201D02*
X007752Y002276D01*
X007688Y002211D02*
X007217Y002211D01*
X007252Y002176D02*
X007252Y003201D01*
X007152Y003201D02*
X007152Y002276D01*
X007052Y002281D02*
X007052Y003201D01*
X006952Y003201D02*
X006952Y002281D01*
X006852Y002281D02*
X006852Y003201D01*
X006752Y003201D02*
X006752Y002276D01*
X006688Y002211D02*
X006217Y002211D01*
X006252Y002176D02*
X006252Y003201D01*
X006152Y003201D02*
X006152Y002276D01*
X006052Y002281D02*
X006052Y003201D01*
X005952Y003201D02*
X005952Y002281D01*
X005852Y002281D02*
X005852Y003201D01*
X005752Y003201D02*
X005752Y002276D01*
X005588Y002111D02*
X005274Y002111D01*
X005252Y002133D02*
X005252Y004551D01*
X005352Y004551D02*
X005352Y002033D01*
X005374Y002011D02*
X005488Y002011D01*
X005552Y002076D02*
X005552Y003238D01*
X005464Y003311D02*
X004252Y003311D01*
X004252Y003411D02*
X005408Y003411D01*
X005452Y003323D02*
X005452Y000461D01*
X005352Y000461D02*
X005352Y001589D01*
X005374Y001611D02*
X005488Y001611D01*
X005552Y001546D02*
X005552Y000461D01*
X005652Y000461D02*
X005652Y001446D01*
X005588Y001511D02*
X005274Y001511D01*
X005252Y001489D02*
X005252Y000461D01*
X004952Y000461D02*
X004952Y001761D01*
X004902Y001711D02*
X005002Y001711D01*
X005052Y001761D02*
X005052Y001861D01*
X005002Y001811D02*
X005482Y001811D01*
X005482Y001711D02*
X005392Y001711D01*
X005352Y001761D02*
X005352Y001861D01*
X005392Y001911D02*
X005482Y001911D01*
X005252Y001861D02*
X005252Y001761D01*
X005152Y001761D02*
X005152Y001861D01*
X005002Y002011D02*
X004902Y002011D01*
X004902Y002111D02*
X005002Y002111D01*
X004752Y002233D02*
X004752Y004551D01*
X004652Y004551D02*
X004652Y002133D01*
X004630Y002111D02*
X004252Y002111D01*
X004252Y002011D02*
X004530Y002011D01*
X004552Y002033D02*
X004552Y004551D01*
X004452Y004551D02*
X004452Y000461D01*
X004352Y000461D02*
X004352Y004551D01*
X004252Y004511D02*
X005392Y004511D01*
X005392Y004411D02*
X004252Y004411D01*
X004252Y004311D02*
X005392Y004311D01*
X005392Y004211D02*
X004252Y004211D01*
X004252Y004111D02*
X005392Y004111D01*
X005392Y004011D02*
X004252Y004011D01*
X004252Y003911D02*
X005392Y003911D01*
X005392Y003811D02*
X004252Y003811D01*
X004252Y003711D02*
X005392Y003711D01*
X005392Y003611D02*
X004252Y003611D01*
X004252Y003511D02*
X005392Y003511D01*
X006012Y003821D02*
X006012Y004354D01*
X006065Y004301D01*
X007051Y004301D01*
X007081Y004230D01*
X007125Y004186D01*
X007016Y004231D01*
X006889Y004231D01*
X006771Y004182D01*
X006681Y004092D01*
X006632Y003975D01*
X006632Y003847D01*
X006643Y003821D01*
X006012Y003821D01*
X006052Y003821D02*
X006052Y004314D01*
X006055Y004311D02*
X006012Y004311D01*
X006012Y004211D02*
X006840Y004211D01*
X006852Y004216D02*
X006852Y004301D01*
X006752Y004301D02*
X006752Y004164D01*
X006700Y004111D02*
X006012Y004111D01*
X006012Y004011D02*
X006647Y004011D01*
X006652Y004023D02*
X006652Y004301D01*
X006552Y004301D02*
X006552Y003821D01*
X006452Y003821D02*
X006452Y004301D01*
X006352Y004301D02*
X006352Y003821D01*
X006252Y003821D02*
X006252Y004301D01*
X006152Y004301D02*
X006152Y003821D01*
X006012Y003911D02*
X006632Y003911D01*
X006952Y004231D02*
X006952Y004301D01*
X007052Y004299D02*
X007052Y004216D01*
X007064Y004211D02*
X007100Y004211D01*
X007180Y004136D02*
X007289Y004091D01*
X007416Y004091D01*
X007533Y004140D01*
X007595Y004201D01*
X008365Y004201D01*
X008745Y003821D01*
X007261Y003821D01*
X007272Y003847D01*
X007272Y003975D01*
X007223Y004092D01*
X007180Y004136D01*
X007205Y004111D02*
X007240Y004111D01*
X007252Y004106D02*
X007252Y004023D01*
X007257Y004011D02*
X008555Y004011D01*
X008552Y004014D02*
X008552Y003821D01*
X008452Y003821D02*
X008452Y004114D01*
X008455Y004111D02*
X007464Y004111D01*
X007452Y004106D02*
X007452Y003821D01*
X007352Y003821D02*
X007352Y004091D01*
X007272Y003911D02*
X008655Y003911D01*
X008652Y003914D02*
X008652Y003821D01*
X008352Y003821D02*
X008352Y004201D01*
X008252Y004201D02*
X008252Y003821D01*
X008152Y003821D02*
X008152Y004201D01*
X008052Y004201D02*
X008052Y003821D01*
X007952Y003821D02*
X007952Y004201D01*
X007852Y004201D02*
X007852Y003821D01*
X007752Y003821D02*
X007752Y004201D01*
X007652Y004201D02*
X007652Y003821D01*
X007552Y003821D02*
X007552Y004159D01*
X007595Y004621D02*
X007533Y004682D01*
X007416Y004731D01*
X007289Y004731D01*
X007264Y004721D01*
X006362Y004721D01*
X006362Y005398D01*
X006359Y005401D01*
X008110Y005401D01*
X008171Y005340D01*
X008289Y005291D01*
X008416Y005291D01*
X008533Y005340D01*
X008623Y005430D01*
X008672Y005547D01*
X008672Y005675D01*
X008623Y005792D01*
X008533Y005882D01*
X008464Y005911D01*
X009632Y005911D01*
X009632Y005847D02*
X009681Y005730D01*
X009690Y005721D01*
X009295Y005721D01*
X009233Y005782D01*
X009116Y005831D01*
X008989Y005831D01*
X008871Y005782D01*
X008781Y005692D01*
X008732Y005575D01*
X008732Y005447D01*
X008781Y005330D01*
X008871Y005240D01*
X008989Y005191D01*
X009116Y005191D01*
X009233Y005240D01*
X009295Y005301D01*
X011545Y005301D01*
X011542Y005298D01*
X011265Y005021D01*
X009795Y005021D01*
X009733Y005082D01*
X009616Y005131D01*
X009489Y005131D01*
X009371Y005082D01*
X009281Y004992D01*
X009232Y004875D01*
X009232Y004747D01*
X009277Y004638D01*
X009233Y004682D01*
X009116Y004731D01*
X008989Y004731D01*
X008871Y004682D01*
X008781Y004592D01*
X008732Y004475D01*
X008732Y004428D01*
X008662Y004498D01*
X008539Y004621D01*
X007595Y004621D01*
X007652Y004621D02*
X007652Y005401D01*
X007552Y005401D02*
X007552Y004664D01*
X007464Y004711D02*
X008940Y004711D01*
X008952Y004716D02*
X008952Y005206D01*
X008940Y005211D02*
X006362Y005211D01*
X006362Y005111D02*
X009440Y005111D01*
X009452Y005116D02*
X009452Y005301D01*
X009352Y005301D02*
X009352Y005064D01*
X009300Y005011D02*
X006362Y005011D01*
X006362Y004911D02*
X009247Y004911D01*
X009252Y004923D02*
X009252Y005259D01*
X009164Y005211D02*
X011455Y005211D01*
X011452Y005208D02*
X011452Y005301D01*
X011352Y005301D02*
X011352Y005108D01*
X011355Y005111D02*
X009664Y005111D01*
X009652Y005116D02*
X009652Y005301D01*
X009552Y005301D02*
X009552Y005131D01*
X009752Y005064D02*
X009752Y005301D01*
X009852Y005301D02*
X009852Y005021D01*
X009952Y005021D02*
X009952Y005301D01*
X010052Y005301D02*
X010052Y005021D01*
X010152Y005021D02*
X010152Y005301D01*
X010252Y005301D02*
X010252Y005021D01*
X010352Y005021D02*
X010352Y005301D01*
X010452Y005301D02*
X010452Y005021D01*
X010552Y005021D02*
X010552Y005301D01*
X010652Y005301D02*
X010652Y005021D01*
X010752Y005021D02*
X010752Y005301D01*
X010852Y005301D02*
X010852Y005021D01*
X010952Y005021D02*
X010952Y005301D01*
X011052Y005301D02*
X011052Y005021D01*
X011152Y005021D02*
X011152Y005301D01*
X011252Y005301D02*
X011252Y005021D01*
X011988Y005001D02*
X013116Y005001D01*
X013071Y004982D01*
X013010Y004921D01*
X012095Y004921D01*
X012033Y004982D01*
X011988Y005001D01*
X012052Y005001D02*
X012052Y004964D01*
X012152Y005001D02*
X012152Y004921D01*
X012252Y004921D02*
X012252Y005001D01*
X012352Y005001D02*
X012352Y004921D01*
X012452Y004921D02*
X012452Y005001D01*
X012552Y005001D02*
X012552Y004921D01*
X012652Y004921D02*
X012652Y005001D01*
X012752Y005001D02*
X012752Y004921D01*
X012852Y004921D02*
X012852Y005001D01*
X012952Y005001D02*
X012952Y004921D01*
X013052Y004964D02*
X013052Y005001D01*
X013388Y005001D02*
X017452Y005001D01*
X017452Y004621D01*
X013561Y004621D01*
X013572Y004647D01*
X013572Y004775D01*
X013523Y004892D01*
X013433Y004982D01*
X013388Y005001D01*
X013452Y005001D02*
X013452Y004964D01*
X013505Y004911D02*
X017452Y004911D01*
X017452Y004811D02*
X013557Y004811D01*
X013552Y004823D02*
X013552Y005001D01*
X013652Y005001D02*
X013652Y004621D01*
X013752Y004621D02*
X013752Y005001D01*
X013852Y005001D02*
X013852Y004621D01*
X013952Y004621D02*
X013952Y005001D01*
X014052Y005001D02*
X014052Y004621D01*
X014152Y004621D02*
X014152Y005001D01*
X014252Y005001D02*
X014252Y004621D01*
X014352Y004621D02*
X014352Y005001D01*
X014452Y005001D02*
X014452Y004621D01*
X014552Y004621D02*
X014552Y005001D01*
X014652Y005001D02*
X014652Y004621D01*
X014752Y004621D02*
X014752Y005001D01*
X014852Y005001D02*
X014852Y004621D01*
X014952Y004621D02*
X014952Y005001D01*
X015052Y005001D02*
X015052Y004621D01*
X015152Y004621D02*
X015152Y005001D01*
X015252Y005001D02*
X015252Y004621D01*
X015352Y004621D02*
X015352Y005001D01*
X015452Y005001D02*
X015452Y004621D01*
X015552Y004621D02*
X015552Y005001D01*
X015652Y005001D02*
X015652Y004621D01*
X015752Y004621D02*
X015752Y005001D01*
X015852Y005001D02*
X015852Y004621D01*
X015952Y004621D02*
X015952Y005001D01*
X016052Y005001D02*
X016052Y004621D01*
X016152Y004621D02*
X016152Y005001D01*
X016252Y005001D02*
X016252Y004621D01*
X016352Y004621D02*
X016352Y005001D01*
X016452Y005001D02*
X016452Y004621D01*
X016552Y004621D02*
X016552Y005001D01*
X016652Y005001D02*
X016652Y004621D01*
X016752Y004621D02*
X016752Y005001D01*
X016852Y005001D02*
X016852Y004621D01*
X016952Y004621D02*
X016952Y005001D01*
X017052Y005001D02*
X017052Y004621D01*
X017152Y004621D02*
X017152Y005001D01*
X017252Y005001D02*
X017252Y004621D01*
X017352Y004621D02*
X017352Y005001D01*
X017452Y004711D02*
X013572Y004711D01*
X012990Y004201D02*
X012545Y004201D01*
X012635Y004111D01*
X012947Y004111D01*
X012635Y004111D01*
X012652Y004111D02*
X012652Y004201D01*
X012552Y004194D02*
X012552Y004201D01*
X012752Y004201D02*
X012752Y004111D01*
X012852Y004111D02*
X012852Y004201D01*
X012952Y004201D02*
X012952Y004123D01*
X012947Y004111D02*
X012981Y004192D01*
X012990Y004201D01*
X013252Y004011D02*
X013152Y003911D01*
X012552Y003911D01*
X012252Y004211D01*
X010452Y004211D01*
X010352Y004111D01*
X009452Y004111D01*
X009352Y004011D01*
X009459Y003821D02*
X009549Y003911D01*
X010435Y003911D01*
X011247Y003911D01*
X011252Y003923D02*
X011252Y004011D01*
X011281Y003992D02*
X011300Y004011D01*
X010535Y004011D01*
X010435Y003911D01*
X010452Y003928D02*
X010452Y003821D01*
X010352Y003821D02*
X010352Y003911D01*
X010252Y003911D02*
X010252Y003821D01*
X010152Y003821D02*
X010152Y003911D01*
X010052Y003911D02*
X010052Y003821D01*
X009952Y003821D02*
X009952Y003911D01*
X009852Y003911D02*
X009852Y003821D01*
X009752Y003821D02*
X009752Y003911D01*
X009652Y003911D02*
X009652Y003821D01*
X009552Y003821D02*
X009552Y003911D01*
X009459Y003821D02*
X011232Y003821D01*
X011232Y003875D01*
X011281Y003992D01*
X011152Y004011D02*
X011152Y003821D01*
X011052Y003821D02*
X011052Y004011D01*
X010952Y004011D02*
X010952Y003821D01*
X010852Y003821D02*
X010852Y004011D01*
X010752Y004011D02*
X010752Y003821D01*
X010652Y003821D02*
X010652Y004011D01*
X010552Y004011D02*
X010552Y003821D01*
X010552Y003201D02*
X010552Y002076D01*
X010588Y002111D02*
X010317Y002111D01*
X010352Y002076D02*
X010352Y003201D01*
X010452Y003201D02*
X010452Y000461D01*
X010352Y000461D02*
X010352Y001546D01*
X010317Y001511D02*
X010588Y001511D01*
X010552Y001546D02*
X010552Y000461D01*
X010652Y000461D02*
X010652Y001446D01*
X010488Y001611D02*
X010417Y001611D01*
X010422Y001711D02*
X010482Y001711D01*
X010482Y001811D02*
X010422Y001811D01*
X010422Y001911D02*
X010482Y001911D01*
X010488Y002011D02*
X010417Y002011D01*
X010652Y002176D02*
X010652Y003201D01*
X011352Y003201D02*
X011352Y002076D01*
X011317Y002111D02*
X011588Y002111D01*
X011552Y002076D02*
X011552Y003201D01*
X011452Y003201D02*
X011452Y000461D01*
X011352Y000461D02*
X011352Y001546D01*
X011317Y001511D02*
X011588Y001511D01*
X011552Y001546D02*
X011552Y000461D01*
X011652Y000461D02*
X011652Y001446D01*
X011488Y001611D02*
X011417Y001611D01*
X011422Y001711D02*
X011482Y001711D01*
X011482Y001811D02*
X011422Y001811D01*
X011422Y001911D02*
X011482Y001911D01*
X011488Y002011D02*
X011417Y002011D01*
X011652Y002176D02*
X011652Y003201D01*
X012352Y003201D02*
X012352Y002076D01*
X012317Y002111D02*
X012588Y002111D01*
X012552Y002076D02*
X012552Y003201D01*
X012452Y003201D02*
X012452Y000461D01*
X012352Y000461D02*
X012352Y001546D01*
X012317Y001511D02*
X012588Y001511D01*
X012552Y001546D02*
X012552Y000461D01*
X012652Y000461D02*
X012652Y001446D01*
X012488Y001611D02*
X012417Y001611D01*
X012422Y001711D02*
X012482Y001711D01*
X012482Y001811D02*
X012422Y001811D01*
X012422Y001911D02*
X012482Y001911D01*
X012488Y002011D02*
X012417Y002011D01*
X012652Y002176D02*
X012652Y003201D01*
X013352Y003201D02*
X013352Y002076D01*
X013317Y002111D02*
X013588Y002111D01*
X013552Y002076D02*
X013552Y003201D01*
X013452Y003201D02*
X013452Y000461D01*
X013352Y000461D02*
X013352Y001546D01*
X013317Y001511D02*
X013588Y001511D01*
X013552Y001546D02*
X013552Y000461D01*
X013652Y000461D02*
X013652Y001446D01*
X013488Y001611D02*
X013417Y001611D01*
X013422Y001711D02*
X013482Y001711D01*
X013482Y001811D02*
X013422Y001811D01*
X013422Y001911D02*
X013482Y001911D01*
X013488Y002011D02*
X013417Y002011D01*
X013652Y002176D02*
X013652Y003201D01*
X014352Y003201D02*
X014352Y002076D01*
X014317Y002111D02*
X014588Y002111D01*
X014552Y002076D02*
X014552Y003201D01*
X014452Y003201D02*
X014452Y000461D01*
X014352Y000461D02*
X014352Y001546D01*
X014317Y001511D02*
X014588Y001511D01*
X014552Y001546D02*
X014552Y000461D01*
X014652Y000461D02*
X014652Y001446D01*
X014488Y001611D02*
X014417Y001611D01*
X014422Y001711D02*
X014482Y001711D01*
X014482Y001811D02*
X014422Y001811D01*
X014422Y001911D02*
X014482Y001911D01*
X014488Y002011D02*
X014417Y002011D01*
X014652Y002176D02*
X014652Y003201D01*
X015352Y003201D02*
X015352Y002076D01*
X015317Y002111D02*
X015588Y002111D01*
X015552Y002076D02*
X015552Y003206D01*
X015564Y003211D02*
X017452Y003211D01*
X017452Y003711D02*
X015705Y003711D01*
X015652Y003764D02*
X015652Y003801D01*
X016352Y003801D02*
X016352Y002076D01*
X016317Y002111D02*
X017452Y002111D01*
X017452Y002011D02*
X016417Y002011D01*
X016422Y001911D02*
X017452Y001911D01*
X017452Y001811D02*
X016422Y001811D01*
X016422Y001711D02*
X017452Y001711D01*
X017452Y001611D02*
X016417Y001611D01*
X016352Y001546D02*
X016352Y000461D01*
X016452Y000461D02*
X016452Y003801D01*
X016552Y003801D02*
X016552Y000461D01*
X016652Y000461D02*
X016652Y003801D01*
X016752Y003801D02*
X016752Y000461D01*
X016852Y000461D02*
X016852Y003801D01*
X016952Y003801D02*
X016952Y000461D01*
X017052Y000461D02*
X017052Y003801D01*
X017152Y003801D02*
X017152Y000461D01*
X017252Y000461D02*
X017252Y003801D01*
X017352Y003801D02*
X017352Y000461D01*
X015652Y000461D02*
X015652Y001446D01*
X015588Y001511D02*
X015317Y001511D01*
X015352Y001546D02*
X015352Y000461D01*
X015452Y000461D02*
X015452Y003191D01*
X015752Y003399D02*
X015752Y002276D01*
X015488Y002011D02*
X015417Y002011D01*
X015422Y001911D02*
X015482Y001911D01*
X015482Y001811D02*
X015422Y001811D01*
X015422Y001711D02*
X015482Y001711D01*
X015488Y001611D02*
X015417Y001611D01*
X015552Y001546D02*
X015552Y000461D01*
X016317Y001511D02*
X017452Y001511D01*
X012359Y003821D02*
X011872Y003821D01*
X011872Y003875D01*
X011823Y003992D01*
X011805Y004011D01*
X012169Y004011D01*
X012352Y003828D01*
X012352Y003821D01*
X012352Y003828D02*
X012359Y003821D01*
X012352Y003828D02*
X012352Y003828D01*
X012252Y003821D02*
X012252Y003928D01*
X012269Y003911D02*
X011857Y003911D01*
X011852Y003923D02*
X011852Y004011D01*
X011952Y004011D02*
X011952Y003821D01*
X012052Y003821D02*
X012052Y004011D01*
X012152Y004011D02*
X012152Y003821D01*
X009652Y003201D02*
X009652Y002176D01*
X009588Y002111D02*
X009317Y002111D01*
X009352Y002076D02*
X009352Y003201D01*
X009452Y003201D02*
X009452Y000461D01*
X009352Y000461D02*
X009352Y001546D01*
X009317Y001511D02*
X009588Y001511D01*
X009552Y001546D02*
X009552Y000461D01*
X009652Y000461D02*
X009652Y001446D01*
X009488Y001611D02*
X009417Y001611D01*
X009422Y001711D02*
X009482Y001711D01*
X009482Y001811D02*
X009422Y001811D01*
X009422Y001911D02*
X009482Y001911D01*
X009488Y002011D02*
X009417Y002011D01*
X009552Y002076D02*
X009552Y003201D01*
X008652Y003201D02*
X008652Y002176D01*
X008588Y002111D02*
X008317Y002111D01*
X008352Y002076D02*
X008352Y003201D01*
X008452Y003201D02*
X008452Y000461D01*
X008352Y000461D02*
X008352Y001546D01*
X008317Y001511D02*
X008588Y001511D01*
X008552Y001546D02*
X008552Y000461D01*
X008652Y000461D02*
X008652Y001446D01*
X008488Y001611D02*
X008417Y001611D01*
X008422Y001711D02*
X008482Y001711D01*
X008482Y001811D02*
X008422Y001811D01*
X008422Y001911D02*
X008482Y001911D01*
X008488Y002011D02*
X008417Y002011D01*
X008552Y002076D02*
X008552Y003201D01*
X007652Y003201D02*
X007652Y002176D01*
X007588Y002111D02*
X007317Y002111D01*
X007352Y002076D02*
X007352Y003201D01*
X007452Y003201D02*
X007452Y000461D01*
X007352Y000461D02*
X007352Y001546D01*
X007317Y001511D02*
X007588Y001511D01*
X007552Y001546D02*
X007552Y000461D01*
X007652Y000461D02*
X007652Y001446D01*
X007488Y001611D02*
X007417Y001611D01*
X007422Y001711D02*
X007482Y001711D01*
X007482Y001811D02*
X007422Y001811D01*
X007422Y001911D02*
X007482Y001911D01*
X007488Y002011D02*
X007417Y002011D01*
X007552Y002076D02*
X007552Y003201D01*
X006652Y003201D02*
X006652Y002176D01*
X006588Y002111D02*
X006317Y002111D01*
X006352Y002076D02*
X006352Y003201D01*
X006452Y003201D02*
X006452Y000461D01*
X006352Y000461D02*
X006352Y001546D01*
X006317Y001511D02*
X006588Y001511D01*
X006552Y001546D02*
X006552Y000461D01*
X006652Y000461D02*
X006652Y001446D01*
X006488Y001611D02*
X006417Y001611D01*
X006422Y001711D02*
X006482Y001711D01*
X006482Y001811D02*
X006422Y001811D01*
X006422Y001911D02*
X006482Y001911D01*
X006488Y002011D02*
X006417Y002011D01*
X006552Y002076D02*
X006552Y003201D01*
X004730Y002211D02*
X004252Y002211D01*
X004652Y001861D02*
X004652Y001761D01*
X004752Y001761D02*
X004752Y001861D01*
X004902Y001611D02*
X005002Y001611D01*
X005002Y001511D02*
X004902Y001511D01*
X008649Y004511D02*
X008747Y004511D01*
X008752Y004523D02*
X008752Y005399D01*
X008747Y005411D02*
X008605Y005411D01*
X008552Y005359D02*
X008552Y004608D01*
X008549Y004611D02*
X008800Y004611D01*
X008852Y004664D02*
X008852Y005258D01*
X008800Y005311D02*
X008464Y005311D01*
X008452Y005306D02*
X008452Y004621D01*
X008352Y004621D02*
X008352Y005291D01*
X008252Y005306D02*
X008252Y004621D01*
X008152Y004621D02*
X008152Y005358D01*
X008240Y005311D02*
X006362Y005311D01*
X006452Y005401D02*
X006452Y004721D01*
X006552Y004721D02*
X006552Y005401D01*
X006652Y005401D02*
X006652Y004721D01*
X006752Y004721D02*
X006752Y005401D01*
X006852Y005401D02*
X006852Y004721D01*
X006952Y004721D02*
X006952Y005401D01*
X007052Y005401D02*
X007052Y004721D01*
X007152Y004721D02*
X007152Y005401D01*
X007252Y005401D02*
X007252Y004721D01*
X007352Y004731D02*
X007352Y005401D01*
X007452Y005401D02*
X007452Y004716D01*
X007752Y004621D02*
X007752Y005401D01*
X007852Y005401D02*
X007852Y004621D01*
X007952Y004621D02*
X007952Y005401D01*
X008052Y005401D02*
X008052Y004621D01*
X008652Y004508D02*
X008652Y005499D01*
X008657Y005511D02*
X008732Y005511D01*
X008747Y005611D02*
X008672Y005611D01*
X008752Y005623D02*
X008752Y007199D01*
X008747Y007211D02*
X008464Y007211D01*
X008452Y007206D02*
X008452Y006516D01*
X008464Y006511D02*
X012132Y006511D01*
X012132Y006447D02*
X012181Y006330D01*
X012190Y006321D01*
X011065Y006321D01*
X010942Y006198D01*
X010865Y006121D01*
X010195Y006121D01*
X010133Y006182D01*
X010016Y006231D01*
X009889Y006231D01*
X009771Y006182D01*
X009681Y006092D01*
X009632Y005975D01*
X009632Y005847D01*
X009647Y005811D02*
X009164Y005811D01*
X009152Y005816D02*
X009152Y007006D01*
X009164Y007011D02*
X014147Y007011D01*
X014152Y007023D02*
X014152Y007101D01*
X014181Y007092D02*
X014132Y006975D01*
X014132Y006847D01*
X014181Y006730D01*
X014271Y006640D01*
X014389Y006591D01*
X014516Y006591D01*
X014633Y006640D01*
X014695Y006701D01*
X017452Y006701D01*
X017452Y006511D01*
X012772Y006511D01*
X012772Y006575D01*
X012723Y006692D01*
X012633Y006782D01*
X012516Y006831D01*
X012389Y006831D01*
X012271Y006782D01*
X012181Y006692D01*
X012132Y006575D01*
X012132Y006447D01*
X012147Y006411D02*
X008605Y006411D01*
X008623Y006392D02*
X008533Y006482D01*
X008416Y006531D01*
X008289Y006531D01*
X008171Y006482D01*
X008110Y006421D01*
X004262Y006421D01*
X004262Y006818D01*
X004323Y006880D01*
X004372Y006997D01*
X004372Y007125D01*
X004323Y007242D01*
X004255Y007311D01*
X008100Y007311D01*
X008171Y007240D01*
X008289Y007191D01*
X008416Y007191D01*
X008533Y007240D01*
X008623Y007330D01*
X008672Y007447D01*
X008672Y007575D01*
X008623Y007692D01*
X008615Y007701D01*
X009743Y007701D01*
X009732Y007675D01*
X009732Y007547D01*
X009743Y007521D01*
X009295Y007521D01*
X009233Y007582D01*
X009116Y007631D01*
X008989Y007631D01*
X008871Y007582D01*
X008781Y007492D01*
X008732Y007375D01*
X008732Y007247D01*
X008781Y007130D01*
X008871Y007040D01*
X008989Y006991D01*
X009116Y006991D01*
X009233Y007040D01*
X009295Y007101D01*
X014190Y007101D01*
X014181Y007092D01*
X014052Y007101D02*
X014052Y006511D01*
X013952Y006511D02*
X013952Y007101D01*
X013852Y007101D02*
X013852Y006511D01*
X013752Y006511D02*
X013752Y007101D01*
X013652Y007101D02*
X013652Y006511D01*
X013552Y006511D02*
X013552Y007101D01*
X013452Y007101D02*
X013452Y006511D01*
X013352Y006511D02*
X013352Y007101D01*
X013252Y007101D02*
X013252Y006511D01*
X013152Y006511D02*
X013152Y007101D01*
X013052Y007101D02*
X013052Y006511D01*
X012952Y006511D02*
X012952Y007101D01*
X012852Y007101D02*
X012852Y006511D01*
X012772Y006511D02*
X017452Y006511D01*
X017352Y006511D02*
X017352Y006701D01*
X017252Y006701D02*
X017252Y006511D01*
X017152Y006511D02*
X017152Y006701D01*
X017052Y006701D02*
X017052Y006511D01*
X016952Y006511D02*
X016952Y006701D01*
X016852Y006701D02*
X016852Y006511D01*
X016752Y006511D02*
X016752Y006701D01*
X016652Y006701D02*
X016652Y006511D01*
X016552Y006511D02*
X016552Y006701D01*
X016452Y006701D02*
X016452Y006511D01*
X016352Y006511D02*
X016352Y006701D01*
X016252Y006701D02*
X016252Y006511D01*
X016152Y006511D02*
X016152Y006701D01*
X016052Y006701D02*
X016052Y006511D01*
X015952Y006511D02*
X015952Y006701D01*
X015852Y006701D02*
X015852Y006511D01*
X015752Y006511D02*
X015752Y006701D01*
X015652Y006701D02*
X015652Y006511D01*
X015552Y006511D02*
X015552Y006701D01*
X015452Y006701D02*
X015452Y006511D01*
X015352Y006511D02*
X015352Y006701D01*
X015252Y006701D02*
X015252Y006511D01*
X015152Y006511D02*
X015152Y006701D01*
X015052Y006701D02*
X015052Y006511D01*
X014952Y006511D02*
X014952Y006701D01*
X014852Y006701D02*
X014852Y006511D01*
X014752Y006511D02*
X014752Y006701D01*
X014652Y006659D02*
X014652Y006511D01*
X014552Y006511D02*
X014552Y006606D01*
X014564Y006611D02*
X017452Y006611D01*
X017452Y007121D02*
X017315Y007121D01*
X017323Y007130D01*
X017372Y007247D01*
X017372Y007375D01*
X017323Y007492D01*
X017315Y007501D01*
X017452Y007501D01*
X017452Y007121D01*
X017452Y007211D02*
X017357Y007211D01*
X017352Y007199D02*
X017352Y007121D01*
X017372Y007311D02*
X017452Y007311D01*
X017452Y007411D02*
X017357Y007411D01*
X017352Y007423D02*
X017352Y007501D01*
X017352Y007921D02*
X017352Y008159D01*
X017333Y008140D02*
X017423Y008230D01*
X017452Y008299D01*
X017452Y007921D01*
X016765Y007921D01*
X016665Y007821D01*
X014315Y007821D01*
X014323Y007830D01*
X014372Y007947D01*
X014372Y008075D01*
X014323Y008192D01*
X014305Y008211D01*
X016900Y008211D01*
X016971Y008140D01*
X017089Y008091D01*
X017216Y008091D01*
X017333Y008140D01*
X017264Y008111D02*
X017452Y008111D01*
X017452Y008011D02*
X014372Y008011D01*
X014357Y007911D02*
X016755Y007911D01*
X016752Y007908D02*
X016752Y008211D01*
X016652Y008211D02*
X016652Y007821D01*
X016552Y007821D02*
X016552Y008211D01*
X016452Y008211D02*
X016452Y007821D01*
X016352Y007821D02*
X016352Y008211D01*
X016252Y008211D02*
X016252Y007821D01*
X016152Y007821D02*
X016152Y008211D01*
X016052Y008211D02*
X016052Y007821D01*
X015952Y007821D02*
X015952Y008211D01*
X015852Y008211D02*
X015852Y007821D01*
X015752Y007821D02*
X015752Y008211D01*
X015652Y008211D02*
X015652Y007821D01*
X015552Y007821D02*
X015552Y008211D01*
X015452Y008211D02*
X015452Y007821D01*
X015352Y007821D02*
X015352Y008211D01*
X015252Y008211D02*
X015252Y007821D01*
X015152Y007821D02*
X015152Y008211D01*
X015052Y008211D02*
X015052Y007821D01*
X014952Y007821D02*
X014952Y008211D01*
X014852Y008211D02*
X014852Y007821D01*
X014752Y007821D02*
X014752Y008211D01*
X014652Y008211D02*
X014652Y007821D01*
X014552Y007821D02*
X014552Y008211D01*
X014452Y008211D02*
X014452Y007821D01*
X014352Y007821D02*
X014352Y007899D01*
X014357Y008111D02*
X017040Y008111D01*
X017052Y008106D02*
X017052Y007921D01*
X016952Y007921D02*
X016952Y008158D01*
X016852Y008211D02*
X016852Y007921D01*
X017152Y007921D02*
X017152Y008091D01*
X017252Y008106D02*
X017252Y007921D01*
X017405Y008211D02*
X017452Y008211D01*
X017452Y008523D02*
X017423Y008592D01*
X017405Y008611D01*
X017452Y008611D01*
X017452Y008523D01*
X017852Y008511D02*
X017952Y008411D01*
X017852Y008511D02*
X017852Y008811D01*
X016952Y008811D01*
X016752Y008611D01*
X008152Y008611D01*
X007952Y008811D01*
X007952Y010811D01*
X007482Y010811D02*
X007422Y010811D01*
X007422Y010711D02*
X007482Y010711D01*
X007482Y010616D02*
X007752Y010346D01*
X007752Y008728D01*
X007752Y008611D01*
X007652Y008611D02*
X007652Y010446D01*
X007688Y010411D02*
X007217Y010411D01*
X007252Y010446D02*
X007252Y009394D01*
X007235Y009411D02*
X007752Y009411D01*
X007752Y009311D02*
X007335Y009311D01*
X007152Y009494D01*
X007152Y010346D01*
X007422Y010616D01*
X007422Y011006D01*
X007147Y011281D01*
X006758Y011281D01*
X006482Y011006D01*
X006482Y010616D01*
X006752Y010346D01*
X006752Y009331D01*
X006689Y009331D01*
X006571Y009282D01*
X006518Y009229D01*
X004252Y009304D01*
X004252Y012161D01*
X017452Y012161D01*
X017452Y009711D01*
X011152Y009711D01*
X011152Y010346D01*
X011152Y009711D01*
X017452Y009711D01*
X017352Y009711D02*
X017352Y012161D01*
X017252Y012161D02*
X017252Y009711D01*
X017152Y009711D02*
X017152Y012161D01*
X017052Y012161D02*
X017052Y009711D01*
X016952Y009711D02*
X016952Y012161D01*
X016852Y012161D02*
X016852Y009711D01*
X016752Y009711D02*
X016752Y012161D01*
X016652Y012161D02*
X016652Y009711D01*
X016552Y009711D02*
X016552Y012161D01*
X016452Y012161D02*
X016452Y009711D01*
X016352Y009711D02*
X016352Y010359D01*
X016334Y010341D02*
X016422Y010429D01*
X016422Y011193D01*
X016334Y011281D01*
X015570Y011281D01*
X015482Y011193D01*
X015482Y010429D01*
X015570Y010341D01*
X016334Y010341D01*
X016252Y010341D02*
X016252Y009711D01*
X016152Y009711D02*
X016152Y010341D01*
X016052Y010341D02*
X016052Y009711D01*
X015952Y009711D02*
X015952Y010341D01*
X015852Y010341D02*
X015852Y009711D01*
X015752Y009711D02*
X015752Y010341D01*
X015652Y010341D02*
X015652Y009711D01*
X015552Y009711D02*
X015552Y010359D01*
X015500Y010411D02*
X015217Y010411D01*
X015252Y010446D02*
X015252Y009711D01*
X015152Y009711D02*
X015152Y010346D01*
X015147Y010341D02*
X015422Y010616D01*
X015422Y011006D01*
X015147Y011281D01*
X014758Y011281D01*
X014482Y011006D01*
X014482Y010616D01*
X014758Y010341D01*
X015147Y010341D01*
X015052Y010341D02*
X015052Y009711D01*
X014952Y009711D02*
X014952Y010341D01*
X014852Y010341D02*
X014852Y009711D01*
X014752Y009711D02*
X014752Y010346D01*
X014688Y010411D02*
X014217Y010411D01*
X014252Y010446D02*
X014252Y009711D01*
X014152Y009711D02*
X014152Y010346D01*
X014147Y010341D02*
X014422Y010616D01*
X014422Y011006D01*
X014147Y011281D01*
X013758Y011281D01*
X013482Y011006D01*
X013482Y010616D01*
X013758Y010341D01*
X014147Y010341D01*
X014052Y010341D02*
X014052Y009711D01*
X013952Y009711D02*
X013952Y010341D01*
X013852Y010341D02*
X013852Y009711D01*
X013752Y009711D02*
X013752Y010346D01*
X013688Y010411D02*
X013217Y010411D01*
X013252Y010446D02*
X013252Y009711D01*
X013152Y009711D02*
X013152Y010346D01*
X013147Y010341D02*
X013422Y010616D01*
X013422Y011006D01*
X013147Y011281D01*
X012758Y011281D01*
X012482Y011006D01*
X012482Y010616D01*
X012758Y010341D01*
X013147Y010341D01*
X013052Y010341D02*
X013052Y009711D01*
X012952Y009711D02*
X012952Y010341D01*
X012852Y010341D02*
X012852Y009711D01*
X012752Y009711D02*
X012752Y010346D01*
X012688Y010411D02*
X012217Y010411D01*
X012252Y010446D02*
X012252Y009711D01*
X012152Y009711D02*
X012152Y010346D01*
X012147Y010341D02*
X012422Y010616D01*
X012422Y011006D01*
X012147Y011281D01*
X011758Y011281D01*
X011482Y011006D01*
X011482Y010616D01*
X011758Y010341D01*
X012147Y010341D01*
X012052Y010341D02*
X012052Y009711D01*
X011952Y009711D02*
X011952Y010341D01*
X011852Y010341D02*
X011852Y009711D01*
X011752Y009711D02*
X011752Y010346D01*
X011688Y010411D02*
X011217Y010411D01*
X011252Y010446D02*
X011252Y009711D01*
X011352Y009711D02*
X011352Y010546D01*
X011317Y010511D02*
X011588Y010511D01*
X011552Y010546D02*
X011552Y009711D01*
X011452Y009711D02*
X011452Y012161D01*
X011352Y012161D02*
X011352Y011076D01*
X011317Y011111D02*
X011588Y011111D01*
X011552Y011076D02*
X011552Y012161D01*
X011652Y012161D02*
X011652Y011176D01*
X011688Y011211D02*
X011217Y011211D01*
X011252Y011176D02*
X011252Y012161D01*
X011152Y012161D02*
X011152Y011276D01*
X011147Y011281D02*
X010758Y011281D01*
X010482Y011006D01*
X010482Y010616D01*
X010752Y010346D01*
X010752Y009528D01*
X010752Y009011D01*
X010652Y009011D02*
X010652Y010446D01*
X010688Y010411D02*
X010217Y010411D01*
X010252Y010446D02*
X010252Y009011D01*
X010152Y009011D02*
X010152Y010346D01*
X010147Y010341D02*
X010422Y010616D01*
X010422Y011006D01*
X010147Y011281D01*
X009758Y011281D01*
X009482Y011006D01*
X009482Y010616D01*
X009758Y010341D01*
X010147Y010341D01*
X010052Y010341D02*
X010052Y009011D01*
X009952Y009011D02*
X009952Y010341D01*
X009852Y010341D02*
X009852Y009011D01*
X009752Y009011D02*
X009752Y010346D01*
X009688Y010411D02*
X009217Y010411D01*
X009252Y010446D02*
X009252Y009011D01*
X009152Y009011D02*
X009152Y010346D01*
X009422Y010616D01*
X009422Y011006D01*
X009147Y011281D01*
X008758Y011281D01*
X008482Y011006D01*
X008482Y010616D01*
X008752Y010346D01*
X008752Y008828D01*
X008752Y008811D01*
X008752Y008828D02*
X008769Y008811D01*
X008235Y008811D01*
X008152Y008894D01*
X008152Y010346D01*
X008152Y008894D01*
X008152Y008911D02*
X008752Y008911D01*
X008752Y009011D02*
X008152Y009011D01*
X008152Y009111D02*
X008752Y009111D01*
X008752Y009211D02*
X008152Y009211D01*
X008152Y009311D02*
X008752Y009311D01*
X008752Y009411D02*
X008152Y009411D01*
X008152Y009511D02*
X008752Y009511D01*
X008752Y009611D02*
X008152Y009611D01*
X008152Y009711D02*
X008752Y009711D01*
X008752Y009811D02*
X008152Y009811D01*
X008152Y009911D02*
X008752Y009911D01*
X008752Y010011D02*
X008152Y010011D01*
X008152Y010111D02*
X008752Y010111D01*
X008752Y010211D02*
X008152Y010211D01*
X008152Y010311D02*
X008752Y010311D01*
X008688Y010411D02*
X008217Y010411D01*
X008252Y010446D02*
X008252Y008811D01*
X008235Y008811D02*
X008769Y008811D01*
X008652Y008811D02*
X008652Y010446D01*
X008588Y010511D02*
X008317Y010511D01*
X008352Y010546D02*
X008352Y008811D01*
X008452Y008811D02*
X008452Y012161D01*
X008352Y012161D02*
X008352Y011076D01*
X008317Y011111D02*
X008588Y011111D01*
X008552Y011076D02*
X008552Y012161D01*
X008652Y012161D02*
X008652Y011176D01*
X008688Y011211D02*
X008217Y011211D01*
X008252Y011176D02*
X008252Y012161D01*
X008152Y012161D02*
X008152Y011276D01*
X008147Y011281D02*
X007758Y011281D01*
X007482Y011006D01*
X007482Y010616D01*
X007488Y010611D02*
X007417Y010611D01*
X007352Y010546D02*
X007352Y009294D01*
X007335Y009311D02*
X007452Y009194D01*
X007452Y008611D01*
X007869Y008611D01*
X007869Y008611D01*
X007752Y008728D01*
X007769Y008711D02*
X007452Y008711D01*
X007452Y008611D02*
X007452Y012161D01*
X007352Y012161D02*
X007352Y011076D01*
X007317Y011111D02*
X007588Y011111D01*
X007552Y011076D02*
X007552Y012161D01*
X007652Y012161D02*
X007652Y011176D01*
X007688Y011211D02*
X007217Y011211D01*
X007252Y011176D02*
X007252Y012161D01*
X007152Y012161D02*
X007152Y011276D01*
X007052Y011281D02*
X007052Y012161D01*
X006952Y012161D02*
X006952Y011281D01*
X006852Y011281D02*
X006852Y012161D01*
X006752Y012161D02*
X006752Y011276D01*
X006688Y011211D02*
X006217Y011211D01*
X006252Y011176D02*
X006252Y012161D01*
X006152Y012161D02*
X006152Y011276D01*
X006147Y011281D02*
X005758Y011281D01*
X005482Y011006D01*
X005482Y010616D01*
X005758Y010341D01*
X006147Y010341D01*
X006422Y010616D01*
X006422Y011006D01*
X006147Y011281D01*
X006052Y011281D02*
X006052Y012161D01*
X005952Y012161D02*
X005952Y011281D01*
X005852Y011281D02*
X005852Y012161D01*
X005752Y012161D02*
X005752Y011276D01*
X005688Y011211D02*
X005174Y011211D01*
X005152Y011233D02*
X005152Y012161D01*
X005052Y012161D02*
X005052Y011251D01*
X005002Y011251D02*
X005002Y010861D01*
X004902Y010861D01*
X004902Y010761D01*
X004512Y010761D01*
X004512Y010629D01*
X004770Y010371D01*
X004902Y010371D01*
X004902Y010761D01*
X005002Y010761D01*
X005002Y010371D01*
X005134Y010371D01*
X005392Y010629D01*
X005392Y010761D01*
X005002Y010761D01*
X005002Y010861D01*
X005392Y010861D01*
X005392Y010993D01*
X005134Y011251D01*
X005002Y011251D01*
X005002Y011211D02*
X004902Y011211D01*
X004902Y011251D02*
X004770Y011251D01*
X004512Y010993D01*
X004512Y010861D01*
X004902Y010861D01*
X004902Y011251D01*
X004852Y011251D02*
X004852Y012161D01*
X004752Y012161D02*
X004752Y011233D01*
X004730Y011211D02*
X004252Y011211D01*
X004252Y011111D02*
X004630Y011111D01*
X004652Y011133D02*
X004652Y012161D01*
X004552Y012161D02*
X004552Y011033D01*
X004530Y011011D02*
X004252Y011011D01*
X004252Y010911D02*
X004512Y010911D01*
X004552Y010861D02*
X004552Y010761D01*
X004512Y010711D02*
X004252Y010711D01*
X004252Y010611D02*
X004530Y010611D01*
X004552Y010589D02*
X004552Y009294D01*
X004452Y009298D02*
X004452Y012161D01*
X004352Y012161D02*
X004352Y009301D01*
X004252Y009304D02*
X004252Y012161D01*
X004252Y012111D02*
X017452Y012111D01*
X017452Y012011D02*
X004252Y012011D01*
X004252Y011911D02*
X017452Y011911D01*
X017452Y011811D02*
X004252Y011811D01*
X004252Y011711D02*
X017452Y011711D01*
X017452Y011611D02*
X004252Y011611D01*
X004252Y011511D02*
X017452Y011511D01*
X017452Y011411D02*
X004252Y011411D01*
X004252Y011311D02*
X017452Y011311D01*
X017452Y011211D02*
X016404Y011211D01*
X016352Y011263D02*
X016352Y012161D01*
X016252Y012161D02*
X016252Y011281D01*
X016152Y011281D02*
X016152Y012161D01*
X016052Y012161D02*
X016052Y011281D01*
X015952Y011281D02*
X015952Y012161D01*
X015852Y012161D02*
X015852Y011281D01*
X015752Y011281D02*
X015752Y012161D01*
X015652Y012161D02*
X015652Y011281D01*
X015552Y011263D02*
X015552Y012161D01*
X015452Y012161D02*
X015452Y009711D01*
X015352Y009711D02*
X015352Y010546D01*
X015317Y010511D02*
X015482Y010511D01*
X015482Y010611D02*
X015417Y010611D01*
X015422Y010711D02*
X015482Y010711D01*
X015482Y010811D02*
X015422Y010811D01*
X015422Y010911D02*
X015482Y010911D01*
X015482Y011011D02*
X015417Y011011D01*
X015352Y011076D02*
X015352Y012161D01*
X015252Y012161D02*
X015252Y011176D01*
X015217Y011211D02*
X015500Y011211D01*
X015482Y011111D02*
X015317Y011111D01*
X015152Y011276D02*
X015152Y012161D01*
X015052Y012161D02*
X015052Y011281D01*
X014952Y011281D02*
X014952Y012161D01*
X014852Y012161D02*
X014852Y011281D01*
X014752Y011276D02*
X014752Y012161D01*
X014652Y012161D02*
X014652Y011176D01*
X014688Y011211D02*
X014217Y011211D01*
X014252Y011176D02*
X014252Y012161D01*
X014152Y012161D02*
X014152Y011276D01*
X014052Y011281D02*
X014052Y012161D01*
X013952Y012161D02*
X013952Y011281D01*
X013852Y011281D02*
X013852Y012161D01*
X013752Y012161D02*
X013752Y011276D01*
X013688Y011211D02*
X013217Y011211D01*
X013252Y011176D02*
X013252Y012161D01*
X013152Y012161D02*
X013152Y011276D01*
X013052Y011281D02*
X013052Y012161D01*
X012952Y012161D02*
X012952Y011281D01*
X012852Y011281D02*
X012852Y012161D01*
X012752Y012161D02*
X012752Y011276D01*
X012688Y011211D02*
X012217Y011211D01*
X012252Y011176D02*
X012252Y012161D01*
X012152Y012161D02*
X012152Y011276D01*
X012052Y011281D02*
X012052Y012161D01*
X011952Y012161D02*
X011952Y011281D01*
X011852Y011281D02*
X011852Y012161D01*
X011752Y012161D02*
X011752Y011276D01*
X011488Y011011D02*
X011417Y011011D01*
X011422Y011006D02*
X011147Y011281D01*
X011052Y011281D02*
X011052Y012161D01*
X010952Y012161D02*
X010952Y011281D01*
X010852Y011281D02*
X010852Y012161D01*
X010752Y012161D02*
X010752Y011276D01*
X010688Y011211D02*
X010217Y011211D01*
X010252Y011176D02*
X010252Y012161D01*
X010152Y012161D02*
X010152Y011276D01*
X010052Y011281D02*
X010052Y012161D01*
X009952Y012161D02*
X009952Y011281D01*
X009852Y011281D02*
X009852Y012161D01*
X009752Y012161D02*
X009752Y011276D01*
X009688Y011211D02*
X009217Y011211D01*
X009252Y011176D02*
X009252Y012161D01*
X009152Y012161D02*
X009152Y011276D01*
X009052Y011281D02*
X009052Y012161D01*
X008952Y012161D02*
X008952Y011281D01*
X008852Y011281D02*
X008852Y012161D01*
X008752Y012161D02*
X008752Y011276D01*
X008488Y011011D02*
X008417Y011011D01*
X008422Y011006D02*
X008147Y011281D01*
X008052Y011281D02*
X008052Y012161D01*
X007952Y012161D02*
X007952Y011281D01*
X007852Y011281D02*
X007852Y012161D01*
X007752Y012161D02*
X007752Y011276D01*
X007488Y011011D02*
X007417Y011011D01*
X007422Y010911D02*
X007482Y010911D01*
X006952Y010811D02*
X006952Y009411D01*
X007252Y009111D01*
X007252Y008511D01*
X007352Y008411D01*
X017152Y008411D01*
X016652Y008811D02*
X016852Y009011D01*
X018652Y009011D01*
X018652Y008411D01*
X019052Y008111D02*
X019052Y009411D01*
X018952Y009511D01*
X011052Y009511D01*
X010952Y009611D01*
X010952Y010811D01*
X010482Y010811D02*
X010422Y010811D01*
X010422Y010711D02*
X010482Y010711D01*
X010488Y010611D02*
X010417Y010611D01*
X010352Y010546D02*
X010352Y009011D01*
X010452Y009011D02*
X010452Y012161D01*
X010352Y012161D02*
X010352Y011076D01*
X010317Y011111D02*
X010588Y011111D01*
X010552Y011076D02*
X010552Y012161D01*
X010652Y012161D02*
X010652Y011176D01*
X010488Y011011D02*
X010417Y011011D01*
X010422Y010911D02*
X010482Y010911D01*
X010552Y010546D02*
X010552Y009011D01*
X010852Y009011D02*
X010852Y009428D01*
X010969Y009311D01*
X009152Y009311D01*
X009152Y009211D02*
X017452Y009211D01*
X016769Y009211D01*
X016652Y009094D01*
X016652Y009311D01*
X016552Y009311D02*
X016552Y009011D01*
X016569Y009011D02*
X009152Y009011D01*
X016569Y009011D01*
X016652Y009094D01*
X016669Y009111D02*
X009152Y009111D01*
X009152Y009011D02*
X009152Y010346D01*
X009152Y010311D02*
X010752Y010311D01*
X010752Y010211D02*
X009152Y010211D01*
X009152Y010111D02*
X010752Y010111D01*
X010752Y010011D02*
X009152Y010011D01*
X009152Y009911D02*
X010752Y009911D01*
X010752Y009811D02*
X009152Y009811D01*
X009152Y009711D02*
X010752Y009711D01*
X010752Y009611D02*
X009152Y009611D01*
X009152Y009511D02*
X010769Y009511D01*
X010752Y009528D02*
X010852Y009428D01*
X010869Y009411D02*
X009152Y009411D01*
X009352Y009011D02*
X009352Y010546D01*
X009317Y010511D02*
X009588Y010511D01*
X009552Y010546D02*
X009552Y009011D01*
X009452Y009011D02*
X009452Y012161D01*
X009352Y012161D02*
X009352Y011076D01*
X009317Y011111D02*
X009588Y011111D01*
X009552Y011076D02*
X009552Y012161D01*
X009652Y012161D02*
X009652Y011176D01*
X009488Y011011D02*
X009417Y011011D01*
X009422Y010911D02*
X009482Y010911D01*
X009482Y010811D02*
X009422Y010811D01*
X009422Y010711D02*
X009482Y010711D01*
X009488Y010611D02*
X009417Y010611D01*
X009652Y010446D02*
X009652Y009011D01*
X009052Y008811D02*
X016652Y008811D01*
X016452Y009011D02*
X016452Y009311D01*
X016352Y009311D02*
X016352Y009011D01*
X016252Y009011D02*
X016252Y009311D01*
X016152Y009311D02*
X016152Y009011D01*
X016052Y009011D02*
X016052Y009311D01*
X015952Y009311D02*
X015952Y009011D01*
X015852Y009011D02*
X015852Y009311D01*
X015752Y009311D02*
X015752Y009011D01*
X015652Y009011D02*
X015652Y009311D01*
X015552Y009311D02*
X015552Y009011D01*
X015452Y009011D02*
X015452Y009311D01*
X015352Y009311D02*
X015352Y009011D01*
X015252Y009011D02*
X015252Y009311D01*
X015152Y009311D02*
X015152Y009011D01*
X015052Y009011D02*
X015052Y009311D01*
X014952Y009311D02*
X014952Y009011D01*
X014852Y009011D02*
X014852Y009311D01*
X014752Y009311D02*
X014752Y009011D01*
X014652Y009011D02*
X014652Y009311D01*
X014552Y009311D02*
X014552Y009011D01*
X014452Y009011D02*
X014452Y009311D01*
X014352Y009311D02*
X014352Y009011D01*
X014252Y009011D02*
X014252Y009311D01*
X014152Y009311D02*
X014152Y009011D01*
X014052Y009011D02*
X014052Y009311D01*
X013952Y009311D02*
X013952Y009011D01*
X013852Y009011D02*
X013852Y009311D01*
X013752Y009311D02*
X013752Y009011D01*
X013652Y009011D02*
X013652Y009311D01*
X013552Y009311D02*
X013552Y009011D01*
X013452Y009011D02*
X013452Y009311D01*
X013352Y009311D02*
X013352Y009011D01*
X013252Y009011D02*
X013252Y009311D01*
X013152Y009311D02*
X013152Y009011D01*
X013052Y009011D02*
X013052Y009311D01*
X012952Y009311D02*
X012952Y009011D01*
X012852Y009011D02*
X012852Y009311D01*
X012752Y009311D02*
X012752Y009011D01*
X012652Y009011D02*
X012652Y009311D01*
X012552Y009311D02*
X012552Y009011D01*
X012452Y009011D02*
X012452Y009311D01*
X012352Y009311D02*
X012352Y009011D01*
X012252Y009011D02*
X012252Y009311D01*
X012152Y009311D02*
X012152Y009011D01*
X012052Y009011D02*
X012052Y009311D01*
X011952Y009311D02*
X011952Y009011D01*
X011852Y009011D02*
X011852Y009311D01*
X011752Y009311D02*
X011752Y009011D01*
X011652Y009011D02*
X011652Y009311D01*
X011552Y009311D02*
X011552Y009011D01*
X011452Y009011D02*
X011452Y009311D01*
X011352Y009311D02*
X011352Y009011D01*
X011252Y009011D02*
X011252Y009311D01*
X011152Y009311D02*
X011152Y009011D01*
X011052Y009011D02*
X011052Y009311D01*
X010969Y009311D02*
X017452Y009311D01*
X017452Y009211D01*
X017352Y009211D02*
X017352Y009311D01*
X017252Y009311D02*
X017252Y009211D01*
X017152Y009211D02*
X017152Y009311D01*
X017052Y009311D02*
X017052Y009211D01*
X016952Y009211D02*
X016952Y009311D01*
X016852Y009311D02*
X016852Y009211D01*
X016752Y009194D02*
X016752Y009311D01*
X017452Y009811D02*
X011152Y009811D01*
X011152Y009911D02*
X017452Y009911D01*
X017452Y010011D02*
X011152Y010011D01*
X011152Y010111D02*
X017452Y010111D01*
X017452Y010211D02*
X011152Y010211D01*
X011152Y010311D02*
X017452Y010311D01*
X017452Y010411D02*
X016404Y010411D01*
X016422Y010511D02*
X017452Y010511D01*
X017452Y010611D02*
X016422Y010611D01*
X016422Y010711D02*
X017452Y010711D01*
X017452Y010811D02*
X016422Y010811D01*
X016422Y010911D02*
X017452Y010911D01*
X017452Y011011D02*
X016422Y011011D01*
X016422Y011111D02*
X017452Y011111D01*
X014588Y011111D02*
X014317Y011111D01*
X014352Y011076D02*
X014352Y012161D01*
X014452Y012161D02*
X014452Y009711D01*
X014352Y009711D02*
X014352Y010546D01*
X014317Y010511D02*
X014588Y010511D01*
X014552Y010546D02*
X014552Y009711D01*
X014652Y009711D02*
X014652Y010446D01*
X014488Y010611D02*
X014417Y010611D01*
X014422Y010711D02*
X014482Y010711D01*
X014482Y010811D02*
X014422Y010811D01*
X014422Y010911D02*
X014482Y010911D01*
X014488Y011011D02*
X014417Y011011D01*
X014552Y011076D02*
X014552Y012161D01*
X013652Y012161D02*
X013652Y011176D01*
X013588Y011111D02*
X013317Y011111D01*
X013352Y011076D02*
X013352Y012161D01*
X013452Y012161D02*
X013452Y009711D01*
X013352Y009711D02*
X013352Y010546D01*
X013317Y010511D02*
X013588Y010511D01*
X013552Y010546D02*
X013552Y009711D01*
X013652Y009711D02*
X013652Y010446D01*
X013488Y010611D02*
X013417Y010611D01*
X013422Y010711D02*
X013482Y010711D01*
X013482Y010811D02*
X013422Y010811D01*
X013422Y010911D02*
X013482Y010911D01*
X013488Y011011D02*
X013417Y011011D01*
X013552Y011076D02*
X013552Y012161D01*
X012652Y012161D02*
X012652Y011176D01*
X012588Y011111D02*
X012317Y011111D01*
X012352Y011076D02*
X012352Y012161D01*
X012452Y012161D02*
X012452Y009711D01*
X012352Y009711D02*
X012352Y010546D01*
X012317Y010511D02*
X012588Y010511D01*
X012552Y010546D02*
X012552Y009711D01*
X012652Y009711D02*
X012652Y010446D01*
X012488Y010611D02*
X012417Y010611D01*
X012422Y010711D02*
X012482Y010711D01*
X012482Y010811D02*
X012422Y010811D01*
X012422Y010911D02*
X012482Y010911D01*
X012488Y011011D02*
X012417Y011011D01*
X012552Y011076D02*
X012552Y012161D01*
X011422Y011006D02*
X011422Y010616D01*
X011152Y010346D01*
X011417Y010611D02*
X011488Y010611D01*
X011482Y010711D02*
X011422Y010711D01*
X011422Y010811D02*
X011482Y010811D01*
X011482Y010911D02*
X011422Y010911D01*
X011652Y010446D02*
X011652Y009711D01*
X010952Y009328D02*
X010952Y009011D01*
X009052Y008811D02*
X008952Y008911D01*
X008952Y010811D01*
X008482Y010811D02*
X008422Y010811D01*
X008422Y010711D02*
X008482Y010711D01*
X008488Y010611D02*
X008417Y010611D01*
X008422Y010616D02*
X008422Y011006D01*
X008422Y010911D02*
X008482Y010911D01*
X008422Y010616D02*
X008152Y010346D01*
X008552Y010546D02*
X008552Y008811D01*
X007869Y008611D02*
X007452Y008611D01*
X007552Y008611D02*
X007552Y010546D01*
X007588Y010511D02*
X007317Y010511D01*
X007152Y010346D02*
X007152Y009494D01*
X007152Y009511D02*
X007752Y009511D01*
X007752Y009611D02*
X007152Y009611D01*
X007152Y009711D02*
X007752Y009711D01*
X007752Y009811D02*
X007152Y009811D01*
X007152Y009911D02*
X007752Y009911D01*
X007752Y010011D02*
X007152Y010011D01*
X007152Y010111D02*
X007752Y010111D01*
X007752Y010211D02*
X007152Y010211D01*
X007152Y010311D02*
X007752Y010311D01*
X006752Y010311D02*
X004252Y010311D01*
X004252Y010211D02*
X006752Y010211D01*
X006752Y010111D02*
X004252Y010111D01*
X004252Y010011D02*
X006752Y010011D01*
X006752Y009911D02*
X004252Y009911D01*
X004252Y009811D02*
X006752Y009811D01*
X006752Y009711D02*
X004252Y009711D01*
X004252Y009611D02*
X006752Y009611D01*
X006752Y009511D02*
X004252Y009511D01*
X004252Y009411D02*
X006752Y009411D01*
X006652Y009316D02*
X006652Y010446D01*
X006688Y010411D02*
X006217Y010411D01*
X006252Y010446D02*
X006252Y009238D01*
X006152Y009241D02*
X006152Y010346D01*
X006052Y010341D02*
X006052Y009244D01*
X005952Y009248D02*
X005952Y010341D01*
X005852Y010341D02*
X005852Y009251D01*
X005752Y009254D02*
X005752Y010346D01*
X005688Y010411D02*
X005174Y010411D01*
X005152Y010389D02*
X005152Y009274D01*
X005052Y009278D02*
X005052Y010371D01*
X005002Y010411D02*
X004902Y010411D01*
X004852Y010371D02*
X004852Y009284D01*
X004752Y009288D02*
X004752Y010389D01*
X004730Y010411D02*
X004252Y010411D01*
X004252Y010511D02*
X004630Y010511D01*
X004652Y010489D02*
X004652Y009291D01*
X004952Y009281D02*
X004952Y010761D01*
X004902Y010711D02*
X005002Y010711D01*
X005052Y010761D02*
X005052Y010861D01*
X005002Y010811D02*
X005482Y010811D01*
X005482Y010711D02*
X005392Y010711D01*
X005352Y010761D02*
X005352Y010861D01*
X005392Y010911D02*
X005482Y010911D01*
X005488Y011011D02*
X005374Y011011D01*
X005352Y011033D02*
X005352Y012161D01*
X005252Y012161D02*
X005252Y011133D01*
X005274Y011111D02*
X005588Y011111D01*
X005552Y011076D02*
X005552Y012161D01*
X005452Y012161D02*
X005452Y009264D01*
X005352Y009268D02*
X005352Y010589D01*
X005374Y010611D02*
X005488Y010611D01*
X005552Y010546D02*
X005552Y009261D01*
X005652Y009258D02*
X005652Y010446D01*
X005588Y010511D02*
X005274Y010511D01*
X005252Y010489D02*
X005252Y009271D01*
X005252Y008851D02*
X005252Y008821D01*
X005152Y008821D02*
X005152Y008854D01*
X005052Y008858D02*
X005052Y008821D01*
X004952Y008821D02*
X004952Y008861D01*
X004852Y008864D02*
X004852Y008821D01*
X004752Y008821D02*
X004752Y008868D01*
X004652Y008871D02*
X004652Y008821D01*
X004552Y008821D02*
X004552Y008874D01*
X004452Y008878D02*
X004452Y008821D01*
X004352Y008821D02*
X004352Y008881D01*
X004252Y008884D02*
X004252Y008821D01*
X004252Y008884D01*
X006501Y008809D01*
X006571Y008740D01*
X006689Y008691D01*
X006816Y008691D01*
X006933Y008740D01*
X007023Y008830D01*
X007052Y008899D01*
X007052Y008428D01*
X007052Y008321D01*
X007069Y008411D02*
X005762Y008411D01*
X005762Y008423D02*
X005772Y008447D01*
X005772Y008575D01*
X005723Y008692D01*
X005633Y008782D01*
X005516Y008831D01*
X005389Y008831D01*
X005364Y008821D01*
X004252Y008821D01*
X004252Y009311D02*
X006640Y009311D01*
X006552Y009264D02*
X006552Y010546D01*
X006588Y010511D02*
X006317Y010511D01*
X006352Y010546D02*
X006352Y009234D01*
X006452Y009231D02*
X006452Y012161D01*
X006352Y012161D02*
X006352Y011076D01*
X006317Y011111D02*
X006588Y011111D01*
X006552Y011076D02*
X006552Y012161D01*
X006652Y012161D02*
X006652Y011176D01*
X006488Y011011D02*
X006417Y011011D01*
X006422Y010911D02*
X006482Y010911D01*
X006482Y010811D02*
X006422Y010811D01*
X006422Y010711D02*
X006482Y010711D01*
X006488Y010611D02*
X006417Y010611D01*
X005652Y011176D02*
X005652Y012161D01*
X004952Y012161D02*
X004952Y010861D01*
X004902Y010811D02*
X004252Y010811D01*
X004652Y010761D02*
X004652Y010861D01*
X004752Y010861D02*
X004752Y010761D01*
X004852Y010761D02*
X004852Y010861D01*
X004902Y010911D02*
X005002Y010911D01*
X005002Y011011D02*
X004902Y011011D01*
X004902Y011111D02*
X005002Y011111D01*
X005152Y010861D02*
X005152Y010761D01*
X005252Y010761D02*
X005252Y010861D01*
X005002Y010611D02*
X004902Y010611D01*
X004902Y010511D02*
X005002Y010511D01*
X007435Y009211D02*
X007752Y009211D01*
X007752Y009111D02*
X007452Y009111D01*
X007452Y009011D02*
X007752Y009011D01*
X007752Y008911D02*
X007452Y008911D01*
X007452Y008811D02*
X007752Y008811D01*
X007852Y008628D02*
X007852Y008611D01*
X007869Y008611D02*
X007869Y008611D01*
X007159Y008321D02*
X005762Y008321D01*
X005762Y008423D01*
X005772Y008511D02*
X007052Y008511D01*
X007052Y008428D02*
X007152Y008328D01*
X007152Y008321D01*
X007152Y008328D02*
X007159Y008321D01*
X006952Y008321D02*
X006952Y008759D01*
X007005Y008811D02*
X007052Y008811D01*
X007052Y008711D02*
X006864Y008711D01*
X006852Y008706D02*
X006852Y008321D01*
X006752Y008321D02*
X006752Y008691D01*
X006652Y008706D02*
X006652Y008321D01*
X006552Y008321D02*
X006552Y008759D01*
X006640Y008711D02*
X005705Y008711D01*
X005652Y008764D02*
X005652Y008838D01*
X005564Y008811D02*
X006449Y008811D01*
X006452Y008811D02*
X006452Y008321D01*
X006352Y008321D02*
X006352Y008814D01*
X006252Y008818D02*
X006252Y008321D01*
X006152Y008321D02*
X006152Y008821D01*
X006052Y008824D02*
X006052Y008321D01*
X005952Y008321D02*
X005952Y008828D01*
X005852Y008831D02*
X005852Y008321D01*
X005757Y008611D02*
X007052Y008611D01*
X005752Y008623D02*
X005752Y008834D01*
X005552Y008816D02*
X005552Y008841D01*
X005452Y008831D02*
X005452Y008844D01*
X005352Y008848D02*
X005352Y008821D01*
X005142Y008201D02*
X005142Y007949D01*
X005189Y007835D01*
X005277Y007748D01*
X005366Y007711D01*
X004357Y007711D01*
X004323Y007792D01*
X004252Y007864D01*
X004252Y008201D01*
X005142Y008201D01*
X005052Y008201D02*
X005052Y007711D01*
X004952Y007711D02*
X004952Y008201D01*
X004852Y008201D02*
X004852Y007711D01*
X004752Y007711D02*
X004752Y008201D01*
X004652Y008201D02*
X004652Y007711D01*
X004552Y007711D02*
X004552Y008201D01*
X004452Y008201D02*
X004452Y007711D01*
X004357Y007711D02*
X005366Y007711D01*
X005352Y007711D02*
X005352Y007717D01*
X005252Y007711D02*
X005252Y007773D01*
X005214Y007811D02*
X004305Y007811D01*
X004252Y007864D02*
X004252Y008201D01*
X004252Y008111D02*
X005142Y008111D01*
X005142Y008011D02*
X004252Y008011D01*
X004252Y007911D02*
X005158Y007911D01*
X005152Y007925D02*
X005152Y007711D01*
X004352Y007723D02*
X004352Y008201D01*
X004152Y007611D02*
X004252Y007511D01*
X008352Y007511D01*
X008672Y007511D02*
X008800Y007511D01*
X008852Y007564D02*
X008852Y007701D01*
X008752Y007701D02*
X008752Y007423D01*
X008747Y007411D02*
X008657Y007411D01*
X008652Y007399D02*
X008652Y006323D01*
X008657Y006311D02*
X011055Y006311D01*
X011052Y006308D02*
X011052Y007101D01*
X010952Y007101D02*
X010952Y006208D01*
X010955Y006211D02*
X010064Y006211D01*
X010052Y006216D02*
X010052Y007101D01*
X009952Y007101D02*
X009952Y006231D01*
X009852Y006216D02*
X009852Y007101D01*
X009752Y007101D02*
X009752Y006164D01*
X009700Y006111D02*
X008657Y006111D01*
X008652Y006099D02*
X008652Y005723D01*
X008657Y005711D02*
X008800Y005711D01*
X008852Y005764D02*
X008852Y007058D01*
X008800Y007111D02*
X004372Y007111D01*
X004352Y007173D02*
X004352Y007311D01*
X004452Y007311D02*
X004452Y006421D01*
X004352Y006421D02*
X004352Y006949D01*
X004336Y006911D02*
X014132Y006911D01*
X014147Y006811D02*
X012564Y006811D01*
X012552Y006816D02*
X012552Y007101D01*
X012452Y007101D02*
X012452Y006831D01*
X012352Y006816D02*
X012352Y007101D01*
X012252Y007101D02*
X012252Y006764D01*
X012200Y006711D02*
X004262Y006711D01*
X004262Y006611D02*
X012147Y006611D01*
X012152Y006623D02*
X012152Y007101D01*
X012052Y007101D02*
X012052Y006321D01*
X011952Y006321D02*
X011952Y007101D01*
X011852Y007101D02*
X011852Y006321D01*
X011752Y006321D02*
X011752Y007101D01*
X011652Y007101D02*
X011652Y006321D01*
X011552Y006321D02*
X011552Y007101D01*
X011452Y007101D02*
X011452Y006321D01*
X011352Y006321D02*
X011352Y007101D01*
X011252Y007101D02*
X011252Y006321D01*
X011152Y006321D02*
X011152Y007101D01*
X010852Y007101D02*
X010852Y006121D01*
X010752Y006121D02*
X010752Y007101D01*
X010652Y007101D02*
X010652Y006121D01*
X010552Y006121D02*
X010552Y007101D01*
X010452Y007101D02*
X010452Y006121D01*
X010352Y006121D02*
X010352Y007101D01*
X010252Y007101D02*
X010252Y006121D01*
X010152Y006164D02*
X010152Y007101D01*
X009652Y007101D02*
X009652Y006023D01*
X009647Y006011D02*
X008605Y006011D01*
X008623Y006030D02*
X008672Y006147D01*
X008672Y006275D01*
X008623Y006392D01*
X008552Y006464D02*
X008552Y007259D01*
X008605Y007311D02*
X008732Y007311D01*
X008352Y007191D02*
X008352Y006531D01*
X008252Y006516D02*
X008252Y007206D01*
X008240Y007211D02*
X004336Y007211D01*
X004552Y007311D02*
X004552Y006421D01*
X004652Y006421D02*
X004652Y007311D01*
X004752Y007311D02*
X004752Y006421D01*
X004852Y006421D02*
X004852Y007311D01*
X004952Y007311D02*
X004952Y006421D01*
X005052Y006421D02*
X005052Y007311D01*
X005152Y007311D02*
X005152Y006421D01*
X005252Y006421D02*
X005252Y007311D01*
X005352Y007311D02*
X005352Y006421D01*
X005452Y006421D02*
X005452Y007311D01*
X005552Y007311D02*
X005552Y006421D01*
X005652Y006421D02*
X005652Y007311D01*
X005752Y007311D02*
X005752Y006421D01*
X005852Y006421D02*
X005852Y007311D01*
X005952Y007311D02*
X005952Y006421D01*
X006052Y006421D02*
X006052Y007311D01*
X006152Y007311D02*
X006152Y006421D01*
X006252Y006421D02*
X006252Y007311D01*
X006352Y007311D02*
X006352Y006421D01*
X006452Y006421D02*
X006452Y007311D01*
X006552Y007311D02*
X006552Y006421D01*
X006652Y006421D02*
X006652Y007311D01*
X006752Y007311D02*
X006752Y006421D01*
X006852Y006421D02*
X006852Y007311D01*
X006952Y007311D02*
X006952Y006421D01*
X007052Y006421D02*
X007052Y007311D01*
X007152Y007311D02*
X007152Y006421D01*
X007252Y006421D02*
X007252Y007311D01*
X007352Y007311D02*
X007352Y006421D01*
X007452Y006421D02*
X007452Y007311D01*
X007552Y007311D02*
X007552Y006421D01*
X007652Y006421D02*
X007652Y007311D01*
X007752Y007311D02*
X007752Y006421D01*
X007852Y006421D02*
X007852Y007311D01*
X007952Y007311D02*
X007952Y006421D01*
X008052Y006421D02*
X008052Y007311D01*
X008152Y007258D02*
X008152Y006464D01*
X008240Y006511D02*
X004262Y006511D01*
X004262Y006811D02*
X012340Y006811D01*
X012652Y006764D02*
X012652Y007101D01*
X012752Y007101D02*
X012752Y006623D01*
X012757Y006611D02*
X014340Y006611D01*
X014352Y006606D02*
X014352Y006511D01*
X014252Y006511D02*
X014252Y006658D01*
X014200Y006711D02*
X012705Y006711D01*
X012452Y006511D02*
X012652Y006311D01*
X020752Y006311D01*
X020952Y006511D01*
X021052Y006511D01*
X017502Y005811D02*
X016552Y005811D01*
X016232Y005811D02*
X011149Y005811D01*
X011152Y005814D02*
X011152Y005721D01*
X011059Y005721D02*
X011239Y005901D01*
X016243Y005901D01*
X016232Y005875D01*
X016232Y005747D01*
X016243Y005721D01*
X011059Y005721D01*
X011252Y005721D02*
X011252Y005901D01*
X011352Y005901D02*
X011352Y005721D01*
X011452Y005721D02*
X011452Y005901D01*
X011552Y005901D02*
X011552Y005721D01*
X011652Y005721D02*
X011652Y005901D01*
X011752Y005901D02*
X011752Y005721D01*
X011852Y005721D02*
X011852Y005901D01*
X011952Y005901D02*
X011952Y005721D01*
X012052Y005721D02*
X012052Y005901D01*
X012152Y005901D02*
X012152Y005721D01*
X012252Y005721D02*
X012252Y005901D01*
X012352Y005901D02*
X012352Y005721D01*
X012452Y005721D02*
X012452Y005901D01*
X012552Y005901D02*
X012552Y005721D01*
X012652Y005721D02*
X012652Y005901D01*
X012752Y005901D02*
X012752Y005721D01*
X012852Y005721D02*
X012852Y005901D01*
X012952Y005901D02*
X012952Y005721D01*
X013052Y005721D02*
X013052Y005901D01*
X013152Y005901D02*
X013152Y005721D01*
X013252Y005721D02*
X013252Y005901D01*
X013352Y005901D02*
X013352Y005721D01*
X013452Y005721D02*
X013452Y005901D01*
X013552Y005901D02*
X013552Y005721D01*
X013652Y005721D02*
X013652Y005901D01*
X013752Y005901D02*
X013752Y005721D01*
X013852Y005721D02*
X013852Y005901D01*
X013952Y005901D02*
X013952Y005721D01*
X014052Y005721D02*
X014052Y005901D01*
X014152Y005901D02*
X014152Y005721D01*
X014252Y005721D02*
X014252Y005901D01*
X014352Y005901D02*
X014352Y005721D01*
X014452Y005721D02*
X014452Y005901D01*
X014552Y005901D02*
X014552Y005721D01*
X014652Y005721D02*
X014652Y005901D01*
X014752Y005901D02*
X014752Y005721D01*
X014852Y005721D02*
X014852Y005901D01*
X014952Y005901D02*
X014952Y005721D01*
X015052Y005721D02*
X015052Y005901D01*
X015152Y005901D02*
X015152Y005721D01*
X015252Y005721D02*
X015252Y005901D01*
X015352Y005901D02*
X015352Y005721D01*
X015452Y005721D02*
X015452Y005901D01*
X015552Y005901D02*
X015552Y005721D01*
X015652Y005721D02*
X015652Y005901D01*
X015752Y005901D02*
X015752Y005721D01*
X015852Y005721D02*
X015852Y005901D01*
X015952Y005901D02*
X015952Y005721D01*
X016052Y005721D02*
X016052Y005901D01*
X016152Y005901D02*
X016152Y005721D01*
X014452Y006511D02*
X014452Y006591D01*
X014152Y006511D02*
X014152Y006799D01*
X012152Y006399D02*
X012152Y006321D01*
X009840Y006211D02*
X008672Y006211D01*
X008623Y006030D02*
X008533Y005940D01*
X008464Y005911D01*
X008552Y005864D02*
X008552Y005959D01*
X008605Y005811D02*
X008940Y005811D01*
X008952Y005816D02*
X008952Y007006D01*
X008940Y007011D02*
X004372Y007011D01*
X004152Y007611D02*
X004052Y007611D01*
X004288Y006001D02*
X008110Y006001D01*
X008171Y005940D01*
X008240Y005911D01*
X004405Y005911D01*
X004423Y005892D02*
X004333Y005982D01*
X004288Y006001D01*
X004352Y006001D02*
X004352Y005964D01*
X004423Y005892D02*
X004453Y005821D01*
X008110Y005821D01*
X008171Y005882D01*
X008240Y005911D01*
X008152Y005864D02*
X008152Y005958D01*
X008052Y006001D02*
X008052Y005821D01*
X007952Y005821D02*
X007952Y006001D01*
X007852Y006001D02*
X007852Y005821D01*
X007752Y005821D02*
X007752Y006001D01*
X007652Y006001D02*
X007652Y005821D01*
X007552Y005821D02*
X007552Y006001D01*
X007452Y006001D02*
X007452Y005821D01*
X007352Y005821D02*
X007352Y006001D01*
X007252Y006001D02*
X007252Y005821D01*
X007152Y005821D02*
X007152Y006001D01*
X007052Y006001D02*
X007052Y005821D01*
X006952Y005821D02*
X006952Y006001D01*
X006852Y006001D02*
X006852Y005821D01*
X006752Y005821D02*
X006752Y006001D01*
X006652Y006001D02*
X006652Y005821D01*
X006552Y005821D02*
X006552Y006001D01*
X006452Y006001D02*
X006452Y005821D01*
X006352Y005821D02*
X006352Y006001D01*
X006252Y006001D02*
X006252Y005821D01*
X006152Y005821D02*
X006152Y006001D01*
X006052Y006001D02*
X006052Y005821D01*
X005952Y005821D02*
X005952Y006001D01*
X005852Y006001D02*
X005852Y005821D01*
X005752Y005821D02*
X005752Y006001D01*
X005652Y006001D02*
X005652Y005821D01*
X005552Y005821D02*
X005552Y006001D01*
X005452Y006001D02*
X005452Y005821D01*
X005352Y005821D02*
X005352Y006001D01*
X005252Y006001D02*
X005252Y005821D01*
X005152Y005821D02*
X005152Y006001D01*
X005052Y006001D02*
X005052Y005821D01*
X004952Y005821D02*
X004952Y006001D01*
X004852Y006001D02*
X004852Y005821D01*
X004752Y005821D02*
X004752Y006001D01*
X004652Y006001D02*
X004652Y005821D01*
X004552Y005821D02*
X004552Y006001D01*
X004452Y006001D02*
X004452Y005823D01*
X006362Y004811D02*
X009232Y004811D01*
X009247Y004711D02*
X009164Y004711D01*
X009152Y004716D02*
X009152Y005206D01*
X009052Y005191D02*
X009052Y004731D01*
X009252Y004699D02*
X009252Y004664D01*
X009352Y005721D02*
X009352Y007101D01*
X009452Y007101D02*
X009452Y005721D01*
X009552Y005721D02*
X009552Y007101D01*
X009252Y007059D02*
X009252Y005764D01*
X009052Y005831D02*
X009052Y006991D01*
X009252Y007564D02*
X009252Y007701D01*
X009152Y007701D02*
X009152Y007616D01*
X009164Y007611D02*
X009732Y007611D01*
X009652Y007521D02*
X009652Y007701D01*
X009552Y007701D02*
X009552Y007521D01*
X009452Y007521D02*
X009452Y007701D01*
X009352Y007701D02*
X009352Y007521D01*
X009052Y007631D02*
X009052Y007701D01*
X008952Y007701D02*
X008952Y007616D01*
X008940Y007611D02*
X008657Y007611D01*
X008652Y007623D02*
X008652Y007701D01*
X009652Y005799D02*
X009652Y005721D01*
X014352Y008123D02*
X014352Y008211D01*
X010588Y010511D02*
X010317Y010511D01*
M02*
