G75*
%MOIN*%
%OFA0B0*%
%FSLAX24Y24*%
%IPPOS*%
%LPD*%
%AMOC8*
5,1,8,0,0,1.08239X$1,22.5*
%
%ADD10C,0.0060*%
%ADD11C,0.0080*%
%ADD12C,0.0110*%
%ADD13C,0.0050*%
%ADD14C,0.0130*%
%ADD15C,0.0240*%
%ADD16C,0.0040*%
%ADD17C,0.0000*%
%ADD18C,0.0100*%
%ADD19R,0.0025X0.0005*%
%ADD20R,0.0035X0.0005*%
%ADD21R,0.0045X0.0005*%
%ADD22R,0.0055X0.0005*%
%ADD23R,0.0065X0.0005*%
%ADD24R,0.0075X0.0005*%
%ADD25R,0.0085X0.0005*%
%ADD26R,0.0095X0.0005*%
%ADD27R,0.0105X0.0005*%
%ADD28R,0.0115X0.0005*%
%ADD29R,0.0120X0.0005*%
%ADD30R,0.0130X0.0005*%
%ADD31R,0.0135X0.0005*%
%ADD32R,0.0140X0.0005*%
%ADD33R,0.0070X0.0005*%
%ADD34R,0.0125X0.0005*%
%ADD35R,0.0080X0.0005*%
%ADD36R,0.0090X0.0005*%
%ADD37R,0.0100X0.0005*%
%ADD38R,0.0110X0.0005*%
%ADD39R,0.0010X0.0005*%
%ADD40R,0.0145X0.0005*%
%ADD41R,0.0150X0.0005*%
%ADD42R,0.0155X0.0005*%
%ADD43R,0.0160X0.0005*%
%ADD44R,0.0165X0.0005*%
%ADD45R,0.0020X0.0005*%
%ADD46R,0.0030X0.0005*%
%ADD47R,0.0040X0.0005*%
%ADD48R,0.0050X0.0005*%
%ADD49R,0.0060X0.0005*%
%ADD50R,0.0015X0.0005*%
%ADD51R,0.0175X0.0005*%
%ADD52R,0.0190X0.0005*%
%ADD53R,0.0210X0.0005*%
%ADD54R,0.0225X0.0005*%
%ADD55R,0.0170X0.0005*%
%ADD56R,0.0240X0.0005*%
%ADD57R,0.0195X0.0005*%
%ADD58R,0.0205X0.0005*%
%ADD59R,0.0215X0.0005*%
%ADD60R,0.0230X0.0005*%
%ADD61R,0.0235X0.0005*%
%ADD62R,0.0200X0.0005*%
%ADD63R,0.0245X0.0005*%
%ADD64R,0.0255X0.0005*%
%ADD65R,0.0185X0.0005*%
%ADD66R,0.0295X0.0005*%
%ADD67R,0.0250X0.0005*%
%ADD68R,0.0290X0.0005*%
%ADD69R,0.0285X0.0005*%
%ADD70R,0.0265X0.0005*%
%ADD71R,0.0260X0.0005*%
%ADD72R,0.0180X0.0005*%
%ADD73R,0.0005X0.0005*%
%ADD74C,0.0010*%
D10*
X002682Y001184D02*
X002726Y001141D01*
X002812Y001141D01*
X002856Y001184D01*
X002856Y001271D01*
X002812Y001315D01*
X002769Y001315D01*
X002682Y001271D01*
X002682Y001401D01*
X002856Y001401D01*
X002977Y001401D02*
X002977Y001228D01*
X003064Y001141D01*
X003150Y001228D01*
X003150Y001401D01*
X003272Y001271D02*
X003445Y001271D01*
X003566Y001141D02*
X003566Y001401D01*
X003653Y001315D01*
X003740Y001401D01*
X003740Y001141D01*
X003861Y001141D02*
X003861Y001315D01*
X003948Y001401D01*
X004034Y001315D01*
X004034Y001141D01*
X004155Y001141D02*
X004329Y001401D01*
X004155Y001401D02*
X004329Y001141D01*
X004782Y001173D02*
X004782Y001343D01*
X004839Y001400D01*
X005065Y001400D01*
X005122Y001343D01*
X005122Y001173D01*
X004782Y001173D01*
X004782Y001031D02*
X005122Y001031D01*
X004782Y000804D01*
X005122Y000804D01*
X005065Y000663D02*
X004952Y000663D01*
X004952Y000550D01*
X004839Y000663D02*
X004782Y000606D01*
X004782Y000493D01*
X004839Y000436D01*
X005065Y000436D01*
X005122Y000493D01*
X005122Y000606D01*
X005065Y000663D01*
X005782Y000663D02*
X005782Y000436D01*
X005952Y000436D01*
X005895Y000550D01*
X005895Y000606D01*
X005952Y000663D01*
X006065Y000663D01*
X006122Y000606D01*
X006122Y000493D01*
X006065Y000436D01*
X006009Y000804D02*
X005782Y000804D01*
X006009Y000804D02*
X006122Y000918D01*
X006009Y001031D01*
X005782Y001031D01*
X005839Y001173D02*
X005782Y001229D01*
X005782Y001343D01*
X005839Y001400D01*
X006065Y001173D01*
X006122Y001229D01*
X006122Y001343D01*
X006065Y001400D01*
X005839Y001400D01*
X005839Y001173D02*
X006065Y001173D01*
X006782Y001243D02*
X006952Y001073D01*
X006952Y001300D01*
X007122Y001243D02*
X006782Y001243D01*
X006839Y000931D02*
X006782Y000875D01*
X006782Y000761D01*
X006839Y000704D01*
X007065Y000704D01*
X007122Y000761D01*
X007122Y000875D01*
X007065Y000931D01*
X006952Y000931D01*
X006952Y000818D01*
X007782Y000825D02*
X007782Y000711D01*
X007839Y000654D01*
X008065Y000654D01*
X008122Y000711D01*
X008122Y000825D01*
X008065Y000881D01*
X007952Y000881D01*
X007952Y000768D01*
X007839Y000881D02*
X007782Y000825D01*
X007782Y001023D02*
X007952Y001023D01*
X007895Y001136D01*
X007895Y001193D01*
X007952Y001250D01*
X008065Y001250D01*
X008122Y001193D01*
X008122Y001079D01*
X008065Y001023D01*
X007782Y001023D02*
X007782Y001250D01*
X008782Y001236D02*
X009122Y001236D01*
X009122Y001123D02*
X009122Y001350D01*
X008895Y001123D02*
X008782Y001236D01*
X008839Y000981D02*
X008782Y000925D01*
X008782Y000811D01*
X008839Y000754D01*
X009065Y000754D01*
X009122Y000811D01*
X009122Y000925D01*
X009065Y000981D01*
X008952Y000981D01*
X008952Y000868D01*
X009782Y000875D02*
X009782Y000761D01*
X009839Y000704D01*
X010065Y000704D01*
X010122Y000761D01*
X010122Y000875D01*
X010065Y000931D01*
X009952Y000931D01*
X009952Y000818D01*
X009839Y000931D02*
X009782Y000875D01*
X009839Y001073D02*
X009782Y001129D01*
X009782Y001243D01*
X009839Y001300D01*
X009895Y001300D01*
X009952Y001243D01*
X010009Y001300D01*
X010065Y001300D01*
X010122Y001243D01*
X010122Y001129D01*
X010065Y001073D01*
X009952Y001186D02*
X009952Y001243D01*
X010712Y001461D02*
X010712Y000356D01*
X010832Y000443D02*
X010889Y000386D01*
X011115Y000386D01*
X011172Y000443D01*
X011172Y000556D01*
X011115Y000613D01*
X010889Y000613D02*
X010832Y000556D01*
X010832Y000443D01*
X010832Y000754D02*
X010832Y000981D01*
X010832Y000868D02*
X011172Y000868D01*
X011115Y001123D02*
X011172Y001179D01*
X011172Y001293D01*
X011115Y001350D01*
X011059Y001350D01*
X011002Y001293D01*
X011002Y001179D01*
X010945Y001123D01*
X010889Y001123D01*
X010832Y001179D01*
X010832Y001293D01*
X010889Y001350D01*
X011832Y001343D02*
X011832Y001229D01*
X011889Y001173D01*
X011945Y001173D01*
X012002Y001229D01*
X012002Y001343D01*
X012059Y001400D01*
X012115Y001400D01*
X012172Y001343D01*
X012172Y001229D01*
X012115Y001173D01*
X011832Y001031D02*
X011832Y000804D01*
X011832Y000918D02*
X012172Y000918D01*
X012172Y000663D02*
X012059Y000550D01*
X012059Y000606D02*
X012059Y000436D01*
X012172Y000436D02*
X011832Y000436D01*
X011832Y000606D01*
X011889Y000663D01*
X012002Y000663D01*
X012059Y000606D01*
X012712Y000356D02*
X012712Y001461D01*
X012832Y001293D02*
X012889Y001350D01*
X013002Y001350D01*
X013059Y001293D01*
X013059Y001123D01*
X013059Y001236D02*
X013172Y001350D01*
X013172Y001123D02*
X012832Y001123D01*
X012832Y001293D01*
X012832Y000981D02*
X012832Y000754D01*
X012832Y000868D02*
X013172Y000868D01*
X013115Y000613D02*
X012889Y000613D01*
X012832Y000556D01*
X012832Y000386D01*
X013172Y000386D01*
X013172Y000556D01*
X013115Y000613D01*
X013762Y000356D02*
X013762Y001461D01*
X013882Y001293D02*
X013939Y001350D01*
X014052Y001350D01*
X014109Y001293D01*
X014109Y001123D01*
X014109Y001236D02*
X014222Y001350D01*
X014222Y001123D02*
X013882Y001123D01*
X013882Y001293D01*
X013939Y000981D02*
X013882Y000925D01*
X013882Y000811D01*
X013939Y000754D01*
X013995Y000754D01*
X014052Y000811D01*
X014052Y000925D01*
X014109Y000981D01*
X014165Y000981D01*
X014222Y000925D01*
X014222Y000811D01*
X014165Y000754D01*
X014165Y000613D02*
X013939Y000613D01*
X013882Y000556D01*
X013882Y000386D01*
X014222Y000386D01*
X014222Y000556D01*
X014165Y000613D01*
X014782Y000754D02*
X015122Y000981D01*
X014782Y000981D01*
X014839Y001123D02*
X015065Y001123D01*
X015122Y001179D01*
X015122Y001293D01*
X015065Y001350D01*
X014839Y001350D02*
X014782Y001293D01*
X014782Y001179D01*
X014839Y001123D01*
X014782Y000754D02*
X015122Y000754D01*
X015832Y000754D02*
X016172Y000981D01*
X015832Y000981D01*
X015889Y001123D02*
X016115Y001123D01*
X016172Y001179D01*
X016172Y001293D01*
X016115Y001350D01*
X015889Y001350D02*
X015832Y001293D01*
X015832Y001179D01*
X015889Y001123D01*
X015832Y000754D02*
X016172Y000754D01*
X011889Y001400D02*
X011832Y001343D01*
X013339Y004141D02*
X013282Y004198D01*
X013282Y004425D01*
X013339Y004481D01*
X013452Y004481D01*
X013509Y004425D01*
X013509Y004198D01*
X013452Y004141D01*
X013339Y004141D01*
X013396Y004254D02*
X013509Y004141D01*
X013651Y004141D02*
X013877Y004141D01*
X013764Y004141D02*
X013764Y004481D01*
X013651Y004368D01*
X013162Y005381D02*
X011742Y005381D01*
X011742Y007241D02*
X013162Y007241D01*
X008542Y008371D02*
X008542Y008651D01*
X007362Y008651D02*
X007362Y008371D01*
X007442Y008421D02*
X007455Y008436D01*
X007465Y008453D01*
X007473Y008472D01*
X007477Y008491D01*
X007479Y008511D01*
X007477Y008531D01*
X007473Y008550D01*
X007465Y008569D01*
X007455Y008586D01*
X007442Y008601D01*
X007065Y011236D02*
X007122Y011293D01*
X007122Y011406D01*
X007065Y011463D01*
X006952Y011463D01*
X006952Y011350D01*
X006839Y011463D02*
X006782Y011406D01*
X006782Y011293D01*
X006839Y011236D01*
X007065Y011236D01*
X007122Y011604D02*
X007122Y011831D01*
X007122Y011718D02*
X006782Y011718D01*
X006895Y011604D01*
X006839Y011973D02*
X006782Y012029D01*
X006782Y012143D01*
X006839Y012200D01*
X006895Y012200D01*
X006952Y012143D01*
X007009Y012200D01*
X007065Y012200D01*
X007122Y012143D01*
X007122Y012029D01*
X007065Y011973D01*
X006952Y012086D02*
X006952Y012143D01*
X006122Y012143D02*
X006122Y012029D01*
X006065Y011973D01*
X006009Y011831D02*
X005782Y011831D01*
X005839Y011973D02*
X005782Y012029D01*
X005782Y012143D01*
X005839Y012200D01*
X005895Y012200D01*
X005952Y012143D01*
X006009Y012200D01*
X006065Y012200D01*
X006122Y012143D01*
X005952Y012143D02*
X005952Y012086D01*
X006009Y011831D02*
X006122Y011718D01*
X006009Y011604D01*
X005782Y011604D01*
X005839Y011463D02*
X005782Y011406D01*
X005782Y011293D01*
X005839Y011236D01*
X005952Y011350D02*
X005952Y011406D01*
X006009Y011463D01*
X006065Y011463D01*
X006122Y011406D01*
X006122Y011293D01*
X006065Y011236D01*
X005952Y011406D02*
X005895Y011463D01*
X005839Y011463D01*
X005122Y011406D02*
X005122Y011293D01*
X005065Y011236D01*
X004839Y011236D01*
X004782Y011293D01*
X004782Y011406D01*
X004839Y011463D01*
X004952Y011463D02*
X004952Y011350D01*
X004952Y011463D02*
X005065Y011463D01*
X005122Y011406D01*
X005122Y011604D02*
X004782Y011604D01*
X005122Y011831D01*
X004782Y011831D01*
X004782Y011973D02*
X004782Y012143D01*
X004839Y012200D01*
X005065Y012200D01*
X005122Y012143D01*
X005122Y011973D01*
X004782Y011973D01*
X007782Y012029D02*
X007839Y011973D01*
X007782Y012029D02*
X007782Y012143D01*
X007839Y012200D01*
X007895Y012200D01*
X008122Y011973D01*
X008122Y012200D01*
X008782Y012143D02*
X008952Y011973D01*
X008952Y012200D01*
X009122Y012143D02*
X008782Y012143D01*
X009122Y011831D02*
X009122Y011604D01*
X009122Y011718D02*
X008782Y011718D01*
X008895Y011604D01*
X008839Y011463D02*
X008782Y011406D01*
X008782Y011293D01*
X008839Y011236D01*
X009065Y011236D01*
X009122Y011293D01*
X009122Y011406D01*
X009065Y011463D01*
X008952Y011463D01*
X008952Y011350D01*
X008122Y011293D02*
X008122Y011406D01*
X008065Y011463D01*
X007952Y011463D01*
X007952Y011350D01*
X007839Y011463D02*
X007782Y011406D01*
X007782Y011293D01*
X007839Y011236D01*
X008065Y011236D01*
X008122Y011293D01*
X008122Y011604D02*
X008122Y011831D01*
X008122Y011718D02*
X007782Y011718D01*
X007895Y011604D01*
X009782Y011718D02*
X010122Y011718D01*
X010122Y011831D02*
X010122Y011604D01*
X009895Y011604D02*
X009782Y011718D01*
X009782Y011973D02*
X009952Y011973D01*
X009895Y012086D01*
X009895Y012143D01*
X009952Y012200D01*
X010065Y012200D01*
X010122Y012143D01*
X010122Y012029D01*
X010065Y011973D01*
X009782Y011973D02*
X009782Y012200D01*
X010732Y011793D02*
X010732Y011679D01*
X010789Y011623D01*
X010789Y011481D02*
X010732Y011425D01*
X010732Y011311D01*
X010789Y011254D01*
X011015Y011254D01*
X011072Y011311D01*
X011072Y011425D01*
X011015Y011481D01*
X010902Y011481D01*
X010902Y011368D01*
X011072Y011623D02*
X010845Y011850D01*
X010789Y011850D01*
X010732Y011793D01*
X011072Y011850D02*
X011072Y011623D01*
X011732Y011679D02*
X011732Y011793D01*
X011789Y011850D01*
X012015Y011623D01*
X012072Y011679D01*
X012072Y011793D01*
X012015Y011850D01*
X011789Y011850D01*
X011732Y011679D02*
X011789Y011623D01*
X012015Y011623D01*
X012072Y011481D02*
X011845Y011481D01*
X011732Y011368D01*
X011845Y011254D01*
X012072Y011254D01*
X011902Y011254D02*
X011902Y011481D01*
X012782Y011425D02*
X012782Y011311D01*
X012839Y011254D01*
X013065Y011254D01*
X013122Y011311D01*
X013122Y011425D01*
X013065Y011481D01*
X012952Y011481D01*
X012952Y011368D01*
X012839Y011481D02*
X012782Y011425D01*
X012839Y011623D02*
X012895Y011623D01*
X012952Y011679D01*
X012952Y011850D01*
X013065Y011850D02*
X012839Y011850D01*
X012782Y011793D01*
X012782Y011679D01*
X012839Y011623D01*
X013065Y011623D02*
X013122Y011679D01*
X013122Y011793D01*
X013065Y011850D01*
X013782Y011718D02*
X014122Y011718D01*
X014122Y011831D02*
X014122Y011604D01*
X013895Y011604D02*
X013782Y011718D01*
X013839Y011973D02*
X013782Y012029D01*
X013782Y012143D01*
X013839Y012200D01*
X014065Y011973D01*
X014122Y012029D01*
X014122Y012143D01*
X014065Y012200D01*
X013839Y012200D01*
X013839Y011973D02*
X014065Y011973D01*
X014782Y011843D02*
X014782Y011729D01*
X014839Y011673D01*
X015065Y011673D01*
X015122Y011729D01*
X015122Y011843D01*
X015065Y011900D01*
X014839Y011900D02*
X014782Y011843D01*
X014782Y011531D02*
X015122Y011531D01*
X014782Y011304D01*
X015122Y011304D01*
X015732Y011304D02*
X016072Y011531D01*
X015732Y011531D01*
X015789Y011673D02*
X016015Y011673D01*
X016072Y011729D01*
X016072Y011843D01*
X016015Y011900D01*
X015789Y011900D02*
X015732Y011843D01*
X015732Y011729D01*
X015789Y011673D01*
X015732Y011304D02*
X016072Y011304D01*
X014122Y011293D02*
X014122Y011406D01*
X014065Y011463D01*
X013952Y011463D01*
X013952Y011350D01*
X013839Y011463D02*
X013782Y011406D01*
X013782Y011293D01*
X013839Y011236D01*
X014065Y011236D01*
X014122Y011293D01*
X010122Y011293D02*
X010122Y011406D01*
X010065Y011463D01*
X009952Y011463D01*
X009952Y011350D01*
X009839Y011463D02*
X009782Y011406D01*
X009782Y011293D01*
X009839Y011236D01*
X010065Y011236D01*
X010122Y011293D01*
X001796Y003675D02*
X001796Y003448D01*
X001909Y003561D02*
X001682Y003561D01*
X001682Y002861D02*
X001909Y002861D01*
X003861Y001271D02*
X004034Y001271D01*
D11*
X004174Y001636D02*
X004174Y001951D01*
X003190Y001951D01*
X003190Y002424D01*
X002796Y001636D02*
X004174Y001636D01*
X001221Y002424D02*
X001221Y003998D01*
X002796Y004786D02*
X004174Y004786D01*
X004174Y004471D01*
X003190Y004471D01*
X003190Y003998D01*
X005252Y006742D02*
X005252Y007080D01*
X005647Y007190D02*
X005858Y007190D01*
X006252Y007080D02*
X006252Y006742D01*
X012080Y004526D02*
X012080Y003896D01*
X013025Y003896D02*
X013025Y004526D01*
X013126Y004487D02*
X013128Y004501D01*
X013134Y004515D01*
X013142Y004527D01*
X013154Y004535D01*
X013168Y004541D01*
X013182Y004543D01*
X013196Y004541D01*
X013210Y004535D01*
X013222Y004527D01*
X013230Y004515D01*
X013236Y004501D01*
X013238Y004487D01*
X013236Y004473D01*
X013230Y004459D01*
X013222Y004447D01*
X013210Y004439D01*
X013196Y004433D01*
X013182Y004431D01*
X013168Y004433D01*
X013154Y004439D01*
X013142Y004447D01*
X013134Y004459D01*
X013128Y004473D01*
X013126Y004487D01*
X013160Y005226D02*
X013162Y005241D01*
X013168Y005254D01*
X013177Y005266D01*
X013188Y005275D01*
X013202Y005281D01*
X013217Y005283D01*
X013232Y005281D01*
X013245Y005275D01*
X013257Y005266D01*
X013266Y005255D01*
X013272Y005241D01*
X013274Y005226D01*
X013272Y005211D01*
X013266Y005198D01*
X013257Y005186D01*
X013246Y005177D01*
X013232Y005171D01*
X013217Y005169D01*
X013202Y005171D01*
X013189Y005177D01*
X013177Y005186D01*
X013168Y005197D01*
X013162Y005211D01*
X013160Y005226D01*
X017292Y006301D02*
X017292Y006621D01*
X017452Y006781D01*
X017612Y006621D01*
X017612Y006301D01*
X017808Y006381D02*
X017888Y006301D01*
X018128Y006301D01*
X018128Y006221D02*
X018128Y006621D01*
X017888Y006621D01*
X017808Y006541D01*
X017808Y006381D01*
X017612Y006541D02*
X017292Y006541D01*
X017968Y006141D02*
X018048Y006141D01*
X018128Y006221D01*
X018323Y006381D02*
X018323Y006541D01*
X018404Y006621D01*
X018564Y006621D01*
X018644Y006541D01*
X018644Y006461D01*
X018323Y006461D01*
X018323Y006381D02*
X018404Y006301D01*
X018564Y006301D01*
X018839Y006301D02*
X018839Y006621D01*
X019079Y006621D01*
X019159Y006541D01*
X019159Y006301D01*
X019435Y006381D02*
X019515Y006301D01*
X019435Y006381D02*
X019435Y006701D01*
X019355Y006621D02*
X019515Y006621D01*
X019699Y006541D02*
X019779Y006621D01*
X020019Y006621D01*
X019939Y006461D02*
X019779Y006461D01*
X019699Y006541D01*
X019939Y006461D02*
X020019Y006381D01*
X019939Y006301D01*
X019699Y006301D01*
X019527Y007141D02*
X019527Y007461D01*
X019687Y007461D02*
X019767Y007461D01*
X019687Y007461D02*
X019527Y007301D01*
X019331Y007301D02*
X019331Y007381D01*
X019251Y007461D01*
X019091Y007461D01*
X019011Y007381D01*
X019011Y007221D01*
X019091Y007141D01*
X019251Y007141D01*
X019331Y007301D02*
X019011Y007301D01*
X018827Y007141D02*
X018747Y007221D01*
X018747Y007541D01*
X018667Y007461D02*
X018827Y007461D01*
X018484Y007461D02*
X018323Y007461D01*
X018404Y007541D02*
X018404Y007221D01*
X018484Y007141D01*
X018128Y007141D02*
X018128Y007381D01*
X018048Y007461D01*
X017888Y007461D01*
X017612Y007381D02*
X017532Y007301D01*
X017292Y007301D01*
X017292Y007141D02*
X017292Y007621D01*
X017532Y007621D01*
X017612Y007541D01*
X017612Y007381D01*
X017808Y007221D02*
X017888Y007301D01*
X018128Y007301D01*
X018128Y007141D02*
X017888Y007141D01*
X017808Y007221D01*
X019956Y007141D02*
X019956Y007461D01*
X020197Y007461D01*
X020277Y007381D01*
X020277Y007141D01*
D12*
X019132Y002056D02*
X018982Y002056D01*
X018907Y001981D01*
X018907Y001681D01*
X018982Y001606D01*
X019132Y001606D01*
X019207Y001681D01*
X019207Y001831D01*
X019057Y001831D01*
X019207Y001981D02*
X019132Y002056D01*
X019423Y001906D02*
X019423Y001606D01*
X019423Y001756D02*
X019573Y001906D01*
X019648Y001906D01*
X019853Y001831D02*
X019853Y001681D01*
X019928Y001606D01*
X020078Y001606D01*
X020153Y001681D01*
X020153Y001831D01*
X020078Y001906D01*
X019928Y001906D01*
X019853Y001831D01*
X020368Y001906D02*
X020518Y001606D01*
X020668Y001906D01*
X020884Y001831D02*
X020959Y001906D01*
X021109Y001906D01*
X021184Y001831D01*
X021184Y001756D01*
X020884Y001756D01*
X020884Y001681D02*
X020884Y001831D01*
X020884Y001681D02*
X020959Y001606D01*
X021109Y001606D01*
X021399Y001681D02*
X021475Y001606D01*
X021700Y001606D01*
X021700Y001531D02*
X021625Y001456D01*
X021550Y001456D01*
X021700Y001531D02*
X021700Y001906D01*
X021399Y001906D02*
X021399Y001681D01*
X021142Y001291D02*
X021142Y000991D01*
X021142Y000841D02*
X021142Y000766D01*
X020948Y000766D02*
X020798Y000766D01*
X020873Y000766D02*
X020873Y001066D01*
X020798Y001066D01*
X020873Y001216D02*
X020873Y001291D01*
X020583Y001216D02*
X020282Y001216D01*
X020282Y000766D01*
X020282Y000991D02*
X020432Y000991D01*
X020067Y000991D02*
X019767Y000991D01*
X019498Y001066D02*
X019498Y000766D01*
X019423Y000766D02*
X019573Y000766D01*
X019207Y000766D02*
X019207Y001216D01*
X019423Y001066D02*
X019498Y001066D01*
X019498Y001216D02*
X019498Y001291D01*
X019057Y000916D02*
X019207Y000766D01*
X019057Y000916D02*
X018907Y000766D01*
X018907Y001216D01*
D13*
X015694Y003101D02*
X015694Y003770D01*
X014202Y003461D02*
X013702Y003461D01*
X013702Y002361D01*
X014202Y002361D01*
X014202Y003461D01*
X013622Y003127D02*
X013622Y003036D01*
X013577Y002991D01*
X013532Y002991D01*
X013487Y003036D01*
X013487Y003127D01*
X013532Y003172D01*
X013577Y003172D01*
X013622Y003127D01*
X013487Y003127D02*
X013442Y003172D01*
X013397Y003172D01*
X013352Y003127D01*
X013352Y003036D01*
X013397Y002991D01*
X013442Y002991D01*
X013487Y003036D01*
X013487Y002877D02*
X013532Y002832D01*
X013532Y002697D01*
X013532Y002787D02*
X013622Y002877D01*
X013487Y002877D02*
X013397Y002877D01*
X013352Y002832D01*
X013352Y002697D01*
X013622Y002697D01*
X013202Y002361D02*
X012702Y002361D01*
X012702Y003461D01*
X013202Y003461D01*
X013202Y002361D01*
X012622Y002697D02*
X012352Y002697D01*
X012352Y002832D01*
X012397Y002877D01*
X012487Y002877D01*
X012532Y002832D01*
X012532Y002697D01*
X012532Y002787D02*
X012622Y002877D01*
X012622Y002991D02*
X012577Y002991D01*
X012397Y003172D01*
X012352Y003172D01*
X012352Y002991D01*
X011622Y002977D02*
X011532Y002887D01*
X011532Y002932D02*
X011532Y002797D01*
X011622Y002797D02*
X011352Y002797D01*
X011352Y002932D01*
X011397Y002977D01*
X011487Y002977D01*
X011532Y002932D01*
X011487Y003091D02*
X011487Y003227D01*
X011532Y003272D01*
X011577Y003272D01*
X011622Y003227D01*
X011622Y003136D01*
X011577Y003091D01*
X011487Y003091D01*
X011397Y003181D01*
X011352Y003272D01*
X011202Y003461D02*
X010702Y003461D01*
X010702Y002361D01*
X011202Y002361D01*
X011202Y003461D01*
X011702Y003461D02*
X012202Y003461D01*
X012202Y002361D01*
X011702Y002361D01*
X011702Y003461D01*
X010652Y003116D02*
X010652Y003026D01*
X010607Y002981D01*
X010517Y002981D02*
X010472Y003071D01*
X010472Y003116D01*
X010517Y003161D01*
X010607Y003161D01*
X010652Y003116D01*
X010517Y002981D02*
X010382Y002981D01*
X010382Y003161D01*
X010202Y003461D02*
X010202Y002361D01*
X009702Y002361D01*
X009702Y003461D01*
X010202Y003461D01*
X009492Y003061D02*
X009492Y002881D01*
X009357Y003016D01*
X009627Y003016D01*
X009627Y002766D02*
X009537Y002676D01*
X009537Y002721D02*
X009537Y002586D01*
X009627Y002586D02*
X009357Y002586D01*
X009357Y002721D01*
X009402Y002766D01*
X009492Y002766D01*
X009537Y002721D01*
X009202Y002361D02*
X008702Y002361D01*
X008702Y003461D01*
X009202Y003461D01*
X009202Y002361D01*
X008627Y002586D02*
X008357Y002586D01*
X008357Y002721D01*
X008402Y002766D01*
X008492Y002766D01*
X008537Y002721D01*
X008537Y002586D01*
X008537Y002676D02*
X008627Y002766D01*
X008582Y002881D02*
X008627Y002926D01*
X008627Y003016D01*
X008582Y003061D01*
X008537Y003061D01*
X008492Y003016D01*
X008492Y002971D01*
X008492Y003016D02*
X008447Y003061D01*
X008402Y003061D01*
X008357Y003016D01*
X008357Y002926D01*
X008402Y002881D01*
X007652Y002966D02*
X007562Y002876D01*
X007562Y002921D02*
X007562Y002786D01*
X007652Y002786D02*
X007382Y002786D01*
X007382Y002921D01*
X007427Y002966D01*
X007517Y002966D01*
X007562Y002921D01*
X007652Y003081D02*
X007472Y003261D01*
X007427Y003261D01*
X007382Y003216D01*
X007382Y003126D01*
X007427Y003081D01*
X007652Y003081D02*
X007652Y003261D01*
X007702Y003461D02*
X008202Y003461D01*
X008202Y002361D01*
X007702Y002361D01*
X007702Y003461D01*
X007702Y003561D02*
X007702Y004661D01*
X008202Y004661D01*
X008202Y003561D01*
X007702Y003561D01*
X007652Y003786D02*
X007382Y003786D01*
X007382Y003921D01*
X007427Y003966D01*
X007517Y003966D01*
X007562Y003921D01*
X007562Y003786D01*
X007562Y003876D02*
X007652Y003966D01*
X007607Y004081D02*
X007652Y004126D01*
X007652Y004216D01*
X007607Y004261D01*
X007427Y004261D01*
X007382Y004216D01*
X007382Y004126D01*
X007427Y004081D01*
X007472Y004081D01*
X007517Y004126D01*
X007517Y004261D01*
X007202Y003461D02*
X006702Y003461D01*
X006702Y002361D01*
X007202Y002361D01*
X007202Y003461D01*
X006652Y003261D02*
X006652Y003081D01*
X006652Y003171D02*
X006382Y003171D01*
X006472Y003081D01*
X006427Y002966D02*
X006517Y002966D01*
X006562Y002921D01*
X006562Y002786D01*
X006562Y002876D02*
X006652Y002966D01*
X006652Y002786D02*
X006382Y002786D01*
X006382Y002921D01*
X006427Y002966D01*
X006277Y002808D02*
X006277Y002608D01*
X006277Y002708D02*
X005977Y002708D01*
X006077Y002608D01*
X006027Y002486D02*
X005977Y002436D01*
X005977Y002286D01*
X006277Y002286D01*
X006277Y002436D01*
X006227Y002486D01*
X006027Y002486D01*
X005902Y002761D02*
X005902Y003661D01*
X005552Y003361D02*
X005752Y003061D01*
X005352Y003111D01*
X005552Y003311D01*
X005702Y003061D01*
X005402Y003111D01*
X005552Y003261D01*
X005652Y003111D01*
X005602Y003111D01*
X005502Y003161D01*
X005552Y003161D01*
X005502Y003161D02*
X005552Y003211D01*
X005602Y003111D01*
X005452Y003111D01*
X005502Y003161D01*
X005552Y003361D02*
X005302Y003061D01*
X005702Y003061D01*
X005752Y003061D01*
X005802Y003061D01*
X005552Y003361D01*
X005202Y003661D02*
X005202Y002761D01*
X005050Y003886D02*
X004849Y003886D01*
X005050Y004086D01*
X005050Y004136D01*
X005000Y004186D01*
X004900Y004186D01*
X004849Y004136D01*
X004727Y004136D02*
X004727Y003936D01*
X004677Y003886D01*
X004527Y003886D01*
X004527Y004186D01*
X004677Y004186D01*
X004727Y004136D01*
X004952Y004211D02*
X005852Y004211D01*
X005552Y004561D02*
X005252Y004361D01*
X005302Y004761D01*
X005502Y004561D01*
X005252Y004411D01*
X005302Y004711D01*
X005452Y004561D01*
X005302Y004461D01*
X005302Y004511D01*
X005352Y004611D01*
X005352Y004561D01*
X005352Y004611D02*
X005402Y004561D01*
X005302Y004511D01*
X005302Y004661D01*
X005352Y004611D01*
X005552Y004561D02*
X005252Y004811D01*
X005252Y004411D01*
X005252Y004361D01*
X005252Y004311D01*
X005552Y004561D01*
X005852Y004911D02*
X004952Y004911D01*
X004482Y005031D02*
X004482Y005991D01*
X006422Y005991D01*
X006422Y005031D01*
X004482Y005031D01*
X004327Y005081D02*
X004327Y005171D01*
X004282Y005216D01*
X004327Y005331D02*
X004147Y005511D01*
X004102Y005511D01*
X004057Y005466D01*
X004057Y005376D01*
X004102Y005331D01*
X004102Y005216D02*
X004057Y005171D01*
X004057Y005081D01*
X004102Y005036D01*
X004282Y005036D01*
X004327Y005081D01*
X004327Y005331D02*
X004327Y005511D01*
X003529Y006004D02*
X003529Y006319D01*
X003214Y006161D02*
X003216Y006199D01*
X003214Y006238D01*
X003209Y006277D01*
X003199Y006314D01*
X003186Y006351D01*
X003170Y006386D01*
X003150Y006420D01*
X003126Y006451D01*
X003100Y006480D01*
X003072Y006506D01*
X003040Y006529D01*
X003007Y006549D01*
X002972Y006566D01*
X002936Y006579D01*
X002898Y006588D01*
X002859Y006594D01*
X002860Y006594D02*
X002545Y006594D01*
X002230Y006791D02*
X003175Y006791D01*
X002796Y006936D02*
X002796Y007206D01*
X002796Y006936D01*
X002591Y006936D02*
X002411Y006936D01*
X002411Y007206D01*
X002591Y007206D01*
X002411Y007206D01*
X002411Y006936D01*
X002591Y006936D01*
X002297Y006981D02*
X002252Y006936D01*
X002162Y006936D01*
X002117Y006981D01*
X002162Y006936D01*
X002252Y006936D01*
X002297Y006981D01*
X002297Y007026D01*
X002252Y007071D01*
X002162Y007071D01*
X002117Y007116D01*
X002117Y007161D01*
X002162Y007206D01*
X002252Y007206D01*
X002297Y007161D01*
X002252Y007206D01*
X002162Y007206D01*
X002117Y007161D01*
X002117Y007116D01*
X002162Y007071D01*
X002252Y007071D01*
X002297Y007026D01*
X002297Y006981D01*
X002411Y007071D02*
X002501Y007071D01*
X002411Y007071D01*
X002706Y007206D02*
X002886Y007206D01*
X002706Y007206D01*
X002810Y007528D02*
X002495Y007528D01*
X002180Y007331D02*
X003125Y007331D01*
X003479Y007804D02*
X003479Y008119D01*
X002810Y008394D02*
X002495Y008394D01*
X002180Y008591D02*
X003125Y008591D01*
X003193Y008716D02*
X003193Y008986D01*
X003328Y008986D01*
X003373Y008941D01*
X003373Y008851D01*
X003328Y008806D01*
X003193Y008806D01*
X003283Y008806D02*
X003373Y008716D01*
X003488Y008716D02*
X003668Y008716D01*
X003578Y008716D02*
X003578Y008986D01*
X003488Y008896D01*
X003783Y008896D02*
X003828Y008851D01*
X003963Y008851D01*
X003963Y008761D02*
X003963Y008941D01*
X003918Y008986D01*
X003828Y008986D01*
X003783Y008941D01*
X003783Y008896D01*
X003783Y008761D02*
X003828Y008716D01*
X003918Y008716D01*
X003963Y008761D01*
X004192Y008611D02*
X004192Y008431D01*
X004057Y008566D01*
X004327Y008566D01*
X004282Y008316D02*
X004327Y008271D01*
X004327Y008181D01*
X004282Y008136D01*
X004102Y008136D01*
X004057Y008181D01*
X004057Y008271D01*
X004102Y008316D01*
X004482Y007931D02*
X004482Y008891D01*
X006422Y008891D01*
X006422Y007931D01*
X004482Y007931D01*
X004538Y006936D02*
X004538Y006711D01*
X004583Y006666D01*
X004673Y006666D01*
X004718Y006711D01*
X004718Y006936D01*
X004833Y006891D02*
X004878Y006936D01*
X004968Y006936D01*
X005013Y006891D01*
X005013Y006846D01*
X004968Y006801D01*
X005013Y006756D01*
X005013Y006711D01*
X004968Y006666D01*
X004878Y006666D01*
X004833Y006711D01*
X004923Y006801D02*
X004968Y006801D01*
X006452Y006861D02*
X006952Y006861D01*
X006952Y007961D01*
X006452Y007961D01*
X006452Y006861D01*
X006572Y006722D02*
X006617Y006722D01*
X006662Y006677D01*
X006707Y006722D01*
X006752Y006722D01*
X006797Y006677D01*
X006797Y006586D01*
X006752Y006541D01*
X006752Y006427D02*
X006797Y006382D01*
X006797Y006292D01*
X006752Y006247D01*
X006572Y006247D01*
X006527Y006292D01*
X006527Y006382D01*
X006572Y006427D01*
X006572Y006541D02*
X006527Y006586D01*
X006527Y006677D01*
X006572Y006722D01*
X006662Y006677D02*
X006662Y006631D01*
X006902Y006461D02*
X006902Y005961D01*
X008002Y005961D01*
X008002Y006461D01*
X006902Y006461D01*
X007402Y006761D02*
X007402Y007261D01*
X008502Y007261D01*
X008502Y006761D01*
X007402Y006761D01*
X008127Y006406D02*
X008262Y006406D01*
X008307Y006361D01*
X008307Y006271D01*
X008262Y006226D01*
X008127Y006226D01*
X008127Y006136D02*
X008127Y006406D01*
X008217Y006226D02*
X008307Y006136D01*
X008422Y006136D02*
X008602Y006136D01*
X008512Y006136D02*
X008512Y006406D01*
X008422Y006316D01*
X008717Y006316D02*
X008807Y006406D01*
X008807Y006136D01*
X008717Y006136D02*
X008897Y006136D01*
X008852Y005806D02*
X008762Y005806D01*
X008717Y005761D01*
X008717Y005581D01*
X008897Y005761D01*
X008897Y005581D01*
X008852Y005536D01*
X008762Y005536D01*
X008717Y005581D01*
X008602Y005536D02*
X008422Y005536D01*
X008512Y005536D02*
X008512Y005806D01*
X008422Y005716D01*
X008307Y005671D02*
X008262Y005626D01*
X008127Y005626D01*
X008127Y005536D02*
X008127Y005806D01*
X008262Y005806D01*
X008307Y005761D01*
X008307Y005671D01*
X008217Y005626D02*
X008307Y005536D01*
X008002Y005361D02*
X006902Y005361D01*
X006902Y005861D01*
X008002Y005861D01*
X008002Y005361D01*
X008852Y005806D02*
X008897Y005761D01*
X010802Y005261D02*
X011302Y005261D01*
X011302Y004161D01*
X010802Y004161D01*
X010802Y005261D01*
X013143Y004526D02*
X013143Y004487D01*
X013182Y004487D01*
X013533Y005016D02*
X013623Y005016D01*
X013668Y005061D01*
X013668Y005286D01*
X013783Y005241D02*
X013828Y005286D01*
X013918Y005286D01*
X013963Y005241D01*
X013963Y005196D01*
X013783Y005016D01*
X013963Y005016D01*
X013533Y005016D02*
X013488Y005061D01*
X013488Y005286D01*
X009397Y006936D02*
X009217Y006936D01*
X009397Y007116D01*
X009397Y007161D01*
X009352Y007206D01*
X009262Y007206D01*
X009217Y007161D01*
X009012Y007206D02*
X009012Y006936D01*
X008922Y006936D02*
X009102Y006936D01*
X008922Y007116D02*
X009012Y007206D01*
X008807Y007161D02*
X008807Y007071D01*
X008762Y007026D01*
X008627Y007026D01*
X008627Y006936D02*
X008627Y007206D01*
X008762Y007206D01*
X008807Y007161D01*
X008717Y007026D02*
X008807Y006936D01*
X009082Y007586D02*
X009082Y007721D01*
X009127Y007766D01*
X009217Y007766D01*
X009262Y007721D01*
X009262Y007586D01*
X009262Y007676D02*
X009352Y007766D01*
X009352Y007881D02*
X009352Y008061D01*
X009352Y007971D02*
X009082Y007971D01*
X009172Y007881D01*
X009127Y008175D02*
X009082Y008220D01*
X009082Y008310D01*
X009127Y008356D01*
X009172Y008356D01*
X009217Y008310D01*
X009262Y008356D01*
X009307Y008356D01*
X009352Y008310D01*
X009352Y008220D01*
X009307Y008175D01*
X009217Y008265D02*
X009217Y008310D01*
X009402Y008461D02*
X008902Y008461D01*
X008902Y009561D01*
X009402Y009561D01*
X009402Y008461D01*
X009802Y008461D02*
X009802Y009561D01*
X010302Y009561D01*
X010302Y008461D01*
X009802Y008461D01*
X010092Y008356D02*
X010092Y008175D01*
X009957Y008310D01*
X010227Y008310D01*
X010227Y008061D02*
X010227Y007881D01*
X010227Y007971D02*
X009957Y007971D01*
X010047Y007881D01*
X010002Y007766D02*
X010092Y007766D01*
X010137Y007721D01*
X010137Y007586D01*
X010137Y007676D02*
X010227Y007766D01*
X010227Y007586D02*
X009957Y007586D01*
X009957Y007721D01*
X010002Y007766D01*
X009352Y007586D02*
X009082Y007586D01*
X010802Y008461D02*
X010802Y009561D01*
X011302Y009561D01*
X011302Y008461D01*
X010802Y008461D01*
X010957Y008356D02*
X010957Y008175D01*
X011092Y008175D01*
X011047Y008265D01*
X011047Y008310D01*
X011092Y008356D01*
X011182Y008356D01*
X011227Y008310D01*
X011227Y008220D01*
X011182Y008175D01*
X011227Y008061D02*
X011227Y007881D01*
X011227Y007971D02*
X010957Y007971D01*
X011047Y007881D01*
X011002Y007766D02*
X011092Y007766D01*
X011137Y007721D01*
X011137Y007586D01*
X011137Y007676D02*
X011227Y007766D01*
X011227Y007586D02*
X010957Y007586D01*
X010957Y007721D01*
X011002Y007766D01*
X011657Y007721D02*
X011657Y007586D01*
X011927Y007586D01*
X011837Y007586D02*
X011837Y007721D01*
X011792Y007766D01*
X011702Y007766D01*
X011657Y007721D01*
X011747Y007881D02*
X011657Y007971D01*
X011927Y007971D01*
X011927Y007881D02*
X011927Y008061D01*
X011882Y008175D02*
X011792Y008175D01*
X011792Y008310D01*
X011837Y008356D01*
X011882Y008356D01*
X011927Y008310D01*
X011927Y008220D01*
X011882Y008175D01*
X011792Y008175D02*
X011702Y008265D01*
X011657Y008356D01*
X011502Y008461D02*
X011502Y009561D01*
X012002Y009561D01*
X012002Y008461D01*
X011502Y008461D01*
X012202Y008461D02*
X012702Y008461D01*
X012702Y009561D01*
X012202Y009561D01*
X012202Y008461D01*
X012282Y008356D02*
X012327Y008356D01*
X012507Y008175D01*
X012552Y008175D01*
X012552Y008061D02*
X012552Y007881D01*
X012552Y007971D02*
X012282Y007971D01*
X012372Y007881D01*
X012327Y007766D02*
X012417Y007766D01*
X012462Y007721D01*
X012462Y007586D01*
X012462Y007676D02*
X012552Y007766D01*
X012552Y007586D02*
X012282Y007586D01*
X012282Y007721D01*
X012327Y007766D01*
X011927Y007766D02*
X011837Y007676D01*
X012282Y008175D02*
X012282Y008356D01*
X012902Y008461D02*
X013402Y008461D01*
X013402Y009561D01*
X012902Y009561D01*
X012902Y008461D01*
X013027Y008356D02*
X013072Y008356D01*
X013117Y008310D01*
X013117Y008220D01*
X013072Y008175D01*
X013027Y008175D01*
X012982Y008220D01*
X012982Y008310D01*
X013027Y008356D01*
X013117Y008310D02*
X013162Y008356D01*
X013207Y008356D01*
X013252Y008310D01*
X013252Y008220D01*
X013207Y008175D01*
X013162Y008175D01*
X013117Y008220D01*
X013252Y008061D02*
X013252Y007881D01*
X013252Y007971D02*
X012982Y007971D01*
X013072Y007881D01*
X013027Y007766D02*
X013117Y007766D01*
X013162Y007721D01*
X013162Y007586D01*
X013162Y007676D02*
X013252Y007766D01*
X013252Y007586D02*
X012982Y007586D01*
X012982Y007721D01*
X013027Y007766D01*
X013957Y007781D02*
X014002Y007736D01*
X014182Y007736D01*
X014227Y007781D01*
X014227Y007871D01*
X014182Y007916D01*
X014182Y008031D02*
X014092Y008031D01*
X014092Y008166D01*
X014137Y008211D01*
X014182Y008211D01*
X014227Y008166D01*
X014227Y008076D01*
X014182Y008031D01*
X014092Y008031D02*
X014002Y008121D01*
X013957Y008211D01*
X013572Y008341D02*
X013572Y010281D01*
X014532Y010281D01*
X014532Y008341D01*
X013572Y008341D01*
X014002Y007916D02*
X013957Y007871D01*
X013957Y007781D01*
X014827Y008592D02*
X014872Y008547D01*
X015052Y008547D01*
X015097Y008592D01*
X015097Y008682D01*
X015052Y008727D01*
X015052Y008841D02*
X015097Y008841D01*
X015052Y008841D02*
X014872Y009022D01*
X014827Y009022D01*
X014827Y008841D01*
X014872Y008727D02*
X014827Y008682D01*
X014827Y008592D01*
X014702Y009161D02*
X014702Y010261D01*
X015202Y010261D01*
X015202Y009161D01*
X014702Y009161D01*
X015694Y009400D02*
X015694Y008495D01*
X022269Y009400D02*
X025143Y009400D01*
X025143Y003101D01*
X022269Y003101D01*
X010652Y002866D02*
X010562Y002776D01*
X010562Y002821D02*
X010562Y002686D01*
X010652Y002686D02*
X010382Y002686D01*
X010382Y002821D01*
X010427Y002866D01*
X010517Y002866D01*
X010562Y002821D01*
X003175Y005531D02*
X002230Y005531D01*
X002252Y005406D02*
X002297Y005361D01*
X002297Y005181D01*
X002252Y005136D01*
X002162Y005136D01*
X002117Y005181D01*
X002117Y005361D01*
X002162Y005406D01*
X002252Y005406D01*
X002297Y005361D01*
X002297Y005181D01*
X002252Y005136D01*
X002162Y005136D01*
X002117Y005181D01*
X002117Y005361D01*
X002162Y005406D01*
X002252Y005406D01*
X002411Y005406D02*
X002591Y005406D01*
X002411Y005406D01*
X002501Y005406D02*
X002501Y005136D01*
X002501Y005406D01*
X002002Y005361D02*
X002002Y005181D01*
X001957Y005136D01*
X001867Y005136D01*
X001822Y005181D01*
X001822Y005361D01*
X001867Y005406D01*
X001957Y005406D01*
X002002Y005361D01*
X001957Y005406D01*
X001867Y005406D01*
X001822Y005361D01*
X001822Y005181D01*
X001867Y005136D01*
X001957Y005136D01*
X002002Y005181D01*
X002002Y005361D01*
X001707Y005361D02*
X001707Y005316D01*
X001662Y005271D01*
X001527Y005271D01*
X001662Y005271D01*
X001707Y005226D01*
X001707Y005181D01*
X001662Y005136D01*
X001527Y005136D01*
X001527Y005406D01*
X001662Y005406D01*
X001707Y005361D01*
X001707Y005316D01*
X001662Y005271D01*
X001707Y005226D01*
X001707Y005181D01*
X001662Y005136D01*
X001527Y005136D01*
X001527Y005406D01*
X001662Y005406D01*
X001707Y005361D01*
X002545Y005728D02*
X002860Y005728D01*
X002859Y005728D02*
X002898Y005734D01*
X002936Y005743D01*
X002972Y005756D01*
X003007Y005773D01*
X003040Y005793D01*
X003072Y005816D01*
X003100Y005842D01*
X003126Y005871D01*
X003150Y005902D01*
X003170Y005936D01*
X003186Y005971D01*
X003199Y006008D01*
X003209Y006045D01*
X003214Y006084D01*
X003216Y006123D01*
X003214Y006161D01*
X002545Y005728D02*
X002506Y005734D01*
X002468Y005743D01*
X002432Y005756D01*
X002397Y005773D01*
X002364Y005793D01*
X002332Y005816D01*
X002304Y005842D01*
X002278Y005871D01*
X002254Y005902D01*
X002234Y005936D01*
X002218Y005971D01*
X002205Y006008D01*
X002195Y006045D01*
X002190Y006084D01*
X002188Y006123D01*
X002190Y006161D01*
X001875Y006004D02*
X001875Y006319D01*
X002190Y006161D02*
X002188Y006199D01*
X002190Y006238D01*
X002195Y006277D01*
X002205Y006314D01*
X002218Y006351D01*
X002234Y006386D01*
X002254Y006420D01*
X002278Y006451D01*
X002304Y006480D01*
X002332Y006506D01*
X002364Y006529D01*
X002397Y006549D01*
X002432Y006566D01*
X002468Y006579D01*
X002506Y006588D01*
X002545Y006594D01*
X002002Y006936D02*
X001822Y006936D01*
X001822Y007206D01*
X002002Y007206D01*
X001822Y007206D01*
X001822Y006936D01*
X002002Y006936D01*
X001707Y006936D02*
X001617Y007026D01*
X001707Y006936D01*
X001662Y007026D02*
X001527Y007026D01*
X001662Y007026D01*
X001707Y007071D01*
X001707Y007161D01*
X001662Y007206D01*
X001527Y007206D01*
X001527Y006936D01*
X001527Y007206D01*
X001662Y007206D01*
X001707Y007161D01*
X001707Y007071D01*
X001662Y007026D01*
X001822Y007071D02*
X001912Y007071D01*
X001822Y007071D01*
X001825Y007804D02*
X001825Y008119D01*
X002140Y007961D02*
X002138Y007999D01*
X002140Y008038D01*
X002145Y008077D01*
X002155Y008114D01*
X002168Y008151D01*
X002184Y008186D01*
X002204Y008220D01*
X002228Y008251D01*
X002254Y008280D01*
X002282Y008306D01*
X002314Y008329D01*
X002347Y008349D01*
X002382Y008366D01*
X002418Y008379D01*
X002456Y008388D01*
X002495Y008394D01*
X002809Y008394D02*
X002848Y008388D01*
X002886Y008379D01*
X002922Y008366D01*
X002957Y008349D01*
X002990Y008329D01*
X003022Y008306D01*
X003050Y008280D01*
X003076Y008251D01*
X003100Y008220D01*
X003120Y008186D01*
X003136Y008151D01*
X003149Y008114D01*
X003159Y008077D01*
X003164Y008038D01*
X003166Y007999D01*
X003164Y007961D01*
X003166Y007923D01*
X003164Y007884D01*
X003159Y007845D01*
X003149Y007808D01*
X003136Y007771D01*
X003120Y007736D01*
X003100Y007702D01*
X003076Y007671D01*
X003050Y007642D01*
X003022Y007616D01*
X002990Y007593D01*
X002957Y007573D01*
X002922Y007556D01*
X002886Y007543D01*
X002848Y007534D01*
X002809Y007528D01*
X002495Y007528D02*
X002456Y007534D01*
X002418Y007543D01*
X002382Y007556D01*
X002347Y007573D01*
X002314Y007593D01*
X002282Y007616D01*
X002254Y007642D01*
X002228Y007671D01*
X002204Y007702D01*
X002184Y007736D01*
X002168Y007771D01*
X002155Y007808D01*
X002145Y007845D01*
X002140Y007884D01*
X002138Y007923D01*
X002140Y007961D01*
X001727Y009061D02*
X001727Y009561D01*
X002777Y009561D01*
X002777Y009061D01*
X001727Y009061D01*
X002202Y009161D02*
X002252Y009236D01*
X002252Y009386D01*
X002202Y009461D01*
X002202Y009161D01*
X002227Y009211D02*
X002227Y009411D01*
X002252Y009386D02*
X002302Y009311D01*
X002252Y009236D01*
X002202Y009686D02*
X002022Y009686D01*
X002022Y009956D01*
X002202Y009956D01*
X002317Y009956D02*
X002452Y009956D01*
X002497Y009911D01*
X002497Y009731D01*
X002452Y009686D01*
X002317Y009686D01*
X002317Y009956D01*
X002112Y009821D02*
X002022Y009821D01*
X001907Y009686D02*
X001727Y009686D01*
X001727Y009956D01*
X001727Y010061D02*
X001727Y010561D01*
X002777Y010561D01*
X002777Y010061D01*
X001727Y010061D01*
X002202Y010161D02*
X002252Y010236D01*
X002252Y010386D01*
X002202Y010461D01*
X002202Y010161D01*
X002227Y010211D02*
X002227Y010411D01*
X002252Y010386D02*
X002302Y010311D01*
X002252Y010236D01*
X002202Y010686D02*
X002022Y010686D01*
X002022Y010956D01*
X002202Y010956D01*
X002317Y010956D02*
X002452Y010956D01*
X002497Y010911D01*
X002497Y010731D01*
X002452Y010686D01*
X002317Y010686D01*
X002317Y010956D01*
X002112Y010821D02*
X002022Y010821D01*
X001907Y010686D02*
X001727Y010686D01*
X001727Y010956D01*
X002611Y010911D02*
X002656Y010956D01*
X002746Y010956D01*
X002791Y010911D01*
X002791Y010866D01*
X002611Y010686D01*
X002791Y010686D01*
X002902Y010761D02*
X002902Y011261D01*
X004002Y011261D01*
X004002Y010761D01*
X002902Y010761D01*
X002902Y010561D02*
X002902Y010061D01*
X004002Y010061D01*
X004002Y010561D01*
X002902Y010561D01*
X003143Y009986D02*
X003278Y009986D01*
X003323Y009941D01*
X003323Y009851D01*
X003278Y009806D01*
X003143Y009806D01*
X003143Y009716D02*
X003143Y009986D01*
X003438Y009941D02*
X003483Y009986D01*
X003573Y009986D01*
X003618Y009941D01*
X003618Y009896D01*
X003438Y009716D01*
X003618Y009716D01*
X003733Y009716D02*
X003913Y009716D01*
X003823Y009716D02*
X003823Y009986D01*
X003733Y009896D01*
X003323Y009716D02*
X003233Y009806D01*
X002791Y009686D02*
X002611Y009686D01*
X002701Y009686D02*
X002701Y009956D01*
X002611Y009866D01*
X002902Y009561D02*
X002902Y009061D01*
X004002Y009061D01*
X004002Y009561D01*
X002902Y009561D01*
X004827Y009522D02*
X004827Y009341D01*
X004962Y009341D01*
X004917Y009431D01*
X004917Y009477D01*
X004962Y009522D01*
X005052Y009522D01*
X005097Y009477D01*
X005097Y009386D01*
X005052Y009341D01*
X005052Y009227D02*
X005097Y009182D01*
X005097Y009092D01*
X005052Y009047D01*
X004872Y009047D01*
X004827Y009092D01*
X004827Y009182D01*
X004872Y009227D01*
X005202Y009061D02*
X005202Y009561D01*
X006302Y009561D01*
X006302Y009061D01*
X005202Y009061D01*
X005122Y009697D02*
X004852Y009697D01*
X005122Y009697D02*
X005122Y009877D01*
X005122Y009991D02*
X005122Y010172D01*
X005122Y010081D02*
X004852Y010081D01*
X004942Y009991D01*
X005202Y009761D02*
X005202Y010261D01*
X006302Y010261D01*
X006302Y009761D01*
X005202Y009761D01*
X006957Y009826D02*
X007002Y009781D01*
X006957Y009826D02*
X006957Y009916D01*
X007002Y009961D01*
X007047Y009961D01*
X007227Y009781D01*
X007227Y009961D01*
X007182Y010075D02*
X007002Y010075D01*
X006957Y010120D01*
X006957Y010210D01*
X007002Y010256D01*
X007182Y010075D01*
X007227Y010120D01*
X007227Y010210D01*
X007182Y010256D01*
X007002Y010256D01*
X007402Y010061D02*
X007402Y009561D01*
X008502Y009561D01*
X008502Y010061D01*
X007402Y010061D01*
X007227Y009666D02*
X007137Y009576D01*
X007137Y009621D02*
X007137Y009486D01*
X007227Y009486D02*
X006957Y009486D01*
X006957Y009621D01*
X007002Y009666D01*
X007092Y009666D01*
X007137Y009621D01*
X007047Y008711D02*
X007002Y008711D01*
X006957Y008666D01*
X006957Y008576D01*
X007002Y008531D01*
X007002Y008416D02*
X007182Y008416D01*
X007227Y008371D01*
X007227Y008281D01*
X007182Y008236D01*
X007002Y008236D01*
X006957Y008281D01*
X006957Y008371D01*
X007002Y008416D01*
X007137Y008326D02*
X007227Y008416D01*
X007227Y008531D02*
X007047Y008711D01*
X007227Y008711D02*
X007227Y008531D01*
X003997Y011361D02*
X003817Y011361D01*
X003997Y011541D01*
X003997Y011586D01*
X003952Y011631D01*
X003862Y011631D01*
X003817Y011586D01*
X003702Y011586D02*
X003657Y011631D01*
X003567Y011631D01*
X003522Y011586D01*
X003407Y011586D02*
X003407Y011496D01*
X003362Y011451D01*
X003227Y011451D01*
X003227Y011361D02*
X003227Y011631D01*
X003362Y011631D01*
X003407Y011586D01*
X003317Y011451D02*
X003407Y011361D01*
X003522Y011361D02*
X003702Y011541D01*
X003702Y011586D01*
X003702Y011361D02*
X003522Y011361D01*
D14*
X004107Y004351D02*
X004107Y003971D01*
X003917Y004161D02*
X004298Y004161D01*
X004298Y002261D02*
X003917Y002261D01*
D15*
X022662Y005581D02*
X022662Y008140D01*
X022899Y008140D01*
X022938Y008140D02*
X024867Y008140D01*
X024867Y007786D01*
X023410Y007786D01*
X023410Y007392D01*
X024828Y007392D01*
X024828Y006920D01*
X023410Y006920D01*
X023410Y006447D01*
X024828Y006447D01*
X024828Y006014D01*
X023450Y006014D01*
X023450Y005581D01*
X024828Y005581D01*
X024828Y004006D01*
D16*
X021273Y003911D02*
X021273Y004258D01*
X021013Y004084D02*
X021013Y003911D01*
X020753Y003911D02*
X021273Y003911D01*
X020753Y003911D02*
X020753Y004258D01*
X020840Y004426D02*
X020926Y004426D01*
X021013Y004513D01*
X021013Y004687D01*
X021100Y004773D01*
X021187Y004773D01*
X021273Y004687D01*
X021273Y004513D01*
X021187Y004426D01*
X020840Y004426D02*
X020753Y004513D01*
X020753Y004687D01*
X020840Y004773D01*
X020753Y004942D02*
X020753Y005202D01*
X020840Y005289D01*
X021013Y005289D01*
X021100Y005202D01*
X021100Y004942D01*
X021273Y004942D02*
X020753Y004942D01*
X021013Y005973D02*
X021013Y006320D01*
X020926Y007005D02*
X020753Y007178D01*
X021273Y007178D01*
X021273Y007005D02*
X021273Y007351D01*
X021273Y007520D02*
X020926Y007867D01*
X020840Y007867D01*
X020753Y007780D01*
X020753Y007607D01*
X020840Y007520D01*
X021273Y007520D02*
X021273Y007867D01*
X021273Y008036D02*
X021273Y008383D01*
X021013Y008209D02*
X021013Y008036D01*
X020753Y008036D02*
X021273Y008036D01*
X020753Y008036D02*
X020753Y008383D01*
X020835Y010276D02*
X020488Y010276D01*
X020662Y010276D02*
X020662Y010797D01*
X020488Y010623D01*
X020319Y010797D02*
X020319Y010363D01*
X020233Y010276D01*
X020059Y010276D01*
X019972Y010363D01*
X019972Y010797D01*
X010682Y004760D02*
X010682Y004553D01*
X010682Y004657D02*
X010372Y004657D01*
X010475Y004553D01*
X010424Y004438D02*
X010372Y004386D01*
X010372Y004283D01*
X010424Y004231D01*
X010630Y004231D01*
X010682Y004283D01*
X010682Y004386D01*
X010630Y004438D01*
D17*
X001952Y000311D02*
X021552Y000311D01*
X021602Y000313D01*
X021652Y000318D01*
X021701Y000327D01*
X021749Y000339D01*
X021797Y000355D01*
X021843Y000374D01*
X021887Y000397D01*
X021930Y000422D01*
X021971Y000451D01*
X022010Y000482D01*
X022047Y000516D01*
X022081Y000553D01*
X022112Y000592D01*
X022141Y000633D01*
X022166Y000676D01*
X022189Y000720D01*
X022208Y000766D01*
X022224Y000814D01*
X022236Y000862D01*
X022245Y000911D01*
X022250Y000961D01*
X022252Y001011D01*
X022252Y011611D01*
X022250Y011661D01*
X022245Y011711D01*
X022236Y011760D01*
X022224Y011808D01*
X022208Y011856D01*
X022189Y011902D01*
X022166Y011946D01*
X022141Y011989D01*
X022112Y012030D01*
X022081Y012069D01*
X022047Y012106D01*
X022010Y012140D01*
X021971Y012171D01*
X021930Y012200D01*
X021887Y012225D01*
X021843Y012248D01*
X021797Y012267D01*
X021749Y012283D01*
X021701Y012295D01*
X021652Y012304D01*
X021602Y012309D01*
X021552Y012311D01*
X001952Y012311D01*
X001902Y012309D01*
X001852Y012304D01*
X001803Y012295D01*
X001755Y012283D01*
X001707Y012267D01*
X001661Y012248D01*
X001617Y012225D01*
X001574Y012200D01*
X001533Y012171D01*
X001494Y012140D01*
X001457Y012106D01*
X001423Y012069D01*
X001392Y012030D01*
X001363Y011989D01*
X001338Y011946D01*
X001315Y011902D01*
X001296Y011856D01*
X001280Y011808D01*
X001268Y011760D01*
X001259Y011711D01*
X001254Y011661D01*
X001252Y011611D01*
X001252Y001011D01*
X001254Y000961D01*
X001259Y000911D01*
X001268Y000862D01*
X001280Y000814D01*
X001296Y000766D01*
X001315Y000720D01*
X001338Y000676D01*
X001363Y000633D01*
X001392Y000592D01*
X001423Y000553D01*
X001457Y000516D01*
X001494Y000482D01*
X001533Y000451D01*
X001574Y000422D01*
X001617Y000397D01*
X001661Y000374D01*
X001707Y000355D01*
X001755Y000339D01*
X001803Y000327D01*
X001852Y000318D01*
X001902Y000313D01*
X001952Y000311D01*
X001708Y001061D02*
X001710Y001100D01*
X001716Y001139D01*
X001726Y001177D01*
X001739Y001214D01*
X001756Y001249D01*
X001776Y001283D01*
X001800Y001314D01*
X001827Y001343D01*
X001856Y001369D01*
X001888Y001392D01*
X001922Y001412D01*
X001958Y001428D01*
X001995Y001440D01*
X002034Y001449D01*
X002073Y001454D01*
X002112Y001455D01*
X002151Y001452D01*
X002190Y001445D01*
X002227Y001434D01*
X002264Y001420D01*
X002299Y001402D01*
X002332Y001381D01*
X002363Y001356D01*
X002391Y001329D01*
X002416Y001299D01*
X002438Y001266D01*
X002457Y001232D01*
X002472Y001196D01*
X002484Y001158D01*
X002492Y001120D01*
X002496Y001081D01*
X002496Y001041D01*
X002492Y001002D01*
X002484Y000964D01*
X002472Y000926D01*
X002457Y000890D01*
X002438Y000856D01*
X002416Y000823D01*
X002391Y000793D01*
X002363Y000766D01*
X002332Y000741D01*
X002299Y000720D01*
X002264Y000702D01*
X002227Y000688D01*
X002190Y000677D01*
X002151Y000670D01*
X002112Y000667D01*
X002073Y000668D01*
X002034Y000673D01*
X001995Y000682D01*
X001958Y000694D01*
X001922Y000710D01*
X001888Y000730D01*
X001856Y000753D01*
X001827Y000779D01*
X001800Y000808D01*
X001776Y000839D01*
X001756Y000873D01*
X001739Y000908D01*
X001726Y000945D01*
X001716Y000983D01*
X001710Y001022D01*
X001708Y001061D01*
X017708Y001061D02*
X017710Y001100D01*
X017716Y001139D01*
X017726Y001177D01*
X017739Y001214D01*
X017756Y001249D01*
X017776Y001283D01*
X017800Y001314D01*
X017827Y001343D01*
X017856Y001369D01*
X017888Y001392D01*
X017922Y001412D01*
X017958Y001428D01*
X017995Y001440D01*
X018034Y001449D01*
X018073Y001454D01*
X018112Y001455D01*
X018151Y001452D01*
X018190Y001445D01*
X018227Y001434D01*
X018264Y001420D01*
X018299Y001402D01*
X018332Y001381D01*
X018363Y001356D01*
X018391Y001329D01*
X018416Y001299D01*
X018438Y001266D01*
X018457Y001232D01*
X018472Y001196D01*
X018484Y001158D01*
X018492Y001120D01*
X018496Y001081D01*
X018496Y001041D01*
X018492Y001002D01*
X018484Y000964D01*
X018472Y000926D01*
X018457Y000890D01*
X018438Y000856D01*
X018416Y000823D01*
X018391Y000793D01*
X018363Y000766D01*
X018332Y000741D01*
X018299Y000720D01*
X018264Y000702D01*
X018227Y000688D01*
X018190Y000677D01*
X018151Y000670D01*
X018112Y000667D01*
X018073Y000668D01*
X018034Y000673D01*
X017995Y000682D01*
X017958Y000694D01*
X017922Y000710D01*
X017888Y000730D01*
X017856Y000753D01*
X017827Y000779D01*
X017800Y000808D01*
X017776Y000839D01*
X017756Y000873D01*
X017739Y000908D01*
X017726Y000945D01*
X017716Y000983D01*
X017710Y001022D01*
X017708Y001061D01*
X017708Y011561D02*
X017710Y011600D01*
X017716Y011639D01*
X017726Y011677D01*
X017739Y011714D01*
X017756Y011749D01*
X017776Y011783D01*
X017800Y011814D01*
X017827Y011843D01*
X017856Y011869D01*
X017888Y011892D01*
X017922Y011912D01*
X017958Y011928D01*
X017995Y011940D01*
X018034Y011949D01*
X018073Y011954D01*
X018112Y011955D01*
X018151Y011952D01*
X018190Y011945D01*
X018227Y011934D01*
X018264Y011920D01*
X018299Y011902D01*
X018332Y011881D01*
X018363Y011856D01*
X018391Y011829D01*
X018416Y011799D01*
X018438Y011766D01*
X018457Y011732D01*
X018472Y011696D01*
X018484Y011658D01*
X018492Y011620D01*
X018496Y011581D01*
X018496Y011541D01*
X018492Y011502D01*
X018484Y011464D01*
X018472Y011426D01*
X018457Y011390D01*
X018438Y011356D01*
X018416Y011323D01*
X018391Y011293D01*
X018363Y011266D01*
X018332Y011241D01*
X018299Y011220D01*
X018264Y011202D01*
X018227Y011188D01*
X018190Y011177D01*
X018151Y011170D01*
X018112Y011167D01*
X018073Y011168D01*
X018034Y011173D01*
X017995Y011182D01*
X017958Y011194D01*
X017922Y011210D01*
X017888Y011230D01*
X017856Y011253D01*
X017827Y011279D01*
X017800Y011308D01*
X017776Y011339D01*
X017756Y011373D01*
X017739Y011408D01*
X017726Y011445D01*
X017716Y011483D01*
X017710Y011522D01*
X017708Y011561D01*
X001708Y011561D02*
X001710Y011600D01*
X001716Y011639D01*
X001726Y011677D01*
X001739Y011714D01*
X001756Y011749D01*
X001776Y011783D01*
X001800Y011814D01*
X001827Y011843D01*
X001856Y011869D01*
X001888Y011892D01*
X001922Y011912D01*
X001958Y011928D01*
X001995Y011940D01*
X002034Y011949D01*
X002073Y011954D01*
X002112Y011955D01*
X002151Y011952D01*
X002190Y011945D01*
X002227Y011934D01*
X002264Y011920D01*
X002299Y011902D01*
X002332Y011881D01*
X002363Y011856D01*
X002391Y011829D01*
X002416Y011799D01*
X002438Y011766D01*
X002457Y011732D01*
X002472Y011696D01*
X002484Y011658D01*
X002492Y011620D01*
X002496Y011581D01*
X002496Y011541D01*
X002492Y011502D01*
X002484Y011464D01*
X002472Y011426D01*
X002457Y011390D01*
X002438Y011356D01*
X002416Y011323D01*
X002391Y011293D01*
X002363Y011266D01*
X002332Y011241D01*
X002299Y011220D01*
X002264Y011202D01*
X002227Y011188D01*
X002190Y011177D01*
X002151Y011170D01*
X002112Y011167D01*
X002073Y011168D01*
X002034Y011173D01*
X001995Y011182D01*
X001958Y011194D01*
X001922Y011210D01*
X001888Y011230D01*
X001856Y011253D01*
X001827Y011279D01*
X001800Y011308D01*
X001776Y011339D01*
X001756Y011373D01*
X001739Y011408D01*
X001726Y011445D01*
X001716Y011483D01*
X001710Y011522D01*
X001708Y011561D01*
D18*
X005122Y006511D03*
D19*
X018932Y010901D03*
X018932Y010901D03*
X019227Y010976D03*
X019227Y010976D03*
X019057Y011406D03*
X019057Y011406D03*
X019087Y011571D03*
X019087Y011571D03*
X018812Y011651D03*
X018812Y011651D03*
X019087Y011951D03*
X019087Y011951D03*
X019102Y010471D03*
X019102Y010471D03*
X019227Y010346D03*
X019227Y010346D03*
X019352Y010221D03*
X019352Y010221D03*
D20*
X019352Y010226D03*
X019352Y010226D03*
X019227Y010351D03*
X019227Y010351D03*
X019102Y010476D03*
X019102Y010476D03*
X018932Y010906D03*
X018932Y010906D03*
X019227Y010971D03*
X019227Y010971D03*
X019057Y011401D03*
X019057Y011401D03*
X019087Y011576D03*
X019087Y011576D03*
X018812Y011646D03*
X018812Y011646D03*
X019087Y011946D03*
X019087Y011946D03*
X019842Y011516D03*
X019842Y011516D03*
X020407Y011366D03*
X020407Y011366D03*
X020787Y011161D03*
X020787Y011161D03*
D21*
X020782Y011151D03*
X020782Y011151D03*
X020777Y011141D03*
X020777Y011141D03*
X020527Y011366D03*
X020527Y011366D03*
X019962Y011366D03*
X019962Y011366D03*
X019612Y011411D03*
X019612Y011411D03*
X019612Y011416D03*
X019612Y011416D03*
X019252Y011136D03*
X019252Y011136D03*
X019227Y010966D03*
X019227Y010966D03*
X018932Y010911D03*
X018932Y010911D03*
X018912Y010736D03*
X018912Y010736D03*
X018912Y010586D03*
X018912Y010586D03*
X019102Y010481D03*
X019102Y010481D03*
X019227Y010356D03*
X019227Y010356D03*
X019352Y010231D03*
X019352Y010231D03*
X019057Y011396D03*
X019057Y011396D03*
X019087Y011581D03*
X019087Y011581D03*
X018812Y011641D03*
X018812Y011641D03*
X018892Y011836D03*
X018892Y011836D03*
X019087Y011941D03*
X019087Y011941D03*
X022057Y011376D03*
X022057Y011376D03*
X022057Y011371D03*
X022057Y011371D03*
X022057Y011366D03*
X022057Y011366D03*
X022057Y011361D03*
X022057Y011361D03*
X022057Y011181D03*
X022057Y011181D03*
X022057Y011176D03*
X022057Y011176D03*
X022057Y011171D03*
X022057Y011171D03*
X022057Y011166D03*
X022057Y011166D03*
X022057Y011161D03*
X022057Y011161D03*
D22*
X022052Y011131D03*
X022052Y011131D03*
X022052Y011126D03*
X022052Y011126D03*
X022052Y011121D03*
X022052Y011121D03*
X022052Y011116D03*
X022052Y011116D03*
X022052Y011111D03*
X022052Y011111D03*
X022052Y011411D03*
X022052Y011411D03*
X022052Y011416D03*
X022052Y011416D03*
X022052Y011421D03*
X022052Y011421D03*
X022052Y011426D03*
X022052Y011426D03*
X021282Y011421D03*
X021282Y011421D03*
X021282Y011416D03*
X021282Y011416D03*
X021282Y011411D03*
X021282Y011411D03*
X021282Y011406D03*
X021282Y011406D03*
X021282Y011401D03*
X021282Y011401D03*
X021282Y011396D03*
X021282Y011396D03*
X021067Y011151D03*
X021067Y011151D03*
X021067Y011146D03*
X021067Y011146D03*
X021067Y011141D03*
X021067Y011141D03*
X021067Y011136D03*
X021067Y011136D03*
X021067Y011131D03*
X021067Y011131D03*
X021067Y011126D03*
X021067Y011126D03*
X021067Y011121D03*
X021067Y011121D03*
X021067Y011116D03*
X021067Y011116D03*
X020777Y011131D03*
X020777Y011131D03*
X020207Y011356D03*
X020207Y011356D03*
X019607Y011391D03*
X019607Y011391D03*
X019607Y011396D03*
X019607Y011396D03*
X019057Y011391D03*
X019057Y011391D03*
X019087Y011586D03*
X019087Y011586D03*
X018812Y011636D03*
X018812Y011636D03*
X019087Y011936D03*
X019087Y011936D03*
X019057Y011041D03*
X019057Y011041D03*
X018932Y010916D03*
X018932Y010916D03*
X019102Y010836D03*
X019102Y010836D03*
X019227Y010961D03*
X019227Y010961D03*
X019632Y011056D03*
X019632Y011056D03*
X019102Y010486D03*
X019102Y010486D03*
X019227Y010361D03*
X019227Y010361D03*
X019352Y010236D03*
X019352Y010236D03*
D23*
X019352Y010241D03*
X019352Y010241D03*
X019227Y010366D03*
X019227Y010366D03*
X019102Y010491D03*
X019102Y010491D03*
X018912Y010591D03*
X018912Y010591D03*
X018912Y010731D03*
X018912Y010731D03*
X018932Y010921D03*
X018932Y010921D03*
X019057Y011046D03*
X019057Y011046D03*
X019227Y010956D03*
X019227Y010956D03*
X019102Y010831D03*
X019102Y010831D03*
X019602Y011371D03*
X019602Y011371D03*
X019602Y011376D03*
X019602Y011376D03*
X019827Y011506D03*
X019827Y011506D03*
X020392Y011356D03*
X020392Y011356D03*
X020747Y011061D03*
X020747Y011061D03*
X020752Y011066D03*
X020752Y011066D03*
X020922Y010976D03*
X020922Y010976D03*
X021277Y011431D03*
X021277Y011431D03*
X021537Y011366D03*
X021537Y011366D03*
X022047Y011101D03*
X022047Y011101D03*
X021532Y011056D03*
X021532Y011056D03*
X018812Y011631D03*
X018812Y011631D03*
D24*
X018812Y011626D03*
X018812Y011626D03*
X019597Y011311D03*
X019597Y011311D03*
X019597Y011306D03*
X019597Y011306D03*
X019597Y011301D03*
X019597Y011301D03*
X019597Y011296D03*
X019597Y011296D03*
X019597Y011291D03*
X019597Y011291D03*
X019597Y011286D03*
X019597Y011286D03*
X019597Y011281D03*
X019597Y011281D03*
X019597Y011276D03*
X019597Y011276D03*
X019597Y011271D03*
X019597Y011271D03*
X019597Y011266D03*
X019597Y011266D03*
X019597Y011261D03*
X019597Y011261D03*
X019597Y011256D03*
X019597Y011256D03*
X019597Y011251D03*
X019597Y011251D03*
X019597Y011246D03*
X019597Y011246D03*
X019597Y011241D03*
X019597Y011241D03*
X019597Y011236D03*
X019597Y011236D03*
X019597Y011231D03*
X019597Y011231D03*
X019597Y011226D03*
X019597Y011226D03*
X019597Y011221D03*
X019597Y011221D03*
X019597Y011216D03*
X019597Y011216D03*
X019597Y011211D03*
X019597Y011211D03*
X019597Y011206D03*
X019597Y011206D03*
X019597Y011201D03*
X019597Y011201D03*
X019597Y011196D03*
X019597Y011196D03*
X019597Y011191D03*
X019597Y011191D03*
X019597Y011186D03*
X019597Y011186D03*
X019597Y011181D03*
X019597Y011181D03*
X019597Y011176D03*
X019597Y011176D03*
X019597Y011171D03*
X019597Y011171D03*
X019597Y011166D03*
X019597Y011166D03*
X019597Y011161D03*
X019597Y011161D03*
X019597Y011156D03*
X019597Y011156D03*
X019597Y011151D03*
X019597Y011151D03*
X019597Y011146D03*
X019597Y011146D03*
X019597Y011141D03*
X019597Y011141D03*
X019597Y011136D03*
X019597Y011136D03*
X019597Y011131D03*
X019597Y011131D03*
X019822Y011131D03*
X019822Y011131D03*
X019822Y011126D03*
X019822Y011126D03*
X019822Y011121D03*
X019822Y011121D03*
X019822Y011116D03*
X019822Y011116D03*
X019822Y011111D03*
X019822Y011111D03*
X019822Y011106D03*
X019822Y011106D03*
X019822Y011101D03*
X019822Y011101D03*
X019822Y011096D03*
X019822Y011096D03*
X019822Y011136D03*
X019822Y011136D03*
X019822Y011141D03*
X019822Y011141D03*
X019822Y011146D03*
X019822Y011146D03*
X019822Y011151D03*
X019822Y011151D03*
X019822Y011156D03*
X019822Y011156D03*
X019822Y011161D03*
X019822Y011161D03*
X019822Y011166D03*
X019822Y011166D03*
X019822Y011171D03*
X019822Y011171D03*
X019822Y011176D03*
X019822Y011176D03*
X019822Y011181D03*
X019822Y011181D03*
X019822Y011186D03*
X019822Y011186D03*
X019822Y011191D03*
X019822Y011191D03*
X019822Y011196D03*
X019822Y011196D03*
X019822Y011201D03*
X019822Y011201D03*
X019822Y011206D03*
X019822Y011206D03*
X019822Y011211D03*
X019822Y011211D03*
X019822Y011216D03*
X019822Y011216D03*
X019822Y011221D03*
X019822Y011221D03*
X019822Y011226D03*
X019822Y011226D03*
X019822Y011231D03*
X019822Y011231D03*
X019822Y011236D03*
X019822Y011236D03*
X019822Y011241D03*
X019822Y011241D03*
X019822Y011246D03*
X019822Y011246D03*
X019822Y011251D03*
X019822Y011251D03*
X019822Y011256D03*
X019822Y011256D03*
X019822Y011261D03*
X019822Y011261D03*
X019822Y011266D03*
X019822Y011266D03*
X019822Y011271D03*
X019822Y011271D03*
X019822Y011276D03*
X019822Y011276D03*
X019822Y011281D03*
X019822Y011281D03*
X019822Y011286D03*
X019822Y011286D03*
X019822Y011291D03*
X019822Y011291D03*
X019822Y011296D03*
X019822Y011296D03*
X019822Y011301D03*
X019822Y011301D03*
X019822Y011336D03*
X019822Y011336D03*
X019822Y011341D03*
X019822Y011341D03*
X019822Y011346D03*
X019822Y011346D03*
X019822Y011351D03*
X019822Y011351D03*
X019822Y011356D03*
X019822Y011356D03*
X019822Y011361D03*
X019822Y011361D03*
X019822Y011366D03*
X019822Y011366D03*
X019822Y011371D03*
X019822Y011371D03*
X019822Y011376D03*
X019822Y011376D03*
X019822Y011381D03*
X019822Y011381D03*
X019822Y011386D03*
X019822Y011386D03*
X019822Y011391D03*
X019822Y011391D03*
X019822Y011396D03*
X019822Y011396D03*
X019822Y011401D03*
X019822Y011401D03*
X019822Y011406D03*
X019822Y011406D03*
X019822Y011411D03*
X019822Y011411D03*
X019822Y011416D03*
X019822Y011416D03*
X019822Y011421D03*
X019822Y011421D03*
X019822Y011426D03*
X019822Y011426D03*
X019822Y011431D03*
X019822Y011431D03*
X019822Y011436D03*
X019822Y011436D03*
X019822Y011441D03*
X019822Y011441D03*
X019822Y011446D03*
X019822Y011446D03*
X019822Y011451D03*
X019822Y011451D03*
X019822Y011456D03*
X019822Y011456D03*
X019822Y011461D03*
X019822Y011461D03*
X019962Y011361D03*
X019962Y011361D03*
X020007Y011271D03*
X020007Y011271D03*
X020007Y011266D03*
X020007Y011266D03*
X020007Y011261D03*
X020007Y011261D03*
X020007Y011256D03*
X020007Y011256D03*
X020007Y011251D03*
X020007Y011251D03*
X020007Y011246D03*
X020007Y011246D03*
X020007Y011241D03*
X020007Y011241D03*
X020007Y011236D03*
X020007Y011236D03*
X020007Y011231D03*
X020007Y011231D03*
X020007Y011226D03*
X020007Y011226D03*
X020007Y011221D03*
X020007Y011221D03*
X020007Y011216D03*
X020007Y011216D03*
X020007Y011211D03*
X020007Y011211D03*
X020007Y011206D03*
X020007Y011206D03*
X020007Y011201D03*
X020007Y011201D03*
X020007Y011196D03*
X020007Y011196D03*
X020007Y011191D03*
X020007Y011191D03*
X020007Y011186D03*
X020007Y011186D03*
X020007Y011181D03*
X020007Y011181D03*
X020007Y011176D03*
X020007Y011176D03*
X020007Y011171D03*
X020007Y011171D03*
X020007Y011166D03*
X020007Y011166D03*
X020007Y011161D03*
X020007Y011161D03*
X020007Y011156D03*
X020007Y011156D03*
X020007Y011151D03*
X020007Y011151D03*
X020007Y011146D03*
X020007Y011146D03*
X020007Y011141D03*
X020007Y011141D03*
X020007Y011136D03*
X020007Y011136D03*
X020007Y011131D03*
X020007Y011131D03*
X020007Y011126D03*
X020007Y011126D03*
X020007Y011121D03*
X020007Y011121D03*
X020007Y011116D03*
X020007Y011116D03*
X020007Y011111D03*
X020007Y011111D03*
X020007Y011106D03*
X020007Y011106D03*
X020007Y011101D03*
X020007Y011101D03*
X020007Y011096D03*
X020007Y011096D03*
X020197Y011096D03*
X020197Y011096D03*
X020197Y011101D03*
X020197Y011101D03*
X020197Y011106D03*
X020197Y011106D03*
X020197Y011111D03*
X020197Y011111D03*
X020197Y011116D03*
X020197Y011116D03*
X020197Y011121D03*
X020197Y011121D03*
X020197Y011126D03*
X020197Y011126D03*
X020197Y011131D03*
X020197Y011131D03*
X020197Y011136D03*
X020197Y011136D03*
X020197Y011141D03*
X020197Y011141D03*
X020197Y011146D03*
X020197Y011146D03*
X020197Y011151D03*
X020197Y011151D03*
X020197Y011156D03*
X020197Y011156D03*
X020197Y011161D03*
X020197Y011161D03*
X020197Y011166D03*
X020197Y011166D03*
X020197Y011171D03*
X020197Y011171D03*
X020197Y011176D03*
X020197Y011176D03*
X020197Y011181D03*
X020197Y011181D03*
X020197Y011186D03*
X020197Y011186D03*
X020197Y011191D03*
X020197Y011191D03*
X020197Y011196D03*
X020197Y011196D03*
X020197Y011201D03*
X020197Y011201D03*
X020197Y011206D03*
X020197Y011206D03*
X020197Y011211D03*
X020197Y011211D03*
X020197Y011216D03*
X020197Y011216D03*
X020197Y011221D03*
X020197Y011221D03*
X020197Y011226D03*
X020197Y011226D03*
X020197Y011231D03*
X020197Y011231D03*
X020197Y011236D03*
X020197Y011236D03*
X020197Y011241D03*
X020197Y011241D03*
X020197Y011246D03*
X020197Y011246D03*
X020197Y011251D03*
X020197Y011251D03*
X020197Y011256D03*
X020197Y011256D03*
X020197Y011261D03*
X020197Y011261D03*
X020197Y011266D03*
X020197Y011266D03*
X020197Y011271D03*
X020197Y011271D03*
X020197Y011276D03*
X020197Y011276D03*
X020197Y011281D03*
X020197Y011281D03*
X020197Y011286D03*
X020197Y011286D03*
X020197Y011291D03*
X020197Y011291D03*
X020197Y011296D03*
X020197Y011296D03*
X020197Y011301D03*
X020197Y011301D03*
X020197Y011306D03*
X020197Y011306D03*
X020197Y011311D03*
X020197Y011311D03*
X020387Y011301D03*
X020387Y011301D03*
X020387Y011296D03*
X020387Y011296D03*
X020387Y011291D03*
X020387Y011291D03*
X020387Y011286D03*
X020387Y011286D03*
X020387Y011281D03*
X020387Y011281D03*
X020387Y011276D03*
X020387Y011276D03*
X020387Y011271D03*
X020387Y011271D03*
X020387Y011266D03*
X020387Y011266D03*
X020387Y011261D03*
X020387Y011261D03*
X020387Y011256D03*
X020387Y011256D03*
X020387Y011251D03*
X020387Y011251D03*
X020387Y011246D03*
X020387Y011246D03*
X020387Y011241D03*
X020387Y011241D03*
X020387Y011236D03*
X020387Y011236D03*
X020387Y011231D03*
X020387Y011231D03*
X020387Y011226D03*
X020387Y011226D03*
X020387Y011221D03*
X020387Y011221D03*
X020387Y011216D03*
X020387Y011216D03*
X020387Y011211D03*
X020387Y011211D03*
X020387Y011206D03*
X020387Y011206D03*
X020387Y011201D03*
X020387Y011201D03*
X020387Y011196D03*
X020387Y011196D03*
X020387Y011191D03*
X020387Y011191D03*
X020387Y011186D03*
X020387Y011186D03*
X020387Y011181D03*
X020387Y011181D03*
X020387Y011176D03*
X020387Y011176D03*
X020387Y011171D03*
X020387Y011171D03*
X020387Y011166D03*
X020387Y011166D03*
X020387Y011161D03*
X020387Y011161D03*
X020387Y011156D03*
X020387Y011156D03*
X020387Y011151D03*
X020387Y011151D03*
X020387Y011146D03*
X020387Y011146D03*
X020387Y011141D03*
X020387Y011141D03*
X020387Y011136D03*
X020387Y011136D03*
X020387Y011131D03*
X020387Y011131D03*
X020387Y011126D03*
X020387Y011126D03*
X020387Y011121D03*
X020387Y011121D03*
X020387Y011116D03*
X020387Y011116D03*
X020387Y011111D03*
X020387Y011111D03*
X020387Y011106D03*
X020387Y011106D03*
X020387Y011101D03*
X020387Y011101D03*
X020387Y011096D03*
X020387Y011096D03*
X020572Y011096D03*
X020572Y011096D03*
X020572Y011101D03*
X020572Y011101D03*
X020572Y011106D03*
X020572Y011106D03*
X020572Y011111D03*
X020572Y011111D03*
X020572Y011116D03*
X020572Y011116D03*
X020572Y011121D03*
X020572Y011121D03*
X020572Y011126D03*
X020572Y011126D03*
X020572Y011131D03*
X020572Y011131D03*
X020572Y011136D03*
X020572Y011136D03*
X020572Y011141D03*
X020572Y011141D03*
X020572Y011146D03*
X020572Y011146D03*
X020572Y011151D03*
X020572Y011151D03*
X020572Y011156D03*
X020572Y011156D03*
X020572Y011161D03*
X020572Y011161D03*
X020572Y011166D03*
X020572Y011166D03*
X020572Y011171D03*
X020572Y011171D03*
X020572Y011176D03*
X020572Y011176D03*
X020572Y011181D03*
X020572Y011181D03*
X020572Y011186D03*
X020572Y011186D03*
X020572Y011191D03*
X020572Y011191D03*
X020572Y011196D03*
X020572Y011196D03*
X020572Y011201D03*
X020572Y011201D03*
X020572Y011206D03*
X020572Y011206D03*
X020572Y011211D03*
X020572Y011211D03*
X020572Y011216D03*
X020572Y011216D03*
X020572Y011221D03*
X020572Y011221D03*
X020572Y011226D03*
X020572Y011226D03*
X020572Y011231D03*
X020572Y011231D03*
X020572Y011236D03*
X020572Y011236D03*
X020572Y011241D03*
X020572Y011241D03*
X020572Y011246D03*
X020572Y011246D03*
X020572Y011251D03*
X020572Y011251D03*
X020572Y011256D03*
X020572Y011256D03*
X020572Y011261D03*
X020572Y011261D03*
X020572Y011266D03*
X020572Y011266D03*
X020572Y011271D03*
X020572Y011271D03*
X020527Y011361D03*
X020527Y011361D03*
X020742Y011291D03*
X020742Y011291D03*
X020742Y011286D03*
X020742Y011286D03*
X020747Y011301D03*
X020747Y011301D03*
X020747Y011306D03*
X020747Y011306D03*
X020752Y011316D03*
X020752Y011316D03*
X020757Y011321D03*
X020757Y011321D03*
X020902Y011311D03*
X020902Y011311D03*
X020907Y011301D03*
X020907Y011301D03*
X020907Y011296D03*
X020907Y011296D03*
X020912Y011286D03*
X020912Y011286D03*
X020912Y011281D03*
X020912Y011281D03*
X020912Y011276D03*
X020912Y011276D03*
X020912Y011271D03*
X020912Y011271D03*
X020912Y011266D03*
X020912Y011266D03*
X020912Y011261D03*
X020912Y011261D03*
X020912Y011256D03*
X020912Y011256D03*
X020912Y011251D03*
X020912Y011251D03*
X020912Y011246D03*
X020912Y011246D03*
X020907Y011241D03*
X020907Y011241D03*
X020907Y011236D03*
X020907Y011236D03*
X020907Y011231D03*
X020907Y011231D03*
X020902Y011221D03*
X020902Y011221D03*
X020897Y011211D03*
X020897Y011211D03*
X020892Y011206D03*
X020892Y011206D03*
X020887Y011201D03*
X020887Y011201D03*
X020782Y011121D03*
X020782Y011121D03*
X020732Y011041D03*
X020732Y011041D03*
X020732Y011036D03*
X020732Y011036D03*
X020727Y011026D03*
X020727Y011026D03*
X020727Y011021D03*
X020727Y011021D03*
X020727Y011016D03*
X020727Y011016D03*
X020727Y011011D03*
X020727Y011011D03*
X020727Y011006D03*
X020727Y011006D03*
X020942Y011016D03*
X020942Y011016D03*
X020942Y011021D03*
X020942Y011021D03*
X020942Y011026D03*
X020942Y011026D03*
X021157Y011056D03*
X021157Y011056D03*
X021267Y011126D03*
X021267Y011126D03*
X021447Y011306D03*
X021447Y011306D03*
X021102Y011416D03*
X021102Y011416D03*
X021097Y011411D03*
X021097Y011411D03*
X021097Y011406D03*
X021097Y011406D03*
X021092Y011396D03*
X021092Y011396D03*
X021092Y011391D03*
X021092Y011391D03*
X021092Y011386D03*
X021092Y011386D03*
X021957Y011481D03*
X021957Y011481D03*
X021957Y011056D03*
X021957Y011056D03*
X019352Y010246D03*
X019352Y010246D03*
X019057Y011051D03*
X019057Y011051D03*
D25*
X019057Y011056D03*
X019057Y011056D03*
X019252Y011146D03*
X019252Y011146D03*
X019602Y011116D03*
X019602Y011116D03*
X019602Y011111D03*
X019602Y011111D03*
X019822Y011091D03*
X019822Y011091D03*
X020007Y011091D03*
X020007Y011091D03*
X020197Y011091D03*
X020197Y011091D03*
X020387Y011091D03*
X020387Y011091D03*
X020572Y011091D03*
X020572Y011091D03*
X020737Y010981D03*
X020737Y010981D03*
X020937Y011041D03*
X020937Y011041D03*
X020762Y011201D03*
X020762Y011201D03*
X020742Y011241D03*
X020742Y011241D03*
X020772Y011336D03*
X020772Y011336D03*
X020567Y011296D03*
X020567Y011296D03*
X020567Y011291D03*
X020567Y011291D03*
X020562Y011301D03*
X020562Y011301D03*
X020392Y011306D03*
X020392Y011306D03*
X020192Y011346D03*
X020192Y011346D03*
X020002Y011291D03*
X020002Y011291D03*
X019997Y011301D03*
X019997Y011301D03*
X019827Y011306D03*
X019827Y011306D03*
X019207Y011481D03*
X019207Y011481D03*
X018937Y011496D03*
X018937Y011496D03*
X018812Y011621D03*
X018812Y011621D03*
X018892Y011826D03*
X018892Y011826D03*
X018912Y010726D03*
X018912Y010726D03*
X018912Y010596D03*
X018912Y010596D03*
X019352Y010251D03*
X019352Y010251D03*
X021252Y011106D03*
X021252Y011106D03*
X021257Y011111D03*
X021257Y011111D03*
X021277Y011156D03*
X021277Y011156D03*
X021277Y011161D03*
X021277Y011161D03*
X021277Y011166D03*
X021277Y011166D03*
X021422Y011181D03*
X021422Y011181D03*
X021422Y011186D03*
X021422Y011186D03*
X021422Y011191D03*
X021422Y011191D03*
X021422Y011196D03*
X021422Y011196D03*
X021422Y011201D03*
X021422Y011201D03*
X021422Y011206D03*
X021422Y011206D03*
X021422Y011211D03*
X021422Y011211D03*
X021422Y011216D03*
X021422Y011216D03*
X021422Y011221D03*
X021422Y011221D03*
X021422Y011226D03*
X021422Y011226D03*
X021422Y011231D03*
X021422Y011231D03*
X021422Y011236D03*
X021422Y011236D03*
X021422Y011241D03*
X021422Y011241D03*
X021427Y011251D03*
X021427Y011251D03*
X021427Y011256D03*
X021427Y011256D03*
X021427Y011261D03*
X021427Y011261D03*
X021432Y011276D03*
X021432Y011276D03*
X021427Y011171D03*
X021427Y011171D03*
X021427Y011166D03*
X021427Y011166D03*
X021427Y011161D03*
X021427Y011161D03*
X021432Y011146D03*
X021432Y011146D03*
X021437Y011131D03*
X021437Y011131D03*
X021462Y011096D03*
X021462Y011096D03*
X021637Y011146D03*
X021637Y011146D03*
X021642Y011161D03*
X021642Y011161D03*
X021642Y011166D03*
X021642Y011166D03*
X021642Y011171D03*
X021642Y011171D03*
X021647Y011181D03*
X021647Y011181D03*
X021647Y011186D03*
X021647Y011186D03*
X021647Y011191D03*
X021647Y011191D03*
X021647Y011196D03*
X021647Y011196D03*
X021647Y011201D03*
X021647Y011201D03*
X021647Y011206D03*
X021647Y011206D03*
X021647Y011211D03*
X021647Y011211D03*
X021647Y011216D03*
X021647Y011216D03*
X021647Y011221D03*
X021647Y011221D03*
X021647Y011226D03*
X021647Y011226D03*
X021647Y011231D03*
X021647Y011231D03*
X021647Y011236D03*
X021647Y011236D03*
X021647Y011241D03*
X021647Y011241D03*
X021642Y011251D03*
X021642Y011251D03*
X021642Y011256D03*
X021642Y011256D03*
X021642Y011261D03*
X021642Y011261D03*
X021637Y011276D03*
X021637Y011276D03*
X021787Y011306D03*
X021787Y011306D03*
X021792Y011331D03*
X021792Y011331D03*
X021797Y011346D03*
X021797Y011346D03*
X021802Y011361D03*
X021802Y011361D03*
X021807Y011371D03*
X021807Y011371D03*
X021812Y011381D03*
X021812Y011381D03*
X021787Y011231D03*
X021787Y011231D03*
X021792Y011206D03*
X021792Y011206D03*
X021797Y011191D03*
X021797Y011191D03*
X021802Y011176D03*
X021802Y011176D03*
X021807Y011166D03*
X021807Y011166D03*
X021267Y011441D03*
X021267Y011441D03*
X021122Y011436D03*
X021122Y011436D03*
X021092Y011361D03*
X021092Y011361D03*
X021092Y011356D03*
X021092Y011356D03*
D26*
X021097Y011346D03*
X021097Y011346D03*
X021097Y011341D03*
X021097Y011341D03*
X021102Y011336D03*
X021102Y011336D03*
X021272Y011186D03*
X021272Y011186D03*
X020932Y011046D03*
X020932Y011046D03*
X020557Y011306D03*
X020557Y011306D03*
X020377Y011346D03*
X020377Y011346D03*
X019992Y011306D03*
X019992Y011306D03*
X019812Y011496D03*
X019812Y011496D03*
X019207Y011486D03*
X019207Y011486D03*
X019062Y011366D03*
X019062Y011366D03*
X018937Y011491D03*
X018937Y011491D03*
X018812Y011616D03*
X018812Y011616D03*
X019207Y012036D03*
X019207Y012036D03*
X019637Y011061D03*
X019637Y011061D03*
X019352Y010256D03*
X019352Y010256D03*
X021827Y011136D03*
X021827Y011136D03*
X021837Y011126D03*
X021837Y011126D03*
X021842Y011121D03*
X021842Y011121D03*
X021847Y011116D03*
X021847Y011116D03*
X021847Y011421D03*
X021847Y011421D03*
X021852Y011426D03*
X021852Y011426D03*
D27*
X021867Y011436D03*
X021867Y011436D03*
X021537Y011361D03*
X021537Y011361D03*
X021267Y011196D03*
X021267Y011196D03*
X021262Y011201D03*
X021262Y011201D03*
X021232Y011096D03*
X021232Y011096D03*
X021532Y011061D03*
X021532Y011061D03*
X021862Y011106D03*
X021862Y011106D03*
X021107Y011331D03*
X021107Y011331D03*
X020827Y011361D03*
X020827Y011361D03*
X020552Y011311D03*
X020552Y011311D03*
X020402Y011311D03*
X020402Y011311D03*
X020372Y011341D03*
X020372Y011341D03*
X019987Y011311D03*
X019987Y011311D03*
X019612Y011101D03*
X019612Y011101D03*
X019252Y011151D03*
X019252Y011151D03*
X019062Y011071D03*
X019062Y011071D03*
X019027Y011161D03*
X019027Y011161D03*
X019027Y011166D03*
X019027Y011166D03*
X019027Y011171D03*
X019027Y011171D03*
X019022Y011181D03*
X019022Y011181D03*
X019022Y011186D03*
X019022Y011186D03*
X019022Y011191D03*
X019022Y011191D03*
X019022Y011196D03*
X019022Y011196D03*
X019017Y011206D03*
X019017Y011206D03*
X019017Y011221D03*
X019017Y011221D03*
X019017Y011226D03*
X019017Y011226D03*
X019022Y011231D03*
X019022Y011231D03*
X019022Y011236D03*
X019022Y011236D03*
X019022Y011241D03*
X019022Y011241D03*
X019022Y011246D03*
X019022Y011246D03*
X019027Y011256D03*
X019027Y011256D03*
X019027Y011261D03*
X019027Y011261D03*
X019027Y011266D03*
X019027Y011266D03*
X019027Y011271D03*
X019027Y011271D03*
X019062Y011361D03*
X019062Y011361D03*
X018937Y011486D03*
X018937Y011486D03*
X018812Y011611D03*
X018812Y011611D03*
X018892Y011701D03*
X018892Y011701D03*
X018892Y011821D03*
X018892Y011821D03*
X019082Y011906D03*
X019082Y011906D03*
X019117Y011816D03*
X019117Y011816D03*
X019117Y011811D03*
X019117Y011811D03*
X019117Y011806D03*
X019117Y011806D03*
X019117Y011801D03*
X019117Y011801D03*
X019117Y011796D03*
X019117Y011796D03*
X019122Y011786D03*
X019122Y011786D03*
X019122Y011781D03*
X019122Y011781D03*
X019122Y011776D03*
X019122Y011776D03*
X019122Y011771D03*
X019122Y011771D03*
X019122Y011766D03*
X019122Y011766D03*
X019122Y011761D03*
X019122Y011761D03*
X019122Y011756D03*
X019122Y011756D03*
X019122Y011751D03*
X019122Y011751D03*
X019122Y011746D03*
X019122Y011746D03*
X019122Y011741D03*
X019122Y011741D03*
X019122Y011736D03*
X019122Y011736D03*
X019117Y011726D03*
X019117Y011726D03*
X019117Y011721D03*
X019117Y011721D03*
X019117Y011716D03*
X019117Y011716D03*
X019117Y011711D03*
X019117Y011711D03*
X019117Y011706D03*
X019117Y011706D03*
X019082Y011616D03*
X019082Y011616D03*
X019207Y011491D03*
X019207Y011491D03*
X019282Y011656D03*
X019282Y011656D03*
X019287Y011666D03*
X019287Y011666D03*
X019287Y011671D03*
X019287Y011671D03*
X019287Y011676D03*
X019287Y011676D03*
X019287Y011681D03*
X019287Y011681D03*
X019292Y011691D03*
X019292Y011691D03*
X019292Y011696D03*
X019292Y011696D03*
X019292Y011701D03*
X019292Y011701D03*
X019292Y011706D03*
X019292Y011706D03*
X019292Y011711D03*
X019292Y011711D03*
X019297Y011721D03*
X019297Y011721D03*
X019297Y011726D03*
X019297Y011726D03*
X019297Y011731D03*
X019297Y011731D03*
X019297Y011736D03*
X019297Y011736D03*
X019297Y011741D03*
X019297Y011741D03*
X019297Y011746D03*
X019297Y011746D03*
X019297Y011751D03*
X019297Y011751D03*
X019297Y011756D03*
X019297Y011756D03*
X019297Y011761D03*
X019297Y011761D03*
X019297Y011766D03*
X019297Y011766D03*
X019297Y011771D03*
X019297Y011771D03*
X019297Y011776D03*
X019297Y011776D03*
X019297Y011781D03*
X019297Y011781D03*
X019297Y011786D03*
X019297Y011786D03*
X019297Y011791D03*
X019297Y011791D03*
X019297Y011796D03*
X019297Y011796D03*
X019297Y011801D03*
X019297Y011801D03*
X019292Y011811D03*
X019292Y011811D03*
X019292Y011816D03*
X019292Y011816D03*
X019292Y011821D03*
X019292Y011821D03*
X019292Y011826D03*
X019292Y011826D03*
X019292Y011831D03*
X019292Y011831D03*
X019287Y011846D03*
X019287Y011846D03*
X019287Y011851D03*
X019287Y011851D03*
X019287Y011856D03*
X019287Y011856D03*
X019282Y011866D03*
X019282Y011866D03*
X019462Y011856D03*
X019462Y011856D03*
X019462Y011851D03*
X019462Y011851D03*
X019462Y011846D03*
X019462Y011846D03*
X019462Y011841D03*
X019462Y011841D03*
X019462Y011836D03*
X019462Y011836D03*
X019462Y011831D03*
X019462Y011831D03*
X019462Y011826D03*
X019462Y011826D03*
X019467Y011811D03*
X019467Y011811D03*
X019467Y011806D03*
X019467Y011806D03*
X019467Y011801D03*
X019467Y011801D03*
X019467Y011796D03*
X019467Y011796D03*
X019467Y011791D03*
X019467Y011791D03*
X019467Y011786D03*
X019467Y011786D03*
X019467Y011781D03*
X019467Y011781D03*
X019467Y011776D03*
X019467Y011776D03*
X019467Y011771D03*
X019467Y011771D03*
X019467Y011766D03*
X019467Y011766D03*
X019467Y011761D03*
X019467Y011761D03*
X019467Y011756D03*
X019467Y011756D03*
X019467Y011751D03*
X019467Y011751D03*
X019467Y011746D03*
X019467Y011746D03*
X019467Y011741D03*
X019467Y011741D03*
X019467Y011736D03*
X019467Y011736D03*
X019467Y011731D03*
X019467Y011731D03*
X019467Y011726D03*
X019467Y011726D03*
X019467Y011721D03*
X019467Y011721D03*
X019467Y011716D03*
X019467Y011716D03*
X019467Y011711D03*
X019467Y011711D03*
X019467Y011706D03*
X019467Y011706D03*
X019462Y011676D03*
X019462Y011676D03*
X019462Y011671D03*
X019462Y011671D03*
X019462Y011666D03*
X019462Y011666D03*
X019462Y011661D03*
X019462Y011661D03*
X019207Y012031D03*
X019207Y012031D03*
X018857Y011311D03*
X018857Y011311D03*
X018857Y011306D03*
X018857Y011306D03*
X018852Y011286D03*
X018852Y011286D03*
X018852Y011281D03*
X018852Y011281D03*
X018847Y011256D03*
X018847Y011256D03*
X018847Y011251D03*
X018847Y011251D03*
X018847Y011246D03*
X018847Y011246D03*
X018847Y011241D03*
X018847Y011241D03*
X018847Y011236D03*
X018847Y011236D03*
X018847Y011231D03*
X018847Y011231D03*
X018847Y011226D03*
X018847Y011226D03*
X018847Y011221D03*
X018847Y011221D03*
X018847Y011216D03*
X018847Y011216D03*
X018847Y011211D03*
X018847Y011211D03*
X018847Y011206D03*
X018847Y011206D03*
X018847Y011201D03*
X018847Y011201D03*
X018847Y011196D03*
X018847Y011196D03*
X018847Y011191D03*
X018847Y011191D03*
X018847Y011186D03*
X018847Y011186D03*
X018847Y011181D03*
X018847Y011181D03*
X018847Y011176D03*
X018847Y011176D03*
X018847Y011171D03*
X018847Y011171D03*
X018852Y011146D03*
X018852Y011146D03*
X018852Y011141D03*
X018852Y011141D03*
X018857Y011121D03*
X018857Y011121D03*
X018857Y011116D03*
X018857Y011116D03*
X018687Y011081D03*
X018687Y011081D03*
X018682Y011106D03*
X018682Y011106D03*
X018682Y011111D03*
X018682Y011111D03*
X018677Y011121D03*
X018677Y011121D03*
X018677Y011126D03*
X018677Y011126D03*
X018677Y011131D03*
X018677Y011131D03*
X018672Y011161D03*
X018672Y011161D03*
X018672Y011166D03*
X018672Y011166D03*
X018672Y011171D03*
X018672Y011171D03*
X018672Y011176D03*
X018672Y011176D03*
X018672Y011181D03*
X018672Y011181D03*
X018672Y011186D03*
X018672Y011186D03*
X018672Y011191D03*
X018672Y011191D03*
X018672Y011196D03*
X018672Y011196D03*
X018672Y011201D03*
X018672Y011201D03*
X018672Y011206D03*
X018672Y011206D03*
X018672Y011211D03*
X018672Y011211D03*
X018672Y011216D03*
X018672Y011216D03*
X018672Y011221D03*
X018672Y011221D03*
X018672Y011226D03*
X018672Y011226D03*
X018672Y011231D03*
X018672Y011231D03*
X018672Y011236D03*
X018672Y011236D03*
X018672Y011241D03*
X018672Y011241D03*
X018672Y011246D03*
X018672Y011246D03*
X018672Y011251D03*
X018672Y011251D03*
X018672Y011256D03*
X018672Y011256D03*
X018672Y011261D03*
X018672Y011261D03*
X018672Y011266D03*
X018672Y011266D03*
X018677Y011281D03*
X018677Y011281D03*
X018677Y011286D03*
X018677Y011286D03*
X018677Y011291D03*
X018677Y011291D03*
X018677Y011296D03*
X018677Y011296D03*
X018677Y011301D03*
X018677Y011301D03*
X018677Y011306D03*
X018677Y011306D03*
X018682Y011316D03*
X018682Y011316D03*
X018682Y011321D03*
X018682Y011321D03*
X018687Y011346D03*
X018687Y011346D03*
X018912Y010721D03*
X018912Y010721D03*
X018912Y010601D03*
X018912Y010601D03*
X019132Y010601D03*
X019132Y010601D03*
X019132Y010606D03*
X019132Y010606D03*
X019137Y010621D03*
X019137Y010621D03*
X019137Y010626D03*
X019137Y010626D03*
X019137Y010631D03*
X019137Y010631D03*
X019142Y010641D03*
X019142Y010641D03*
X019142Y010646D03*
X019142Y010646D03*
X019142Y010651D03*
X019142Y010651D03*
X019142Y010656D03*
X019142Y010656D03*
X019142Y010661D03*
X019142Y010661D03*
X019142Y010666D03*
X019142Y010666D03*
X019142Y010671D03*
X019142Y010671D03*
X019142Y010676D03*
X019142Y010676D03*
X019142Y010681D03*
X019142Y010681D03*
X019137Y010696D03*
X019137Y010696D03*
X019137Y010701D03*
X019137Y010701D03*
X019132Y010716D03*
X019132Y010716D03*
X019132Y010721D03*
X019132Y010721D03*
X019302Y010761D03*
X019302Y010761D03*
X019307Y010741D03*
X019307Y010741D03*
X019307Y010736D03*
X019307Y010736D03*
X019307Y010731D03*
X019307Y010731D03*
X019312Y010711D03*
X019312Y010711D03*
X019312Y010706D03*
X019312Y010706D03*
X019312Y010701D03*
X019312Y010701D03*
X019312Y010621D03*
X019312Y010621D03*
X019312Y010616D03*
X019312Y010616D03*
X019307Y010601D03*
X019307Y010601D03*
X019307Y010596D03*
X019307Y010596D03*
X019307Y010591D03*
X019307Y010591D03*
X019307Y010586D03*
X019307Y010586D03*
X019307Y010581D03*
X019307Y010581D03*
X019302Y010566D03*
X019302Y010566D03*
X019302Y010561D03*
X019302Y010561D03*
X019482Y010561D03*
X019482Y010561D03*
X019482Y010756D03*
X019482Y010756D03*
X019482Y010761D03*
X019482Y010761D03*
X019352Y010261D03*
X019352Y010261D03*
X020927Y011051D03*
X020927Y011051D03*
X020822Y011171D03*
X020822Y011171D03*
D28*
X020917Y011056D03*
X020917Y011056D03*
X021257Y011211D03*
X021257Y011211D03*
X020522Y011351D03*
X020522Y011351D03*
X020367Y011336D03*
X020367Y011336D03*
X020177Y011336D03*
X020177Y011336D03*
X020177Y011331D03*
X020177Y011331D03*
X020177Y011326D03*
X020177Y011326D03*
X020177Y011321D03*
X020177Y011321D03*
X020177Y011316D03*
X020177Y011316D03*
X019957Y011351D03*
X019957Y011351D03*
X019437Y011566D03*
X019437Y011566D03*
X019437Y011571D03*
X019437Y011571D03*
X019437Y011576D03*
X019437Y011576D03*
X019442Y011581D03*
X019442Y011581D03*
X019442Y011586D03*
X019442Y011586D03*
X019442Y011591D03*
X019442Y011591D03*
X019447Y011606D03*
X019447Y011606D03*
X019457Y011641D03*
X019457Y011641D03*
X019457Y011646D03*
X019457Y011646D03*
X019432Y011561D03*
X019432Y011561D03*
X019432Y011556D03*
X019432Y011556D03*
X019427Y011551D03*
X019427Y011551D03*
X019427Y011546D03*
X019427Y011546D03*
X019427Y011541D03*
X019427Y011541D03*
X019422Y011536D03*
X019422Y011536D03*
X019422Y011531D03*
X019422Y011531D03*
X019417Y011521D03*
X019417Y011521D03*
X019262Y011596D03*
X019262Y011596D03*
X019262Y011601D03*
X019262Y011601D03*
X019257Y011591D03*
X019257Y011591D03*
X019257Y011586D03*
X019257Y011586D03*
X019252Y011581D03*
X019252Y011581D03*
X019247Y011571D03*
X019247Y011571D03*
X019267Y011611D03*
X019267Y011611D03*
X019272Y011621D03*
X019272Y011621D03*
X019207Y011496D03*
X019207Y011496D03*
X019097Y011661D03*
X019097Y011661D03*
X019102Y011671D03*
X019102Y011671D03*
X019107Y011681D03*
X019107Y011681D03*
X019107Y011841D03*
X019107Y011841D03*
X019102Y011851D03*
X019102Y011851D03*
X019097Y011861D03*
X019097Y011861D03*
X019092Y011871D03*
X019092Y011871D03*
X019247Y011951D03*
X019247Y011951D03*
X019252Y011941D03*
X019252Y011941D03*
X019257Y011936D03*
X019257Y011936D03*
X019257Y011931D03*
X019257Y011931D03*
X019262Y011926D03*
X019262Y011926D03*
X019262Y011921D03*
X019262Y011921D03*
X019267Y011911D03*
X019267Y011911D03*
X019267Y011906D03*
X019267Y011906D03*
X019207Y012026D03*
X019207Y012026D03*
X019422Y011986D03*
X019422Y011986D03*
X019427Y011976D03*
X019427Y011976D03*
X019432Y011961D03*
X019432Y011961D03*
X019432Y011956D03*
X019432Y011956D03*
X019437Y011946D03*
X019437Y011946D03*
X019437Y011941D03*
X019437Y011941D03*
X019442Y011936D03*
X019442Y011936D03*
X019442Y011931D03*
X019442Y011931D03*
X019442Y011926D03*
X019442Y011926D03*
X019447Y011921D03*
X019447Y011921D03*
X019447Y011916D03*
X019447Y011916D03*
X019447Y011911D03*
X019447Y011911D03*
X019452Y011896D03*
X019452Y011896D03*
X019457Y011881D03*
X019457Y011881D03*
X019457Y011876D03*
X019457Y011876D03*
X019457Y011871D03*
X019457Y011871D03*
X018892Y011816D03*
X018892Y011816D03*
X018892Y011706D03*
X018892Y011706D03*
X018812Y011606D03*
X018812Y011606D03*
X018742Y011486D03*
X018742Y011486D03*
X018727Y011456D03*
X018727Y011456D03*
X018722Y011451D03*
X018722Y011451D03*
X018722Y011446D03*
X018722Y011446D03*
X018717Y011441D03*
X018717Y011441D03*
X018717Y011436D03*
X018717Y011436D03*
X018712Y011426D03*
X018712Y011426D03*
X018712Y011421D03*
X018712Y011421D03*
X018707Y011416D03*
X018707Y011416D03*
X018707Y011411D03*
X018707Y011411D03*
X018702Y011396D03*
X018702Y011396D03*
X018692Y011366D03*
X018692Y011366D03*
X018862Y011326D03*
X018862Y011326D03*
X018867Y011341D03*
X018867Y011341D03*
X018872Y011351D03*
X018872Y011351D03*
X018872Y011356D03*
X018872Y011356D03*
X018877Y011361D03*
X018877Y011361D03*
X018877Y011366D03*
X018877Y011366D03*
X018877Y011371D03*
X018877Y011371D03*
X018882Y011376D03*
X018882Y011376D03*
X018887Y011386D03*
X018887Y011386D03*
X018897Y011406D03*
X018897Y011406D03*
X018937Y011481D03*
X018937Y011481D03*
X019062Y011351D03*
X019062Y011351D03*
X019047Y011316D03*
X019047Y011316D03*
X019042Y011311D03*
X019042Y011311D03*
X019042Y011306D03*
X019042Y011306D03*
X019037Y011296D03*
X019037Y011296D03*
X019037Y011131D03*
X019037Y011131D03*
X019042Y011121D03*
X019042Y011121D03*
X019062Y011076D03*
X019062Y011076D03*
X018937Y010951D03*
X018937Y010951D03*
X018892Y011026D03*
X018892Y011026D03*
X018887Y011041D03*
X018887Y011041D03*
X018882Y011051D03*
X018882Y011051D03*
X018877Y011061D03*
X018877Y011061D03*
X018877Y011066D03*
X018877Y011066D03*
X018872Y011071D03*
X018872Y011071D03*
X018872Y011076D03*
X018872Y011076D03*
X018867Y011086D03*
X018867Y011086D03*
X018702Y011031D03*
X018702Y011031D03*
X018702Y011026D03*
X018702Y011026D03*
X018707Y011016D03*
X018707Y011016D03*
X018707Y011011D03*
X018707Y011011D03*
X018712Y011006D03*
X018712Y011006D03*
X018712Y011001D03*
X018712Y011001D03*
X018717Y010991D03*
X018717Y010991D03*
X018717Y010986D03*
X018717Y010986D03*
X018722Y010981D03*
X018722Y010981D03*
X018722Y010976D03*
X018722Y010976D03*
X018727Y010971D03*
X018727Y010971D03*
X018742Y010941D03*
X018742Y010941D03*
X018812Y010826D03*
X018812Y010826D03*
X018912Y010716D03*
X018912Y010716D03*
X018912Y010606D03*
X018912Y010606D03*
X019097Y010521D03*
X019097Y010521D03*
X019107Y010546D03*
X019107Y010546D03*
X019117Y010566D03*
X019117Y010566D03*
X019122Y010576D03*
X019122Y010576D03*
X019287Y010521D03*
X019287Y010521D03*
X019287Y010516D03*
X019287Y010516D03*
X019282Y010506D03*
X019282Y010506D03*
X019282Y010501D03*
X019282Y010501D03*
X019277Y010496D03*
X019277Y010496D03*
X019277Y010491D03*
X019277Y010491D03*
X019272Y010486D03*
X019272Y010486D03*
X019267Y010476D03*
X019267Y010476D03*
X019262Y010466D03*
X019262Y010466D03*
X019222Y010396D03*
X019222Y010396D03*
X019352Y010266D03*
X019352Y010266D03*
X019447Y010441D03*
X019447Y010441D03*
X019457Y010466D03*
X019457Y010466D03*
X019462Y010476D03*
X019462Y010476D03*
X019462Y010481D03*
X019462Y010481D03*
X019462Y010486D03*
X019462Y010486D03*
X019467Y010496D03*
X019467Y010496D03*
X019467Y010501D03*
X019467Y010501D03*
X019467Y010506D03*
X019467Y010506D03*
X019472Y010511D03*
X019472Y010511D03*
X019472Y010516D03*
X019472Y010516D03*
X019477Y010531D03*
X019477Y010531D03*
X019477Y010536D03*
X019477Y010536D03*
X019487Y010581D03*
X019487Y010581D03*
X019487Y010586D03*
X019487Y010586D03*
X019487Y010591D03*
X019487Y010591D03*
X019487Y010596D03*
X019487Y010596D03*
X019472Y010806D03*
X019472Y010806D03*
X019472Y010811D03*
X019472Y010811D03*
X019467Y010821D03*
X019467Y010821D03*
X019462Y010836D03*
X019462Y010836D03*
X019462Y010841D03*
X019462Y010841D03*
X019457Y010856D03*
X019457Y010856D03*
X019452Y010866D03*
X019452Y010866D03*
X019447Y010876D03*
X019447Y010876D03*
X019447Y010881D03*
X019447Y010881D03*
X019447Y010886D03*
X019447Y010886D03*
X019442Y010891D03*
X019442Y010891D03*
X019437Y010901D03*
X019437Y010901D03*
X019282Y010821D03*
X019282Y010821D03*
X019282Y010816D03*
X019282Y010816D03*
X019277Y010826D03*
X019277Y010826D03*
X019277Y010831D03*
X019277Y010831D03*
X019272Y010836D03*
X019272Y010836D03*
X019272Y010841D03*
X019272Y010841D03*
X019267Y010846D03*
X019267Y010846D03*
X019267Y010851D03*
X019267Y010851D03*
X019262Y010856D03*
X019262Y010856D03*
X019287Y010806D03*
X019287Y010806D03*
X019292Y010791D03*
X019292Y010791D03*
X019222Y010926D03*
X019222Y010926D03*
X019097Y010801D03*
X019097Y010801D03*
X019107Y010776D03*
X019107Y010776D03*
X019112Y010766D03*
X019112Y010766D03*
X019117Y010756D03*
X019117Y010756D03*
X019122Y010746D03*
X019122Y010746D03*
X019252Y011156D03*
X019252Y011156D03*
D29*
X019250Y011266D03*
X019250Y011266D03*
X019330Y011371D03*
X019330Y011371D03*
X019395Y011481D03*
X019395Y011481D03*
X019400Y011486D03*
X019400Y011486D03*
X019400Y011491D03*
X019400Y011491D03*
X019405Y011496D03*
X019405Y011496D03*
X019405Y011501D03*
X019405Y011501D03*
X019410Y011506D03*
X019410Y011506D03*
X019410Y011511D03*
X019410Y011511D03*
X019415Y011516D03*
X019415Y011516D03*
X019420Y011526D03*
X019420Y011526D03*
X019250Y011576D03*
X019250Y011576D03*
X019245Y011566D03*
X019245Y011566D03*
X019240Y011561D03*
X019240Y011561D03*
X019240Y011556D03*
X019240Y011556D03*
X019235Y011551D03*
X019235Y011551D03*
X019235Y011546D03*
X019235Y011546D03*
X019230Y011541D03*
X019230Y011541D03*
X019205Y011501D03*
X019205Y011501D03*
X019080Y011626D03*
X019080Y011626D03*
X019080Y011631D03*
X019080Y011631D03*
X019090Y011646D03*
X019090Y011646D03*
X019095Y011651D03*
X019095Y011651D03*
X019095Y011656D03*
X019095Y011656D03*
X018815Y011601D03*
X018815Y011601D03*
X018750Y011501D03*
X018750Y011501D03*
X018745Y011491D03*
X018745Y011491D03*
X018740Y011481D03*
X018740Y011481D03*
X018735Y011476D03*
X018735Y011476D03*
X018735Y011471D03*
X018735Y011471D03*
X018730Y011466D03*
X018730Y011466D03*
X018730Y011461D03*
X018730Y011461D03*
X018890Y011396D03*
X018890Y011396D03*
X018890Y011391D03*
X018890Y011391D03*
X018895Y011401D03*
X018895Y011401D03*
X018900Y011411D03*
X018900Y011411D03*
X018905Y011421D03*
X018905Y011421D03*
X018885Y011381D03*
X018885Y011381D03*
X019050Y011321D03*
X019050Y011321D03*
X019055Y011331D03*
X019055Y011331D03*
X019045Y011116D03*
X019045Y011116D03*
X019050Y011111D03*
X019050Y011111D03*
X019050Y011106D03*
X019050Y011106D03*
X019055Y011096D03*
X019055Y011096D03*
X019065Y011081D03*
X019065Y011081D03*
X018905Y011006D03*
X018905Y011006D03*
X018900Y011016D03*
X018900Y011016D03*
X018895Y011021D03*
X018895Y011021D03*
X018890Y011031D03*
X018890Y011031D03*
X018890Y011036D03*
X018890Y011036D03*
X018885Y011046D03*
X018885Y011046D03*
X018880Y011056D03*
X018880Y011056D03*
X018730Y010966D03*
X018730Y010966D03*
X018730Y010961D03*
X018730Y010961D03*
X018735Y010956D03*
X018735Y010956D03*
X018735Y010951D03*
X018735Y010951D03*
X018740Y010946D03*
X018740Y010946D03*
X018745Y010936D03*
X018745Y010936D03*
X018750Y010931D03*
X018750Y010931D03*
X019105Y010781D03*
X019105Y010781D03*
X019110Y010771D03*
X019110Y010771D03*
X019115Y010761D03*
X019115Y010761D03*
X019260Y010861D03*
X019260Y010861D03*
X019255Y010871D03*
X019255Y010871D03*
X019420Y010931D03*
X019420Y010931D03*
X019420Y010936D03*
X019420Y010936D03*
X019425Y010926D03*
X019425Y010926D03*
X019430Y010921D03*
X019430Y010921D03*
X019430Y010916D03*
X019430Y010916D03*
X019435Y010911D03*
X019435Y010911D03*
X019435Y010906D03*
X019435Y010906D03*
X019440Y010896D03*
X019440Y010896D03*
X019450Y010871D03*
X019450Y010871D03*
X019455Y010861D03*
X019455Y010861D03*
X019350Y011051D03*
X019350Y011051D03*
X019645Y011066D03*
X019645Y011066D03*
X019800Y011466D03*
X019800Y011466D03*
X019800Y011471D03*
X019800Y011471D03*
X019800Y011476D03*
X019800Y011476D03*
X019800Y011481D03*
X019800Y011481D03*
X019800Y011486D03*
X019800Y011486D03*
X019430Y011966D03*
X019430Y011966D03*
X019430Y011971D03*
X019430Y011971D03*
X019425Y011981D03*
X019425Y011981D03*
X019420Y011991D03*
X019420Y011991D03*
X019420Y011996D03*
X019420Y011996D03*
X019415Y012001D03*
X019415Y012001D03*
X019410Y012011D03*
X019410Y012011D03*
X019405Y012021D03*
X019405Y012021D03*
X019400Y012031D03*
X019400Y012031D03*
X019330Y012151D03*
X019330Y012151D03*
X019205Y012021D03*
X019205Y012021D03*
X019235Y011976D03*
X019235Y011976D03*
X019235Y011971D03*
X019235Y011971D03*
X019240Y011966D03*
X019240Y011966D03*
X019240Y011961D03*
X019240Y011961D03*
X019245Y011956D03*
X019245Y011956D03*
X019250Y011946D03*
X019250Y011946D03*
X019095Y011866D03*
X019095Y011866D03*
X019090Y011876D03*
X019090Y011876D03*
X019080Y011891D03*
X019080Y011891D03*
X019080Y011896D03*
X019080Y011896D03*
X020815Y010931D03*
X020815Y010931D03*
X021255Y011216D03*
X021255Y011216D03*
X021120Y011316D03*
X021120Y011316D03*
X021200Y011476D03*
X021200Y011476D03*
X021880Y011441D03*
X021880Y011441D03*
X019460Y010471D03*
X019460Y010471D03*
X019455Y010461D03*
X019455Y010461D03*
X019455Y010456D03*
X019455Y010456D03*
X019450Y010451D03*
X019450Y010451D03*
X019450Y010446D03*
X019450Y010446D03*
X019445Y010436D03*
X019445Y010436D03*
X019445Y010431D03*
X019445Y010431D03*
X019440Y010426D03*
X019440Y010426D03*
X019440Y010421D03*
X019440Y010421D03*
X019435Y010416D03*
X019435Y010416D03*
X019435Y010411D03*
X019435Y010411D03*
X019420Y010386D03*
X019420Y010386D03*
X019350Y010271D03*
X019350Y010271D03*
X019250Y010446D03*
X019250Y010446D03*
X019255Y010451D03*
X019255Y010451D03*
X019255Y010456D03*
X019255Y010456D03*
X019260Y010461D03*
X019260Y010461D03*
X019265Y010471D03*
X019265Y010471D03*
X019270Y010481D03*
X019270Y010481D03*
X019115Y010561D03*
X019115Y010561D03*
X019110Y010556D03*
X019110Y010556D03*
X019110Y010551D03*
X019110Y010551D03*
X019105Y010541D03*
X019105Y010541D03*
X019100Y010536D03*
X019100Y010536D03*
X019100Y010531D03*
X019100Y010531D03*
X019100Y010526D03*
X019100Y010526D03*
D30*
X019235Y010426D03*
X019235Y010426D03*
X019240Y010431D03*
X019240Y010431D03*
X019230Y010416D03*
X019230Y010416D03*
X019225Y010411D03*
X019225Y010411D03*
X019225Y010406D03*
X019225Y010406D03*
X019390Y010336D03*
X019390Y010336D03*
X019395Y010346D03*
X019395Y010346D03*
X019400Y010351D03*
X019400Y010351D03*
X019405Y010356D03*
X019405Y010356D03*
X019405Y010361D03*
X019405Y010361D03*
X019410Y010366D03*
X019410Y010366D03*
X019350Y010276D03*
X019350Y010276D03*
X018910Y010616D03*
X018910Y010616D03*
X018915Y010706D03*
X018915Y010706D03*
X018810Y010836D03*
X018810Y010836D03*
X018795Y010861D03*
X018795Y010861D03*
X018790Y010866D03*
X018790Y010866D03*
X018785Y010876D03*
X018785Y010876D03*
X018780Y010881D03*
X018780Y010881D03*
X018775Y010886D03*
X018775Y010886D03*
X018760Y010911D03*
X018760Y010911D03*
X018915Y010991D03*
X018915Y010991D03*
X018920Y010986D03*
X018920Y010986D03*
X018925Y010981D03*
X018925Y010981D03*
X018935Y010966D03*
X018935Y010966D03*
X018935Y010961D03*
X018935Y010961D03*
X019225Y010916D03*
X019225Y010916D03*
X019225Y010911D03*
X019225Y010911D03*
X019230Y010906D03*
X019230Y010906D03*
X019235Y010896D03*
X019235Y010896D03*
X019240Y010891D03*
X019240Y010891D03*
X019245Y010886D03*
X019245Y010886D03*
X019390Y010981D03*
X019390Y010981D03*
X019390Y010986D03*
X019390Y010986D03*
X019385Y010991D03*
X019385Y010991D03*
X019380Y010996D03*
X019380Y010996D03*
X019370Y011011D03*
X019370Y011011D03*
X019350Y011041D03*
X019350Y011041D03*
X019395Y010976D03*
X019395Y010976D03*
X019400Y010971D03*
X019400Y010971D03*
X019405Y010961D03*
X019405Y010961D03*
X019250Y011166D03*
X019250Y011166D03*
X019250Y011261D03*
X019250Y011261D03*
X019330Y011381D03*
X019330Y011381D03*
X019345Y011406D03*
X019345Y011406D03*
X019350Y011411D03*
X019350Y011411D03*
X019360Y011426D03*
X019360Y011426D03*
X019365Y011431D03*
X019365Y011431D03*
X019375Y011446D03*
X019375Y011446D03*
X019380Y011456D03*
X019380Y011456D03*
X019220Y011526D03*
X019220Y011526D03*
X019215Y011521D03*
X019215Y011521D03*
X019210Y011516D03*
X019210Y011516D03*
X019210Y011511D03*
X019210Y011511D03*
X018935Y011466D03*
X018935Y011466D03*
X018925Y011446D03*
X018925Y011446D03*
X018920Y011441D03*
X018920Y011441D03*
X018915Y011436D03*
X018915Y011436D03*
X018785Y011551D03*
X018785Y011551D03*
X018780Y011546D03*
X018780Y011546D03*
X018775Y011541D03*
X018775Y011541D03*
X018765Y011526D03*
X018765Y011526D03*
X018790Y011561D03*
X018790Y011561D03*
X018795Y011566D03*
X018795Y011566D03*
X018810Y011591D03*
X018810Y011591D03*
X018895Y011806D03*
X018895Y011806D03*
X019210Y012006D03*
X019210Y012006D03*
X019210Y012011D03*
X019210Y012011D03*
X019215Y012001D03*
X019215Y012001D03*
X019220Y011996D03*
X019220Y011996D03*
X019375Y012071D03*
X019375Y012071D03*
X019375Y012076D03*
X019375Y012076D03*
X019370Y012081D03*
X019370Y012081D03*
X019380Y012066D03*
X019380Y012066D03*
X019385Y012056D03*
X019385Y012056D03*
X019330Y012141D03*
X019330Y012141D03*
X020830Y011356D03*
X020830Y011356D03*
X021125Y011311D03*
X021125Y011311D03*
X021155Y011061D03*
X021155Y011061D03*
X020520Y011346D03*
X020520Y011346D03*
X019955Y011346D03*
X019955Y011346D03*
X021960Y011476D03*
X021960Y011476D03*
D31*
X021537Y011356D03*
X021537Y011356D03*
X021242Y011226D03*
X021242Y011226D03*
X021132Y011306D03*
X021132Y011306D03*
X020822Y011176D03*
X020822Y011176D03*
X021532Y011066D03*
X021532Y011066D03*
X021957Y011061D03*
X021957Y011061D03*
X019377Y011001D03*
X019377Y011001D03*
X019372Y011006D03*
X019372Y011006D03*
X019367Y011016D03*
X019367Y011016D03*
X019362Y011021D03*
X019362Y011021D03*
X019357Y011026D03*
X019357Y011026D03*
X019352Y011036D03*
X019352Y011036D03*
X019252Y011171D03*
X019252Y011171D03*
X019332Y011386D03*
X019332Y011386D03*
X019337Y011396D03*
X019337Y011396D03*
X019342Y011401D03*
X019342Y011401D03*
X019352Y011416D03*
X019352Y011416D03*
X019357Y011421D03*
X019357Y011421D03*
X018932Y011456D03*
X018932Y011456D03*
X018932Y011461D03*
X018932Y011461D03*
X018927Y011451D03*
X018927Y011451D03*
X018787Y011556D03*
X018787Y011556D03*
X018797Y011571D03*
X018797Y011571D03*
X018802Y011576D03*
X018802Y011576D03*
X018807Y011581D03*
X018807Y011581D03*
X018807Y011586D03*
X018807Y011586D03*
X018892Y011716D03*
X018892Y011716D03*
X018892Y011721D03*
X018892Y011721D03*
X018892Y011801D03*
X018892Y011801D03*
X019357Y012096D03*
X019357Y012096D03*
X019362Y012091D03*
X019362Y012091D03*
X019367Y012086D03*
X019367Y012086D03*
X019352Y012106D03*
X019352Y012106D03*
X019347Y012111D03*
X019347Y012111D03*
X019332Y012136D03*
X019332Y012136D03*
X018927Y010976D03*
X018927Y010976D03*
X018932Y010971D03*
X018932Y010971D03*
X018787Y010871D03*
X018787Y010871D03*
X018797Y010856D03*
X018797Y010856D03*
X018802Y010851D03*
X018802Y010851D03*
X018807Y010846D03*
X018807Y010846D03*
X018807Y010841D03*
X018807Y010841D03*
X018912Y010701D03*
X018912Y010701D03*
X018912Y010621D03*
X018912Y010621D03*
X019232Y010421D03*
X019232Y010421D03*
X019377Y010321D03*
X019377Y010321D03*
X019382Y010326D03*
X019382Y010326D03*
X019387Y010331D03*
X019387Y010331D03*
X019392Y010341D03*
X019392Y010341D03*
X019372Y010311D03*
X019372Y010311D03*
X019367Y010306D03*
X019367Y010306D03*
X019352Y010281D03*
X019352Y010281D03*
X019232Y010901D03*
X019232Y010901D03*
D32*
X019355Y011031D03*
X019355Y011031D03*
X019250Y011251D03*
X019250Y011251D03*
X019250Y011256D03*
X019250Y011256D03*
X019335Y011391D03*
X019335Y011391D03*
X019355Y012101D03*
X019355Y012101D03*
X019345Y012116D03*
X019345Y012116D03*
X019340Y012121D03*
X019340Y012121D03*
X019335Y012126D03*
X019335Y012126D03*
X019335Y012131D03*
X019335Y012131D03*
X020935Y011316D03*
X020935Y011316D03*
X021140Y011301D03*
X021140Y011301D03*
X021235Y011231D03*
X021235Y011231D03*
X020905Y011061D03*
X020905Y011061D03*
X020815Y011111D03*
X020815Y011111D03*
X019375Y010316D03*
X019375Y010316D03*
X019365Y010301D03*
X019365Y010301D03*
X019360Y010296D03*
X019360Y010296D03*
X019355Y010291D03*
X019355Y010291D03*
X019355Y010286D03*
X019355Y010286D03*
D33*
X019225Y010371D03*
X019225Y010371D03*
X019100Y010496D03*
X019100Y010496D03*
X019100Y010826D03*
X019100Y010826D03*
X019225Y010951D03*
X019225Y010951D03*
X019350Y011076D03*
X019350Y011076D03*
X019255Y011141D03*
X019255Y011141D03*
X019330Y011346D03*
X019330Y011346D03*
X019210Y011471D03*
X019210Y011471D03*
X019060Y011381D03*
X019060Y011381D03*
X018935Y011506D03*
X018935Y011506D03*
X019085Y011596D03*
X019085Y011596D03*
X018895Y011691D03*
X018895Y011691D03*
X018895Y011831D03*
X018895Y011831D03*
X019085Y011926D03*
X019085Y011926D03*
X019210Y012051D03*
X019210Y012051D03*
X019330Y012176D03*
X019330Y012176D03*
X020200Y011486D03*
X020200Y011486D03*
X020200Y011431D03*
X020200Y011431D03*
X020200Y011351D03*
X020200Y011351D03*
X019600Y011361D03*
X019600Y011361D03*
X019600Y011366D03*
X019600Y011366D03*
X018935Y010926D03*
X018935Y010926D03*
X018810Y010801D03*
X018810Y010801D03*
X020730Y011031D03*
X020730Y011031D03*
X020735Y011046D03*
X020735Y011046D03*
X020740Y011051D03*
X020740Y011051D03*
X020745Y011056D03*
X020745Y011056D03*
X020815Y010926D03*
X020815Y010926D03*
X020910Y010966D03*
X020910Y010966D03*
X020915Y010971D03*
X020915Y010971D03*
X020925Y010981D03*
X020925Y010981D03*
X020930Y010986D03*
X020930Y010986D03*
X020935Y010991D03*
X020935Y010991D03*
X020935Y010996D03*
X020935Y010996D03*
X020940Y011001D03*
X020940Y011001D03*
X020940Y011006D03*
X020940Y011006D03*
X020940Y011011D03*
X020940Y011011D03*
X021075Y011101D03*
X021075Y011101D03*
X020900Y011216D03*
X020900Y011216D03*
X020905Y011226D03*
X020905Y011226D03*
X020910Y011291D03*
X020910Y011291D03*
X020905Y011306D03*
X020905Y011306D03*
X021195Y011481D03*
X021195Y011481D03*
X021275Y011436D03*
X021275Y011436D03*
X022045Y011436D03*
X022045Y011436D03*
D34*
X021882Y011096D03*
X021882Y011096D03*
X021247Y011221D03*
X021247Y011221D03*
X019417Y010941D03*
X019417Y010941D03*
X019412Y010946D03*
X019412Y010946D03*
X019412Y010951D03*
X019412Y010951D03*
X019407Y010956D03*
X019407Y010956D03*
X019402Y010966D03*
X019402Y010966D03*
X019347Y011046D03*
X019347Y011046D03*
X019252Y011161D03*
X019252Y011161D03*
X019062Y011086D03*
X019062Y011086D03*
X019057Y011091D03*
X019057Y011091D03*
X019052Y011101D03*
X019052Y011101D03*
X018902Y011011D03*
X018902Y011011D03*
X018907Y011001D03*
X018907Y011001D03*
X018912Y010996D03*
X018912Y010996D03*
X018937Y010956D03*
X018937Y010956D03*
X018812Y010831D03*
X018812Y010831D03*
X018772Y010891D03*
X018772Y010891D03*
X018767Y010896D03*
X018767Y010896D03*
X018767Y010901D03*
X018767Y010901D03*
X018762Y010906D03*
X018762Y010906D03*
X018757Y010916D03*
X018757Y010916D03*
X018752Y010921D03*
X018752Y010921D03*
X018752Y010926D03*
X018752Y010926D03*
X019097Y010796D03*
X019097Y010796D03*
X019097Y010791D03*
X019097Y010791D03*
X019102Y010786D03*
X019102Y010786D03*
X019247Y010881D03*
X019247Y010881D03*
X019252Y010876D03*
X019252Y010876D03*
X019257Y010866D03*
X019257Y010866D03*
X019222Y010921D03*
X019222Y010921D03*
X018912Y010711D03*
X018912Y010711D03*
X018912Y010611D03*
X018912Y010611D03*
X019242Y010436D03*
X019242Y010436D03*
X019247Y010441D03*
X019247Y010441D03*
X019222Y010401D03*
X019222Y010401D03*
X019412Y010376D03*
X019412Y010376D03*
X019412Y010371D03*
X019412Y010371D03*
X019417Y010381D03*
X019417Y010381D03*
X019422Y010391D03*
X019422Y010391D03*
X019427Y010396D03*
X019427Y010396D03*
X019427Y010401D03*
X019427Y010401D03*
X019432Y010406D03*
X019432Y010406D03*
X019052Y011326D03*
X019052Y011326D03*
X019057Y011336D03*
X019057Y011336D03*
X019062Y011341D03*
X019062Y011341D03*
X019062Y011346D03*
X019062Y011346D03*
X018912Y011431D03*
X018912Y011431D03*
X018907Y011426D03*
X018907Y011426D03*
X018902Y011416D03*
X018902Y011416D03*
X018937Y011471D03*
X018937Y011471D03*
X018937Y011476D03*
X018937Y011476D03*
X018812Y011596D03*
X018812Y011596D03*
X018772Y011536D03*
X018772Y011536D03*
X018767Y011531D03*
X018767Y011531D03*
X018762Y011521D03*
X018762Y011521D03*
X018757Y011516D03*
X018757Y011516D03*
X018757Y011511D03*
X018757Y011511D03*
X018752Y011506D03*
X018752Y011506D03*
X018747Y011496D03*
X018747Y011496D03*
X018892Y011711D03*
X018892Y011711D03*
X018892Y011811D03*
X018892Y011811D03*
X019082Y011886D03*
X019082Y011886D03*
X019087Y011881D03*
X019087Y011881D03*
X019227Y011981D03*
X019227Y011981D03*
X019227Y011986D03*
X019227Y011986D03*
X019222Y011991D03*
X019222Y011991D03*
X019207Y012016D03*
X019207Y012016D03*
X019327Y012146D03*
X019327Y012146D03*
X019382Y012061D03*
X019382Y012061D03*
X019387Y012051D03*
X019387Y012051D03*
X019392Y012046D03*
X019392Y012046D03*
X019392Y012041D03*
X019392Y012041D03*
X019397Y012036D03*
X019397Y012036D03*
X019402Y012026D03*
X019402Y012026D03*
X019407Y012016D03*
X019407Y012016D03*
X019412Y012006D03*
X019412Y012006D03*
X019087Y011641D03*
X019087Y011641D03*
X019082Y011636D03*
X019082Y011636D03*
X019222Y011531D03*
X019222Y011531D03*
X019227Y011536D03*
X019227Y011536D03*
X019207Y011506D03*
X019207Y011506D03*
X019367Y011436D03*
X019367Y011436D03*
X019372Y011441D03*
X019372Y011441D03*
X019377Y011451D03*
X019377Y011451D03*
X019382Y011461D03*
X019382Y011461D03*
X019387Y011466D03*
X019387Y011466D03*
X019387Y011471D03*
X019387Y011471D03*
X019392Y011476D03*
X019392Y011476D03*
X019327Y011376D03*
X019327Y011376D03*
D35*
X019330Y011351D03*
X019330Y011351D03*
X019250Y011281D03*
X019250Y011281D03*
X019060Y011376D03*
X019060Y011376D03*
X018935Y011501D03*
X018935Y011501D03*
X019085Y011601D03*
X019085Y011601D03*
X019210Y011476D03*
X019210Y011476D03*
X019595Y011356D03*
X019595Y011356D03*
X019820Y011501D03*
X019820Y011501D03*
X020200Y011481D03*
X020200Y011481D03*
X020200Y011476D03*
X020200Y011476D03*
X020200Y011441D03*
X020200Y011441D03*
X020200Y011436D03*
X020200Y011436D03*
X020385Y011351D03*
X020385Y011351D03*
X020570Y011286D03*
X020570Y011286D03*
X020570Y011281D03*
X020570Y011281D03*
X020570Y011276D03*
X020570Y011276D03*
X020740Y011276D03*
X020740Y011276D03*
X020740Y011271D03*
X020740Y011271D03*
X020740Y011266D03*
X020740Y011266D03*
X020740Y011261D03*
X020740Y011261D03*
X020740Y011256D03*
X020740Y011256D03*
X020740Y011251D03*
X020740Y011251D03*
X020740Y011246D03*
X020740Y011246D03*
X020745Y011236D03*
X020745Y011236D03*
X020745Y011231D03*
X020745Y011231D03*
X020745Y011226D03*
X020745Y011226D03*
X020750Y011221D03*
X020750Y011221D03*
X020750Y011216D03*
X020750Y011216D03*
X020755Y011211D03*
X020755Y011211D03*
X020760Y011206D03*
X020760Y011206D03*
X020815Y011166D03*
X020815Y011166D03*
X020880Y011196D03*
X020880Y011196D03*
X020740Y011281D03*
X020740Y011281D03*
X020745Y011296D03*
X020745Y011296D03*
X020750Y011311D03*
X020750Y011311D03*
X020760Y011326D03*
X020760Y011326D03*
X020765Y011331D03*
X020765Y011331D03*
X021090Y011366D03*
X021090Y011366D03*
X021090Y011371D03*
X021090Y011371D03*
X021090Y011376D03*
X021090Y011376D03*
X021090Y011381D03*
X021090Y011381D03*
X021095Y011401D03*
X021095Y011401D03*
X021105Y011421D03*
X021105Y011421D03*
X021110Y011426D03*
X021110Y011426D03*
X021115Y011431D03*
X021115Y011431D03*
X021435Y011286D03*
X021435Y011286D03*
X021435Y011281D03*
X021435Y011281D03*
X021440Y011291D03*
X021440Y011291D03*
X021440Y011296D03*
X021440Y011296D03*
X021445Y011301D03*
X021445Y011301D03*
X021450Y011311D03*
X021450Y011311D03*
X021455Y011316D03*
X021455Y011316D03*
X021460Y011321D03*
X021460Y011321D03*
X021465Y011326D03*
X021465Y011326D03*
X021430Y011271D03*
X021430Y011271D03*
X021430Y011266D03*
X021430Y011266D03*
X021425Y011246D03*
X021425Y011246D03*
X021425Y011176D03*
X021425Y011176D03*
X021430Y011156D03*
X021430Y011156D03*
X021430Y011151D03*
X021430Y011151D03*
X021435Y011141D03*
X021435Y011141D03*
X021435Y011136D03*
X021435Y011136D03*
X021440Y011126D03*
X021440Y011126D03*
X021445Y011121D03*
X021445Y011121D03*
X021445Y011116D03*
X021445Y011116D03*
X021450Y011111D03*
X021450Y011111D03*
X021455Y011106D03*
X021455Y011106D03*
X021460Y011101D03*
X021460Y011101D03*
X021605Y011096D03*
X021605Y011096D03*
X021610Y011101D03*
X021610Y011101D03*
X021615Y011106D03*
X021615Y011106D03*
X021620Y011111D03*
X021620Y011111D03*
X021625Y011116D03*
X021625Y011116D03*
X021625Y011121D03*
X021625Y011121D03*
X021630Y011126D03*
X021630Y011126D03*
X021630Y011131D03*
X021630Y011131D03*
X021635Y011136D03*
X021635Y011136D03*
X021635Y011141D03*
X021635Y011141D03*
X021640Y011151D03*
X021640Y011151D03*
X021640Y011156D03*
X021640Y011156D03*
X021645Y011176D03*
X021645Y011176D03*
X021645Y011246D03*
X021645Y011246D03*
X021640Y011266D03*
X021640Y011266D03*
X021640Y011271D03*
X021640Y011271D03*
X021635Y011281D03*
X021635Y011281D03*
X021635Y011286D03*
X021635Y011286D03*
X021630Y011291D03*
X021630Y011291D03*
X021630Y011296D03*
X021630Y011296D03*
X021625Y011301D03*
X021625Y011301D03*
X021625Y011306D03*
X021625Y011306D03*
X021620Y011311D03*
X021620Y011311D03*
X021615Y011316D03*
X021615Y011316D03*
X021610Y011321D03*
X021610Y011321D03*
X021275Y011151D03*
X021275Y011151D03*
X021275Y011146D03*
X021275Y011146D03*
X021275Y011141D03*
X021275Y011141D03*
X021270Y011136D03*
X021270Y011136D03*
X021270Y011131D03*
X021270Y011131D03*
X021265Y011121D03*
X021265Y011121D03*
X021260Y011116D03*
X021260Y011116D03*
X020940Y011036D03*
X020940Y011036D03*
X020940Y011031D03*
X020940Y011031D03*
X020900Y010961D03*
X020900Y010961D03*
X020735Y010986D03*
X020735Y010986D03*
X020730Y010991D03*
X020730Y010991D03*
X020730Y010996D03*
X020730Y010996D03*
X020730Y011001D03*
X020730Y011001D03*
X020005Y011276D03*
X020005Y011276D03*
X020005Y011281D03*
X020005Y011281D03*
X020005Y011286D03*
X020005Y011286D03*
X020000Y011296D03*
X020000Y011296D03*
X019600Y011126D03*
X019600Y011126D03*
X019600Y011121D03*
X019600Y011121D03*
X019350Y011071D03*
X019350Y011071D03*
X019225Y010946D03*
X019225Y010946D03*
X019100Y010821D03*
X019100Y010821D03*
X018935Y010931D03*
X018935Y010931D03*
X018810Y010806D03*
X018810Y010806D03*
X019100Y010501D03*
X019100Y010501D03*
X019225Y010376D03*
X019225Y010376D03*
X022040Y011096D03*
X022040Y011096D03*
X019330Y012171D03*
X019330Y012171D03*
X019210Y012046D03*
X019210Y012046D03*
X019085Y011921D03*
X019085Y011921D03*
D36*
X019085Y011916D03*
X019085Y011916D03*
X019210Y012041D03*
X019210Y012041D03*
X019330Y012166D03*
X019330Y012166D03*
X019085Y011606D03*
X019085Y011606D03*
X018895Y011696D03*
X018895Y011696D03*
X019060Y011371D03*
X019060Y011371D03*
X019330Y011356D03*
X019330Y011356D03*
X019590Y011351D03*
X019590Y011351D03*
X019605Y011106D03*
X019605Y011106D03*
X019350Y011066D03*
X019350Y011066D03*
X019225Y010941D03*
X019225Y010941D03*
X019100Y010816D03*
X019100Y010816D03*
X018935Y010936D03*
X018935Y010936D03*
X019060Y011061D03*
X019060Y011061D03*
X018810Y010811D03*
X018810Y010811D03*
X019100Y010506D03*
X019100Y010506D03*
X019225Y010381D03*
X019225Y010381D03*
X020740Y010976D03*
X020740Y010976D03*
X020745Y010971D03*
X020745Y010971D03*
X020750Y010966D03*
X020750Y010966D03*
X021085Y011096D03*
X021085Y011096D03*
X021245Y011101D03*
X021245Y011101D03*
X021275Y011171D03*
X021275Y011171D03*
X021275Y011176D03*
X021275Y011176D03*
X021275Y011181D03*
X021275Y011181D03*
X021475Y011091D03*
X021475Y011091D03*
X021595Y011091D03*
X021595Y011091D03*
X021800Y011181D03*
X021800Y011181D03*
X021800Y011186D03*
X021800Y011186D03*
X021795Y011196D03*
X021795Y011196D03*
X021795Y011201D03*
X021795Y011201D03*
X021790Y011211D03*
X021790Y011211D03*
X021790Y011216D03*
X021790Y011216D03*
X021790Y011221D03*
X021790Y011221D03*
X021790Y011226D03*
X021790Y011226D03*
X021785Y011236D03*
X021785Y011236D03*
X021785Y011241D03*
X021785Y011241D03*
X021785Y011246D03*
X021785Y011246D03*
X021785Y011251D03*
X021785Y011251D03*
X021785Y011256D03*
X021785Y011256D03*
X021785Y011261D03*
X021785Y011261D03*
X021785Y011266D03*
X021785Y011266D03*
X021785Y011271D03*
X021785Y011271D03*
X021785Y011276D03*
X021785Y011276D03*
X021785Y011281D03*
X021785Y011281D03*
X021785Y011286D03*
X021785Y011286D03*
X021785Y011291D03*
X021785Y011291D03*
X021785Y011296D03*
X021785Y011296D03*
X021785Y011301D03*
X021785Y011301D03*
X021790Y011311D03*
X021790Y011311D03*
X021790Y011316D03*
X021790Y011316D03*
X021790Y011321D03*
X021790Y011321D03*
X021790Y011326D03*
X021790Y011326D03*
X021795Y011336D03*
X021795Y011336D03*
X021795Y011341D03*
X021795Y011341D03*
X021800Y011351D03*
X021800Y011351D03*
X021800Y011356D03*
X021800Y011356D03*
X021805Y011366D03*
X021805Y011366D03*
X021810Y011376D03*
X021810Y011376D03*
X021815Y011386D03*
X021815Y011386D03*
X021820Y011391D03*
X021820Y011391D03*
X021820Y011396D03*
X021820Y011396D03*
X021825Y011401D03*
X021825Y011401D03*
X021830Y011406D03*
X021830Y011406D03*
X021835Y011411D03*
X021835Y011411D03*
X021840Y011416D03*
X021840Y011416D03*
X022035Y011441D03*
X022035Y011441D03*
X021805Y011171D03*
X021805Y011171D03*
X021810Y011161D03*
X021810Y011161D03*
X021815Y011156D03*
X021815Y011156D03*
X021815Y011151D03*
X021815Y011151D03*
X021820Y011146D03*
X021820Y011146D03*
X021825Y011141D03*
X021825Y011141D03*
X021830Y011131D03*
X021830Y011131D03*
X021605Y011326D03*
X021605Y011326D03*
X021595Y011331D03*
X021595Y011331D03*
X021475Y011331D03*
X021475Y011331D03*
X021095Y011351D03*
X021095Y011351D03*
X020770Y011196D03*
X020770Y011196D03*
X020200Y011446D03*
X020200Y011446D03*
X020200Y011451D03*
X020200Y011451D03*
X020200Y011456D03*
X020200Y011456D03*
X020200Y011461D03*
X020200Y011461D03*
X020200Y011466D03*
X020200Y011466D03*
X020200Y011471D03*
X020200Y011471D03*
D37*
X020185Y011341D03*
X020185Y011341D03*
X019960Y011356D03*
X019960Y011356D03*
X019330Y011361D03*
X019330Y011361D03*
X019250Y011276D03*
X019250Y011276D03*
X019025Y011251D03*
X019025Y011251D03*
X019020Y011216D03*
X019020Y011216D03*
X019020Y011211D03*
X019020Y011211D03*
X019020Y011201D03*
X019020Y011201D03*
X019025Y011176D03*
X019025Y011176D03*
X019060Y011066D03*
X019060Y011066D03*
X018935Y010941D03*
X018935Y010941D03*
X018810Y010816D03*
X018810Y010816D03*
X019100Y010811D03*
X019100Y010811D03*
X019135Y010711D03*
X019135Y010711D03*
X019135Y010706D03*
X019135Y010706D03*
X019135Y010616D03*
X019135Y010616D03*
X019135Y010611D03*
X019135Y010611D03*
X019100Y010511D03*
X019100Y010511D03*
X019225Y010386D03*
X019225Y010386D03*
X019315Y010626D03*
X019315Y010626D03*
X019315Y010631D03*
X019315Y010631D03*
X019315Y010636D03*
X019315Y010636D03*
X019315Y010641D03*
X019315Y010641D03*
X019315Y010646D03*
X019315Y010646D03*
X019315Y010651D03*
X019315Y010651D03*
X019315Y010656D03*
X019315Y010656D03*
X019315Y010661D03*
X019315Y010661D03*
X019315Y010666D03*
X019315Y010666D03*
X019315Y010671D03*
X019315Y010671D03*
X019315Y010676D03*
X019315Y010676D03*
X019315Y010681D03*
X019315Y010681D03*
X019315Y010686D03*
X019315Y010686D03*
X019315Y010691D03*
X019315Y010691D03*
X019315Y010696D03*
X019315Y010696D03*
X019225Y010936D03*
X019225Y010936D03*
X019350Y011061D03*
X019350Y011061D03*
X018680Y011116D03*
X018680Y011116D03*
X018680Y011311D03*
X018680Y011311D03*
X019085Y011611D03*
X019085Y011611D03*
X019085Y011911D03*
X019085Y011911D03*
X019330Y012161D03*
X019330Y012161D03*
X020525Y011356D03*
X020525Y011356D03*
X021130Y011441D03*
X021130Y011441D03*
X021270Y011191D03*
X021270Y011191D03*
X020755Y010961D03*
X020755Y010961D03*
X021855Y011111D03*
X021855Y011111D03*
X021860Y011431D03*
X021860Y011431D03*
D38*
X021870Y011101D03*
X021870Y011101D03*
X021260Y011206D03*
X021260Y011206D03*
X021115Y011321D03*
X021115Y011321D03*
X021110Y011326D03*
X021110Y011326D03*
X020800Y011116D03*
X020800Y011116D03*
X019840Y011311D03*
X019840Y011311D03*
X019805Y011491D03*
X019805Y011491D03*
X019460Y011651D03*
X019460Y011651D03*
X019460Y011656D03*
X019460Y011656D03*
X019455Y011636D03*
X019455Y011636D03*
X019455Y011631D03*
X019455Y011631D03*
X019455Y011626D03*
X019455Y011626D03*
X019450Y011621D03*
X019450Y011621D03*
X019450Y011616D03*
X019450Y011616D03*
X019450Y011611D03*
X019450Y011611D03*
X019445Y011601D03*
X019445Y011601D03*
X019445Y011596D03*
X019445Y011596D03*
X019465Y011681D03*
X019465Y011681D03*
X019465Y011686D03*
X019465Y011686D03*
X019465Y011691D03*
X019465Y011691D03*
X019465Y011696D03*
X019465Y011696D03*
X019465Y011701D03*
X019465Y011701D03*
X019465Y011816D03*
X019465Y011816D03*
X019465Y011821D03*
X019465Y011821D03*
X019460Y011861D03*
X019460Y011861D03*
X019460Y011866D03*
X019460Y011866D03*
X019455Y011886D03*
X019455Y011886D03*
X019455Y011891D03*
X019455Y011891D03*
X019450Y011901D03*
X019450Y011901D03*
X019450Y011906D03*
X019450Y011906D03*
X019435Y011951D03*
X019435Y011951D03*
X019275Y011896D03*
X019275Y011896D03*
X019275Y011891D03*
X019275Y011891D03*
X019275Y011886D03*
X019275Y011886D03*
X019280Y011881D03*
X019280Y011881D03*
X019280Y011876D03*
X019280Y011876D03*
X019280Y011871D03*
X019280Y011871D03*
X019285Y011861D03*
X019285Y011861D03*
X019290Y011841D03*
X019290Y011841D03*
X019290Y011836D03*
X019290Y011836D03*
X019295Y011806D03*
X019295Y011806D03*
X019295Y011716D03*
X019295Y011716D03*
X019290Y011686D03*
X019290Y011686D03*
X019285Y011661D03*
X019285Y011661D03*
X019280Y011651D03*
X019280Y011651D03*
X019280Y011646D03*
X019280Y011646D03*
X019280Y011641D03*
X019280Y011641D03*
X019275Y011636D03*
X019275Y011636D03*
X019275Y011631D03*
X019275Y011631D03*
X019275Y011626D03*
X019275Y011626D03*
X019270Y011616D03*
X019270Y011616D03*
X019265Y011606D03*
X019265Y011606D03*
X019110Y011686D03*
X019110Y011686D03*
X019110Y011691D03*
X019110Y011691D03*
X019115Y011696D03*
X019115Y011696D03*
X019115Y011701D03*
X019115Y011701D03*
X019105Y011676D03*
X019105Y011676D03*
X019100Y011666D03*
X019100Y011666D03*
X019080Y011621D03*
X019080Y011621D03*
X019120Y011731D03*
X019120Y011731D03*
X019120Y011791D03*
X019120Y011791D03*
X019115Y011821D03*
X019115Y011821D03*
X019115Y011826D03*
X019115Y011826D03*
X019110Y011831D03*
X019110Y011831D03*
X019110Y011836D03*
X019110Y011836D03*
X019105Y011846D03*
X019105Y011846D03*
X019100Y011856D03*
X019100Y011856D03*
X019080Y011901D03*
X019080Y011901D03*
X019265Y011916D03*
X019265Y011916D03*
X019270Y011901D03*
X019270Y011901D03*
X019330Y012156D03*
X019330Y012156D03*
X019330Y011366D03*
X019330Y011366D03*
X019250Y011271D03*
X019250Y011271D03*
X019065Y011356D03*
X019065Y011356D03*
X019040Y011301D03*
X019040Y011301D03*
X019035Y011291D03*
X019035Y011291D03*
X019035Y011286D03*
X019035Y011286D03*
X019030Y011281D03*
X019030Y011281D03*
X019030Y011276D03*
X019030Y011276D03*
X019030Y011156D03*
X019030Y011156D03*
X019030Y011151D03*
X019030Y011151D03*
X019030Y011146D03*
X019030Y011146D03*
X019035Y011141D03*
X019035Y011141D03*
X019035Y011136D03*
X019035Y011136D03*
X019040Y011126D03*
X019040Y011126D03*
X018870Y011081D03*
X018870Y011081D03*
X018865Y011091D03*
X018865Y011091D03*
X018865Y011096D03*
X018865Y011096D03*
X018865Y011101D03*
X018865Y011101D03*
X018860Y011106D03*
X018860Y011106D03*
X018860Y011111D03*
X018860Y011111D03*
X018855Y011126D03*
X018855Y011126D03*
X018855Y011131D03*
X018855Y011131D03*
X018855Y011136D03*
X018855Y011136D03*
X018850Y011151D03*
X018850Y011151D03*
X018850Y011156D03*
X018850Y011156D03*
X018850Y011161D03*
X018850Y011161D03*
X018850Y011166D03*
X018850Y011166D03*
X018850Y011261D03*
X018850Y011261D03*
X018850Y011266D03*
X018850Y011266D03*
X018850Y011271D03*
X018850Y011271D03*
X018850Y011276D03*
X018850Y011276D03*
X018855Y011291D03*
X018855Y011291D03*
X018855Y011296D03*
X018855Y011296D03*
X018855Y011301D03*
X018855Y011301D03*
X018860Y011316D03*
X018860Y011316D03*
X018860Y011321D03*
X018860Y011321D03*
X018865Y011331D03*
X018865Y011331D03*
X018865Y011336D03*
X018865Y011336D03*
X018870Y011346D03*
X018870Y011346D03*
X018700Y011381D03*
X018700Y011381D03*
X018700Y011386D03*
X018700Y011386D03*
X018700Y011391D03*
X018700Y011391D03*
X018705Y011401D03*
X018705Y011401D03*
X018705Y011406D03*
X018705Y011406D03*
X018715Y011431D03*
X018715Y011431D03*
X018695Y011376D03*
X018695Y011376D03*
X018695Y011371D03*
X018695Y011371D03*
X018690Y011361D03*
X018690Y011361D03*
X018690Y011356D03*
X018690Y011356D03*
X018690Y011351D03*
X018690Y011351D03*
X018685Y011341D03*
X018685Y011341D03*
X018685Y011336D03*
X018685Y011336D03*
X018685Y011331D03*
X018685Y011331D03*
X018685Y011326D03*
X018685Y011326D03*
X018675Y011276D03*
X018675Y011276D03*
X018675Y011271D03*
X018675Y011271D03*
X018675Y011156D03*
X018675Y011156D03*
X018675Y011151D03*
X018675Y011151D03*
X018675Y011146D03*
X018675Y011146D03*
X018675Y011141D03*
X018675Y011141D03*
X018675Y011136D03*
X018675Y011136D03*
X018685Y011101D03*
X018685Y011101D03*
X018685Y011096D03*
X018685Y011096D03*
X018685Y011091D03*
X018685Y011091D03*
X018685Y011086D03*
X018685Y011086D03*
X018690Y011076D03*
X018690Y011076D03*
X018690Y011071D03*
X018690Y011071D03*
X018690Y011066D03*
X018690Y011066D03*
X018695Y011061D03*
X018695Y011061D03*
X018695Y011056D03*
X018695Y011056D03*
X018695Y011051D03*
X018695Y011051D03*
X018700Y011046D03*
X018700Y011046D03*
X018700Y011041D03*
X018700Y011041D03*
X018700Y011036D03*
X018700Y011036D03*
X018705Y011021D03*
X018705Y011021D03*
X018715Y010996D03*
X018715Y010996D03*
X018935Y010946D03*
X018935Y010946D03*
X018810Y010821D03*
X018810Y010821D03*
X019100Y010806D03*
X019100Y010806D03*
X019120Y010751D03*
X019120Y010751D03*
X019125Y010741D03*
X019125Y010741D03*
X019125Y010736D03*
X019125Y010736D03*
X019130Y010731D03*
X019130Y010731D03*
X019130Y010726D03*
X019130Y010726D03*
X019140Y010691D03*
X019140Y010691D03*
X019140Y010686D03*
X019140Y010686D03*
X019140Y010636D03*
X019140Y010636D03*
X019130Y010596D03*
X019130Y010596D03*
X019130Y010591D03*
X019130Y010591D03*
X019125Y010586D03*
X019125Y010586D03*
X019125Y010581D03*
X019125Y010581D03*
X019120Y010571D03*
X019120Y010571D03*
X019100Y010516D03*
X019100Y010516D03*
X019225Y010391D03*
X019225Y010391D03*
X019285Y010511D03*
X019285Y010511D03*
X019290Y010526D03*
X019290Y010526D03*
X019290Y010531D03*
X019290Y010531D03*
X019295Y010536D03*
X019295Y010536D03*
X019295Y010541D03*
X019295Y010541D03*
X019300Y010546D03*
X019300Y010546D03*
X019300Y010551D03*
X019300Y010551D03*
X019300Y010556D03*
X019300Y010556D03*
X019305Y010571D03*
X019305Y010571D03*
X019305Y010576D03*
X019305Y010576D03*
X019310Y010606D03*
X019310Y010606D03*
X019310Y010611D03*
X019310Y010611D03*
X019310Y010716D03*
X019310Y010716D03*
X019310Y010721D03*
X019310Y010721D03*
X019310Y010726D03*
X019310Y010726D03*
X019305Y010746D03*
X019305Y010746D03*
X019305Y010751D03*
X019305Y010751D03*
X019305Y010756D03*
X019305Y010756D03*
X019300Y010766D03*
X019300Y010766D03*
X019300Y010771D03*
X019300Y010771D03*
X019300Y010776D03*
X019300Y010776D03*
X019295Y010781D03*
X019295Y010781D03*
X019295Y010786D03*
X019295Y010786D03*
X019290Y010796D03*
X019290Y010796D03*
X019290Y010801D03*
X019290Y010801D03*
X019285Y010811D03*
X019285Y010811D03*
X019225Y010931D03*
X019225Y010931D03*
X019350Y011056D03*
X019350Y011056D03*
X019460Y010851D03*
X019460Y010851D03*
X019460Y010846D03*
X019460Y010846D03*
X019465Y010831D03*
X019465Y010831D03*
X019465Y010826D03*
X019465Y010826D03*
X019470Y010816D03*
X019470Y010816D03*
X019475Y010801D03*
X019475Y010801D03*
X019475Y010796D03*
X019475Y010796D03*
X019475Y010791D03*
X019475Y010791D03*
X019480Y010786D03*
X019480Y010786D03*
X019480Y010781D03*
X019480Y010781D03*
X019480Y010776D03*
X019480Y010776D03*
X019480Y010771D03*
X019480Y010771D03*
X019480Y010766D03*
X019480Y010766D03*
X019485Y010751D03*
X019485Y010751D03*
X019485Y010746D03*
X019485Y010746D03*
X019485Y010741D03*
X019485Y010741D03*
X019485Y010736D03*
X019485Y010736D03*
X019485Y010731D03*
X019485Y010731D03*
X019485Y010726D03*
X019485Y010726D03*
X019490Y010721D03*
X019490Y010721D03*
X019490Y010716D03*
X019490Y010716D03*
X019490Y010711D03*
X019490Y010711D03*
X019490Y010706D03*
X019490Y010706D03*
X019490Y010701D03*
X019490Y010701D03*
X019490Y010696D03*
X019490Y010696D03*
X019490Y010691D03*
X019490Y010691D03*
X019490Y010686D03*
X019490Y010686D03*
X019490Y010681D03*
X019490Y010681D03*
X019490Y010676D03*
X019490Y010676D03*
X019490Y010671D03*
X019490Y010671D03*
X019490Y010666D03*
X019490Y010666D03*
X019490Y010661D03*
X019490Y010661D03*
X019490Y010656D03*
X019490Y010656D03*
X019490Y010651D03*
X019490Y010651D03*
X019490Y010646D03*
X019490Y010646D03*
X019490Y010641D03*
X019490Y010641D03*
X019490Y010636D03*
X019490Y010636D03*
X019490Y010631D03*
X019490Y010631D03*
X019490Y010626D03*
X019490Y010626D03*
X019490Y010621D03*
X019490Y010621D03*
X019490Y010616D03*
X019490Y010616D03*
X019490Y010611D03*
X019490Y010611D03*
X019490Y010606D03*
X019490Y010606D03*
X019490Y010601D03*
X019490Y010601D03*
X019485Y010576D03*
X019485Y010576D03*
X019485Y010571D03*
X019485Y010571D03*
X019485Y010566D03*
X019485Y010566D03*
X019480Y010556D03*
X019480Y010556D03*
X019480Y010551D03*
X019480Y010551D03*
X019480Y010546D03*
X019480Y010546D03*
X019480Y010541D03*
X019480Y010541D03*
X019475Y010526D03*
X019475Y010526D03*
X019475Y010521D03*
X019475Y010521D03*
X019465Y010491D03*
X019465Y010491D03*
D39*
X019105Y010466D03*
X019105Y010466D03*
X019225Y010981D03*
X019225Y010981D03*
X019720Y011101D03*
X019720Y011101D03*
D40*
X019647Y011071D03*
X019647Y011071D03*
X019252Y011176D03*
X019252Y011176D03*
X019952Y011341D03*
X019952Y011341D03*
X020012Y011086D03*
X020012Y011086D03*
X020577Y011086D03*
X020577Y011086D03*
X020517Y011341D03*
X020517Y011341D03*
X020932Y011321D03*
X020932Y011321D03*
X021227Y011236D03*
X021227Y011236D03*
X018912Y010696D03*
X018912Y010696D03*
X018912Y010691D03*
X018912Y010691D03*
X018912Y010686D03*
X018912Y010686D03*
X018912Y010636D03*
X018912Y010636D03*
X018912Y010631D03*
X018912Y010631D03*
X018912Y010626D03*
X018912Y010626D03*
X018892Y011726D03*
X018892Y011726D03*
X018892Y011731D03*
X018892Y011731D03*
X018892Y011796D03*
X018892Y011796D03*
D41*
X018895Y011791D03*
X018895Y011791D03*
X018895Y011786D03*
X018895Y011786D03*
X018895Y011736D03*
X018895Y011736D03*
X019250Y011246D03*
X019250Y011246D03*
X019250Y011241D03*
X019250Y011241D03*
X019250Y011236D03*
X019250Y011236D03*
X019250Y011231D03*
X019250Y011231D03*
X019250Y011196D03*
X019250Y011196D03*
X019250Y011191D03*
X019250Y011191D03*
X019250Y011186D03*
X019250Y011186D03*
X019250Y011181D03*
X019250Y011181D03*
X019820Y011086D03*
X019820Y011086D03*
X019820Y011081D03*
X019820Y011081D03*
X019820Y011076D03*
X019820Y011076D03*
X019820Y011071D03*
X019820Y011071D03*
X019820Y011066D03*
X019820Y011066D03*
X019820Y011061D03*
X019820Y011061D03*
X020010Y011061D03*
X020010Y011061D03*
X020010Y011066D03*
X020010Y011066D03*
X020010Y011071D03*
X020010Y011071D03*
X020010Y011076D03*
X020010Y011076D03*
X020010Y011081D03*
X020010Y011081D03*
X020385Y011081D03*
X020385Y011081D03*
X020385Y011076D03*
X020385Y011076D03*
X020385Y011071D03*
X020385Y011071D03*
X020385Y011066D03*
X020385Y011066D03*
X020385Y011061D03*
X020385Y011061D03*
X020385Y011086D03*
X020385Y011086D03*
X020575Y011081D03*
X020575Y011081D03*
X020575Y011076D03*
X020575Y011076D03*
X020575Y011071D03*
X020575Y011071D03*
X020575Y011066D03*
X020575Y011066D03*
X020575Y011061D03*
X020575Y011061D03*
X020815Y010936D03*
X020815Y010936D03*
X020930Y011326D03*
X020930Y011326D03*
X021145Y011296D03*
X021145Y011296D03*
X018910Y010681D03*
X018910Y010681D03*
X018910Y010646D03*
X018910Y010646D03*
X018910Y010641D03*
X018910Y010641D03*
D42*
X018912Y010651D03*
X018912Y010651D03*
X018912Y010671D03*
X018912Y010671D03*
X018912Y010676D03*
X018912Y010676D03*
X019647Y011076D03*
X019647Y011076D03*
X019647Y011081D03*
X019647Y011081D03*
X020197Y011086D03*
X020197Y011086D03*
X020822Y011181D03*
X020822Y011181D03*
X020927Y011331D03*
X020927Y011331D03*
X020832Y011351D03*
X020832Y011351D03*
X021152Y011291D03*
X021152Y011291D03*
X021222Y011241D03*
X021222Y011241D03*
X021202Y011471D03*
X021202Y011471D03*
X021537Y011351D03*
X021537Y011351D03*
X021532Y011071D03*
X021532Y011071D03*
X018892Y011741D03*
X018892Y011741D03*
X018892Y011746D03*
X018892Y011746D03*
X018892Y011751D03*
X018892Y011751D03*
X018892Y011776D03*
X018892Y011776D03*
X018892Y011781D03*
X018892Y011781D03*
D43*
X018895Y011771D03*
X018895Y011771D03*
X018895Y011766D03*
X018895Y011766D03*
X019250Y011226D03*
X019250Y011226D03*
X019250Y011221D03*
X019250Y011221D03*
X019250Y011206D03*
X019250Y011206D03*
X019250Y011201D03*
X019250Y011201D03*
X019645Y011091D03*
X019645Y011091D03*
X019645Y011086D03*
X019645Y011086D03*
X019950Y011336D03*
X019950Y011336D03*
X020200Y011081D03*
X020200Y011081D03*
X020200Y011076D03*
X020200Y011076D03*
X020200Y011071D03*
X020200Y011071D03*
X020200Y011066D03*
X020200Y011066D03*
X020200Y011061D03*
X020200Y011061D03*
X020515Y011336D03*
X020515Y011336D03*
X020825Y011106D03*
X020825Y011106D03*
X021160Y011286D03*
X021160Y011286D03*
X021215Y011246D03*
X021215Y011246D03*
X018915Y010666D03*
X018915Y010666D03*
X018910Y010656D03*
X018910Y010656D03*
D44*
X018912Y010661D03*
X018912Y010661D03*
X019642Y011096D03*
X019642Y011096D03*
X019252Y011211D03*
X019252Y011211D03*
X019252Y011216D03*
X019252Y011216D03*
X018892Y011756D03*
X018892Y011756D03*
X018892Y011761D03*
X018892Y011761D03*
X020822Y011186D03*
X020822Y011186D03*
X020887Y011066D03*
X020887Y011066D03*
X020922Y011336D03*
X020922Y011336D03*
X021167Y011281D03*
X021167Y011281D03*
X021202Y011256D03*
X021202Y011256D03*
X021207Y011251D03*
X021207Y011251D03*
D45*
X019350Y011101D03*
X019350Y011101D03*
X019330Y011321D03*
X019330Y011321D03*
X019210Y011446D03*
X019210Y011446D03*
X018935Y011531D03*
X018935Y011531D03*
X019055Y011021D03*
X019055Y011021D03*
X018810Y010776D03*
X018810Y010776D03*
X019210Y012076D03*
X019210Y012076D03*
X019330Y012201D03*
X019330Y012201D03*
D46*
X019330Y012196D03*
X019330Y012196D03*
X019210Y012071D03*
X019210Y012071D03*
X018935Y011526D03*
X018935Y011526D03*
X019210Y011451D03*
X019210Y011451D03*
X019330Y011326D03*
X019330Y011326D03*
X019350Y011096D03*
X019350Y011096D03*
X019055Y011026D03*
X019055Y011026D03*
X019105Y010851D03*
X019105Y010851D03*
X018810Y010781D03*
X018810Y010781D03*
X020200Y011416D03*
X020200Y011416D03*
X020200Y011501D03*
X020200Y011501D03*
D47*
X020215Y011361D03*
X020215Y011361D03*
X020780Y011146D03*
X020780Y011146D03*
X020785Y011156D03*
X020785Y011156D03*
X021285Y011361D03*
X021285Y011361D03*
X019615Y011421D03*
X019615Y011421D03*
X019615Y011426D03*
X019615Y011426D03*
X019330Y011331D03*
X019330Y011331D03*
X019250Y011291D03*
X019250Y011291D03*
X019210Y011456D03*
X019210Y011456D03*
X018935Y011521D03*
X018935Y011521D03*
X019055Y011031D03*
X019055Y011031D03*
X019105Y010846D03*
X019105Y010846D03*
X018810Y010786D03*
X018810Y010786D03*
X019350Y011091D03*
X019350Y011091D03*
X019210Y012066D03*
X019210Y012066D03*
X019330Y012191D03*
X019330Y012191D03*
D48*
X019330Y012186D03*
X019330Y012186D03*
X019210Y012061D03*
X019210Y012061D03*
X018895Y011686D03*
X018895Y011686D03*
X018935Y011516D03*
X018935Y011516D03*
X019210Y011461D03*
X019210Y011461D03*
X019330Y011336D03*
X019330Y011336D03*
X019610Y011401D03*
X019610Y011401D03*
X019610Y011406D03*
X019610Y011406D03*
X019835Y011511D03*
X019835Y011511D03*
X020200Y011496D03*
X020200Y011496D03*
X020200Y011421D03*
X020200Y011421D03*
X020400Y011361D03*
X020400Y011361D03*
X020775Y011136D03*
X020775Y011136D03*
X021065Y011156D03*
X021065Y011156D03*
X021065Y011161D03*
X021065Y011161D03*
X021065Y011166D03*
X021065Y011166D03*
X021065Y011171D03*
X021065Y011171D03*
X021065Y011176D03*
X021065Y011176D03*
X021065Y011181D03*
X021065Y011181D03*
X021285Y011366D03*
X021285Y011366D03*
X021285Y011371D03*
X021285Y011371D03*
X021285Y011376D03*
X021285Y011376D03*
X021285Y011381D03*
X021285Y011381D03*
X021285Y011386D03*
X021285Y011386D03*
X021285Y011391D03*
X021285Y011391D03*
X022055Y011391D03*
X022055Y011391D03*
X022055Y011386D03*
X022055Y011386D03*
X022055Y011381D03*
X022055Y011381D03*
X022055Y011396D03*
X022055Y011396D03*
X022055Y011401D03*
X022055Y011401D03*
X022055Y011406D03*
X022055Y011406D03*
X022055Y011156D03*
X022055Y011156D03*
X022055Y011151D03*
X022055Y011151D03*
X022055Y011146D03*
X022055Y011146D03*
X022055Y011141D03*
X022055Y011141D03*
X022055Y011136D03*
X022055Y011136D03*
X019350Y011086D03*
X019350Y011086D03*
X019055Y011036D03*
X019055Y011036D03*
X019105Y010841D03*
X019105Y010841D03*
X018810Y010791D03*
X018810Y010791D03*
D49*
X018810Y010796D03*
X018810Y010796D03*
X019350Y011081D03*
X019350Y011081D03*
X019250Y011286D03*
X019250Y011286D03*
X019330Y011341D03*
X019330Y011341D03*
X019210Y011466D03*
X019210Y011466D03*
X019060Y011386D03*
X019060Y011386D03*
X018935Y011511D03*
X018935Y011511D03*
X019085Y011591D03*
X019085Y011591D03*
X019605Y011386D03*
X019605Y011386D03*
X019605Y011381D03*
X019605Y011381D03*
X020200Y011426D03*
X020200Y011426D03*
X020200Y011491D03*
X020200Y011491D03*
X020830Y011366D03*
X020830Y011366D03*
X020775Y011126D03*
X020775Y011126D03*
X021070Y011111D03*
X021070Y011111D03*
X021070Y011106D03*
X021070Y011106D03*
X021280Y011426D03*
X021280Y011426D03*
X022050Y011431D03*
X022050Y011431D03*
X022050Y011106D03*
X022050Y011106D03*
X019330Y012181D03*
X019330Y012181D03*
X019210Y012056D03*
X019210Y012056D03*
X019085Y011931D03*
X019085Y011931D03*
D50*
X019087Y011956D03*
X019087Y011956D03*
X018812Y011656D03*
X018812Y011656D03*
X019087Y011566D03*
X019087Y011566D03*
X018932Y010896D03*
X018932Y010896D03*
X019102Y010856D03*
X019102Y010856D03*
D51*
X020817Y010941D03*
X020817Y010941D03*
X020832Y011101D03*
X020832Y011101D03*
X021537Y011346D03*
X021537Y011346D03*
X021962Y011471D03*
X021962Y011471D03*
X021962Y011066D03*
X021962Y011066D03*
D52*
X021535Y011081D03*
X021535Y011081D03*
X021535Y011341D03*
X021535Y011341D03*
X020840Y011096D03*
X020840Y011096D03*
X020820Y010946D03*
X020820Y010946D03*
D53*
X020820Y010951D03*
X020820Y010951D03*
X020855Y011081D03*
X020855Y011081D03*
X021205Y011456D03*
X021205Y011456D03*
D54*
X021197Y011446D03*
X021197Y011446D03*
X021152Y011081D03*
X021152Y011081D03*
X020822Y010956D03*
X020822Y010956D03*
D55*
X021150Y011066D03*
X021150Y011066D03*
X021195Y011261D03*
X021195Y011261D03*
X021190Y011266D03*
X021190Y011266D03*
X021180Y011271D03*
X021180Y011271D03*
X021175Y011276D03*
X021175Y011276D03*
X021535Y011076D03*
X021535Y011076D03*
D56*
X021960Y011081D03*
X021960Y011081D03*
X021160Y011091D03*
X021160Y011091D03*
X020850Y011071D03*
X020850Y011071D03*
D57*
X021147Y011071D03*
X021147Y011071D03*
X019627Y011341D03*
X019627Y011341D03*
D58*
X019622Y011336D03*
X019622Y011336D03*
X019622Y011331D03*
X019622Y011331D03*
X019622Y011326D03*
X019622Y011326D03*
X019622Y011321D03*
X019622Y011321D03*
X019622Y011316D03*
X019622Y011316D03*
X020847Y011086D03*
X020847Y011086D03*
X021962Y011071D03*
X021962Y011071D03*
D59*
X021147Y011076D03*
X021147Y011076D03*
X020857Y011076D03*
X020857Y011076D03*
X021202Y011451D03*
X021202Y011451D03*
D60*
X021965Y011461D03*
X021965Y011461D03*
X021965Y011076D03*
X021965Y011076D03*
D61*
X021962Y011456D03*
X021962Y011456D03*
X021157Y011086D03*
X021157Y011086D03*
D62*
X020845Y011091D03*
X020845Y011091D03*
X021205Y011461D03*
X021205Y011461D03*
X021535Y011336D03*
X021535Y011336D03*
X021965Y011466D03*
X021965Y011466D03*
X021535Y011086D03*
X021535Y011086D03*
D63*
X021957Y011086D03*
X021957Y011086D03*
X021957Y011451D03*
X021957Y011451D03*
X019907Y011331D03*
X019907Y011331D03*
D64*
X019912Y011316D03*
X019912Y011316D03*
X021952Y011446D03*
X021952Y011446D03*
X021952Y011091D03*
X021952Y011091D03*
D65*
X020822Y011191D03*
X020822Y011191D03*
X019632Y011346D03*
X019632Y011346D03*
D66*
X020457Y011316D03*
X020457Y011316D03*
D67*
X019910Y011321D03*
X019910Y011321D03*
X019910Y011326D03*
X019910Y011326D03*
D68*
X020455Y011326D03*
X020455Y011326D03*
X020455Y011321D03*
X020455Y011321D03*
D69*
X020452Y011331D03*
X020452Y011331D03*
D70*
X020872Y011341D03*
X020872Y011341D03*
D71*
X020875Y011346D03*
X020875Y011346D03*
D72*
X021205Y011466D03*
X021205Y011466D03*
D73*
X019207Y012081D03*
X019207Y012081D03*
D74*
X001897Y002963D02*
X001897Y002863D01*
X001897Y002913D02*
X001747Y002913D01*
X001797Y002863D01*
X001747Y002816D02*
X001747Y002766D01*
X001747Y002791D02*
X001872Y002791D01*
X001897Y002766D01*
X001897Y002741D01*
X001872Y002716D01*
M02*
