%
M48
M72
T01C0.0140
T02C0.0276
T03C0.0400
T04C0.0787
%
T01
X6952Y3911
X7352Y4411
X9052Y4411
X9552Y4811
X9052Y5511
X8352Y5611
X8352Y6211
X7152Y6711
X8352Y7511
X9052Y7311
X10052Y7611
X12452Y6511
X12752Y6911
X14452Y6911
X16552Y5811
X17502Y5811
X19452Y5711
X20252Y5211
X21052Y4411
X21752Y3911
X18652Y4011
X15652Y3011
X15452Y3511
X14752Y3511
X14452Y3011
X13252Y4011
X13252Y4711
X11852Y4711
X11552Y3811
X11452Y3011
X9952Y5911
X14052Y8011
X17052Y7311
X19052Y8111
X18652Y8411
X17952Y8411
X17152Y8411
X19452Y7711
X20252Y6911
X21052Y6511
X15652Y10011
X16652Y11761
X6752Y9011
X5452Y8511
X4052Y7611
X4052Y7061
X4152Y5711
X2652Y5311
X3402Y4361
X3752Y9811
X1952Y9811
T02
X2502Y3605
X2502Y2817
T03
X4952Y1811
X5952Y1811
X6952Y1811
X7952Y1811
X8952Y1811
X9952Y1811
X10952Y1811
X11952Y1811
X12952Y1811
X13952Y1811
X14952Y1811
X15952Y1811
X15952Y10811
X14952Y10811
X13952Y10811
X12952Y10811
X11952Y10811
X10952Y10811
X9952Y10811
X8952Y10811
X7952Y10811
X6952Y10811
X5952Y10811
X4952Y10811
T04
X2102Y1061
X18102Y1061
X18102Y11561
X2102Y11561
M30
